M48
; DRILL file {KiCad (6.0.1)} date Fri Nov 11 18:10:02 2022
; FORMAT={-:-/ absolute / inch / decimal}
; #@! TF.CreationDate,2022-11-11T18:10:02-08:00
; #@! TF.GenerationSoftware,Kicad,Pcbnew,(6.0.1)
; #@! TF.FileFunction,Plated,1,2,PTH
FMAT,2
INCH
; #@! TA.AperFunction,Plated,PTH,ViaDrill
T1C0.0157
; #@! TA.AperFunction,Plated,PTH,ComponentDrill
T2C0.0315
; #@! TA.AperFunction,Plated,PTH,ComponentDrill
T3C0.0354
; #@! TA.AperFunction,Plated,PTH,ComponentDrill
T4C0.0394
; #@! TA.AperFunction,Plated,PTH,ComponentDrill
T5C0.0433
; #@! TA.AperFunction,Plated,PTH,ComponentDrill
T6C0.0591
; #@! TA.AperFunction,Plated,PTH,ComponentDrill
T7C0.0630
; #@! TA.AperFunction,Plated,PTH,ComponentDrill
T8C0.0728
; #@! TA.AperFunction,Plated,PTH,ComponentDrill
T9C0.1260
%
G90
G05
T1
X2.0705Y-5.0705
X2.1918Y-4.1458
X2.2608Y-5.0344
X2.4596Y-5.7549
X2.5081Y-3.2697
X2.5197Y-5.0683
X2.5197Y-5.561
X2.664Y-4.7565
X2.8071Y-4.7559
X3.0896Y-5.748
X3.2362Y-4.0492
X3.3238Y-5.748
X3.4144Y-3.9016
X3.4173Y-5.128
X3.5165Y-4.7563
X3.5173Y-5.0988
X3.5711Y-5.0683
X3.6173Y-5.0344
X3.6939Y-5.1289
X3.7185Y-4.1722
X3.8179Y-4.2746
X3.8327Y-5.0988
X3.8671Y-5.3327
X3.8671Y-5.6163
X3.9685Y-3.7697
X4.0146Y-5.3967
X4.0636Y-3.4817
X4.1008Y-5.2965
X4.1984Y-5.2461
X4.2882Y-4.0291
X4.4063Y-5.0335
X4.5004Y-5.3327
X4.6878Y-5.1287
X5.0478Y-4.7563
X5.1915Y-5.2947
X5.1929Y-5.6142
X5.2173Y-4.0465
X5.248Y-4.8681
X5.248Y-5.128
X5.3723Y-4.1722
X5.3723Y-5.2965
X5.4008Y-4.7563
X5.5541Y-5.3967
X5.7488Y-3.9476
X5.7488Y-5.6917
T2
X1.6898Y-4.2457
X1.6898Y-4.6457
X1.911Y-4.6382
X1.9949Y-4.1457
X1.9957Y-4.2717
X1.9961Y-4.3961
X2.1921Y-3.9232
X2.1921Y-4.0303
X2.311Y-4.6382
X2.389Y-3.9232
X2.389Y-4.0303
X2.3949Y-4.1457
X2.3957Y-4.2717
X2.3961Y-4.3961
X2.5081Y-3.9459
X2.5081Y-4.0459
X2.5081Y-4.1459
X2.5081Y-4.2459
X2.6398Y-4.3969
X2.7264Y-5.5354
X2.7264Y-5.6142
X2.7264Y-5.6929
X2.8081Y-3.9459
X2.8081Y-4.0459
X2.8081Y-4.1459
X2.8081Y-4.2459
X2.9506Y-4.1713
X2.9514Y-4.0463
X2.9567Y-4.2854
X2.9598Y-3.9311
X3.003Y-3.2677
X3.0039Y-3.0266
X3.0039Y-3.4675
X3.0039Y-3.686
X3.0398Y-4.3969
X3.1535Y-4.2854
X3.1567Y-3.9311
X3.1998Y-3.2677
X3.2008Y-3.0266
X3.2008Y-3.4675
X3.2008Y-3.686
X3.3506Y-4.1713
X3.3514Y-4.0463
X3.5949Y-4.2693
X3.5949Y-4.6693
X3.7677Y-5.5354
X3.7677Y-5.6142
X3.7677Y-5.6929
X4.198Y-4.4008
X4.1984Y-4.6508
X4.1986Y-4.1467
X4.1986Y-4.2746
X4.4051Y-4.0268
X4.4059Y-3.9083
X4.598Y-4.4008
X4.5984Y-4.6508
X4.5986Y-4.1467
X4.5986Y-4.2746
X4.602Y-4.0268
X4.6028Y-3.9083
X4.7476Y-3.9459
X4.7476Y-4.0459
X4.7476Y-4.1459
X4.7476Y-4.2459
X4.8512Y-4.3685
X4.8858Y-5.5354
X4.8858Y-5.6142
X4.8858Y-5.6929
X4.9213Y-3.686
X4.9222Y-3.4675
X4.9242Y-2.9419
X4.9242Y-3.2687
X5.0476Y-3.9459
X5.0476Y-4.0459
X5.0476Y-4.1459
X5.0476Y-4.2459
X5.048Y-4.3685
X5.1181Y-3.686
X5.1191Y-3.4675
X5.1211Y-2.9419
X5.1211Y-3.2687
X5.1634Y-4.2976
X5.1661Y-4.0465
X5.1661Y-4.1703
X5.1728Y-3.9327
X5.3697Y-3.9327
X5.5634Y-4.2976
X5.5661Y-4.0465
X5.5661Y-4.1703
T3
X1.6898Y-4.8819
X1.7898Y-4.8819
X1.9104Y-4.8819
X2.0089Y-5.8268
X2.0104Y-4.8819
X2.1089Y-5.8268
X2.2028Y-5.8268
X2.3028Y-5.8268
X3.1683Y-5.8268
X3.2683Y-5.8268
X3.3622Y-5.8268
X3.4622Y-5.8268
X3.5939Y-5.2461
X3.6939Y-5.2461
X3.8413Y-5.2461
X3.9413Y-5.2461
X4.1713Y-5.8268
X4.2713Y-5.8268
X4.3642Y-5.8268
X4.4642Y-5.8268
X5.3209Y-5.8268
X5.4209Y-5.8268
X5.5148Y-5.8268
X5.6148Y-5.8268
T4
X1.7457Y-5.0673
X1.7457Y-5.1673
X1.7457Y-5.2673
X1.7457Y-5.3673
X1.7457Y-5.4673
X1.8457Y-5.0673
X1.8457Y-5.1673
X1.8457Y-5.2673
X1.8457Y-5.3673
X1.8457Y-5.4673
X3.4173Y-4.8425
X3.4173Y-4.9425
X3.5173Y-4.8425
X3.5173Y-4.9425
X3.6173Y-4.8425
X3.6173Y-4.9425
X3.7173Y-4.8425
X3.7173Y-4.9425
X3.8173Y-4.8425
X3.8173Y-4.9425
X3.9173Y-4.8425
X3.9173Y-4.9425
X4.0173Y-4.8425
X4.0173Y-4.9425
X4.1173Y-4.8425
X4.1173Y-4.9425
X5.5035Y-4.8657
X5.5035Y-4.9657
X5.5035Y-5.0657
X5.5035Y-5.1657
X5.5035Y-5.2657
X5.6035Y-4.8657
X5.6035Y-4.9657
X5.6035Y-5.0657
X5.6035Y-5.1657
X5.6035Y-5.2657
T5
X2.664Y-4.6506
X2.665Y-4.5217
X2.8346Y-3.2677
X2.8346Y-3.3677
X2.8346Y-3.4677
X2.964Y-4.6506
X2.965Y-4.5217
X3.1181Y-4.5217
X3.1181Y-4.6506
X3.4181Y-4.5217
X3.4181Y-4.6506
X4.748Y-3.2677
X4.748Y-3.3677
X4.748Y-3.4677
T6
X1.989Y-5.5748
X2.0736Y-5.5157
X2.2488Y-5.5157
X2.3394Y-5.5748
X2.7264Y-5.4528
X2.7264Y-5.7756
X3.1504Y-5.5748
X3.235Y-5.5157
X3.4102Y-5.5157
X3.5008Y-5.5748
X3.7677Y-5.4528
X3.7677Y-5.7756
X4.1465Y-5.5748
X4.2311Y-5.5157
X4.4063Y-5.5157
X4.4969Y-5.5748
X4.8858Y-5.4528
X4.8858Y-5.7756
X5.2941Y-5.5748
X5.3787Y-5.5157
X5.5539Y-5.5157
X5.6445Y-5.5748
T7
X1.8268Y-5.8268
X2.0307Y-5.6752
X2.185Y-6.122
X2.6575Y-6.122
X2.9528Y-5.8268
X3.1921Y-5.6752
X3.9681Y-5.8268
X4.1882Y-5.6752
X4.8425Y-6.122
X5.113Y-5.8268
X5.315Y-6.122
X5.3358Y-5.6752
T8
X2.6378Y-4.9091
X2.6378Y-5.2091
X2.8878Y-4.9091
X2.8878Y-5.2091
T9
X1.8701Y-1.2992
X1.8701Y-6.122
X5.6701Y-1.2992
X5.6701Y-6.122
T7
G00X2.274Y-5.6752
M15
G01X2.3134Y-5.6752
M16
G05
G00X3.4354Y-5.6752
M15
G01X3.4748Y-5.6752
M16
G05
G00X4.4315Y-5.6752
M15
G01X4.4709Y-5.6752
M16
G05
G00X5.5791Y-5.6752
M15
G01X5.6185Y-5.6752
M16
G05
T0
M30
