G04 #@! TF.GenerationSoftware,KiCad,Pcbnew,(6.0.1)*
G04 #@! TF.CreationDate,2022-11-15T10:27:02-08:00*
G04 #@! TF.ProjectId,PBJ_EU,50424a5f-4555-42e6-9b69-6361645f7063,6.0*
G04 #@! TF.SameCoordinates,Original*
G04 #@! TF.FileFunction,Soldermask,Bot*
G04 #@! TF.FilePolarity,Negative*
%FSLAX46Y46*%
G04 Gerber Fmt 4.6, Leading zero omitted, Abs format (unit mm)*
G04 Created by KiCad (PCBNEW (6.0.1)) date 2022-11-15 10:27:02*
%MOMM*%
%LPD*%
G01*
G04 APERTURE LIST*
G04 Aperture macros list*
%AMRoundRect*
0 Rectangle with rounded corners*
0 $1 Rounding radius*
0 $2 $3 $4 $5 $6 $7 $8 $9 X,Y pos of 4 corners*
0 Add a 4 corners polygon primitive as box body*
4,1,4,$2,$3,$4,$5,$6,$7,$8,$9,$2,$3,0*
0 Add four circle primitives for the rounded corners*
1,1,$1+$1,$2,$3*
1,1,$1+$1,$4,$5*
1,1,$1+$1,$6,$7*
1,1,$1+$1,$8,$9*
0 Add four rect primitives between the rounded corners*
20,1,$1+$1,$2,$3,$4,$5,0*
20,1,$1+$1,$4,$5,$6,$7,0*
20,1,$1+$1,$6,$7,$8,$9,0*
20,1,$1+$1,$8,$9,$2,$3,0*%
G04 Aperture macros list end*
%ADD10RoundRect,0.051000X0.800000X0.800000X-0.800000X0.800000X-0.800000X-0.800000X0.800000X-0.800000X0*%
%ADD11C,1.702000*%
%ADD12RoundRect,0.051000X-0.800000X-0.800000X0.800000X-0.800000X0.800000X0.800000X-0.800000X0.800000X0*%
%ADD13RoundRect,0.051000X-0.800000X0.800000X-0.800000X-0.800000X0.800000X-0.800000X0.800000X0.800000X0*%
%ADD14RoundRect,0.051000X-0.900000X-0.900000X0.900000X-0.900000X0.900000X0.900000X-0.900000X0.900000X0*%
%ADD15C,1.902000*%
%ADD16C,5.102000*%
%ADD17C,2.902000*%
%ADD18C,2.352000*%
%ADD19O,2.702000X1.702000*%
%ADD20O,3.602000X2.302000*%
%ADD21RoundRect,0.051000X-1.250000X0.750000X-1.250000X-0.750000X1.250000X-0.750000X1.250000X0.750000X0*%
%ADD22O,2.602000X1.602000*%
%ADD23RoundRect,0.051000X0.850000X0.850000X-0.850000X0.850000X-0.850000X-0.850000X0.850000X-0.850000X0*%
%ADD24O,1.802000X1.802000*%
%ADD25C,3.102000*%
%ADD26RoundRect,0.051000X0.850000X-0.850000X0.850000X0.850000X-0.850000X0.850000X-0.850000X-0.850000X0*%
%ADD27RoundRect,0.051000X1.200000X0.800000X-1.200000X0.800000X-1.200000X-0.800000X1.200000X-0.800000X0*%
%ADD28O,2.502000X1.702000*%
%ADD29O,1.702000X1.702000*%
%ADD30RoundRect,0.051000X0.952500X1.000000X-0.952500X1.000000X-0.952500X-1.000000X0.952500X-1.000000X0*%
%ADD31O,2.007000X2.102000*%
%ADD32RoundRect,0.051000X1.100000X1.100000X-1.100000X1.100000X-1.100000X-1.100000X1.100000X-1.100000X0*%
%ADD33O,2.302000X2.302000*%
%ADD34C,1.542000*%
G04 APERTURE END LIST*
D10*
X77610000Y-92000000D03*
D11*
X75610000Y-92000000D03*
D12*
X93430000Y-92000000D03*
D11*
X95430000Y-92000000D03*
D13*
X49690000Y-91000000D03*
D11*
X49690000Y-93000000D03*
D12*
X66410000Y-92030000D03*
D11*
X68410000Y-92030000D03*
D14*
X135150000Y-148000000D03*
D15*
X137690000Y-148000000D03*
D16*
X47500000Y-155500000D03*
X144020000Y-155500000D03*
X144020000Y-33000000D03*
X47500000Y-33000000D03*
D17*
X75000000Y-148000000D03*
X129870000Y-148000000D03*
X55500000Y-155500000D03*
X67500000Y-155500000D03*
X46400000Y-148000000D03*
D18*
X80020000Y-141600000D03*
X88920000Y-141600000D03*
X82170000Y-140100000D03*
X86620000Y-140100000D03*
D19*
X87760000Y-144150000D03*
D11*
X81080000Y-144150000D03*
D18*
X51020000Y-141600000D03*
X59920000Y-141600000D03*
X53170000Y-140100000D03*
X57620000Y-140100000D03*
D19*
X58760000Y-144150000D03*
D11*
X52080000Y-144150000D03*
D14*
X56450000Y-148000000D03*
D15*
X58990000Y-148000000D03*
D14*
X140075000Y-148000000D03*
D15*
X142615000Y-148000000D03*
D14*
X110850000Y-148000000D03*
D15*
X113390000Y-148000000D03*
D20*
X69250000Y-138500000D03*
X69250000Y-146700000D03*
D21*
X69250000Y-140600000D03*
D22*
X69250000Y-142600000D03*
X69250000Y-144600000D03*
D17*
X100790000Y-148000000D03*
D18*
X105320000Y-141600000D03*
X114220000Y-141600000D03*
X107470000Y-140100000D03*
X111920000Y-140100000D03*
D19*
X113060000Y-144150000D03*
D11*
X106380000Y-144150000D03*
D18*
X134470000Y-141600000D03*
X143370000Y-141600000D03*
X136620000Y-140100000D03*
X141070000Y-140100000D03*
D19*
X142210000Y-144150000D03*
D11*
X135530000Y-144150000D03*
D14*
X85400000Y-148000000D03*
D15*
X87940000Y-148000000D03*
D14*
X105950000Y-148000000D03*
D15*
X108490000Y-148000000D03*
D20*
X124100000Y-138500000D03*
X124100000Y-146700000D03*
D21*
X124100000Y-140600000D03*
D22*
X124100000Y-142600000D03*
X124100000Y-144600000D03*
D23*
X142330000Y-133750000D03*
D24*
X139790000Y-133750000D03*
X142330000Y-131210000D03*
X139790000Y-131210000D03*
X142330000Y-128670000D03*
X139790000Y-128670000D03*
X142330000Y-126130000D03*
X139790000Y-126130000D03*
X142330000Y-123590000D03*
X139790000Y-123590000D03*
D14*
X91285000Y-133250000D03*
D15*
X93825000Y-133250000D03*
D14*
X48525000Y-124000000D03*
D15*
X51065000Y-124000000D03*
D14*
X97570000Y-133250000D03*
D15*
X100110000Y-133250000D03*
D14*
X51525000Y-148000000D03*
D15*
X54065000Y-148000000D03*
D25*
X73350000Y-124690000D03*
X67000000Y-124690000D03*
X73350000Y-132310000D03*
X67000000Y-132310000D03*
D14*
X80475000Y-148000000D03*
D15*
X83015000Y-148000000D03*
D26*
X86800000Y-125540000D03*
D24*
X86800000Y-123000000D03*
X89340000Y-125540000D03*
X89340000Y-123000000D03*
X91880000Y-125540000D03*
X91880000Y-123000000D03*
X94420000Y-125540000D03*
X94420000Y-123000000D03*
X96960000Y-125540000D03*
X96960000Y-123000000D03*
X99500000Y-125540000D03*
X99500000Y-123000000D03*
X102040000Y-125540000D03*
X102040000Y-123000000D03*
X104580000Y-125540000D03*
X104580000Y-123000000D03*
D20*
X95700000Y-138500000D03*
X95700000Y-146700000D03*
D21*
X95700000Y-140600000D03*
D22*
X95700000Y-142600000D03*
X95700000Y-144600000D03*
D17*
X134990000Y-155500000D03*
D14*
X42920000Y-124000000D03*
D15*
X45460000Y-124000000D03*
D17*
X123000000Y-155500000D03*
D27*
X71325000Y-100225000D03*
D28*
X71325000Y-102765000D03*
X71325000Y-105305000D03*
X71325000Y-107845000D03*
X63705000Y-107845000D03*
X63705000Y-105305000D03*
X63705000Y-102765000D03*
X63705000Y-100225000D03*
D11*
X60680000Y-99650000D03*
X55680000Y-99650000D03*
X80100000Y-108850000D03*
X75100000Y-108850000D03*
X53705000Y-87640000D03*
X48705000Y-87640000D03*
D27*
X128210000Y-100225000D03*
D28*
X128210000Y-102765000D03*
X128210000Y-105305000D03*
X128210000Y-107845000D03*
X120590000Y-107845000D03*
X120590000Y-105305000D03*
X120590000Y-102765000D03*
X120590000Y-100225000D03*
D11*
X106645000Y-105325000D03*
D29*
X116805000Y-105325000D03*
D11*
X50670000Y-105300000D03*
D29*
X60830000Y-105300000D03*
D11*
X85125000Y-102775000D03*
D29*
X74965000Y-102775000D03*
D11*
X141380000Y-102780000D03*
D29*
X131220000Y-102780000D03*
D11*
X80620000Y-87640000D03*
X75620000Y-87640000D03*
X42920000Y-118000000D03*
D29*
X42920000Y-107840000D03*
D11*
X80180000Y-99850000D03*
X75180000Y-99850000D03*
X56260000Y-87630000D03*
D29*
X66420000Y-87630000D03*
D11*
X67050000Y-111680000D03*
D29*
X77210000Y-111680000D03*
D11*
X60850000Y-108500000D03*
D29*
X50690000Y-108500000D03*
D11*
X116890000Y-102280000D03*
X111890000Y-102280000D03*
X116790000Y-111780000D03*
D29*
X106630000Y-111780000D03*
D30*
X58820000Y-84485000D03*
D31*
X56280000Y-84485000D03*
X53740000Y-84485000D03*
D32*
X75310000Y-114850000D03*
D33*
X67690000Y-114850000D03*
D30*
X85700000Y-84485000D03*
D31*
X83160000Y-84485000D03*
X80620000Y-84485000D03*
D32*
X75285000Y-118125000D03*
D33*
X67665000Y-118125000D03*
D11*
X83180000Y-87640000D03*
D29*
X93340000Y-87640000D03*
D11*
X74945000Y-105950000D03*
D29*
X85105000Y-105950000D03*
D11*
X106640000Y-118130000D03*
D29*
X116800000Y-118130000D03*
D23*
X46880000Y-128710000D03*
D24*
X44340000Y-128710000D03*
X46880000Y-131250000D03*
X44340000Y-131250000D03*
X46880000Y-133790000D03*
X44340000Y-133790000D03*
X46880000Y-136330000D03*
X44340000Y-136330000D03*
X46880000Y-138870000D03*
X44340000Y-138870000D03*
D34*
X88220000Y-92010000D03*
X85680000Y-92010000D03*
X83140000Y-92010000D03*
D11*
X60860000Y-111660000D03*
D29*
X50700000Y-111660000D03*
D11*
X131220000Y-105925000D03*
D29*
X141380000Y-105925000D03*
D11*
X116805000Y-108575000D03*
D29*
X106645000Y-108575000D03*
D11*
X48540000Y-117810000D03*
D29*
X58700000Y-117810000D03*
D11*
X136390000Y-99890000D03*
X131390000Y-99890000D03*
X91310000Y-118600000D03*
D29*
X91310000Y-108440000D03*
D11*
X116910000Y-99270000D03*
X111910000Y-99270000D03*
X123220000Y-110960000D03*
X128220000Y-110960000D03*
D32*
X86820000Y-118125000D03*
D33*
X79200000Y-118125000D03*
D32*
X86820000Y-114850000D03*
D33*
X79200000Y-114850000D03*
D34*
X56280000Y-92010000D03*
X58820000Y-92010000D03*
X61360000Y-92010000D03*
D11*
X55680000Y-102370000D03*
X60680000Y-102370000D03*
X131150000Y-109160000D03*
D29*
X141310000Y-109160000D03*
G36*
X123412123Y-145376585D02*
G01*
X123588947Y-145398923D01*
X123600014Y-145399000D01*
X124599884Y-145399000D01*
X124777015Y-145379132D01*
X124931776Y-145325238D01*
X124933741Y-145325613D01*
X124934399Y-145327502D01*
X124933434Y-145328859D01*
X124916871Y-145338422D01*
X124917368Y-145339284D01*
X124917368Y-145341284D01*
X124916765Y-145341935D01*
X124875695Y-145370021D01*
X124848739Y-145433816D01*
X124860553Y-145502062D01*
X124907469Y-145553174D01*
X124941640Y-145566562D01*
X124942887Y-145568125D01*
X124942158Y-145569987D01*
X124940675Y-145570410D01*
X124780002Y-145551393D01*
X124749974Y-145551000D01*
X123450096Y-145551000D01*
X123246221Y-145569734D01*
X123244405Y-145568896D01*
X123244222Y-145566905D01*
X123245510Y-145565813D01*
X123253673Y-145563580D01*
X123312876Y-145527067D01*
X123342811Y-145464612D01*
X123334229Y-145395887D01*
X123289684Y-145342509D01*
X123282961Y-145338325D01*
X123261742Y-145326074D01*
X123260742Y-145324342D01*
X123261742Y-145322610D01*
X123263426Y-145322463D01*
X123412123Y-145376585D01*
G37*
G36*
X68562123Y-145376585D02*
G01*
X68738947Y-145398923D01*
X68750014Y-145399000D01*
X69749884Y-145399000D01*
X69927015Y-145379132D01*
X70081776Y-145325238D01*
X70083741Y-145325613D01*
X70084399Y-145327502D01*
X70083434Y-145328859D01*
X70066871Y-145338422D01*
X70067368Y-145339284D01*
X70067368Y-145341284D01*
X70066765Y-145341935D01*
X70025695Y-145370021D01*
X69998739Y-145433816D01*
X70010553Y-145502062D01*
X70057469Y-145553174D01*
X70091640Y-145566562D01*
X70092887Y-145568125D01*
X70092158Y-145569987D01*
X70090675Y-145570410D01*
X69930002Y-145551393D01*
X69899974Y-145551000D01*
X68600096Y-145551000D01*
X68396221Y-145569734D01*
X68394405Y-145568896D01*
X68394222Y-145566905D01*
X68395510Y-145565813D01*
X68403673Y-145563580D01*
X68462876Y-145527067D01*
X68492811Y-145464612D01*
X68484229Y-145395887D01*
X68439684Y-145342509D01*
X68432961Y-145338325D01*
X68411742Y-145326074D01*
X68410742Y-145324342D01*
X68411742Y-145322610D01*
X68413426Y-145322463D01*
X68562123Y-145376585D01*
G37*
G36*
X95012123Y-145376585D02*
G01*
X95188947Y-145398923D01*
X95200014Y-145399000D01*
X96199884Y-145399000D01*
X96377015Y-145379132D01*
X96531776Y-145325238D01*
X96533741Y-145325613D01*
X96534399Y-145327502D01*
X96533434Y-145328859D01*
X96516871Y-145338422D01*
X96517368Y-145339284D01*
X96517368Y-145341284D01*
X96516765Y-145341935D01*
X96475695Y-145370021D01*
X96448739Y-145433816D01*
X96460553Y-145502062D01*
X96507469Y-145553174D01*
X96541640Y-145566562D01*
X96542887Y-145568125D01*
X96542158Y-145569987D01*
X96540675Y-145570410D01*
X96380002Y-145551393D01*
X96349974Y-145551000D01*
X95050096Y-145551000D01*
X94846221Y-145569734D01*
X94844405Y-145568896D01*
X94844222Y-145566905D01*
X94845510Y-145565813D01*
X94853673Y-145563580D01*
X94912876Y-145527067D01*
X94942811Y-145464612D01*
X94934229Y-145395887D01*
X94889684Y-145342509D01*
X94882961Y-145338325D01*
X94861742Y-145326074D01*
X94860742Y-145324342D01*
X94861742Y-145322610D01*
X94863426Y-145322463D01*
X95012123Y-145376585D01*
G37*
G36*
X125184988Y-139562337D02*
G01*
X125185873Y-139564131D01*
X125185212Y-139565489D01*
X125136344Y-139609281D01*
X125117941Y-139676050D01*
X125138558Y-139742167D01*
X125191713Y-139786697D01*
X125241248Y-139797042D01*
X125242739Y-139798375D01*
X125242330Y-139800333D01*
X125240839Y-139801000D01*
X122962948Y-139801000D01*
X122961216Y-139800000D01*
X122961216Y-139798000D01*
X122962385Y-139797081D01*
X123029397Y-139777405D01*
X123074752Y-139725062D01*
X123084609Y-139656509D01*
X123055816Y-139593462D01*
X123021750Y-139569168D01*
X123020920Y-139567349D01*
X123022081Y-139565720D01*
X123023504Y-139565630D01*
X123211112Y-139623884D01*
X123419998Y-139648607D01*
X123450026Y-139649000D01*
X124749904Y-139649000D01*
X124959388Y-139629751D01*
X125161761Y-139572676D01*
X125182992Y-139562206D01*
X125184988Y-139562337D01*
G37*
G36*
X70334988Y-139562337D02*
G01*
X70335873Y-139564131D01*
X70335212Y-139565489D01*
X70286344Y-139609281D01*
X70267941Y-139676050D01*
X70288558Y-139742167D01*
X70341713Y-139786697D01*
X70391248Y-139797042D01*
X70392739Y-139798375D01*
X70392330Y-139800333D01*
X70390839Y-139801000D01*
X68112948Y-139801000D01*
X68111216Y-139800000D01*
X68111216Y-139798000D01*
X68112385Y-139797081D01*
X68179397Y-139777405D01*
X68224752Y-139725062D01*
X68234609Y-139656509D01*
X68205816Y-139593462D01*
X68171750Y-139569168D01*
X68170920Y-139567349D01*
X68172081Y-139565720D01*
X68173504Y-139565630D01*
X68361112Y-139623884D01*
X68569998Y-139648607D01*
X68600026Y-139649000D01*
X69899904Y-139649000D01*
X70109388Y-139629751D01*
X70311761Y-139572676D01*
X70332992Y-139562206D01*
X70334988Y-139562337D01*
G37*
G36*
X96784988Y-139562337D02*
G01*
X96785873Y-139564131D01*
X96785212Y-139565489D01*
X96736344Y-139609281D01*
X96717941Y-139676050D01*
X96738558Y-139742167D01*
X96791713Y-139786697D01*
X96841248Y-139797042D01*
X96842739Y-139798375D01*
X96842330Y-139800333D01*
X96840839Y-139801000D01*
X94562948Y-139801000D01*
X94561216Y-139800000D01*
X94561216Y-139798000D01*
X94562385Y-139797081D01*
X94629397Y-139777405D01*
X94674752Y-139725062D01*
X94684609Y-139656509D01*
X94655816Y-139593462D01*
X94621750Y-139569168D01*
X94620920Y-139567349D01*
X94622081Y-139565720D01*
X94623504Y-139565630D01*
X94811112Y-139623884D01*
X95019998Y-139648607D01*
X95050026Y-139649000D01*
X96349904Y-139649000D01*
X96559388Y-139629751D01*
X96761761Y-139572676D01*
X96782992Y-139562206D01*
X96784988Y-139562337D01*
G37*
M02*
