G04 #@! TF.GenerationSoftware,KiCad,Pcbnew,(5.1.2)-1*
G04 #@! TF.CreationDate,2021-02-28T11:05:55-08:00*
G04 #@! TF.ProjectId,PBJ EU,50424a20-4555-42e6-9b69-6361645f7063,rev?*
G04 #@! TF.SameCoordinates,Original*
G04 #@! TF.FileFunction,Soldermask,Bot*
G04 #@! TF.FilePolarity,Negative*
%FSLAX46Y46*%
G04 Gerber Fmt 4.6, Leading zero omitted, Abs format (unit mm)*
G04 Created by KiCad (PCBNEW (5.1.2)-1) date 2021-02-28 11:05:55*
%MOMM*%
%LPD*%
G04 APERTURE LIST*
%ADD10C,0.100000*%
G04 APERTURE END LIST*
D10*
G36*
X144764098Y-153047033D02*
G01*
X145228350Y-153239332D01*
X145228352Y-153239333D01*
X145646168Y-153518509D01*
X146001491Y-153873832D01*
X146280667Y-154291648D01*
X146280668Y-154291650D01*
X146472967Y-154755902D01*
X146571000Y-155248747D01*
X146571000Y-155751253D01*
X146472967Y-156244098D01*
X146398052Y-156424959D01*
X146280667Y-156708352D01*
X146001491Y-157126168D01*
X145646168Y-157481491D01*
X145228352Y-157760667D01*
X145228351Y-157760668D01*
X145228350Y-157760668D01*
X144764098Y-157952967D01*
X144271253Y-158051000D01*
X143768747Y-158051000D01*
X143275902Y-157952967D01*
X142811650Y-157760668D01*
X142811649Y-157760668D01*
X142811648Y-157760667D01*
X142393832Y-157481491D01*
X142038509Y-157126168D01*
X141759333Y-156708352D01*
X141641948Y-156424959D01*
X141567033Y-156244098D01*
X141469000Y-155751253D01*
X141469000Y-155248747D01*
X141567033Y-154755902D01*
X141759332Y-154291650D01*
X141759333Y-154291648D01*
X142038509Y-153873832D01*
X142393832Y-153518509D01*
X142811648Y-153239333D01*
X142811650Y-153239332D01*
X143275902Y-153047033D01*
X143768747Y-152949000D01*
X144271253Y-152949000D01*
X144764098Y-153047033D01*
X144764098Y-153047033D01*
G37*
G36*
X48244098Y-153047033D02*
G01*
X48708350Y-153239332D01*
X48708352Y-153239333D01*
X49126168Y-153518509D01*
X49481491Y-153873832D01*
X49760667Y-154291648D01*
X49760668Y-154291650D01*
X49952967Y-154755902D01*
X50051000Y-155248747D01*
X50051000Y-155751253D01*
X49952967Y-156244098D01*
X49878052Y-156424959D01*
X49760667Y-156708352D01*
X49481491Y-157126168D01*
X49126168Y-157481491D01*
X48708352Y-157760667D01*
X48708351Y-157760668D01*
X48708350Y-157760668D01*
X48244098Y-157952967D01*
X47751253Y-158051000D01*
X47248747Y-158051000D01*
X46755902Y-157952967D01*
X46291650Y-157760668D01*
X46291649Y-157760668D01*
X46291648Y-157760667D01*
X45873832Y-157481491D01*
X45518509Y-157126168D01*
X45239333Y-156708352D01*
X45121948Y-156424959D01*
X45047033Y-156244098D01*
X44949000Y-155751253D01*
X44949000Y-155248747D01*
X45047033Y-154755902D01*
X45239332Y-154291650D01*
X45239333Y-154291648D01*
X45518509Y-153873832D01*
X45873832Y-153518509D01*
X46291648Y-153239333D01*
X46291650Y-153239332D01*
X46755902Y-153047033D01*
X47248747Y-152949000D01*
X47751253Y-152949000D01*
X48244098Y-153047033D01*
X48244098Y-153047033D01*
G37*
G36*
X123423241Y-154104760D02*
G01*
X123687305Y-154214139D01*
X123924958Y-154372934D01*
X124127066Y-154575042D01*
X124285861Y-154812695D01*
X124395240Y-155076759D01*
X124451000Y-155357088D01*
X124451000Y-155642912D01*
X124395240Y-155923241D01*
X124285861Y-156187305D01*
X124127066Y-156424958D01*
X123924958Y-156627066D01*
X123687305Y-156785861D01*
X123423241Y-156895240D01*
X123142912Y-156951000D01*
X122857088Y-156951000D01*
X122576759Y-156895240D01*
X122312695Y-156785861D01*
X122075042Y-156627066D01*
X121872934Y-156424958D01*
X121714139Y-156187305D01*
X121604760Y-155923241D01*
X121549000Y-155642912D01*
X121549000Y-155357088D01*
X121604760Y-155076759D01*
X121714139Y-154812695D01*
X121872934Y-154575042D01*
X122075042Y-154372934D01*
X122312695Y-154214139D01*
X122576759Y-154104760D01*
X122857088Y-154049000D01*
X123142912Y-154049000D01*
X123423241Y-154104760D01*
X123423241Y-154104760D01*
G37*
G36*
X135423241Y-154104760D02*
G01*
X135687305Y-154214139D01*
X135924958Y-154372934D01*
X136127066Y-154575042D01*
X136285861Y-154812695D01*
X136395240Y-155076759D01*
X136451000Y-155357088D01*
X136451000Y-155642912D01*
X136395240Y-155923241D01*
X136285861Y-156187305D01*
X136127066Y-156424958D01*
X135924958Y-156627066D01*
X135687305Y-156785861D01*
X135423241Y-156895240D01*
X135142912Y-156951000D01*
X134857088Y-156951000D01*
X134576759Y-156895240D01*
X134312695Y-156785861D01*
X134075042Y-156627066D01*
X133872934Y-156424958D01*
X133714139Y-156187305D01*
X133604760Y-155923241D01*
X133549000Y-155642912D01*
X133549000Y-155357088D01*
X133604760Y-155076759D01*
X133714139Y-154812695D01*
X133872934Y-154575042D01*
X134075042Y-154372934D01*
X134312695Y-154214139D01*
X134576759Y-154104760D01*
X134857088Y-154049000D01*
X135142912Y-154049000D01*
X135423241Y-154104760D01*
X135423241Y-154104760D01*
G37*
G36*
X55923241Y-154104760D02*
G01*
X56187305Y-154214139D01*
X56424958Y-154372934D01*
X56627066Y-154575042D01*
X56785861Y-154812695D01*
X56895240Y-155076759D01*
X56951000Y-155357088D01*
X56951000Y-155642912D01*
X56895240Y-155923241D01*
X56785861Y-156187305D01*
X56627066Y-156424958D01*
X56424958Y-156627066D01*
X56187305Y-156785861D01*
X55923241Y-156895240D01*
X55642912Y-156951000D01*
X55357088Y-156951000D01*
X55076759Y-156895240D01*
X54812695Y-156785861D01*
X54575042Y-156627066D01*
X54372934Y-156424958D01*
X54214139Y-156187305D01*
X54104760Y-155923241D01*
X54049000Y-155642912D01*
X54049000Y-155357088D01*
X54104760Y-155076759D01*
X54214139Y-154812695D01*
X54372934Y-154575042D01*
X54575042Y-154372934D01*
X54812695Y-154214139D01*
X55076759Y-154104760D01*
X55357088Y-154049000D01*
X55642912Y-154049000D01*
X55923241Y-154104760D01*
X55923241Y-154104760D01*
G37*
G36*
X67923241Y-154104760D02*
G01*
X68187305Y-154214139D01*
X68424958Y-154372934D01*
X68627066Y-154575042D01*
X68785861Y-154812695D01*
X68895240Y-155076759D01*
X68951000Y-155357088D01*
X68951000Y-155642912D01*
X68895240Y-155923241D01*
X68785861Y-156187305D01*
X68627066Y-156424958D01*
X68424958Y-156627066D01*
X68187305Y-156785861D01*
X67923241Y-156895240D01*
X67642912Y-156951000D01*
X67357088Y-156951000D01*
X67076759Y-156895240D01*
X66812695Y-156785861D01*
X66575042Y-156627066D01*
X66372934Y-156424958D01*
X66214139Y-156187305D01*
X66104760Y-155923241D01*
X66049000Y-155642912D01*
X66049000Y-155357088D01*
X66104760Y-155076759D01*
X66214139Y-154812695D01*
X66372934Y-154575042D01*
X66575042Y-154372934D01*
X66812695Y-154214139D01*
X67076759Y-154104760D01*
X67357088Y-154049000D01*
X67642912Y-154049000D01*
X67923241Y-154104760D01*
X67923241Y-154104760D01*
G37*
G36*
X83267395Y-147085546D02*
G01*
X83440466Y-147157234D01*
X83440467Y-147157235D01*
X83596227Y-147261310D01*
X83728690Y-147393773D01*
X83728691Y-147393775D01*
X83832766Y-147549534D01*
X83904454Y-147722605D01*
X83941000Y-147906333D01*
X83941000Y-148093667D01*
X83904454Y-148277395D01*
X83832766Y-148450466D01*
X83832765Y-148450467D01*
X83728690Y-148606227D01*
X83596227Y-148738690D01*
X83525632Y-148785860D01*
X83440466Y-148842766D01*
X83267395Y-148914454D01*
X83083667Y-148951000D01*
X82896333Y-148951000D01*
X82712605Y-148914454D01*
X82539534Y-148842766D01*
X82454368Y-148785860D01*
X82383773Y-148738690D01*
X82251310Y-148606227D01*
X82147235Y-148450467D01*
X82147234Y-148450466D01*
X82075546Y-148277395D01*
X82039000Y-148093667D01*
X82039000Y-147906333D01*
X82075546Y-147722605D01*
X82147234Y-147549534D01*
X82251309Y-147393775D01*
X82251310Y-147393773D01*
X82383773Y-147261310D01*
X82539533Y-147157235D01*
X82539534Y-147157234D01*
X82712605Y-147085546D01*
X82896333Y-147049000D01*
X83083667Y-147049000D01*
X83267395Y-147085546D01*
X83267395Y-147085546D01*
G37*
G36*
X101693241Y-146104760D02*
G01*
X101957305Y-146214139D01*
X102194958Y-146372934D01*
X102397066Y-146575042D01*
X102555861Y-146812695D01*
X102665240Y-147076759D01*
X102721000Y-147357088D01*
X102721000Y-147642912D01*
X102665240Y-147923241D01*
X102555861Y-148187305D01*
X102397066Y-148424958D01*
X102194958Y-148627066D01*
X101957305Y-148785861D01*
X101693241Y-148895240D01*
X101412912Y-148951000D01*
X101127088Y-148951000D01*
X100846759Y-148895240D01*
X100582695Y-148785861D01*
X100345042Y-148627066D01*
X100142934Y-148424958D01*
X99984139Y-148187305D01*
X99874760Y-147923241D01*
X99819000Y-147642912D01*
X99819000Y-147357088D01*
X99874760Y-147076759D01*
X99984139Y-146812695D01*
X100142934Y-146575042D01*
X100345042Y-146372934D01*
X100582695Y-146214139D01*
X100846759Y-146104760D01*
X101127088Y-146049000D01*
X101412912Y-146049000D01*
X101693241Y-146104760D01*
X101693241Y-146104760D01*
G37*
G36*
X75423241Y-146104760D02*
G01*
X75687305Y-146214139D01*
X75924958Y-146372934D01*
X76127066Y-146575042D01*
X76285861Y-146812695D01*
X76395240Y-147076759D01*
X76451000Y-147357088D01*
X76451000Y-147642912D01*
X76395240Y-147923241D01*
X76285861Y-148187305D01*
X76127066Y-148424958D01*
X75924958Y-148627066D01*
X75687305Y-148785861D01*
X75423241Y-148895240D01*
X75142912Y-148951000D01*
X74857088Y-148951000D01*
X74576759Y-148895240D01*
X74312695Y-148785861D01*
X74075042Y-148627066D01*
X73872934Y-148424958D01*
X73714139Y-148187305D01*
X73604760Y-147923241D01*
X73549000Y-147642912D01*
X73549000Y-147357088D01*
X73604760Y-147076759D01*
X73714139Y-146812695D01*
X73872934Y-146575042D01*
X74075042Y-146372934D01*
X74312695Y-146214139D01*
X74576759Y-146104760D01*
X74857088Y-146049000D01*
X75142912Y-146049000D01*
X75423241Y-146104760D01*
X75423241Y-146104760D01*
G37*
G36*
X46823241Y-146104760D02*
G01*
X47087305Y-146214139D01*
X47324958Y-146372934D01*
X47527066Y-146575042D01*
X47685861Y-146812695D01*
X47795240Y-147076759D01*
X47851000Y-147357088D01*
X47851000Y-147642912D01*
X47795240Y-147923241D01*
X47685861Y-148187305D01*
X47527066Y-148424958D01*
X47324958Y-148627066D01*
X47087305Y-148785861D01*
X46823241Y-148895240D01*
X46542912Y-148951000D01*
X46257088Y-148951000D01*
X45976759Y-148895240D01*
X45712695Y-148785861D01*
X45475042Y-148627066D01*
X45272934Y-148424958D01*
X45114139Y-148187305D01*
X45004760Y-147923241D01*
X44949000Y-147642912D01*
X44949000Y-147357088D01*
X45004760Y-147076759D01*
X45114139Y-146812695D01*
X45272934Y-146575042D01*
X45475042Y-146372934D01*
X45712695Y-146214139D01*
X45976759Y-146104760D01*
X46257088Y-146049000D01*
X46542912Y-146049000D01*
X46823241Y-146104760D01*
X46823241Y-146104760D01*
G37*
G36*
X51951000Y-148951000D02*
G01*
X50049000Y-148951000D01*
X50049000Y-147049000D01*
X51951000Y-147049000D01*
X51951000Y-148951000D01*
X51951000Y-148951000D01*
G37*
G36*
X53817395Y-147085546D02*
G01*
X53990466Y-147157234D01*
X53990467Y-147157235D01*
X54146227Y-147261310D01*
X54278690Y-147393773D01*
X54278691Y-147393775D01*
X54382766Y-147549534D01*
X54454454Y-147722605D01*
X54491000Y-147906333D01*
X54491000Y-148093667D01*
X54454454Y-148277395D01*
X54382766Y-148450466D01*
X54382765Y-148450467D01*
X54278690Y-148606227D01*
X54146227Y-148738690D01*
X54075632Y-148785860D01*
X53990466Y-148842766D01*
X53817395Y-148914454D01*
X53633667Y-148951000D01*
X53446333Y-148951000D01*
X53262605Y-148914454D01*
X53089534Y-148842766D01*
X53004368Y-148785860D01*
X52933773Y-148738690D01*
X52801310Y-148606227D01*
X52697235Y-148450467D01*
X52697234Y-148450466D01*
X52625546Y-148277395D01*
X52589000Y-148093667D01*
X52589000Y-147906333D01*
X52625546Y-147722605D01*
X52697234Y-147549534D01*
X52801309Y-147393775D01*
X52801310Y-147393773D01*
X52933773Y-147261310D01*
X53089533Y-147157235D01*
X53089534Y-147157234D01*
X53262605Y-147085546D01*
X53446333Y-147049000D01*
X53633667Y-147049000D01*
X53817395Y-147085546D01*
X53817395Y-147085546D01*
G37*
G36*
X106901000Y-148951000D02*
G01*
X104999000Y-148951000D01*
X104999000Y-147049000D01*
X106901000Y-147049000D01*
X106901000Y-148951000D01*
X106901000Y-148951000D01*
G37*
G36*
X108767395Y-147085546D02*
G01*
X108940466Y-147157234D01*
X108940467Y-147157235D01*
X109096227Y-147261310D01*
X109228690Y-147393773D01*
X109228691Y-147393775D01*
X109332766Y-147549534D01*
X109404454Y-147722605D01*
X109441000Y-147906333D01*
X109441000Y-148093667D01*
X109404454Y-148277395D01*
X109332766Y-148450466D01*
X109332765Y-148450467D01*
X109228690Y-148606227D01*
X109096227Y-148738690D01*
X109025632Y-148785860D01*
X108940466Y-148842766D01*
X108767395Y-148914454D01*
X108583667Y-148951000D01*
X108396333Y-148951000D01*
X108212605Y-148914454D01*
X108039534Y-148842766D01*
X107954368Y-148785860D01*
X107883773Y-148738690D01*
X107751310Y-148606227D01*
X107647235Y-148450467D01*
X107647234Y-148450466D01*
X107575546Y-148277395D01*
X107539000Y-148093667D01*
X107539000Y-147906333D01*
X107575546Y-147722605D01*
X107647234Y-147549534D01*
X107751309Y-147393775D01*
X107751310Y-147393773D01*
X107883773Y-147261310D01*
X108039533Y-147157235D01*
X108039534Y-147157234D01*
X108212605Y-147085546D01*
X108396333Y-147049000D01*
X108583667Y-147049000D01*
X108767395Y-147085546D01*
X108767395Y-147085546D01*
G37*
G36*
X88117395Y-147085546D02*
G01*
X88290466Y-147157234D01*
X88290467Y-147157235D01*
X88446227Y-147261310D01*
X88578690Y-147393773D01*
X88578691Y-147393775D01*
X88682766Y-147549534D01*
X88754454Y-147722605D01*
X88791000Y-147906333D01*
X88791000Y-148093667D01*
X88754454Y-148277395D01*
X88682766Y-148450466D01*
X88682765Y-148450467D01*
X88578690Y-148606227D01*
X88446227Y-148738690D01*
X88375632Y-148785860D01*
X88290466Y-148842766D01*
X88117395Y-148914454D01*
X87933667Y-148951000D01*
X87746333Y-148951000D01*
X87562605Y-148914454D01*
X87389534Y-148842766D01*
X87304368Y-148785860D01*
X87233773Y-148738690D01*
X87101310Y-148606227D01*
X86997235Y-148450467D01*
X86997234Y-148450466D01*
X86925546Y-148277395D01*
X86889000Y-148093667D01*
X86889000Y-147906333D01*
X86925546Y-147722605D01*
X86997234Y-147549534D01*
X87101309Y-147393775D01*
X87101310Y-147393773D01*
X87233773Y-147261310D01*
X87389533Y-147157235D01*
X87389534Y-147157234D01*
X87562605Y-147085546D01*
X87746333Y-147049000D01*
X87933667Y-147049000D01*
X88117395Y-147085546D01*
X88117395Y-147085546D01*
G37*
G36*
X86251000Y-148951000D02*
G01*
X84349000Y-148951000D01*
X84349000Y-147049000D01*
X86251000Y-147049000D01*
X86251000Y-148951000D01*
X86251000Y-148951000D01*
G37*
G36*
X81401000Y-148951000D02*
G01*
X79499000Y-148951000D01*
X79499000Y-147049000D01*
X81401000Y-147049000D01*
X81401000Y-148951000D01*
X81401000Y-148951000D01*
G37*
G36*
X142867395Y-147085546D02*
G01*
X143040466Y-147157234D01*
X143040467Y-147157235D01*
X143196227Y-147261310D01*
X143328690Y-147393773D01*
X143328691Y-147393775D01*
X143432766Y-147549534D01*
X143504454Y-147722605D01*
X143541000Y-147906333D01*
X143541000Y-148093667D01*
X143504454Y-148277395D01*
X143432766Y-148450466D01*
X143432765Y-148450467D01*
X143328690Y-148606227D01*
X143196227Y-148738690D01*
X143125632Y-148785860D01*
X143040466Y-148842766D01*
X142867395Y-148914454D01*
X142683667Y-148951000D01*
X142496333Y-148951000D01*
X142312605Y-148914454D01*
X142139534Y-148842766D01*
X142054368Y-148785860D01*
X141983773Y-148738690D01*
X141851310Y-148606227D01*
X141747235Y-148450467D01*
X141747234Y-148450466D01*
X141675546Y-148277395D01*
X141639000Y-148093667D01*
X141639000Y-147906333D01*
X141675546Y-147722605D01*
X141747234Y-147549534D01*
X141851309Y-147393775D01*
X141851310Y-147393773D01*
X141983773Y-147261310D01*
X142139533Y-147157235D01*
X142139534Y-147157234D01*
X142312605Y-147085546D01*
X142496333Y-147049000D01*
X142683667Y-147049000D01*
X142867395Y-147085546D01*
X142867395Y-147085546D01*
G37*
G36*
X141001000Y-148951000D02*
G01*
X139099000Y-148951000D01*
X139099000Y-147049000D01*
X141001000Y-147049000D01*
X141001000Y-148951000D01*
X141001000Y-148951000D01*
G37*
G36*
X130293241Y-146104760D02*
G01*
X130557305Y-146214139D01*
X130794958Y-146372934D01*
X130997066Y-146575042D01*
X131155861Y-146812695D01*
X131265240Y-147076759D01*
X131321000Y-147357088D01*
X131321000Y-147642912D01*
X131265240Y-147923241D01*
X131155861Y-148187305D01*
X130997066Y-148424958D01*
X130794958Y-148627066D01*
X130557305Y-148785861D01*
X130293241Y-148895240D01*
X130012912Y-148951000D01*
X129727088Y-148951000D01*
X129446759Y-148895240D01*
X129182695Y-148785861D01*
X128945042Y-148627066D01*
X128742934Y-148424958D01*
X128584139Y-148187305D01*
X128474760Y-147923241D01*
X128419000Y-147642912D01*
X128419000Y-147357088D01*
X128474760Y-147076759D01*
X128584139Y-146812695D01*
X128742934Y-146575042D01*
X128945042Y-146372934D01*
X129182695Y-146214139D01*
X129446759Y-146104760D01*
X129727088Y-146049000D01*
X130012912Y-146049000D01*
X130293241Y-146104760D01*
X130293241Y-146104760D01*
G37*
G36*
X56851000Y-148951000D02*
G01*
X54949000Y-148951000D01*
X54949000Y-147049000D01*
X56851000Y-147049000D01*
X56851000Y-148951000D01*
X56851000Y-148951000D01*
G37*
G36*
X113667395Y-147085546D02*
G01*
X113840466Y-147157234D01*
X113840467Y-147157235D01*
X113996227Y-147261310D01*
X114128690Y-147393773D01*
X114128691Y-147393775D01*
X114232766Y-147549534D01*
X114304454Y-147722605D01*
X114341000Y-147906333D01*
X114341000Y-148093667D01*
X114304454Y-148277395D01*
X114232766Y-148450466D01*
X114232765Y-148450467D01*
X114128690Y-148606227D01*
X113996227Y-148738690D01*
X113925632Y-148785860D01*
X113840466Y-148842766D01*
X113667395Y-148914454D01*
X113483667Y-148951000D01*
X113296333Y-148951000D01*
X113112605Y-148914454D01*
X112939534Y-148842766D01*
X112854368Y-148785860D01*
X112783773Y-148738690D01*
X112651310Y-148606227D01*
X112547235Y-148450467D01*
X112547234Y-148450466D01*
X112475546Y-148277395D01*
X112439000Y-148093667D01*
X112439000Y-147906333D01*
X112475546Y-147722605D01*
X112547234Y-147549534D01*
X112651309Y-147393775D01*
X112651310Y-147393773D01*
X112783773Y-147261310D01*
X112939533Y-147157235D01*
X112939534Y-147157234D01*
X113112605Y-147085546D01*
X113296333Y-147049000D01*
X113483667Y-147049000D01*
X113667395Y-147085546D01*
X113667395Y-147085546D01*
G37*
G36*
X111801000Y-148951000D02*
G01*
X109899000Y-148951000D01*
X109899000Y-147049000D01*
X111801000Y-147049000D01*
X111801000Y-148951000D01*
X111801000Y-148951000D01*
G37*
G36*
X136101000Y-148951000D02*
G01*
X134199000Y-148951000D01*
X134199000Y-147049000D01*
X136101000Y-147049000D01*
X136101000Y-148951000D01*
X136101000Y-148951000D01*
G37*
G36*
X58717395Y-147085546D02*
G01*
X58890466Y-147157234D01*
X58890467Y-147157235D01*
X59046227Y-147261310D01*
X59178690Y-147393773D01*
X59178691Y-147393775D01*
X59282766Y-147549534D01*
X59354454Y-147722605D01*
X59391000Y-147906333D01*
X59391000Y-148093667D01*
X59354454Y-148277395D01*
X59282766Y-148450466D01*
X59282765Y-148450467D01*
X59178690Y-148606227D01*
X59046227Y-148738690D01*
X58975632Y-148785860D01*
X58890466Y-148842766D01*
X58717395Y-148914454D01*
X58533667Y-148951000D01*
X58346333Y-148951000D01*
X58162605Y-148914454D01*
X57989534Y-148842766D01*
X57904368Y-148785860D01*
X57833773Y-148738690D01*
X57701310Y-148606227D01*
X57597235Y-148450467D01*
X57597234Y-148450466D01*
X57525546Y-148277395D01*
X57489000Y-148093667D01*
X57489000Y-147906333D01*
X57525546Y-147722605D01*
X57597234Y-147549534D01*
X57701309Y-147393775D01*
X57701310Y-147393773D01*
X57833773Y-147261310D01*
X57989533Y-147157235D01*
X57989534Y-147157234D01*
X58162605Y-147085546D01*
X58346333Y-147049000D01*
X58533667Y-147049000D01*
X58717395Y-147085546D01*
X58717395Y-147085546D01*
G37*
G36*
X137967395Y-147085546D02*
G01*
X138140466Y-147157234D01*
X138140467Y-147157235D01*
X138296227Y-147261310D01*
X138428690Y-147393773D01*
X138428691Y-147393775D01*
X138532766Y-147549534D01*
X138604454Y-147722605D01*
X138641000Y-147906333D01*
X138641000Y-148093667D01*
X138604454Y-148277395D01*
X138532766Y-148450466D01*
X138532765Y-148450467D01*
X138428690Y-148606227D01*
X138296227Y-148738690D01*
X138225632Y-148785860D01*
X138140466Y-148842766D01*
X137967395Y-148914454D01*
X137783667Y-148951000D01*
X137596333Y-148951000D01*
X137412605Y-148914454D01*
X137239534Y-148842766D01*
X137154368Y-148785860D01*
X137083773Y-148738690D01*
X136951310Y-148606227D01*
X136847235Y-148450467D01*
X136847234Y-148450466D01*
X136775546Y-148277395D01*
X136739000Y-148093667D01*
X136739000Y-147906333D01*
X136775546Y-147722605D01*
X136847234Y-147549534D01*
X136951309Y-147393775D01*
X136951310Y-147393773D01*
X137083773Y-147261310D01*
X137239533Y-147157235D01*
X137239534Y-147157234D01*
X137412605Y-147085546D01*
X137596333Y-147049000D01*
X137783667Y-147049000D01*
X137967395Y-147085546D01*
X137967395Y-147085546D01*
G37*
G36*
X69828571Y-143802863D02*
G01*
X69907023Y-143810590D01*
X70007682Y-143841125D01*
X70058013Y-143856392D01*
X70197165Y-143930771D01*
X70319133Y-144030867D01*
X70419229Y-144152835D01*
X70493608Y-144291987D01*
X70493608Y-144291988D01*
X70539410Y-144442977D01*
X70554875Y-144600000D01*
X70539410Y-144757023D01*
X70508875Y-144857682D01*
X70493608Y-144908013D01*
X70419229Y-145047165D01*
X70319133Y-145169133D01*
X70197165Y-145269229D01*
X70081161Y-145331235D01*
X70060787Y-145344849D01*
X70043460Y-145362176D01*
X70029846Y-145382550D01*
X70020469Y-145405189D01*
X70015689Y-145429223D01*
X70015689Y-145453727D01*
X70020470Y-145477760D01*
X70029847Y-145500399D01*
X70043461Y-145520773D01*
X70060788Y-145538100D01*
X70081162Y-145551714D01*
X70103801Y-145561091D01*
X70123516Y-145565012D01*
X70125631Y-145565654D01*
X70125635Y-145565654D01*
X70342600Y-145631470D01*
X70342602Y-145631471D01*
X70542555Y-145738347D01*
X70717818Y-145882182D01*
X70861653Y-146057445D01*
X70945407Y-146214139D01*
X70968530Y-146257400D01*
X71034346Y-146474365D01*
X71056569Y-146700000D01*
X71034346Y-146925635D01*
X70988503Y-147076759D01*
X70968529Y-147142602D01*
X70861653Y-147342555D01*
X70717818Y-147517818D01*
X70542555Y-147661653D01*
X70342602Y-147768529D01*
X70342600Y-147768530D01*
X70125635Y-147834346D01*
X70069271Y-147839897D01*
X69956545Y-147851000D01*
X68543455Y-147851000D01*
X68430729Y-147839897D01*
X68374365Y-147834346D01*
X68157400Y-147768530D01*
X68157398Y-147768529D01*
X67957445Y-147661653D01*
X67782182Y-147517818D01*
X67638347Y-147342555D01*
X67531471Y-147142602D01*
X67511498Y-147076759D01*
X67465654Y-146925635D01*
X67443431Y-146700000D01*
X67465654Y-146474365D01*
X67531470Y-146257400D01*
X67554593Y-146214139D01*
X67638347Y-146057445D01*
X67782182Y-145882182D01*
X67957445Y-145738347D01*
X68157398Y-145631471D01*
X68157400Y-145631470D01*
X68374365Y-145565654D01*
X68374369Y-145565654D01*
X68376484Y-145565012D01*
X68396197Y-145561091D01*
X68418836Y-145551715D01*
X68439210Y-145538101D01*
X68456538Y-145520775D01*
X68470152Y-145500401D01*
X68479530Y-145477762D01*
X68484311Y-145453729D01*
X68484311Y-145429225D01*
X68479531Y-145405191D01*
X68470155Y-145382552D01*
X68456541Y-145362178D01*
X68439215Y-145344850D01*
X68418839Y-145331235D01*
X68302835Y-145269229D01*
X68180867Y-145169133D01*
X68080771Y-145047165D01*
X68006392Y-144908013D01*
X67991125Y-144857682D01*
X67960590Y-144757023D01*
X67945125Y-144600000D01*
X67960590Y-144442977D01*
X68006392Y-144291988D01*
X68006392Y-144291987D01*
X68080771Y-144152835D01*
X68180867Y-144030867D01*
X68302835Y-143930771D01*
X68441987Y-143856392D01*
X68492318Y-143841125D01*
X68592977Y-143810590D01*
X68671429Y-143802863D01*
X68710654Y-143799000D01*
X69789346Y-143799000D01*
X69828571Y-143802863D01*
X69828571Y-143802863D01*
G37*
G36*
X124678571Y-143802863D02*
G01*
X124757023Y-143810590D01*
X124857682Y-143841125D01*
X124908013Y-143856392D01*
X125047165Y-143930771D01*
X125169133Y-144030867D01*
X125269229Y-144152835D01*
X125343608Y-144291987D01*
X125343608Y-144291988D01*
X125389410Y-144442977D01*
X125404875Y-144600000D01*
X125389410Y-144757023D01*
X125358875Y-144857682D01*
X125343608Y-144908013D01*
X125269229Y-145047165D01*
X125169133Y-145169133D01*
X125047165Y-145269229D01*
X124931161Y-145331235D01*
X124910787Y-145344849D01*
X124893460Y-145362176D01*
X124879846Y-145382550D01*
X124870469Y-145405189D01*
X124865689Y-145429223D01*
X124865689Y-145453727D01*
X124870470Y-145477760D01*
X124879847Y-145500399D01*
X124893461Y-145520773D01*
X124910788Y-145538100D01*
X124931162Y-145551714D01*
X124953801Y-145561091D01*
X124973516Y-145565012D01*
X124975631Y-145565654D01*
X124975635Y-145565654D01*
X125192600Y-145631470D01*
X125192602Y-145631471D01*
X125392555Y-145738347D01*
X125567818Y-145882182D01*
X125711653Y-146057445D01*
X125795407Y-146214139D01*
X125818530Y-146257400D01*
X125884346Y-146474365D01*
X125906569Y-146700000D01*
X125884346Y-146925635D01*
X125838503Y-147076759D01*
X125818529Y-147142602D01*
X125711653Y-147342555D01*
X125567818Y-147517818D01*
X125392555Y-147661653D01*
X125192602Y-147768529D01*
X125192600Y-147768530D01*
X124975635Y-147834346D01*
X124919271Y-147839897D01*
X124806545Y-147851000D01*
X123393455Y-147851000D01*
X123280729Y-147839897D01*
X123224365Y-147834346D01*
X123007400Y-147768530D01*
X123007398Y-147768529D01*
X122807445Y-147661653D01*
X122632182Y-147517818D01*
X122488347Y-147342555D01*
X122381471Y-147142602D01*
X122361498Y-147076759D01*
X122315654Y-146925635D01*
X122293431Y-146700000D01*
X122315654Y-146474365D01*
X122381470Y-146257400D01*
X122404593Y-146214139D01*
X122488347Y-146057445D01*
X122632182Y-145882182D01*
X122807445Y-145738347D01*
X123007398Y-145631471D01*
X123007400Y-145631470D01*
X123224365Y-145565654D01*
X123224369Y-145565654D01*
X123226484Y-145565012D01*
X123246197Y-145561091D01*
X123268836Y-145551715D01*
X123289210Y-145538101D01*
X123306538Y-145520775D01*
X123320152Y-145500401D01*
X123329530Y-145477762D01*
X123334311Y-145453729D01*
X123334311Y-145429225D01*
X123329531Y-145405191D01*
X123320155Y-145382552D01*
X123306541Y-145362178D01*
X123289215Y-145344850D01*
X123268839Y-145331235D01*
X123152835Y-145269229D01*
X123030867Y-145169133D01*
X122930771Y-145047165D01*
X122856392Y-144908013D01*
X122841125Y-144857682D01*
X122810590Y-144757023D01*
X122795125Y-144600000D01*
X122810590Y-144442977D01*
X122856392Y-144291988D01*
X122856392Y-144291987D01*
X122930771Y-144152835D01*
X123030867Y-144030867D01*
X123152835Y-143930771D01*
X123291987Y-143856392D01*
X123342318Y-143841125D01*
X123442977Y-143810590D01*
X123521429Y-143802863D01*
X123560654Y-143799000D01*
X124639346Y-143799000D01*
X124678571Y-143802863D01*
X124678571Y-143802863D01*
G37*
G36*
X51828228Y-143331703D02*
G01*
X51983100Y-143395853D01*
X52122481Y-143488985D01*
X52241015Y-143607519D01*
X52334147Y-143746900D01*
X52398297Y-143901772D01*
X52431000Y-144066184D01*
X52431000Y-144233816D01*
X52398297Y-144398228D01*
X52334147Y-144553100D01*
X52241015Y-144692481D01*
X52122481Y-144811015D01*
X51983100Y-144904147D01*
X51828228Y-144968297D01*
X51663816Y-145001000D01*
X51496184Y-145001000D01*
X51331772Y-144968297D01*
X51176900Y-144904147D01*
X51037519Y-144811015D01*
X50918985Y-144692481D01*
X50825853Y-144553100D01*
X50761703Y-144398228D01*
X50729000Y-144233816D01*
X50729000Y-144066184D01*
X50761703Y-143901772D01*
X50825853Y-143746900D01*
X50918985Y-143607519D01*
X51037519Y-143488985D01*
X51176900Y-143395853D01*
X51331772Y-143331703D01*
X51496184Y-143299000D01*
X51663816Y-143299000D01*
X51828228Y-143331703D01*
X51828228Y-143331703D01*
G37*
G36*
X58926823Y-143311313D02*
G01*
X59087242Y-143359976D01*
X59154361Y-143395852D01*
X59235078Y-143438996D01*
X59364659Y-143545341D01*
X59471004Y-143674922D01*
X59471005Y-143674924D01*
X59550024Y-143822758D01*
X59598687Y-143983177D01*
X59615117Y-144150000D01*
X59598687Y-144316823D01*
X59550024Y-144477242D01*
X59509477Y-144553100D01*
X59471004Y-144625078D01*
X59364659Y-144754659D01*
X59235078Y-144861004D01*
X59235076Y-144861005D01*
X59087242Y-144940024D01*
X58926823Y-144988687D01*
X58801804Y-145001000D01*
X57718196Y-145001000D01*
X57593177Y-144988687D01*
X57432758Y-144940024D01*
X57284924Y-144861005D01*
X57284922Y-144861004D01*
X57155341Y-144754659D01*
X57048996Y-144625078D01*
X57010523Y-144553100D01*
X56969976Y-144477242D01*
X56921313Y-144316823D01*
X56904883Y-144150000D01*
X56921313Y-143983177D01*
X56969976Y-143822758D01*
X57048995Y-143674924D01*
X57048996Y-143674922D01*
X57155341Y-143545341D01*
X57284922Y-143438996D01*
X57365639Y-143395852D01*
X57432758Y-143359976D01*
X57593177Y-143311313D01*
X57718196Y-143299000D01*
X58801804Y-143299000D01*
X58926823Y-143311313D01*
X58926823Y-143311313D01*
G37*
G36*
X81328228Y-143331703D02*
G01*
X81483100Y-143395853D01*
X81622481Y-143488985D01*
X81741015Y-143607519D01*
X81834147Y-143746900D01*
X81898297Y-143901772D01*
X81931000Y-144066184D01*
X81931000Y-144233816D01*
X81898297Y-144398228D01*
X81834147Y-144553100D01*
X81741015Y-144692481D01*
X81622481Y-144811015D01*
X81483100Y-144904147D01*
X81328228Y-144968297D01*
X81163816Y-145001000D01*
X80996184Y-145001000D01*
X80831772Y-144968297D01*
X80676900Y-144904147D01*
X80537519Y-144811015D01*
X80418985Y-144692481D01*
X80325853Y-144553100D01*
X80261703Y-144398228D01*
X80229000Y-144233816D01*
X80229000Y-144066184D01*
X80261703Y-143901772D01*
X80325853Y-143746900D01*
X80418985Y-143607519D01*
X80537519Y-143488985D01*
X80676900Y-143395853D01*
X80831772Y-143331703D01*
X80996184Y-143299000D01*
X81163816Y-143299000D01*
X81328228Y-143331703D01*
X81328228Y-143331703D01*
G37*
G36*
X142876823Y-143311313D02*
G01*
X143037242Y-143359976D01*
X143104361Y-143395852D01*
X143185078Y-143438996D01*
X143314659Y-143545341D01*
X143421004Y-143674922D01*
X143421005Y-143674924D01*
X143500024Y-143822758D01*
X143548687Y-143983177D01*
X143565117Y-144150000D01*
X143548687Y-144316823D01*
X143500024Y-144477242D01*
X143459477Y-144553100D01*
X143421004Y-144625078D01*
X143314659Y-144754659D01*
X143185078Y-144861004D01*
X143185076Y-144861005D01*
X143037242Y-144940024D01*
X142876823Y-144988687D01*
X142751804Y-145001000D01*
X141668196Y-145001000D01*
X141543177Y-144988687D01*
X141382758Y-144940024D01*
X141234924Y-144861005D01*
X141234922Y-144861004D01*
X141105341Y-144754659D01*
X140998996Y-144625078D01*
X140960523Y-144553100D01*
X140919976Y-144477242D01*
X140871313Y-144316823D01*
X140854883Y-144150000D01*
X140871313Y-143983177D01*
X140919976Y-143822758D01*
X140998995Y-143674924D01*
X140998996Y-143674922D01*
X141105341Y-143545341D01*
X141234922Y-143438996D01*
X141315639Y-143395852D01*
X141382758Y-143359976D01*
X141543177Y-143311313D01*
X141668196Y-143299000D01*
X142751804Y-143299000D01*
X142876823Y-143311313D01*
X142876823Y-143311313D01*
G37*
G36*
X135778228Y-143331703D02*
G01*
X135933100Y-143395853D01*
X136072481Y-143488985D01*
X136191015Y-143607519D01*
X136284147Y-143746900D01*
X136348297Y-143901772D01*
X136381000Y-144066184D01*
X136381000Y-144233816D01*
X136348297Y-144398228D01*
X136284147Y-144553100D01*
X136191015Y-144692481D01*
X136072481Y-144811015D01*
X135933100Y-144904147D01*
X135778228Y-144968297D01*
X135613816Y-145001000D01*
X135446184Y-145001000D01*
X135281772Y-144968297D01*
X135126900Y-144904147D01*
X134987519Y-144811015D01*
X134868985Y-144692481D01*
X134775853Y-144553100D01*
X134711703Y-144398228D01*
X134679000Y-144233816D01*
X134679000Y-144066184D01*
X134711703Y-143901772D01*
X134775853Y-143746900D01*
X134868985Y-143607519D01*
X134987519Y-143488985D01*
X135126900Y-143395853D01*
X135281772Y-143331703D01*
X135446184Y-143299000D01*
X135613816Y-143299000D01*
X135778228Y-143331703D01*
X135778228Y-143331703D01*
G37*
G36*
X88426823Y-143311313D02*
G01*
X88587242Y-143359976D01*
X88654361Y-143395852D01*
X88735078Y-143438996D01*
X88864659Y-143545341D01*
X88971004Y-143674922D01*
X88971005Y-143674924D01*
X89050024Y-143822758D01*
X89098687Y-143983177D01*
X89115117Y-144150000D01*
X89098687Y-144316823D01*
X89050024Y-144477242D01*
X89009477Y-144553100D01*
X88971004Y-144625078D01*
X88864659Y-144754659D01*
X88735078Y-144861004D01*
X88735076Y-144861005D01*
X88587242Y-144940024D01*
X88426823Y-144988687D01*
X88301804Y-145001000D01*
X87218196Y-145001000D01*
X87093177Y-144988687D01*
X86932758Y-144940024D01*
X86784924Y-144861005D01*
X86784922Y-144861004D01*
X86655341Y-144754659D01*
X86548996Y-144625078D01*
X86510523Y-144553100D01*
X86469976Y-144477242D01*
X86421313Y-144316823D01*
X86404883Y-144150000D01*
X86421313Y-143983177D01*
X86469976Y-143822758D01*
X86548995Y-143674924D01*
X86548996Y-143674922D01*
X86655341Y-143545341D01*
X86784922Y-143438996D01*
X86865639Y-143395852D01*
X86932758Y-143359976D01*
X87093177Y-143311313D01*
X87218196Y-143299000D01*
X88301804Y-143299000D01*
X88426823Y-143311313D01*
X88426823Y-143311313D01*
G37*
G36*
X113726823Y-143311313D02*
G01*
X113887242Y-143359976D01*
X113954361Y-143395852D01*
X114035078Y-143438996D01*
X114164659Y-143545341D01*
X114271004Y-143674922D01*
X114271005Y-143674924D01*
X114350024Y-143822758D01*
X114398687Y-143983177D01*
X114415117Y-144150000D01*
X114398687Y-144316823D01*
X114350024Y-144477242D01*
X114309477Y-144553100D01*
X114271004Y-144625078D01*
X114164659Y-144754659D01*
X114035078Y-144861004D01*
X114035076Y-144861005D01*
X113887242Y-144940024D01*
X113726823Y-144988687D01*
X113601804Y-145001000D01*
X112518196Y-145001000D01*
X112393177Y-144988687D01*
X112232758Y-144940024D01*
X112084924Y-144861005D01*
X112084922Y-144861004D01*
X111955341Y-144754659D01*
X111848996Y-144625078D01*
X111810523Y-144553100D01*
X111769976Y-144477242D01*
X111721313Y-144316823D01*
X111704883Y-144150000D01*
X111721313Y-143983177D01*
X111769976Y-143822758D01*
X111848995Y-143674924D01*
X111848996Y-143674922D01*
X111955341Y-143545341D01*
X112084922Y-143438996D01*
X112165639Y-143395852D01*
X112232758Y-143359976D01*
X112393177Y-143311313D01*
X112518196Y-143299000D01*
X113601804Y-143299000D01*
X113726823Y-143311313D01*
X113726823Y-143311313D01*
G37*
G36*
X106628228Y-143331703D02*
G01*
X106783100Y-143395853D01*
X106922481Y-143488985D01*
X107041015Y-143607519D01*
X107134147Y-143746900D01*
X107198297Y-143901772D01*
X107231000Y-144066184D01*
X107231000Y-144233816D01*
X107198297Y-144398228D01*
X107134147Y-144553100D01*
X107041015Y-144692481D01*
X106922481Y-144811015D01*
X106783100Y-144904147D01*
X106628228Y-144968297D01*
X106463816Y-145001000D01*
X106296184Y-145001000D01*
X106131772Y-144968297D01*
X105976900Y-144904147D01*
X105837519Y-144811015D01*
X105718985Y-144692481D01*
X105625853Y-144553100D01*
X105561703Y-144398228D01*
X105529000Y-144233816D01*
X105529000Y-144066184D01*
X105561703Y-143901772D01*
X105625853Y-143746900D01*
X105718985Y-143607519D01*
X105837519Y-143488985D01*
X105976900Y-143395853D01*
X106131772Y-143331703D01*
X106296184Y-143299000D01*
X106463816Y-143299000D01*
X106628228Y-143331703D01*
X106628228Y-143331703D01*
G37*
G36*
X124678571Y-141802863D02*
G01*
X124757023Y-141810590D01*
X124857682Y-141841125D01*
X124908013Y-141856392D01*
X125047165Y-141930771D01*
X125169133Y-142030867D01*
X125269229Y-142152835D01*
X125343608Y-142291987D01*
X125343608Y-142291988D01*
X125389410Y-142442977D01*
X125404875Y-142600000D01*
X125389410Y-142757023D01*
X125383653Y-142776000D01*
X125343608Y-142908013D01*
X125269229Y-143047165D01*
X125169133Y-143169133D01*
X125047165Y-143269229D01*
X124908013Y-143343608D01*
X124857682Y-143358875D01*
X124757023Y-143389410D01*
X124678571Y-143397137D01*
X124639346Y-143401000D01*
X123560654Y-143401000D01*
X123521429Y-143397137D01*
X123442977Y-143389410D01*
X123342318Y-143358875D01*
X123291987Y-143343608D01*
X123152835Y-143269229D01*
X123030867Y-143169133D01*
X122930771Y-143047165D01*
X122856392Y-142908013D01*
X122816347Y-142776000D01*
X122810590Y-142757023D01*
X122795125Y-142600000D01*
X122810590Y-142442977D01*
X122856392Y-142291988D01*
X122856392Y-142291987D01*
X122930771Y-142152835D01*
X123030867Y-142030867D01*
X123152835Y-141930771D01*
X123291987Y-141856392D01*
X123342318Y-141841125D01*
X123442977Y-141810590D01*
X123521429Y-141802863D01*
X123560654Y-141799000D01*
X124639346Y-141799000D01*
X124678571Y-141802863D01*
X124678571Y-141802863D01*
G37*
G36*
X69828571Y-141802863D02*
G01*
X69907023Y-141810590D01*
X70007682Y-141841125D01*
X70058013Y-141856392D01*
X70197165Y-141930771D01*
X70319133Y-142030867D01*
X70419229Y-142152835D01*
X70493608Y-142291987D01*
X70493608Y-142291988D01*
X70539410Y-142442977D01*
X70554875Y-142600000D01*
X70539410Y-142757023D01*
X70533653Y-142776000D01*
X70493608Y-142908013D01*
X70419229Y-143047165D01*
X70319133Y-143169133D01*
X70197165Y-143269229D01*
X70058013Y-143343608D01*
X70007682Y-143358875D01*
X69907023Y-143389410D01*
X69828571Y-143397137D01*
X69789346Y-143401000D01*
X68710654Y-143401000D01*
X68671429Y-143397137D01*
X68592977Y-143389410D01*
X68492318Y-143358875D01*
X68441987Y-143343608D01*
X68302835Y-143269229D01*
X68180867Y-143169133D01*
X68080771Y-143047165D01*
X68006392Y-142908013D01*
X67966347Y-142776000D01*
X67960590Y-142757023D01*
X67945125Y-142600000D01*
X67960590Y-142442977D01*
X68006392Y-142291988D01*
X68006392Y-142291987D01*
X68080771Y-142152835D01*
X68180867Y-142030867D01*
X68302835Y-141930771D01*
X68441987Y-141856392D01*
X68492318Y-141841125D01*
X68592977Y-141810590D01*
X68671429Y-141802863D01*
X68710654Y-141799000D01*
X69789346Y-141799000D01*
X69828571Y-141802863D01*
X69828571Y-141802863D01*
G37*
G36*
X59611560Y-140439064D02*
G01*
X59763027Y-140469193D01*
X59977045Y-140557842D01*
X59977046Y-140557843D01*
X60169654Y-140686539D01*
X60333461Y-140850346D01*
X60419258Y-140978751D01*
X60462158Y-141042955D01*
X60550807Y-141256973D01*
X60596000Y-141484174D01*
X60596000Y-141715826D01*
X60550807Y-141943027D01*
X60462158Y-142157045D01*
X60462157Y-142157046D01*
X60333461Y-142349654D01*
X60169654Y-142513461D01*
X60041249Y-142599258D01*
X59977045Y-142642158D01*
X59763027Y-142730807D01*
X59631240Y-142757021D01*
X59535827Y-142776000D01*
X59304173Y-142776000D01*
X59208760Y-142757021D01*
X59076973Y-142730807D01*
X58862955Y-142642158D01*
X58798751Y-142599258D01*
X58670346Y-142513461D01*
X58506539Y-142349654D01*
X58377843Y-142157046D01*
X58377842Y-142157045D01*
X58289193Y-141943027D01*
X58244000Y-141715826D01*
X58244000Y-141484174D01*
X58289193Y-141256973D01*
X58377842Y-141042955D01*
X58420742Y-140978751D01*
X58506539Y-140850346D01*
X58670346Y-140686539D01*
X58862954Y-140557843D01*
X58862955Y-140557842D01*
X59076973Y-140469193D01*
X59228440Y-140439064D01*
X59304173Y-140424000D01*
X59535827Y-140424000D01*
X59611560Y-140439064D01*
X59611560Y-140439064D01*
G37*
G36*
X89111560Y-140439064D02*
G01*
X89263027Y-140469193D01*
X89477045Y-140557842D01*
X89477046Y-140557843D01*
X89669654Y-140686539D01*
X89833461Y-140850346D01*
X89919258Y-140978751D01*
X89962158Y-141042955D01*
X90050807Y-141256973D01*
X90096000Y-141484174D01*
X90096000Y-141715826D01*
X90050807Y-141943027D01*
X89962158Y-142157045D01*
X89962157Y-142157046D01*
X89833461Y-142349654D01*
X89669654Y-142513461D01*
X89541249Y-142599258D01*
X89477045Y-142642158D01*
X89263027Y-142730807D01*
X89131240Y-142757021D01*
X89035827Y-142776000D01*
X88804173Y-142776000D01*
X88708760Y-142757021D01*
X88576973Y-142730807D01*
X88362955Y-142642158D01*
X88298751Y-142599258D01*
X88170346Y-142513461D01*
X88006539Y-142349654D01*
X87877843Y-142157046D01*
X87877842Y-142157045D01*
X87789193Y-141943027D01*
X87744000Y-141715826D01*
X87744000Y-141484174D01*
X87789193Y-141256973D01*
X87877842Y-141042955D01*
X87920742Y-140978751D01*
X88006539Y-140850346D01*
X88170346Y-140686539D01*
X88362954Y-140557843D01*
X88362955Y-140557842D01*
X88576973Y-140469193D01*
X88728440Y-140439064D01*
X88804173Y-140424000D01*
X89035827Y-140424000D01*
X89111560Y-140439064D01*
X89111560Y-140439064D01*
G37*
G36*
X50711560Y-140439064D02*
G01*
X50863027Y-140469193D01*
X51077045Y-140557842D01*
X51077046Y-140557843D01*
X51269654Y-140686539D01*
X51433461Y-140850346D01*
X51519258Y-140978751D01*
X51562158Y-141042955D01*
X51650807Y-141256973D01*
X51696000Y-141484174D01*
X51696000Y-141715826D01*
X51650807Y-141943027D01*
X51562158Y-142157045D01*
X51562157Y-142157046D01*
X51433461Y-142349654D01*
X51269654Y-142513461D01*
X51141249Y-142599258D01*
X51077045Y-142642158D01*
X50863027Y-142730807D01*
X50731240Y-142757021D01*
X50635827Y-142776000D01*
X50404173Y-142776000D01*
X50308760Y-142757021D01*
X50176973Y-142730807D01*
X49962955Y-142642158D01*
X49898751Y-142599258D01*
X49770346Y-142513461D01*
X49606539Y-142349654D01*
X49477843Y-142157046D01*
X49477842Y-142157045D01*
X49389193Y-141943027D01*
X49344000Y-141715826D01*
X49344000Y-141484174D01*
X49389193Y-141256973D01*
X49477842Y-141042955D01*
X49520742Y-140978751D01*
X49606539Y-140850346D01*
X49770346Y-140686539D01*
X49962954Y-140557843D01*
X49962955Y-140557842D01*
X50176973Y-140469193D01*
X50328440Y-140439064D01*
X50404173Y-140424000D01*
X50635827Y-140424000D01*
X50711560Y-140439064D01*
X50711560Y-140439064D01*
G37*
G36*
X134661560Y-140439064D02*
G01*
X134813027Y-140469193D01*
X135027045Y-140557842D01*
X135027046Y-140557843D01*
X135219654Y-140686539D01*
X135383461Y-140850346D01*
X135469258Y-140978751D01*
X135512158Y-141042955D01*
X135600807Y-141256973D01*
X135646000Y-141484174D01*
X135646000Y-141715826D01*
X135600807Y-141943027D01*
X135512158Y-142157045D01*
X135512157Y-142157046D01*
X135383461Y-142349654D01*
X135219654Y-142513461D01*
X135091249Y-142599258D01*
X135027045Y-142642158D01*
X134813027Y-142730807D01*
X134681240Y-142757021D01*
X134585827Y-142776000D01*
X134354173Y-142776000D01*
X134258760Y-142757021D01*
X134126973Y-142730807D01*
X133912955Y-142642158D01*
X133848751Y-142599258D01*
X133720346Y-142513461D01*
X133556539Y-142349654D01*
X133427843Y-142157046D01*
X133427842Y-142157045D01*
X133339193Y-141943027D01*
X133294000Y-141715826D01*
X133294000Y-141484174D01*
X133339193Y-141256973D01*
X133427842Y-141042955D01*
X133470742Y-140978751D01*
X133556539Y-140850346D01*
X133720346Y-140686539D01*
X133912954Y-140557843D01*
X133912955Y-140557842D01*
X134126973Y-140469193D01*
X134278440Y-140439064D01*
X134354173Y-140424000D01*
X134585827Y-140424000D01*
X134661560Y-140439064D01*
X134661560Y-140439064D01*
G37*
G36*
X80211560Y-140439064D02*
G01*
X80363027Y-140469193D01*
X80577045Y-140557842D01*
X80577046Y-140557843D01*
X80769654Y-140686539D01*
X80933461Y-140850346D01*
X81019258Y-140978751D01*
X81062158Y-141042955D01*
X81150807Y-141256973D01*
X81196000Y-141484174D01*
X81196000Y-141715826D01*
X81150807Y-141943027D01*
X81062158Y-142157045D01*
X81062157Y-142157046D01*
X80933461Y-142349654D01*
X80769654Y-142513461D01*
X80641249Y-142599258D01*
X80577045Y-142642158D01*
X80363027Y-142730807D01*
X80231240Y-142757021D01*
X80135827Y-142776000D01*
X79904173Y-142776000D01*
X79808760Y-142757021D01*
X79676973Y-142730807D01*
X79462955Y-142642158D01*
X79398751Y-142599258D01*
X79270346Y-142513461D01*
X79106539Y-142349654D01*
X78977843Y-142157046D01*
X78977842Y-142157045D01*
X78889193Y-141943027D01*
X78844000Y-141715826D01*
X78844000Y-141484174D01*
X78889193Y-141256973D01*
X78977842Y-141042955D01*
X79020742Y-140978751D01*
X79106539Y-140850346D01*
X79270346Y-140686539D01*
X79462954Y-140557843D01*
X79462955Y-140557842D01*
X79676973Y-140469193D01*
X79828440Y-140439064D01*
X79904173Y-140424000D01*
X80135827Y-140424000D01*
X80211560Y-140439064D01*
X80211560Y-140439064D01*
G37*
G36*
X114411560Y-140439064D02*
G01*
X114563027Y-140469193D01*
X114777045Y-140557842D01*
X114777046Y-140557843D01*
X114969654Y-140686539D01*
X115133461Y-140850346D01*
X115219258Y-140978751D01*
X115262158Y-141042955D01*
X115350807Y-141256973D01*
X115396000Y-141484174D01*
X115396000Y-141715826D01*
X115350807Y-141943027D01*
X115262158Y-142157045D01*
X115262157Y-142157046D01*
X115133461Y-142349654D01*
X114969654Y-142513461D01*
X114841249Y-142599258D01*
X114777045Y-142642158D01*
X114563027Y-142730807D01*
X114431240Y-142757021D01*
X114335827Y-142776000D01*
X114104173Y-142776000D01*
X114008760Y-142757021D01*
X113876973Y-142730807D01*
X113662955Y-142642158D01*
X113598751Y-142599258D01*
X113470346Y-142513461D01*
X113306539Y-142349654D01*
X113177843Y-142157046D01*
X113177842Y-142157045D01*
X113089193Y-141943027D01*
X113044000Y-141715826D01*
X113044000Y-141484174D01*
X113089193Y-141256973D01*
X113177842Y-141042955D01*
X113220742Y-140978751D01*
X113306539Y-140850346D01*
X113470346Y-140686539D01*
X113662954Y-140557843D01*
X113662955Y-140557842D01*
X113876973Y-140469193D01*
X114028440Y-140439064D01*
X114104173Y-140424000D01*
X114335827Y-140424000D01*
X114411560Y-140439064D01*
X114411560Y-140439064D01*
G37*
G36*
X105511560Y-140439064D02*
G01*
X105663027Y-140469193D01*
X105877045Y-140557842D01*
X105877046Y-140557843D01*
X106069654Y-140686539D01*
X106233461Y-140850346D01*
X106319258Y-140978751D01*
X106362158Y-141042955D01*
X106450807Y-141256973D01*
X106496000Y-141484174D01*
X106496000Y-141715826D01*
X106450807Y-141943027D01*
X106362158Y-142157045D01*
X106362157Y-142157046D01*
X106233461Y-142349654D01*
X106069654Y-142513461D01*
X105941249Y-142599258D01*
X105877045Y-142642158D01*
X105663027Y-142730807D01*
X105531240Y-142757021D01*
X105435827Y-142776000D01*
X105204173Y-142776000D01*
X105108760Y-142757021D01*
X104976973Y-142730807D01*
X104762955Y-142642158D01*
X104698751Y-142599258D01*
X104570346Y-142513461D01*
X104406539Y-142349654D01*
X104277843Y-142157046D01*
X104277842Y-142157045D01*
X104189193Y-141943027D01*
X104144000Y-141715826D01*
X104144000Y-141484174D01*
X104189193Y-141256973D01*
X104277842Y-141042955D01*
X104320742Y-140978751D01*
X104406539Y-140850346D01*
X104570346Y-140686539D01*
X104762954Y-140557843D01*
X104762955Y-140557842D01*
X104976973Y-140469193D01*
X105128440Y-140439064D01*
X105204173Y-140424000D01*
X105435827Y-140424000D01*
X105511560Y-140439064D01*
X105511560Y-140439064D01*
G37*
G36*
X143561560Y-140439064D02*
G01*
X143713027Y-140469193D01*
X143927045Y-140557842D01*
X143927046Y-140557843D01*
X144119654Y-140686539D01*
X144283461Y-140850346D01*
X144369258Y-140978751D01*
X144412158Y-141042955D01*
X144500807Y-141256973D01*
X144546000Y-141484174D01*
X144546000Y-141715826D01*
X144500807Y-141943027D01*
X144412158Y-142157045D01*
X144412157Y-142157046D01*
X144283461Y-142349654D01*
X144119654Y-142513461D01*
X143991249Y-142599258D01*
X143927045Y-142642158D01*
X143713027Y-142730807D01*
X143581240Y-142757021D01*
X143485827Y-142776000D01*
X143254173Y-142776000D01*
X143158760Y-142757021D01*
X143026973Y-142730807D01*
X142812955Y-142642158D01*
X142748751Y-142599258D01*
X142620346Y-142513461D01*
X142456539Y-142349654D01*
X142327843Y-142157046D01*
X142327842Y-142157045D01*
X142239193Y-141943027D01*
X142194000Y-141715826D01*
X142194000Y-141484174D01*
X142239193Y-141256973D01*
X142327842Y-141042955D01*
X142370742Y-140978751D01*
X142456539Y-140850346D01*
X142620346Y-140686539D01*
X142812954Y-140557843D01*
X142812955Y-140557842D01*
X143026973Y-140469193D01*
X143178440Y-140439064D01*
X143254173Y-140424000D01*
X143485827Y-140424000D01*
X143561560Y-140439064D01*
X143561560Y-140439064D01*
G37*
G36*
X70069271Y-137360103D02*
G01*
X70125635Y-137365654D01*
X70342600Y-137431470D01*
X70342602Y-137431471D01*
X70542555Y-137538347D01*
X70717818Y-137682182D01*
X70861653Y-137857445D01*
X70928248Y-137982037D01*
X70968530Y-138057400D01*
X71034346Y-138274365D01*
X71056569Y-138500000D01*
X71037524Y-138693373D01*
X71034346Y-138725634D01*
X70968529Y-138942602D01*
X70861653Y-139142555D01*
X70717818Y-139317818D01*
X70542555Y-139461653D01*
X70351521Y-139563762D01*
X70331147Y-139577375D01*
X70313820Y-139594702D01*
X70300206Y-139615077D01*
X70290828Y-139637715D01*
X70286048Y-139661749D01*
X70286048Y-139686253D01*
X70290828Y-139710286D01*
X70300206Y-139732925D01*
X70313819Y-139753299D01*
X70331146Y-139770626D01*
X70351521Y-139784240D01*
X70374159Y-139793618D01*
X70398193Y-139798398D01*
X70410445Y-139799000D01*
X70551000Y-139799000D01*
X70551000Y-141401000D01*
X67949000Y-141401000D01*
X67949000Y-139799000D01*
X68089555Y-139799000D01*
X68113941Y-139796598D01*
X68137390Y-139789485D01*
X68159001Y-139777934D01*
X68177943Y-139762389D01*
X68193488Y-139743447D01*
X68205039Y-139721836D01*
X68212152Y-139698387D01*
X68214554Y-139674001D01*
X68212152Y-139649615D01*
X68205039Y-139626166D01*
X68193488Y-139604555D01*
X68177943Y-139585613D01*
X68159001Y-139570068D01*
X68148479Y-139563762D01*
X67957445Y-139461653D01*
X67782182Y-139317818D01*
X67638347Y-139142555D01*
X67531471Y-138942602D01*
X67465654Y-138725634D01*
X67462477Y-138693373D01*
X67443431Y-138500000D01*
X67465654Y-138274365D01*
X67531470Y-138057400D01*
X67571752Y-137982037D01*
X67638347Y-137857445D01*
X67782182Y-137682182D01*
X67957445Y-137538347D01*
X68157398Y-137431471D01*
X68157400Y-137431470D01*
X68374365Y-137365654D01*
X68430729Y-137360103D01*
X68543455Y-137349000D01*
X69956545Y-137349000D01*
X70069271Y-137360103D01*
X70069271Y-137360103D01*
G37*
G36*
X124919271Y-137360103D02*
G01*
X124975635Y-137365654D01*
X125192600Y-137431470D01*
X125192602Y-137431471D01*
X125392555Y-137538347D01*
X125567818Y-137682182D01*
X125711653Y-137857445D01*
X125778248Y-137982037D01*
X125818530Y-138057400D01*
X125884346Y-138274365D01*
X125906569Y-138500000D01*
X125887524Y-138693373D01*
X125884346Y-138725634D01*
X125818529Y-138942602D01*
X125711653Y-139142555D01*
X125567818Y-139317818D01*
X125392555Y-139461653D01*
X125201521Y-139563762D01*
X125181147Y-139577375D01*
X125163820Y-139594702D01*
X125150206Y-139615077D01*
X125140828Y-139637715D01*
X125136048Y-139661749D01*
X125136048Y-139686253D01*
X125140828Y-139710286D01*
X125150206Y-139732925D01*
X125163819Y-139753299D01*
X125181146Y-139770626D01*
X125201521Y-139784240D01*
X125224159Y-139793618D01*
X125248193Y-139798398D01*
X125260445Y-139799000D01*
X125401000Y-139799000D01*
X125401000Y-141401000D01*
X122799000Y-141401000D01*
X122799000Y-139799000D01*
X122939555Y-139799000D01*
X122963941Y-139796598D01*
X122987390Y-139789485D01*
X123009001Y-139777934D01*
X123027943Y-139762389D01*
X123043488Y-139743447D01*
X123055039Y-139721836D01*
X123062152Y-139698387D01*
X123064554Y-139674001D01*
X123062152Y-139649615D01*
X123055039Y-139626166D01*
X123043488Y-139604555D01*
X123027943Y-139585613D01*
X123009001Y-139570068D01*
X122998479Y-139563762D01*
X122807445Y-139461653D01*
X122632182Y-139317818D01*
X122488347Y-139142555D01*
X122381471Y-138942602D01*
X122315654Y-138725634D01*
X122312477Y-138693373D01*
X122293431Y-138500000D01*
X122315654Y-138274365D01*
X122381470Y-138057400D01*
X122421752Y-137982037D01*
X122488347Y-137857445D01*
X122632182Y-137682182D01*
X122807445Y-137538347D01*
X123007398Y-137431471D01*
X123007400Y-137431470D01*
X123224365Y-137365654D01*
X123280729Y-137360103D01*
X123393455Y-137349000D01*
X124806545Y-137349000D01*
X124919271Y-137360103D01*
X124919271Y-137360103D01*
G37*
G36*
X136811560Y-138939064D02*
G01*
X136963027Y-138969193D01*
X137177045Y-139057842D01*
X137177046Y-139057843D01*
X137369654Y-139186539D01*
X137533461Y-139350346D01*
X137607833Y-139461652D01*
X137662158Y-139542955D01*
X137750807Y-139756973D01*
X137796000Y-139984174D01*
X137796000Y-140215826D01*
X137750807Y-140443027D01*
X137662158Y-140657045D01*
X137642449Y-140686541D01*
X137533461Y-140849654D01*
X137369654Y-141013461D01*
X137241249Y-141099258D01*
X137177045Y-141142158D01*
X136963027Y-141230807D01*
X136831481Y-141256973D01*
X136735827Y-141276000D01*
X136504173Y-141276000D01*
X136408519Y-141256973D01*
X136276973Y-141230807D01*
X136062955Y-141142158D01*
X135998751Y-141099258D01*
X135870346Y-141013461D01*
X135706539Y-140849654D01*
X135597551Y-140686541D01*
X135577842Y-140657045D01*
X135489193Y-140443027D01*
X135444000Y-140215826D01*
X135444000Y-139984174D01*
X135489193Y-139756973D01*
X135577842Y-139542955D01*
X135632167Y-139461652D01*
X135706539Y-139350346D01*
X135870346Y-139186539D01*
X136062954Y-139057843D01*
X136062955Y-139057842D01*
X136276973Y-138969193D01*
X136428440Y-138939064D01*
X136504173Y-138924000D01*
X136735827Y-138924000D01*
X136811560Y-138939064D01*
X136811560Y-138939064D01*
G37*
G36*
X52861560Y-138939064D02*
G01*
X53013027Y-138969193D01*
X53227045Y-139057842D01*
X53227046Y-139057843D01*
X53419654Y-139186539D01*
X53583461Y-139350346D01*
X53657833Y-139461652D01*
X53712158Y-139542955D01*
X53800807Y-139756973D01*
X53846000Y-139984174D01*
X53846000Y-140215826D01*
X53800807Y-140443027D01*
X53712158Y-140657045D01*
X53692449Y-140686541D01*
X53583461Y-140849654D01*
X53419654Y-141013461D01*
X53291249Y-141099258D01*
X53227045Y-141142158D01*
X53013027Y-141230807D01*
X52881481Y-141256973D01*
X52785827Y-141276000D01*
X52554173Y-141276000D01*
X52458519Y-141256973D01*
X52326973Y-141230807D01*
X52112955Y-141142158D01*
X52048751Y-141099258D01*
X51920346Y-141013461D01*
X51756539Y-140849654D01*
X51647551Y-140686541D01*
X51627842Y-140657045D01*
X51539193Y-140443027D01*
X51494000Y-140215826D01*
X51494000Y-139984174D01*
X51539193Y-139756973D01*
X51627842Y-139542955D01*
X51682167Y-139461652D01*
X51756539Y-139350346D01*
X51920346Y-139186539D01*
X52112954Y-139057843D01*
X52112955Y-139057842D01*
X52326973Y-138969193D01*
X52478440Y-138939064D01*
X52554173Y-138924000D01*
X52785827Y-138924000D01*
X52861560Y-138939064D01*
X52861560Y-138939064D01*
G37*
G36*
X57311560Y-138939064D02*
G01*
X57463027Y-138969193D01*
X57677045Y-139057842D01*
X57677046Y-139057843D01*
X57869654Y-139186539D01*
X58033461Y-139350346D01*
X58107833Y-139461652D01*
X58162158Y-139542955D01*
X58250807Y-139756973D01*
X58296000Y-139984174D01*
X58296000Y-140215826D01*
X58250807Y-140443027D01*
X58162158Y-140657045D01*
X58142449Y-140686541D01*
X58033461Y-140849654D01*
X57869654Y-141013461D01*
X57741249Y-141099258D01*
X57677045Y-141142158D01*
X57463027Y-141230807D01*
X57331481Y-141256973D01*
X57235827Y-141276000D01*
X57004173Y-141276000D01*
X56908519Y-141256973D01*
X56776973Y-141230807D01*
X56562955Y-141142158D01*
X56498751Y-141099258D01*
X56370346Y-141013461D01*
X56206539Y-140849654D01*
X56097551Y-140686541D01*
X56077842Y-140657045D01*
X55989193Y-140443027D01*
X55944000Y-140215826D01*
X55944000Y-139984174D01*
X55989193Y-139756973D01*
X56077842Y-139542955D01*
X56132167Y-139461652D01*
X56206539Y-139350346D01*
X56370346Y-139186539D01*
X56562954Y-139057843D01*
X56562955Y-139057842D01*
X56776973Y-138969193D01*
X56928440Y-138939064D01*
X57004173Y-138924000D01*
X57235827Y-138924000D01*
X57311560Y-138939064D01*
X57311560Y-138939064D01*
G37*
G36*
X141261560Y-138939064D02*
G01*
X141413027Y-138969193D01*
X141627045Y-139057842D01*
X141627046Y-139057843D01*
X141819654Y-139186539D01*
X141983461Y-139350346D01*
X142057833Y-139461652D01*
X142112158Y-139542955D01*
X142200807Y-139756973D01*
X142246000Y-139984174D01*
X142246000Y-140215826D01*
X142200807Y-140443027D01*
X142112158Y-140657045D01*
X142092449Y-140686541D01*
X141983461Y-140849654D01*
X141819654Y-141013461D01*
X141691249Y-141099258D01*
X141627045Y-141142158D01*
X141413027Y-141230807D01*
X141281481Y-141256973D01*
X141185827Y-141276000D01*
X140954173Y-141276000D01*
X140858519Y-141256973D01*
X140726973Y-141230807D01*
X140512955Y-141142158D01*
X140448751Y-141099258D01*
X140320346Y-141013461D01*
X140156539Y-140849654D01*
X140047551Y-140686541D01*
X140027842Y-140657045D01*
X139939193Y-140443027D01*
X139894000Y-140215826D01*
X139894000Y-139984174D01*
X139939193Y-139756973D01*
X140027842Y-139542955D01*
X140082167Y-139461652D01*
X140156539Y-139350346D01*
X140320346Y-139186539D01*
X140512954Y-139057843D01*
X140512955Y-139057842D01*
X140726973Y-138969193D01*
X140878440Y-138939064D01*
X140954173Y-138924000D01*
X141185827Y-138924000D01*
X141261560Y-138939064D01*
X141261560Y-138939064D01*
G37*
G36*
X86811560Y-138939064D02*
G01*
X86963027Y-138969193D01*
X87177045Y-139057842D01*
X87177046Y-139057843D01*
X87369654Y-139186539D01*
X87533461Y-139350346D01*
X87607833Y-139461652D01*
X87662158Y-139542955D01*
X87750807Y-139756973D01*
X87796000Y-139984174D01*
X87796000Y-140215826D01*
X87750807Y-140443027D01*
X87662158Y-140657045D01*
X87642449Y-140686541D01*
X87533461Y-140849654D01*
X87369654Y-141013461D01*
X87241249Y-141099258D01*
X87177045Y-141142158D01*
X86963027Y-141230807D01*
X86831481Y-141256973D01*
X86735827Y-141276000D01*
X86504173Y-141276000D01*
X86408519Y-141256973D01*
X86276973Y-141230807D01*
X86062955Y-141142158D01*
X85998751Y-141099258D01*
X85870346Y-141013461D01*
X85706539Y-140849654D01*
X85597551Y-140686541D01*
X85577842Y-140657045D01*
X85489193Y-140443027D01*
X85444000Y-140215826D01*
X85444000Y-139984174D01*
X85489193Y-139756973D01*
X85577842Y-139542955D01*
X85632167Y-139461652D01*
X85706539Y-139350346D01*
X85870346Y-139186539D01*
X86062954Y-139057843D01*
X86062955Y-139057842D01*
X86276973Y-138969193D01*
X86428440Y-138939064D01*
X86504173Y-138924000D01*
X86735827Y-138924000D01*
X86811560Y-138939064D01*
X86811560Y-138939064D01*
G37*
G36*
X112111560Y-138939064D02*
G01*
X112263027Y-138969193D01*
X112477045Y-139057842D01*
X112477046Y-139057843D01*
X112669654Y-139186539D01*
X112833461Y-139350346D01*
X112907833Y-139461652D01*
X112962158Y-139542955D01*
X113050807Y-139756973D01*
X113096000Y-139984174D01*
X113096000Y-140215826D01*
X113050807Y-140443027D01*
X112962158Y-140657045D01*
X112942449Y-140686541D01*
X112833461Y-140849654D01*
X112669654Y-141013461D01*
X112541249Y-141099258D01*
X112477045Y-141142158D01*
X112263027Y-141230807D01*
X112131481Y-141256973D01*
X112035827Y-141276000D01*
X111804173Y-141276000D01*
X111708519Y-141256973D01*
X111576973Y-141230807D01*
X111362955Y-141142158D01*
X111298751Y-141099258D01*
X111170346Y-141013461D01*
X111006539Y-140849654D01*
X110897551Y-140686541D01*
X110877842Y-140657045D01*
X110789193Y-140443027D01*
X110744000Y-140215826D01*
X110744000Y-139984174D01*
X110789193Y-139756973D01*
X110877842Y-139542955D01*
X110932167Y-139461652D01*
X111006539Y-139350346D01*
X111170346Y-139186539D01*
X111362954Y-139057843D01*
X111362955Y-139057842D01*
X111576973Y-138969193D01*
X111728440Y-138939064D01*
X111804173Y-138924000D01*
X112035827Y-138924000D01*
X112111560Y-138939064D01*
X112111560Y-138939064D01*
G37*
G36*
X107661560Y-138939064D02*
G01*
X107813027Y-138969193D01*
X108027045Y-139057842D01*
X108027046Y-139057843D01*
X108219654Y-139186539D01*
X108383461Y-139350346D01*
X108457833Y-139461652D01*
X108512158Y-139542955D01*
X108600807Y-139756973D01*
X108646000Y-139984174D01*
X108646000Y-140215826D01*
X108600807Y-140443027D01*
X108512158Y-140657045D01*
X108492449Y-140686541D01*
X108383461Y-140849654D01*
X108219654Y-141013461D01*
X108091249Y-141099258D01*
X108027045Y-141142158D01*
X107813027Y-141230807D01*
X107681481Y-141256973D01*
X107585827Y-141276000D01*
X107354173Y-141276000D01*
X107258519Y-141256973D01*
X107126973Y-141230807D01*
X106912955Y-141142158D01*
X106848751Y-141099258D01*
X106720346Y-141013461D01*
X106556539Y-140849654D01*
X106447551Y-140686541D01*
X106427842Y-140657045D01*
X106339193Y-140443027D01*
X106294000Y-140215826D01*
X106294000Y-139984174D01*
X106339193Y-139756973D01*
X106427842Y-139542955D01*
X106482167Y-139461652D01*
X106556539Y-139350346D01*
X106720346Y-139186539D01*
X106912954Y-139057843D01*
X106912955Y-139057842D01*
X107126973Y-138969193D01*
X107278440Y-138939064D01*
X107354173Y-138924000D01*
X107585827Y-138924000D01*
X107661560Y-138939064D01*
X107661560Y-138939064D01*
G37*
G36*
X82361560Y-138939064D02*
G01*
X82513027Y-138969193D01*
X82727045Y-139057842D01*
X82727046Y-139057843D01*
X82919654Y-139186539D01*
X83083461Y-139350346D01*
X83157833Y-139461652D01*
X83212158Y-139542955D01*
X83300807Y-139756973D01*
X83346000Y-139984174D01*
X83346000Y-140215826D01*
X83300807Y-140443027D01*
X83212158Y-140657045D01*
X83192449Y-140686541D01*
X83083461Y-140849654D01*
X82919654Y-141013461D01*
X82791249Y-141099258D01*
X82727045Y-141142158D01*
X82513027Y-141230807D01*
X82381481Y-141256973D01*
X82285827Y-141276000D01*
X82054173Y-141276000D01*
X81958519Y-141256973D01*
X81826973Y-141230807D01*
X81612955Y-141142158D01*
X81548751Y-141099258D01*
X81420346Y-141013461D01*
X81256539Y-140849654D01*
X81147551Y-140686541D01*
X81127842Y-140657045D01*
X81039193Y-140443027D01*
X80994000Y-140215826D01*
X80994000Y-139984174D01*
X81039193Y-139756973D01*
X81127842Y-139542955D01*
X81182167Y-139461652D01*
X81256539Y-139350346D01*
X81420346Y-139186539D01*
X81612954Y-139057843D01*
X81612955Y-139057842D01*
X81826973Y-138969193D01*
X81978440Y-138939064D01*
X82054173Y-138924000D01*
X82285827Y-138924000D01*
X82361560Y-138939064D01*
X82361560Y-138939064D01*
G37*
G36*
X44450443Y-137975519D02*
G01*
X44516627Y-137982037D01*
X44686466Y-138033557D01*
X44842991Y-138117222D01*
X44878729Y-138146552D01*
X44980186Y-138229814D01*
X45063448Y-138331271D01*
X45092778Y-138367009D01*
X45176443Y-138523534D01*
X45227963Y-138693373D01*
X45245359Y-138870000D01*
X45227963Y-139046627D01*
X45176443Y-139216466D01*
X45092778Y-139372991D01*
X45063448Y-139408729D01*
X44980186Y-139510186D01*
X44878729Y-139593448D01*
X44842991Y-139622778D01*
X44686466Y-139706443D01*
X44516627Y-139757963D01*
X44471688Y-139762389D01*
X44384260Y-139771000D01*
X44295740Y-139771000D01*
X44208312Y-139762389D01*
X44163373Y-139757963D01*
X43993534Y-139706443D01*
X43837009Y-139622778D01*
X43801271Y-139593448D01*
X43699814Y-139510186D01*
X43616552Y-139408729D01*
X43587222Y-139372991D01*
X43503557Y-139216466D01*
X43452037Y-139046627D01*
X43434641Y-138870000D01*
X43452037Y-138693373D01*
X43503557Y-138523534D01*
X43587222Y-138367009D01*
X43616552Y-138331271D01*
X43699814Y-138229814D01*
X43801271Y-138146552D01*
X43837009Y-138117222D01*
X43993534Y-138033557D01*
X44163373Y-137982037D01*
X44229557Y-137975519D01*
X44295740Y-137969000D01*
X44384260Y-137969000D01*
X44450443Y-137975519D01*
X44450443Y-137975519D01*
G37*
G36*
X46990443Y-137975519D02*
G01*
X47056627Y-137982037D01*
X47226466Y-138033557D01*
X47382991Y-138117222D01*
X47418729Y-138146552D01*
X47520186Y-138229814D01*
X47603448Y-138331271D01*
X47632778Y-138367009D01*
X47716443Y-138523534D01*
X47767963Y-138693373D01*
X47785359Y-138870000D01*
X47767963Y-139046627D01*
X47716443Y-139216466D01*
X47632778Y-139372991D01*
X47603448Y-139408729D01*
X47520186Y-139510186D01*
X47418729Y-139593448D01*
X47382991Y-139622778D01*
X47226466Y-139706443D01*
X47056627Y-139757963D01*
X47011688Y-139762389D01*
X46924260Y-139771000D01*
X46835740Y-139771000D01*
X46748312Y-139762389D01*
X46703373Y-139757963D01*
X46533534Y-139706443D01*
X46377009Y-139622778D01*
X46341271Y-139593448D01*
X46239814Y-139510186D01*
X46156552Y-139408729D01*
X46127222Y-139372991D01*
X46043557Y-139216466D01*
X45992037Y-139046627D01*
X45974641Y-138870000D01*
X45992037Y-138693373D01*
X46043557Y-138523534D01*
X46127222Y-138367009D01*
X46156552Y-138331271D01*
X46239814Y-138229814D01*
X46341271Y-138146552D01*
X46377009Y-138117222D01*
X46533534Y-138033557D01*
X46703373Y-137982037D01*
X46769557Y-137975519D01*
X46835740Y-137969000D01*
X46924260Y-137969000D01*
X46990443Y-137975519D01*
X46990443Y-137975519D01*
G37*
G36*
X44450442Y-135435518D02*
G01*
X44516627Y-135442037D01*
X44686466Y-135493557D01*
X44842991Y-135577222D01*
X44878729Y-135606552D01*
X44980186Y-135689814D01*
X45063448Y-135791271D01*
X45092778Y-135827009D01*
X45176443Y-135983534D01*
X45227963Y-136153373D01*
X45245359Y-136330000D01*
X45227963Y-136506627D01*
X45176443Y-136676466D01*
X45092778Y-136832991D01*
X45063448Y-136868729D01*
X44980186Y-136970186D01*
X44878729Y-137053448D01*
X44842991Y-137082778D01*
X44686466Y-137166443D01*
X44516627Y-137217963D01*
X44450443Y-137224481D01*
X44384260Y-137231000D01*
X44295740Y-137231000D01*
X44229557Y-137224481D01*
X44163373Y-137217963D01*
X43993534Y-137166443D01*
X43837009Y-137082778D01*
X43801271Y-137053448D01*
X43699814Y-136970186D01*
X43616552Y-136868729D01*
X43587222Y-136832991D01*
X43503557Y-136676466D01*
X43452037Y-136506627D01*
X43434641Y-136330000D01*
X43452037Y-136153373D01*
X43503557Y-135983534D01*
X43587222Y-135827009D01*
X43616552Y-135791271D01*
X43699814Y-135689814D01*
X43801271Y-135606552D01*
X43837009Y-135577222D01*
X43993534Y-135493557D01*
X44163373Y-135442037D01*
X44229558Y-135435518D01*
X44295740Y-135429000D01*
X44384260Y-135429000D01*
X44450442Y-135435518D01*
X44450442Y-135435518D01*
G37*
G36*
X46990442Y-135435518D02*
G01*
X47056627Y-135442037D01*
X47226466Y-135493557D01*
X47382991Y-135577222D01*
X47418729Y-135606552D01*
X47520186Y-135689814D01*
X47603448Y-135791271D01*
X47632778Y-135827009D01*
X47716443Y-135983534D01*
X47767963Y-136153373D01*
X47785359Y-136330000D01*
X47767963Y-136506627D01*
X47716443Y-136676466D01*
X47632778Y-136832991D01*
X47603448Y-136868729D01*
X47520186Y-136970186D01*
X47418729Y-137053448D01*
X47382991Y-137082778D01*
X47226466Y-137166443D01*
X47056627Y-137217963D01*
X46990443Y-137224481D01*
X46924260Y-137231000D01*
X46835740Y-137231000D01*
X46769557Y-137224481D01*
X46703373Y-137217963D01*
X46533534Y-137166443D01*
X46377009Y-137082778D01*
X46341271Y-137053448D01*
X46239814Y-136970186D01*
X46156552Y-136868729D01*
X46127222Y-136832991D01*
X46043557Y-136676466D01*
X45992037Y-136506627D01*
X45974641Y-136330000D01*
X45992037Y-136153373D01*
X46043557Y-135983534D01*
X46127222Y-135827009D01*
X46156552Y-135791271D01*
X46239814Y-135689814D01*
X46341271Y-135606552D01*
X46377009Y-135577222D01*
X46533534Y-135493557D01*
X46703373Y-135442037D01*
X46769558Y-135435518D01*
X46835740Y-135429000D01*
X46924260Y-135429000D01*
X46990442Y-135435518D01*
X46990442Y-135435518D01*
G37*
G36*
X46990442Y-132895518D02*
G01*
X47056627Y-132902037D01*
X47226466Y-132953557D01*
X47382991Y-133037222D01*
X47392071Y-133044674D01*
X47520186Y-133149814D01*
X47599951Y-133247009D01*
X47632778Y-133287009D01*
X47716443Y-133443534D01*
X47767963Y-133613373D01*
X47785359Y-133790000D01*
X47767963Y-133966627D01*
X47716443Y-134136466D01*
X47632778Y-134292991D01*
X47603448Y-134328729D01*
X47520186Y-134430186D01*
X47431731Y-134502778D01*
X47382991Y-134542778D01*
X47226466Y-134626443D01*
X47056627Y-134677963D01*
X46990442Y-134684482D01*
X46924260Y-134691000D01*
X46835740Y-134691000D01*
X46769558Y-134684482D01*
X46703373Y-134677963D01*
X46533534Y-134626443D01*
X46377009Y-134542778D01*
X46328269Y-134502778D01*
X46239814Y-134430186D01*
X46156552Y-134328729D01*
X46127222Y-134292991D01*
X46043557Y-134136466D01*
X45992037Y-133966627D01*
X45974641Y-133790000D01*
X45992037Y-133613373D01*
X46043557Y-133443534D01*
X46127222Y-133287009D01*
X46160049Y-133247009D01*
X46239814Y-133149814D01*
X46367929Y-133044674D01*
X46377009Y-133037222D01*
X46533534Y-132953557D01*
X46703373Y-132902037D01*
X46769558Y-132895518D01*
X46835740Y-132889000D01*
X46924260Y-132889000D01*
X46990442Y-132895518D01*
X46990442Y-132895518D01*
G37*
G36*
X44450442Y-132895518D02*
G01*
X44516627Y-132902037D01*
X44686466Y-132953557D01*
X44842991Y-133037222D01*
X44852071Y-133044674D01*
X44980186Y-133149814D01*
X45059951Y-133247009D01*
X45092778Y-133287009D01*
X45176443Y-133443534D01*
X45227963Y-133613373D01*
X45245359Y-133790000D01*
X45227963Y-133966627D01*
X45176443Y-134136466D01*
X45092778Y-134292991D01*
X45063448Y-134328729D01*
X44980186Y-134430186D01*
X44891731Y-134502778D01*
X44842991Y-134542778D01*
X44686466Y-134626443D01*
X44516627Y-134677963D01*
X44450442Y-134684482D01*
X44384260Y-134691000D01*
X44295740Y-134691000D01*
X44229558Y-134684482D01*
X44163373Y-134677963D01*
X43993534Y-134626443D01*
X43837009Y-134542778D01*
X43788269Y-134502778D01*
X43699814Y-134430186D01*
X43616552Y-134328729D01*
X43587222Y-134292991D01*
X43503557Y-134136466D01*
X43452037Y-133966627D01*
X43434641Y-133790000D01*
X43452037Y-133613373D01*
X43503557Y-133443534D01*
X43587222Y-133287009D01*
X43620049Y-133247009D01*
X43699814Y-133149814D01*
X43827929Y-133044674D01*
X43837009Y-133037222D01*
X43993534Y-132953557D01*
X44163373Y-132902037D01*
X44229558Y-132895518D01*
X44295740Y-132889000D01*
X44384260Y-132889000D01*
X44450442Y-132895518D01*
X44450442Y-132895518D01*
G37*
G36*
X143231000Y-134651000D02*
G01*
X141429000Y-134651000D01*
X141429000Y-132849000D01*
X143231000Y-132849000D01*
X143231000Y-134651000D01*
X143231000Y-134651000D01*
G37*
G36*
X139900443Y-132855519D02*
G01*
X139966627Y-132862037D01*
X140136466Y-132913557D01*
X140292991Y-132997222D01*
X140328729Y-133026552D01*
X140430186Y-133109814D01*
X140513448Y-133211271D01*
X140542778Y-133247009D01*
X140626443Y-133403534D01*
X140677963Y-133573373D01*
X140695359Y-133750000D01*
X140677963Y-133926627D01*
X140626443Y-134096466D01*
X140542778Y-134252991D01*
X140513448Y-134288729D01*
X140430186Y-134390186D01*
X140328729Y-134473448D01*
X140292991Y-134502778D01*
X140136466Y-134586443D01*
X139966627Y-134637963D01*
X139900443Y-134644481D01*
X139834260Y-134651000D01*
X139745740Y-134651000D01*
X139679557Y-134644481D01*
X139613373Y-134637963D01*
X139443534Y-134586443D01*
X139287009Y-134502778D01*
X139251271Y-134473448D01*
X139149814Y-134390186D01*
X139066552Y-134288729D01*
X139037222Y-134252991D01*
X138953557Y-134096466D01*
X138902037Y-133926627D01*
X138884641Y-133750000D01*
X138902037Y-133573373D01*
X138953557Y-133403534D01*
X139037222Y-133247009D01*
X139066552Y-133211271D01*
X139149814Y-133109814D01*
X139251271Y-133026552D01*
X139287009Y-132997222D01*
X139443534Y-132913557D01*
X139613373Y-132862037D01*
X139679557Y-132855519D01*
X139745740Y-132849000D01*
X139834260Y-132849000D01*
X139900443Y-132855519D01*
X139900443Y-132855519D01*
G37*
G36*
X73652585Y-130788802D02*
G01*
X73802410Y-130818604D01*
X74084674Y-130935521D01*
X74338705Y-131105259D01*
X74554741Y-131321295D01*
X74724479Y-131575326D01*
X74841396Y-131857590D01*
X74847880Y-131890186D01*
X74886918Y-132086442D01*
X74901000Y-132157240D01*
X74901000Y-132462760D01*
X74841396Y-132762410D01*
X74724479Y-133044674D01*
X74554741Y-133298705D01*
X74338705Y-133514741D01*
X74084674Y-133684479D01*
X73802410Y-133801396D01*
X73652585Y-133831198D01*
X73502761Y-133861000D01*
X73197239Y-133861000D01*
X73047415Y-133831198D01*
X72897590Y-133801396D01*
X72615326Y-133684479D01*
X72361295Y-133514741D01*
X72145259Y-133298705D01*
X71975521Y-133044674D01*
X71858604Y-132762410D01*
X71799000Y-132462760D01*
X71799000Y-132157240D01*
X71813083Y-132086442D01*
X71852120Y-131890186D01*
X71858604Y-131857590D01*
X71975521Y-131575326D01*
X72145259Y-131321295D01*
X72361295Y-131105259D01*
X72615326Y-130935521D01*
X72897590Y-130818604D01*
X73047415Y-130788802D01*
X73197239Y-130759000D01*
X73502761Y-130759000D01*
X73652585Y-130788802D01*
X73652585Y-130788802D01*
G37*
G36*
X67302585Y-130788802D02*
G01*
X67452410Y-130818604D01*
X67734674Y-130935521D01*
X67988705Y-131105259D01*
X68204741Y-131321295D01*
X68374479Y-131575326D01*
X68491396Y-131857590D01*
X68497880Y-131890186D01*
X68536918Y-132086442D01*
X68551000Y-132157240D01*
X68551000Y-132462760D01*
X68491396Y-132762410D01*
X68374479Y-133044674D01*
X68204741Y-133298705D01*
X67988705Y-133514741D01*
X67734674Y-133684479D01*
X67452410Y-133801396D01*
X67302585Y-133831198D01*
X67152761Y-133861000D01*
X66847239Y-133861000D01*
X66697415Y-133831198D01*
X66547590Y-133801396D01*
X66265326Y-133684479D01*
X66011295Y-133514741D01*
X65795259Y-133298705D01*
X65625521Y-133044674D01*
X65508604Y-132762410D01*
X65449000Y-132462760D01*
X65449000Y-132157240D01*
X65463083Y-132086442D01*
X65502120Y-131890186D01*
X65508604Y-131857590D01*
X65625521Y-131575326D01*
X65795259Y-131321295D01*
X66011295Y-131105259D01*
X66265326Y-130935521D01*
X66547590Y-130818604D01*
X66697415Y-130788802D01*
X66847239Y-130759000D01*
X67152761Y-130759000D01*
X67302585Y-130788802D01*
X67302585Y-130788802D01*
G37*
G36*
X60952585Y-130788802D02*
G01*
X61102410Y-130818604D01*
X61384674Y-130935521D01*
X61638705Y-131105259D01*
X61854741Y-131321295D01*
X62024479Y-131575326D01*
X62141396Y-131857590D01*
X62147880Y-131890186D01*
X62186918Y-132086442D01*
X62201000Y-132157240D01*
X62201000Y-132462760D01*
X62141396Y-132762410D01*
X62024479Y-133044674D01*
X61854741Y-133298705D01*
X61638705Y-133514741D01*
X61384674Y-133684479D01*
X61102410Y-133801396D01*
X60952585Y-133831198D01*
X60802761Y-133861000D01*
X60497239Y-133861000D01*
X60347415Y-133831198D01*
X60197590Y-133801396D01*
X59915326Y-133684479D01*
X59661295Y-133514741D01*
X59445259Y-133298705D01*
X59275521Y-133044674D01*
X59158604Y-132762410D01*
X59099000Y-132462760D01*
X59099000Y-132157240D01*
X59113083Y-132086442D01*
X59152120Y-131890186D01*
X59158604Y-131857590D01*
X59275521Y-131575326D01*
X59445259Y-131321295D01*
X59661295Y-131105259D01*
X59915326Y-130935521D01*
X60197590Y-130818604D01*
X60347415Y-130788802D01*
X60497239Y-130759000D01*
X60802761Y-130759000D01*
X60952585Y-130788802D01*
X60952585Y-130788802D01*
G37*
G36*
X46990442Y-130355518D02*
G01*
X47056627Y-130362037D01*
X47226466Y-130413557D01*
X47382991Y-130497222D01*
X47418729Y-130526552D01*
X47520186Y-130609814D01*
X47599951Y-130707009D01*
X47632778Y-130747009D01*
X47716443Y-130903534D01*
X47767963Y-131073373D01*
X47785359Y-131250000D01*
X47767963Y-131426627D01*
X47716443Y-131596466D01*
X47632778Y-131752991D01*
X47603448Y-131788729D01*
X47520186Y-131890186D01*
X47431731Y-131962778D01*
X47382991Y-132002778D01*
X47226466Y-132086443D01*
X47056627Y-132137963D01*
X46990442Y-132144482D01*
X46924260Y-132151000D01*
X46835740Y-132151000D01*
X46769558Y-132144482D01*
X46703373Y-132137963D01*
X46533534Y-132086443D01*
X46377009Y-132002778D01*
X46328269Y-131962778D01*
X46239814Y-131890186D01*
X46156552Y-131788729D01*
X46127222Y-131752991D01*
X46043557Y-131596466D01*
X45992037Y-131426627D01*
X45974641Y-131250000D01*
X45992037Y-131073373D01*
X46043557Y-130903534D01*
X46127222Y-130747009D01*
X46160049Y-130707009D01*
X46239814Y-130609814D01*
X46341271Y-130526552D01*
X46377009Y-130497222D01*
X46533534Y-130413557D01*
X46703373Y-130362037D01*
X46769558Y-130355518D01*
X46835740Y-130349000D01*
X46924260Y-130349000D01*
X46990442Y-130355518D01*
X46990442Y-130355518D01*
G37*
G36*
X44450442Y-130355518D02*
G01*
X44516627Y-130362037D01*
X44686466Y-130413557D01*
X44842991Y-130497222D01*
X44878729Y-130526552D01*
X44980186Y-130609814D01*
X45059951Y-130707009D01*
X45092778Y-130747009D01*
X45176443Y-130903534D01*
X45227963Y-131073373D01*
X45245359Y-131250000D01*
X45227963Y-131426627D01*
X45176443Y-131596466D01*
X45092778Y-131752991D01*
X45063448Y-131788729D01*
X44980186Y-131890186D01*
X44891731Y-131962778D01*
X44842991Y-132002778D01*
X44686466Y-132086443D01*
X44516627Y-132137963D01*
X44450442Y-132144482D01*
X44384260Y-132151000D01*
X44295740Y-132151000D01*
X44229558Y-132144482D01*
X44163373Y-132137963D01*
X43993534Y-132086443D01*
X43837009Y-132002778D01*
X43788269Y-131962778D01*
X43699814Y-131890186D01*
X43616552Y-131788729D01*
X43587222Y-131752991D01*
X43503557Y-131596466D01*
X43452037Y-131426627D01*
X43434641Y-131250000D01*
X43452037Y-131073373D01*
X43503557Y-130903534D01*
X43587222Y-130747009D01*
X43620049Y-130707009D01*
X43699814Y-130609814D01*
X43801271Y-130526552D01*
X43837009Y-130497222D01*
X43993534Y-130413557D01*
X44163373Y-130362037D01*
X44229558Y-130355518D01*
X44295740Y-130349000D01*
X44384260Y-130349000D01*
X44450442Y-130355518D01*
X44450442Y-130355518D01*
G37*
G36*
X139900442Y-130315518D02*
G01*
X139966627Y-130322037D01*
X140136466Y-130373557D01*
X140292991Y-130457222D01*
X140328729Y-130486552D01*
X140430186Y-130569814D01*
X140513448Y-130671271D01*
X140542778Y-130707009D01*
X140626443Y-130863534D01*
X140677963Y-131033373D01*
X140695359Y-131210000D01*
X140677963Y-131386627D01*
X140626443Y-131556466D01*
X140542778Y-131712991D01*
X140513448Y-131748729D01*
X140430186Y-131850186D01*
X140328729Y-131933448D01*
X140292991Y-131962778D01*
X140136466Y-132046443D01*
X139966627Y-132097963D01*
X139900443Y-132104481D01*
X139834260Y-132111000D01*
X139745740Y-132111000D01*
X139679557Y-132104481D01*
X139613373Y-132097963D01*
X139443534Y-132046443D01*
X139287009Y-131962778D01*
X139251271Y-131933448D01*
X139149814Y-131850186D01*
X139066552Y-131748729D01*
X139037222Y-131712991D01*
X138953557Y-131556466D01*
X138902037Y-131386627D01*
X138884641Y-131210000D01*
X138902037Y-131033373D01*
X138953557Y-130863534D01*
X139037222Y-130707009D01*
X139066552Y-130671271D01*
X139149814Y-130569814D01*
X139251271Y-130486552D01*
X139287009Y-130457222D01*
X139443534Y-130373557D01*
X139613373Y-130322037D01*
X139679558Y-130315518D01*
X139745740Y-130309000D01*
X139834260Y-130309000D01*
X139900442Y-130315518D01*
X139900442Y-130315518D01*
G37*
G36*
X142440442Y-130315518D02*
G01*
X142506627Y-130322037D01*
X142676466Y-130373557D01*
X142832991Y-130457222D01*
X142868729Y-130486552D01*
X142970186Y-130569814D01*
X143053448Y-130671271D01*
X143082778Y-130707009D01*
X143166443Y-130863534D01*
X143217963Y-131033373D01*
X143235359Y-131210000D01*
X143217963Y-131386627D01*
X143166443Y-131556466D01*
X143082778Y-131712991D01*
X143053448Y-131748729D01*
X142970186Y-131850186D01*
X142868729Y-131933448D01*
X142832991Y-131962778D01*
X142676466Y-132046443D01*
X142506627Y-132097963D01*
X142440443Y-132104481D01*
X142374260Y-132111000D01*
X142285740Y-132111000D01*
X142219557Y-132104481D01*
X142153373Y-132097963D01*
X141983534Y-132046443D01*
X141827009Y-131962778D01*
X141791271Y-131933448D01*
X141689814Y-131850186D01*
X141606552Y-131748729D01*
X141577222Y-131712991D01*
X141493557Y-131556466D01*
X141442037Y-131386627D01*
X141424641Y-131210000D01*
X141442037Y-131033373D01*
X141493557Y-130863534D01*
X141577222Y-130707009D01*
X141606552Y-130671271D01*
X141689814Y-130569814D01*
X141791271Y-130486552D01*
X141827009Y-130457222D01*
X141983534Y-130373557D01*
X142153373Y-130322037D01*
X142219558Y-130315518D01*
X142285740Y-130309000D01*
X142374260Y-130309000D01*
X142440442Y-130315518D01*
X142440442Y-130315518D01*
G37*
G36*
X47781000Y-129611000D02*
G01*
X45979000Y-129611000D01*
X45979000Y-127809000D01*
X47781000Y-127809000D01*
X47781000Y-129611000D01*
X47781000Y-129611000D01*
G37*
G36*
X44450443Y-127815519D02*
G01*
X44516627Y-127822037D01*
X44686466Y-127873557D01*
X44842991Y-127957222D01*
X44878729Y-127986552D01*
X44980186Y-128069814D01*
X45059951Y-128167009D01*
X45092778Y-128207009D01*
X45176443Y-128363534D01*
X45227963Y-128533373D01*
X45245359Y-128710000D01*
X45227963Y-128886627D01*
X45176443Y-129056466D01*
X45092778Y-129212991D01*
X45063448Y-129248729D01*
X44980186Y-129350186D01*
X44891731Y-129422778D01*
X44842991Y-129462778D01*
X44686466Y-129546443D01*
X44516627Y-129597963D01*
X44450443Y-129604481D01*
X44384260Y-129611000D01*
X44295740Y-129611000D01*
X44229557Y-129604481D01*
X44163373Y-129597963D01*
X43993534Y-129546443D01*
X43837009Y-129462778D01*
X43788269Y-129422778D01*
X43699814Y-129350186D01*
X43616552Y-129248729D01*
X43587222Y-129212991D01*
X43503557Y-129056466D01*
X43452037Y-128886627D01*
X43434641Y-128710000D01*
X43452037Y-128533373D01*
X43503557Y-128363534D01*
X43587222Y-128207009D01*
X43620049Y-128167009D01*
X43699814Y-128069814D01*
X43801271Y-127986552D01*
X43837009Y-127957222D01*
X43993534Y-127873557D01*
X44163373Y-127822037D01*
X44229557Y-127815519D01*
X44295740Y-127809000D01*
X44384260Y-127809000D01*
X44450443Y-127815519D01*
X44450443Y-127815519D01*
G37*
G36*
X142440442Y-127775518D02*
G01*
X142506627Y-127782037D01*
X142676466Y-127833557D01*
X142832991Y-127917222D01*
X142868729Y-127946552D01*
X142970186Y-128029814D01*
X143053448Y-128131271D01*
X143082778Y-128167009D01*
X143166443Y-128323534D01*
X143217963Y-128493373D01*
X143235359Y-128670000D01*
X143217963Y-128846627D01*
X143166443Y-129016466D01*
X143082778Y-129172991D01*
X143053448Y-129208729D01*
X142970186Y-129310186D01*
X142868729Y-129393448D01*
X142832991Y-129422778D01*
X142676466Y-129506443D01*
X142506627Y-129557963D01*
X142440442Y-129564482D01*
X142374260Y-129571000D01*
X142285740Y-129571000D01*
X142219558Y-129564482D01*
X142153373Y-129557963D01*
X141983534Y-129506443D01*
X141827009Y-129422778D01*
X141791271Y-129393448D01*
X141689814Y-129310186D01*
X141606552Y-129208729D01*
X141577222Y-129172991D01*
X141493557Y-129016466D01*
X141442037Y-128846627D01*
X141424641Y-128670000D01*
X141442037Y-128493373D01*
X141493557Y-128323534D01*
X141577222Y-128167009D01*
X141606552Y-128131271D01*
X141689814Y-128029814D01*
X141791271Y-127946552D01*
X141827009Y-127917222D01*
X141983534Y-127833557D01*
X142153373Y-127782037D01*
X142219558Y-127775518D01*
X142285740Y-127769000D01*
X142374260Y-127769000D01*
X142440442Y-127775518D01*
X142440442Y-127775518D01*
G37*
G36*
X139900442Y-127775518D02*
G01*
X139966627Y-127782037D01*
X140136466Y-127833557D01*
X140292991Y-127917222D01*
X140328729Y-127946552D01*
X140430186Y-128029814D01*
X140513448Y-128131271D01*
X140542778Y-128167009D01*
X140626443Y-128323534D01*
X140677963Y-128493373D01*
X140695359Y-128670000D01*
X140677963Y-128846627D01*
X140626443Y-129016466D01*
X140542778Y-129172991D01*
X140513448Y-129208729D01*
X140430186Y-129310186D01*
X140328729Y-129393448D01*
X140292991Y-129422778D01*
X140136466Y-129506443D01*
X139966627Y-129557963D01*
X139900442Y-129564482D01*
X139834260Y-129571000D01*
X139745740Y-129571000D01*
X139679558Y-129564482D01*
X139613373Y-129557963D01*
X139443534Y-129506443D01*
X139287009Y-129422778D01*
X139251271Y-129393448D01*
X139149814Y-129310186D01*
X139066552Y-129208729D01*
X139037222Y-129172991D01*
X138953557Y-129016466D01*
X138902037Y-128846627D01*
X138884641Y-128670000D01*
X138902037Y-128493373D01*
X138953557Y-128323534D01*
X139037222Y-128167009D01*
X139066552Y-128131271D01*
X139149814Y-128029814D01*
X139251271Y-127946552D01*
X139287009Y-127917222D01*
X139443534Y-127833557D01*
X139613373Y-127782037D01*
X139679558Y-127775518D01*
X139745740Y-127769000D01*
X139834260Y-127769000D01*
X139900442Y-127775518D01*
X139900442Y-127775518D01*
G37*
G36*
X139900442Y-125235518D02*
G01*
X139966627Y-125242037D01*
X140136466Y-125293557D01*
X140292991Y-125377222D01*
X140328729Y-125406552D01*
X140430186Y-125489814D01*
X140513448Y-125591271D01*
X140542778Y-125627009D01*
X140626443Y-125783534D01*
X140677963Y-125953373D01*
X140695359Y-126130000D01*
X140677963Y-126306627D01*
X140626443Y-126476466D01*
X140542778Y-126632991D01*
X140513448Y-126668729D01*
X140430186Y-126770186D01*
X140328729Y-126853448D01*
X140292991Y-126882778D01*
X140136466Y-126966443D01*
X139966627Y-127017963D01*
X139900442Y-127024482D01*
X139834260Y-127031000D01*
X139745740Y-127031000D01*
X139679558Y-127024482D01*
X139613373Y-127017963D01*
X139443534Y-126966443D01*
X139287009Y-126882778D01*
X139251271Y-126853448D01*
X139149814Y-126770186D01*
X139066552Y-126668729D01*
X139037222Y-126632991D01*
X138953557Y-126476466D01*
X138902037Y-126306627D01*
X138884641Y-126130000D01*
X138902037Y-125953373D01*
X138953557Y-125783534D01*
X139037222Y-125627009D01*
X139066552Y-125591271D01*
X139149814Y-125489814D01*
X139251271Y-125406552D01*
X139287009Y-125377222D01*
X139443534Y-125293557D01*
X139613373Y-125242037D01*
X139679558Y-125235518D01*
X139745740Y-125229000D01*
X139834260Y-125229000D01*
X139900442Y-125235518D01*
X139900442Y-125235518D01*
G37*
G36*
X142440442Y-125235518D02*
G01*
X142506627Y-125242037D01*
X142676466Y-125293557D01*
X142832991Y-125377222D01*
X142868729Y-125406552D01*
X142970186Y-125489814D01*
X143053448Y-125591271D01*
X143082778Y-125627009D01*
X143166443Y-125783534D01*
X143217963Y-125953373D01*
X143235359Y-126130000D01*
X143217963Y-126306627D01*
X143166443Y-126476466D01*
X143082778Y-126632991D01*
X143053448Y-126668729D01*
X142970186Y-126770186D01*
X142868729Y-126853448D01*
X142832991Y-126882778D01*
X142676466Y-126966443D01*
X142506627Y-127017963D01*
X142440442Y-127024482D01*
X142374260Y-127031000D01*
X142285740Y-127031000D01*
X142219558Y-127024482D01*
X142153373Y-127017963D01*
X141983534Y-126966443D01*
X141827009Y-126882778D01*
X141791271Y-126853448D01*
X141689814Y-126770186D01*
X141606552Y-126668729D01*
X141577222Y-126632991D01*
X141493557Y-126476466D01*
X141442037Y-126306627D01*
X141424641Y-126130000D01*
X141442037Y-125953373D01*
X141493557Y-125783534D01*
X141577222Y-125627009D01*
X141606552Y-125591271D01*
X141689814Y-125489814D01*
X141791271Y-125406552D01*
X141827009Y-125377222D01*
X141983534Y-125293557D01*
X142153373Y-125242037D01*
X142219558Y-125235518D01*
X142285740Y-125229000D01*
X142374260Y-125229000D01*
X142440442Y-125235518D01*
X142440442Y-125235518D01*
G37*
G36*
X99610443Y-124645519D02*
G01*
X99676627Y-124652037D01*
X99846466Y-124703557D01*
X100002991Y-124787222D01*
X100038729Y-124816552D01*
X100140186Y-124899814D01*
X100223448Y-125001271D01*
X100252778Y-125037009D01*
X100336443Y-125193534D01*
X100387963Y-125363373D01*
X100405359Y-125540000D01*
X100387963Y-125716627D01*
X100336443Y-125886466D01*
X100252778Y-126042991D01*
X100235143Y-126064479D01*
X100140186Y-126180186D01*
X100038729Y-126263448D01*
X100002991Y-126292778D01*
X99846466Y-126376443D01*
X99676627Y-126427963D01*
X99610443Y-126434481D01*
X99544260Y-126441000D01*
X99455740Y-126441000D01*
X99389557Y-126434481D01*
X99323373Y-126427963D01*
X99153534Y-126376443D01*
X98997009Y-126292778D01*
X98961271Y-126263448D01*
X98859814Y-126180186D01*
X98764857Y-126064479D01*
X98747222Y-126042991D01*
X98663557Y-125886466D01*
X98612037Y-125716627D01*
X98594641Y-125540000D01*
X98612037Y-125363373D01*
X98663557Y-125193534D01*
X98747222Y-125037009D01*
X98776552Y-125001271D01*
X98859814Y-124899814D01*
X98961271Y-124816552D01*
X98997009Y-124787222D01*
X99153534Y-124703557D01*
X99323373Y-124652037D01*
X99389557Y-124645519D01*
X99455740Y-124639000D01*
X99544260Y-124639000D01*
X99610443Y-124645519D01*
X99610443Y-124645519D01*
G37*
G36*
X87701000Y-126441000D02*
G01*
X85899000Y-126441000D01*
X85899000Y-124639000D01*
X87701000Y-124639000D01*
X87701000Y-126441000D01*
X87701000Y-126441000D01*
G37*
G36*
X91990443Y-124645519D02*
G01*
X92056627Y-124652037D01*
X92226466Y-124703557D01*
X92382991Y-124787222D01*
X92418729Y-124816552D01*
X92520186Y-124899814D01*
X92603448Y-125001271D01*
X92632778Y-125037009D01*
X92716443Y-125193534D01*
X92767963Y-125363373D01*
X92785359Y-125540000D01*
X92767963Y-125716627D01*
X92716443Y-125886466D01*
X92632778Y-126042991D01*
X92615143Y-126064479D01*
X92520186Y-126180186D01*
X92418729Y-126263448D01*
X92382991Y-126292778D01*
X92226466Y-126376443D01*
X92056627Y-126427963D01*
X91990443Y-126434481D01*
X91924260Y-126441000D01*
X91835740Y-126441000D01*
X91769557Y-126434481D01*
X91703373Y-126427963D01*
X91533534Y-126376443D01*
X91377009Y-126292778D01*
X91341271Y-126263448D01*
X91239814Y-126180186D01*
X91144857Y-126064479D01*
X91127222Y-126042991D01*
X91043557Y-125886466D01*
X90992037Y-125716627D01*
X90974641Y-125540000D01*
X90992037Y-125363373D01*
X91043557Y-125193534D01*
X91127222Y-125037009D01*
X91156552Y-125001271D01*
X91239814Y-124899814D01*
X91341271Y-124816552D01*
X91377009Y-124787222D01*
X91533534Y-124703557D01*
X91703373Y-124652037D01*
X91769557Y-124645519D01*
X91835740Y-124639000D01*
X91924260Y-124639000D01*
X91990443Y-124645519D01*
X91990443Y-124645519D01*
G37*
G36*
X94530443Y-124645519D02*
G01*
X94596627Y-124652037D01*
X94766466Y-124703557D01*
X94922991Y-124787222D01*
X94958729Y-124816552D01*
X95060186Y-124899814D01*
X95143448Y-125001271D01*
X95172778Y-125037009D01*
X95256443Y-125193534D01*
X95307963Y-125363373D01*
X95325359Y-125540000D01*
X95307963Y-125716627D01*
X95256443Y-125886466D01*
X95172778Y-126042991D01*
X95155143Y-126064479D01*
X95060186Y-126180186D01*
X94958729Y-126263448D01*
X94922991Y-126292778D01*
X94766466Y-126376443D01*
X94596627Y-126427963D01*
X94530443Y-126434481D01*
X94464260Y-126441000D01*
X94375740Y-126441000D01*
X94309557Y-126434481D01*
X94243373Y-126427963D01*
X94073534Y-126376443D01*
X93917009Y-126292778D01*
X93881271Y-126263448D01*
X93779814Y-126180186D01*
X93684857Y-126064479D01*
X93667222Y-126042991D01*
X93583557Y-125886466D01*
X93532037Y-125716627D01*
X93514641Y-125540000D01*
X93532037Y-125363373D01*
X93583557Y-125193534D01*
X93667222Y-125037009D01*
X93696552Y-125001271D01*
X93779814Y-124899814D01*
X93881271Y-124816552D01*
X93917009Y-124787222D01*
X94073534Y-124703557D01*
X94243373Y-124652037D01*
X94309557Y-124645519D01*
X94375740Y-124639000D01*
X94464260Y-124639000D01*
X94530443Y-124645519D01*
X94530443Y-124645519D01*
G37*
G36*
X97070443Y-124645519D02*
G01*
X97136627Y-124652037D01*
X97306466Y-124703557D01*
X97462991Y-124787222D01*
X97498729Y-124816552D01*
X97600186Y-124899814D01*
X97683448Y-125001271D01*
X97712778Y-125037009D01*
X97796443Y-125193534D01*
X97847963Y-125363373D01*
X97865359Y-125540000D01*
X97847963Y-125716627D01*
X97796443Y-125886466D01*
X97712778Y-126042991D01*
X97695143Y-126064479D01*
X97600186Y-126180186D01*
X97498729Y-126263448D01*
X97462991Y-126292778D01*
X97306466Y-126376443D01*
X97136627Y-126427963D01*
X97070443Y-126434481D01*
X97004260Y-126441000D01*
X96915740Y-126441000D01*
X96849557Y-126434481D01*
X96783373Y-126427963D01*
X96613534Y-126376443D01*
X96457009Y-126292778D01*
X96421271Y-126263448D01*
X96319814Y-126180186D01*
X96224857Y-126064479D01*
X96207222Y-126042991D01*
X96123557Y-125886466D01*
X96072037Y-125716627D01*
X96054641Y-125540000D01*
X96072037Y-125363373D01*
X96123557Y-125193534D01*
X96207222Y-125037009D01*
X96236552Y-125001271D01*
X96319814Y-124899814D01*
X96421271Y-124816552D01*
X96457009Y-124787222D01*
X96613534Y-124703557D01*
X96783373Y-124652037D01*
X96849557Y-124645519D01*
X96915740Y-124639000D01*
X97004260Y-124639000D01*
X97070443Y-124645519D01*
X97070443Y-124645519D01*
G37*
G36*
X102150443Y-124645519D02*
G01*
X102216627Y-124652037D01*
X102386466Y-124703557D01*
X102542991Y-124787222D01*
X102578729Y-124816552D01*
X102680186Y-124899814D01*
X102763448Y-125001271D01*
X102792778Y-125037009D01*
X102876443Y-125193534D01*
X102927963Y-125363373D01*
X102945359Y-125540000D01*
X102927963Y-125716627D01*
X102876443Y-125886466D01*
X102792778Y-126042991D01*
X102775143Y-126064479D01*
X102680186Y-126180186D01*
X102578729Y-126263448D01*
X102542991Y-126292778D01*
X102386466Y-126376443D01*
X102216627Y-126427963D01*
X102150443Y-126434481D01*
X102084260Y-126441000D01*
X101995740Y-126441000D01*
X101929557Y-126434481D01*
X101863373Y-126427963D01*
X101693534Y-126376443D01*
X101537009Y-126292778D01*
X101501271Y-126263448D01*
X101399814Y-126180186D01*
X101304857Y-126064479D01*
X101287222Y-126042991D01*
X101203557Y-125886466D01*
X101152037Y-125716627D01*
X101134641Y-125540000D01*
X101152037Y-125363373D01*
X101203557Y-125193534D01*
X101287222Y-125037009D01*
X101316552Y-125001271D01*
X101399814Y-124899814D01*
X101501271Y-124816552D01*
X101537009Y-124787222D01*
X101693534Y-124703557D01*
X101863373Y-124652037D01*
X101929557Y-124645519D01*
X101995740Y-124639000D01*
X102084260Y-124639000D01*
X102150443Y-124645519D01*
X102150443Y-124645519D01*
G37*
G36*
X104690443Y-124645519D02*
G01*
X104756627Y-124652037D01*
X104926466Y-124703557D01*
X105082991Y-124787222D01*
X105118729Y-124816552D01*
X105220186Y-124899814D01*
X105303448Y-125001271D01*
X105332778Y-125037009D01*
X105416443Y-125193534D01*
X105467963Y-125363373D01*
X105485359Y-125540000D01*
X105467963Y-125716627D01*
X105416443Y-125886466D01*
X105332778Y-126042991D01*
X105315143Y-126064479D01*
X105220186Y-126180186D01*
X105118729Y-126263448D01*
X105082991Y-126292778D01*
X104926466Y-126376443D01*
X104756627Y-126427963D01*
X104690443Y-126434481D01*
X104624260Y-126441000D01*
X104535740Y-126441000D01*
X104469557Y-126434481D01*
X104403373Y-126427963D01*
X104233534Y-126376443D01*
X104077009Y-126292778D01*
X104041271Y-126263448D01*
X103939814Y-126180186D01*
X103844857Y-126064479D01*
X103827222Y-126042991D01*
X103743557Y-125886466D01*
X103692037Y-125716627D01*
X103674641Y-125540000D01*
X103692037Y-125363373D01*
X103743557Y-125193534D01*
X103827222Y-125037009D01*
X103856552Y-125001271D01*
X103939814Y-124899814D01*
X104041271Y-124816552D01*
X104077009Y-124787222D01*
X104233534Y-124703557D01*
X104403373Y-124652037D01*
X104469557Y-124645519D01*
X104535740Y-124639000D01*
X104624260Y-124639000D01*
X104690443Y-124645519D01*
X104690443Y-124645519D01*
G37*
G36*
X89450443Y-124645519D02*
G01*
X89516627Y-124652037D01*
X89686466Y-124703557D01*
X89842991Y-124787222D01*
X89878729Y-124816552D01*
X89980186Y-124899814D01*
X90063448Y-125001271D01*
X90092778Y-125037009D01*
X90176443Y-125193534D01*
X90227963Y-125363373D01*
X90245359Y-125540000D01*
X90227963Y-125716627D01*
X90176443Y-125886466D01*
X90092778Y-126042991D01*
X90075143Y-126064479D01*
X89980186Y-126180186D01*
X89878729Y-126263448D01*
X89842991Y-126292778D01*
X89686466Y-126376443D01*
X89516627Y-126427963D01*
X89450443Y-126434481D01*
X89384260Y-126441000D01*
X89295740Y-126441000D01*
X89229557Y-126434481D01*
X89163373Y-126427963D01*
X88993534Y-126376443D01*
X88837009Y-126292778D01*
X88801271Y-126263448D01*
X88699814Y-126180186D01*
X88604857Y-126064479D01*
X88587222Y-126042991D01*
X88503557Y-125886466D01*
X88452037Y-125716627D01*
X88434641Y-125540000D01*
X88452037Y-125363373D01*
X88503557Y-125193534D01*
X88587222Y-125037009D01*
X88616552Y-125001271D01*
X88699814Y-124899814D01*
X88801271Y-124816552D01*
X88837009Y-124787222D01*
X88993534Y-124703557D01*
X89163373Y-124652037D01*
X89229557Y-124645519D01*
X89295740Y-124639000D01*
X89384260Y-124639000D01*
X89450443Y-124645519D01*
X89450443Y-124645519D01*
G37*
G36*
X67302585Y-123168802D02*
G01*
X67452410Y-123198604D01*
X67734674Y-123315521D01*
X67988705Y-123485259D01*
X68204741Y-123701295D01*
X68374479Y-123955326D01*
X68491396Y-124237590D01*
X68551000Y-124537240D01*
X68551000Y-124842760D01*
X68491396Y-125142410D01*
X68374479Y-125424674D01*
X68204741Y-125678705D01*
X67988705Y-125894741D01*
X67734674Y-126064479D01*
X67452410Y-126181396D01*
X67302585Y-126211198D01*
X67152761Y-126241000D01*
X66847239Y-126241000D01*
X66697415Y-126211198D01*
X66547590Y-126181396D01*
X66265326Y-126064479D01*
X66011295Y-125894741D01*
X65795259Y-125678705D01*
X65625521Y-125424674D01*
X65508604Y-125142410D01*
X65449000Y-124842760D01*
X65449000Y-124537240D01*
X65508604Y-124237590D01*
X65625521Y-123955326D01*
X65795259Y-123701295D01*
X66011295Y-123485259D01*
X66265326Y-123315521D01*
X66547590Y-123198604D01*
X66697415Y-123168802D01*
X66847239Y-123139000D01*
X67152761Y-123139000D01*
X67302585Y-123168802D01*
X67302585Y-123168802D01*
G37*
G36*
X73652585Y-123168802D02*
G01*
X73802410Y-123198604D01*
X74084674Y-123315521D01*
X74338705Y-123485259D01*
X74554741Y-123701295D01*
X74724479Y-123955326D01*
X74841396Y-124237590D01*
X74901000Y-124537240D01*
X74901000Y-124842760D01*
X74841396Y-125142410D01*
X74724479Y-125424674D01*
X74554741Y-125678705D01*
X74338705Y-125894741D01*
X74084674Y-126064479D01*
X73802410Y-126181396D01*
X73652585Y-126211198D01*
X73502761Y-126241000D01*
X73197239Y-126241000D01*
X73047415Y-126211198D01*
X72897590Y-126181396D01*
X72615326Y-126064479D01*
X72361295Y-125894741D01*
X72145259Y-125678705D01*
X71975521Y-125424674D01*
X71858604Y-125142410D01*
X71799000Y-124842760D01*
X71799000Y-124537240D01*
X71858604Y-124237590D01*
X71975521Y-123955326D01*
X72145259Y-123701295D01*
X72361295Y-123485259D01*
X72615326Y-123315521D01*
X72897590Y-123198604D01*
X73047415Y-123168802D01*
X73197239Y-123139000D01*
X73502761Y-123139000D01*
X73652585Y-123168802D01*
X73652585Y-123168802D01*
G37*
G36*
X60952585Y-123168802D02*
G01*
X61102410Y-123198604D01*
X61384674Y-123315521D01*
X61638705Y-123485259D01*
X61854741Y-123701295D01*
X62024479Y-123955326D01*
X62141396Y-124237590D01*
X62201000Y-124537240D01*
X62201000Y-124842760D01*
X62141396Y-125142410D01*
X62024479Y-125424674D01*
X61854741Y-125678705D01*
X61638705Y-125894741D01*
X61384674Y-126064479D01*
X61102410Y-126181396D01*
X60952585Y-126211198D01*
X60802761Y-126241000D01*
X60497239Y-126241000D01*
X60347415Y-126211198D01*
X60197590Y-126181396D01*
X59915326Y-126064479D01*
X59661295Y-125894741D01*
X59445259Y-125678705D01*
X59275521Y-125424674D01*
X59158604Y-125142410D01*
X59099000Y-124842760D01*
X59099000Y-124537240D01*
X59158604Y-124237590D01*
X59275521Y-123955326D01*
X59445259Y-123701295D01*
X59661295Y-123485259D01*
X59915326Y-123315521D01*
X60197590Y-123198604D01*
X60347415Y-123168802D01*
X60497239Y-123139000D01*
X60802761Y-123139000D01*
X60952585Y-123168802D01*
X60952585Y-123168802D01*
G37*
G36*
X142440443Y-122695519D02*
G01*
X142506627Y-122702037D01*
X142676466Y-122753557D01*
X142832991Y-122837222D01*
X142868729Y-122866552D01*
X142970186Y-122949814D01*
X143053448Y-123051271D01*
X143082778Y-123087009D01*
X143166443Y-123243534D01*
X143217963Y-123413373D01*
X143235359Y-123590000D01*
X143217963Y-123766627D01*
X143166443Y-123936466D01*
X143082778Y-124092991D01*
X143053448Y-124128729D01*
X142970186Y-124230186D01*
X142868729Y-124313448D01*
X142832991Y-124342778D01*
X142676466Y-124426443D01*
X142506627Y-124477963D01*
X142440443Y-124484481D01*
X142374260Y-124491000D01*
X142285740Y-124491000D01*
X142219557Y-124484481D01*
X142153373Y-124477963D01*
X141983534Y-124426443D01*
X141827009Y-124342778D01*
X141791271Y-124313448D01*
X141689814Y-124230186D01*
X141606552Y-124128729D01*
X141577222Y-124092991D01*
X141493557Y-123936466D01*
X141442037Y-123766627D01*
X141424641Y-123590000D01*
X141442037Y-123413373D01*
X141493557Y-123243534D01*
X141577222Y-123087009D01*
X141606552Y-123051271D01*
X141689814Y-122949814D01*
X141791271Y-122866552D01*
X141827009Y-122837222D01*
X141983534Y-122753557D01*
X142153373Y-122702037D01*
X142219557Y-122695519D01*
X142285740Y-122689000D01*
X142374260Y-122689000D01*
X142440443Y-122695519D01*
X142440443Y-122695519D01*
G37*
G36*
X139900443Y-122695519D02*
G01*
X139966627Y-122702037D01*
X140136466Y-122753557D01*
X140292991Y-122837222D01*
X140328729Y-122866552D01*
X140430186Y-122949814D01*
X140513448Y-123051271D01*
X140542778Y-123087009D01*
X140626443Y-123243534D01*
X140677963Y-123413373D01*
X140695359Y-123590000D01*
X140677963Y-123766627D01*
X140626443Y-123936466D01*
X140542778Y-124092991D01*
X140513448Y-124128729D01*
X140430186Y-124230186D01*
X140328729Y-124313448D01*
X140292991Y-124342778D01*
X140136466Y-124426443D01*
X139966627Y-124477963D01*
X139900443Y-124484481D01*
X139834260Y-124491000D01*
X139745740Y-124491000D01*
X139679557Y-124484481D01*
X139613373Y-124477963D01*
X139443534Y-124426443D01*
X139287009Y-124342778D01*
X139251271Y-124313448D01*
X139149814Y-124230186D01*
X139066552Y-124128729D01*
X139037222Y-124092991D01*
X138953557Y-123936466D01*
X138902037Y-123766627D01*
X138884641Y-123590000D01*
X138902037Y-123413373D01*
X138953557Y-123243534D01*
X139037222Y-123087009D01*
X139066552Y-123051271D01*
X139149814Y-122949814D01*
X139251271Y-122866552D01*
X139287009Y-122837222D01*
X139443534Y-122753557D01*
X139613373Y-122702037D01*
X139679557Y-122695519D01*
X139745740Y-122689000D01*
X139834260Y-122689000D01*
X139900443Y-122695519D01*
X139900443Y-122695519D01*
G37*
G36*
X43871000Y-123951000D02*
G01*
X41969000Y-123951000D01*
X41969000Y-122049000D01*
X43871000Y-122049000D01*
X43871000Y-123951000D01*
X43871000Y-123951000D01*
G37*
G36*
X45737395Y-122085546D02*
G01*
X45910466Y-122157234D01*
X45987818Y-122208919D01*
X46066227Y-122261310D01*
X46198690Y-122393773D01*
X46198691Y-122393775D01*
X46302766Y-122549534D01*
X46374454Y-122722605D01*
X46411000Y-122906333D01*
X46411000Y-123093667D01*
X46374454Y-123277395D01*
X46302766Y-123450466D01*
X46302765Y-123450467D01*
X46198690Y-123606227D01*
X46066227Y-123738690D01*
X46045141Y-123752779D01*
X45910466Y-123842766D01*
X45737395Y-123914454D01*
X45553667Y-123951000D01*
X45366333Y-123951000D01*
X45182605Y-123914454D01*
X45009534Y-123842766D01*
X44874859Y-123752779D01*
X44853773Y-123738690D01*
X44721310Y-123606227D01*
X44617235Y-123450467D01*
X44617234Y-123450466D01*
X44545546Y-123277395D01*
X44509000Y-123093667D01*
X44509000Y-122906333D01*
X44545546Y-122722605D01*
X44617234Y-122549534D01*
X44721309Y-122393775D01*
X44721310Y-122393773D01*
X44853773Y-122261310D01*
X44932182Y-122208919D01*
X45009534Y-122157234D01*
X45182605Y-122085546D01*
X45366333Y-122049000D01*
X45553667Y-122049000D01*
X45737395Y-122085546D01*
X45737395Y-122085546D01*
G37*
G36*
X102150442Y-122105518D02*
G01*
X102216627Y-122112037D01*
X102386466Y-122163557D01*
X102542991Y-122247222D01*
X102560156Y-122261309D01*
X102680186Y-122359814D01*
X102763448Y-122461271D01*
X102792778Y-122497009D01*
X102876443Y-122653534D01*
X102927963Y-122823373D01*
X102945359Y-123000000D01*
X102927963Y-123176627D01*
X102876443Y-123346466D01*
X102792778Y-123502991D01*
X102763448Y-123538729D01*
X102680186Y-123640186D01*
X102605723Y-123701295D01*
X102542991Y-123752778D01*
X102386466Y-123836443D01*
X102216627Y-123887963D01*
X102150443Y-123894481D01*
X102084260Y-123901000D01*
X101995740Y-123901000D01*
X101929557Y-123894481D01*
X101863373Y-123887963D01*
X101693534Y-123836443D01*
X101537009Y-123752778D01*
X101474277Y-123701295D01*
X101399814Y-123640186D01*
X101316552Y-123538729D01*
X101287222Y-123502991D01*
X101203557Y-123346466D01*
X101152037Y-123176627D01*
X101134641Y-123000000D01*
X101152037Y-122823373D01*
X101203557Y-122653534D01*
X101287222Y-122497009D01*
X101316552Y-122461271D01*
X101399814Y-122359814D01*
X101519844Y-122261309D01*
X101537009Y-122247222D01*
X101693534Y-122163557D01*
X101863373Y-122112037D01*
X101929558Y-122105518D01*
X101995740Y-122099000D01*
X102084260Y-122099000D01*
X102150442Y-122105518D01*
X102150442Y-122105518D01*
G37*
G36*
X86910442Y-122105518D02*
G01*
X86976627Y-122112037D01*
X87146466Y-122163557D01*
X87302991Y-122247222D01*
X87320156Y-122261309D01*
X87440186Y-122359814D01*
X87523448Y-122461271D01*
X87552778Y-122497009D01*
X87636443Y-122653534D01*
X87687963Y-122823373D01*
X87705359Y-123000000D01*
X87687963Y-123176627D01*
X87636443Y-123346466D01*
X87552778Y-123502991D01*
X87523448Y-123538729D01*
X87440186Y-123640186D01*
X87365723Y-123701295D01*
X87302991Y-123752778D01*
X87146466Y-123836443D01*
X86976627Y-123887963D01*
X86910443Y-123894481D01*
X86844260Y-123901000D01*
X86755740Y-123901000D01*
X86689557Y-123894481D01*
X86623373Y-123887963D01*
X86453534Y-123836443D01*
X86297009Y-123752778D01*
X86234277Y-123701295D01*
X86159814Y-123640186D01*
X86076552Y-123538729D01*
X86047222Y-123502991D01*
X85963557Y-123346466D01*
X85912037Y-123176627D01*
X85894641Y-123000000D01*
X85912037Y-122823373D01*
X85963557Y-122653534D01*
X86047222Y-122497009D01*
X86076552Y-122461271D01*
X86159814Y-122359814D01*
X86279844Y-122261309D01*
X86297009Y-122247222D01*
X86453534Y-122163557D01*
X86623373Y-122112037D01*
X86689558Y-122105518D01*
X86755740Y-122099000D01*
X86844260Y-122099000D01*
X86910442Y-122105518D01*
X86910442Y-122105518D01*
G37*
G36*
X89450442Y-122105518D02*
G01*
X89516627Y-122112037D01*
X89686466Y-122163557D01*
X89842991Y-122247222D01*
X89860156Y-122261309D01*
X89980186Y-122359814D01*
X90063448Y-122461271D01*
X90092778Y-122497009D01*
X90176443Y-122653534D01*
X90227963Y-122823373D01*
X90245359Y-123000000D01*
X90227963Y-123176627D01*
X90176443Y-123346466D01*
X90092778Y-123502991D01*
X90063448Y-123538729D01*
X89980186Y-123640186D01*
X89905723Y-123701295D01*
X89842991Y-123752778D01*
X89686466Y-123836443D01*
X89516627Y-123887963D01*
X89450443Y-123894481D01*
X89384260Y-123901000D01*
X89295740Y-123901000D01*
X89229557Y-123894481D01*
X89163373Y-123887963D01*
X88993534Y-123836443D01*
X88837009Y-123752778D01*
X88774277Y-123701295D01*
X88699814Y-123640186D01*
X88616552Y-123538729D01*
X88587222Y-123502991D01*
X88503557Y-123346466D01*
X88452037Y-123176627D01*
X88434641Y-123000000D01*
X88452037Y-122823373D01*
X88503557Y-122653534D01*
X88587222Y-122497009D01*
X88616552Y-122461271D01*
X88699814Y-122359814D01*
X88819844Y-122261309D01*
X88837009Y-122247222D01*
X88993534Y-122163557D01*
X89163373Y-122112037D01*
X89229558Y-122105518D01*
X89295740Y-122099000D01*
X89384260Y-122099000D01*
X89450442Y-122105518D01*
X89450442Y-122105518D01*
G37*
G36*
X94530442Y-122105518D02*
G01*
X94596627Y-122112037D01*
X94766466Y-122163557D01*
X94922991Y-122247222D01*
X94940156Y-122261309D01*
X95060186Y-122359814D01*
X95143448Y-122461271D01*
X95172778Y-122497009D01*
X95256443Y-122653534D01*
X95307963Y-122823373D01*
X95325359Y-123000000D01*
X95307963Y-123176627D01*
X95256443Y-123346466D01*
X95172778Y-123502991D01*
X95143448Y-123538729D01*
X95060186Y-123640186D01*
X94985723Y-123701295D01*
X94922991Y-123752778D01*
X94766466Y-123836443D01*
X94596627Y-123887963D01*
X94530443Y-123894481D01*
X94464260Y-123901000D01*
X94375740Y-123901000D01*
X94309557Y-123894481D01*
X94243373Y-123887963D01*
X94073534Y-123836443D01*
X93917009Y-123752778D01*
X93854277Y-123701295D01*
X93779814Y-123640186D01*
X93696552Y-123538729D01*
X93667222Y-123502991D01*
X93583557Y-123346466D01*
X93532037Y-123176627D01*
X93514641Y-123000000D01*
X93532037Y-122823373D01*
X93583557Y-122653534D01*
X93667222Y-122497009D01*
X93696552Y-122461271D01*
X93779814Y-122359814D01*
X93899844Y-122261309D01*
X93917009Y-122247222D01*
X94073534Y-122163557D01*
X94243373Y-122112037D01*
X94309558Y-122105518D01*
X94375740Y-122099000D01*
X94464260Y-122099000D01*
X94530442Y-122105518D01*
X94530442Y-122105518D01*
G37*
G36*
X91990442Y-122105518D02*
G01*
X92056627Y-122112037D01*
X92226466Y-122163557D01*
X92382991Y-122247222D01*
X92400156Y-122261309D01*
X92520186Y-122359814D01*
X92603448Y-122461271D01*
X92632778Y-122497009D01*
X92716443Y-122653534D01*
X92767963Y-122823373D01*
X92785359Y-123000000D01*
X92767963Y-123176627D01*
X92716443Y-123346466D01*
X92632778Y-123502991D01*
X92603448Y-123538729D01*
X92520186Y-123640186D01*
X92445723Y-123701295D01*
X92382991Y-123752778D01*
X92226466Y-123836443D01*
X92056627Y-123887963D01*
X91990443Y-123894481D01*
X91924260Y-123901000D01*
X91835740Y-123901000D01*
X91769557Y-123894481D01*
X91703373Y-123887963D01*
X91533534Y-123836443D01*
X91377009Y-123752778D01*
X91314277Y-123701295D01*
X91239814Y-123640186D01*
X91156552Y-123538729D01*
X91127222Y-123502991D01*
X91043557Y-123346466D01*
X90992037Y-123176627D01*
X90974641Y-123000000D01*
X90992037Y-122823373D01*
X91043557Y-122653534D01*
X91127222Y-122497009D01*
X91156552Y-122461271D01*
X91239814Y-122359814D01*
X91359844Y-122261309D01*
X91377009Y-122247222D01*
X91533534Y-122163557D01*
X91703373Y-122112037D01*
X91769558Y-122105518D01*
X91835740Y-122099000D01*
X91924260Y-122099000D01*
X91990442Y-122105518D01*
X91990442Y-122105518D01*
G37*
G36*
X97070442Y-122105518D02*
G01*
X97136627Y-122112037D01*
X97306466Y-122163557D01*
X97462991Y-122247222D01*
X97480156Y-122261309D01*
X97600186Y-122359814D01*
X97683448Y-122461271D01*
X97712778Y-122497009D01*
X97796443Y-122653534D01*
X97847963Y-122823373D01*
X97865359Y-123000000D01*
X97847963Y-123176627D01*
X97796443Y-123346466D01*
X97712778Y-123502991D01*
X97683448Y-123538729D01*
X97600186Y-123640186D01*
X97525723Y-123701295D01*
X97462991Y-123752778D01*
X97306466Y-123836443D01*
X97136627Y-123887963D01*
X97070443Y-123894481D01*
X97004260Y-123901000D01*
X96915740Y-123901000D01*
X96849557Y-123894481D01*
X96783373Y-123887963D01*
X96613534Y-123836443D01*
X96457009Y-123752778D01*
X96394277Y-123701295D01*
X96319814Y-123640186D01*
X96236552Y-123538729D01*
X96207222Y-123502991D01*
X96123557Y-123346466D01*
X96072037Y-123176627D01*
X96054641Y-123000000D01*
X96072037Y-122823373D01*
X96123557Y-122653534D01*
X96207222Y-122497009D01*
X96236552Y-122461271D01*
X96319814Y-122359814D01*
X96439844Y-122261309D01*
X96457009Y-122247222D01*
X96613534Y-122163557D01*
X96783373Y-122112037D01*
X96849558Y-122105518D01*
X96915740Y-122099000D01*
X97004260Y-122099000D01*
X97070442Y-122105518D01*
X97070442Y-122105518D01*
G37*
G36*
X99610442Y-122105518D02*
G01*
X99676627Y-122112037D01*
X99846466Y-122163557D01*
X100002991Y-122247222D01*
X100020156Y-122261309D01*
X100140186Y-122359814D01*
X100223448Y-122461271D01*
X100252778Y-122497009D01*
X100336443Y-122653534D01*
X100387963Y-122823373D01*
X100405359Y-123000000D01*
X100387963Y-123176627D01*
X100336443Y-123346466D01*
X100252778Y-123502991D01*
X100223448Y-123538729D01*
X100140186Y-123640186D01*
X100065723Y-123701295D01*
X100002991Y-123752778D01*
X99846466Y-123836443D01*
X99676627Y-123887963D01*
X99610443Y-123894481D01*
X99544260Y-123901000D01*
X99455740Y-123901000D01*
X99389557Y-123894481D01*
X99323373Y-123887963D01*
X99153534Y-123836443D01*
X98997009Y-123752778D01*
X98934277Y-123701295D01*
X98859814Y-123640186D01*
X98776552Y-123538729D01*
X98747222Y-123502991D01*
X98663557Y-123346466D01*
X98612037Y-123176627D01*
X98594641Y-123000000D01*
X98612037Y-122823373D01*
X98663557Y-122653534D01*
X98747222Y-122497009D01*
X98776552Y-122461271D01*
X98859814Y-122359814D01*
X98979844Y-122261309D01*
X98997009Y-122247222D01*
X99153534Y-122163557D01*
X99323373Y-122112037D01*
X99389558Y-122105518D01*
X99455740Y-122099000D01*
X99544260Y-122099000D01*
X99610442Y-122105518D01*
X99610442Y-122105518D01*
G37*
G36*
X104690442Y-122105518D02*
G01*
X104756627Y-122112037D01*
X104926466Y-122163557D01*
X105082991Y-122247222D01*
X105100156Y-122261309D01*
X105220186Y-122359814D01*
X105303448Y-122461271D01*
X105332778Y-122497009D01*
X105416443Y-122653534D01*
X105467963Y-122823373D01*
X105485359Y-123000000D01*
X105467963Y-123176627D01*
X105416443Y-123346466D01*
X105332778Y-123502991D01*
X105303448Y-123538729D01*
X105220186Y-123640186D01*
X105145723Y-123701295D01*
X105082991Y-123752778D01*
X104926466Y-123836443D01*
X104756627Y-123887963D01*
X104690443Y-123894481D01*
X104624260Y-123901000D01*
X104535740Y-123901000D01*
X104469557Y-123894481D01*
X104403373Y-123887963D01*
X104233534Y-123836443D01*
X104077009Y-123752778D01*
X104014277Y-123701295D01*
X103939814Y-123640186D01*
X103856552Y-123538729D01*
X103827222Y-123502991D01*
X103743557Y-123346466D01*
X103692037Y-123176627D01*
X103674641Y-123000000D01*
X103692037Y-122823373D01*
X103743557Y-122653534D01*
X103827222Y-122497009D01*
X103856552Y-122461271D01*
X103939814Y-122359814D01*
X104059844Y-122261309D01*
X104077009Y-122247222D01*
X104233534Y-122163557D01*
X104403373Y-122112037D01*
X104469558Y-122105518D01*
X104535740Y-122099000D01*
X104624260Y-122099000D01*
X104690442Y-122105518D01*
X104690442Y-122105518D01*
G37*
G36*
X43168228Y-117181703D02*
G01*
X43323100Y-117245853D01*
X43462481Y-117338985D01*
X43581015Y-117457519D01*
X43674147Y-117596900D01*
X43738297Y-117751772D01*
X43771000Y-117916184D01*
X43771000Y-118083816D01*
X43738297Y-118248228D01*
X43674147Y-118403100D01*
X43581015Y-118542481D01*
X43462481Y-118661015D01*
X43323100Y-118754147D01*
X43168228Y-118818297D01*
X43003816Y-118851000D01*
X42836184Y-118851000D01*
X42671772Y-118818297D01*
X42516900Y-118754147D01*
X42377519Y-118661015D01*
X42258985Y-118542481D01*
X42165853Y-118403100D01*
X42101703Y-118248228D01*
X42069000Y-118083816D01*
X42069000Y-117916184D01*
X42101703Y-117751772D01*
X42165853Y-117596900D01*
X42258985Y-117457519D01*
X42377519Y-117338985D01*
X42516900Y-117245853D01*
X42671772Y-117181703D01*
X42836184Y-117149000D01*
X43003816Y-117149000D01*
X43168228Y-117181703D01*
X43168228Y-117181703D01*
G37*
G36*
X77068228Y-116271703D02*
G01*
X77223100Y-116335853D01*
X77362481Y-116428985D01*
X77481015Y-116547519D01*
X77574147Y-116686900D01*
X77638297Y-116841772D01*
X77671000Y-117006184D01*
X77671000Y-117173816D01*
X77638297Y-117338228D01*
X77574147Y-117493100D01*
X77481015Y-117632481D01*
X77362481Y-117751015D01*
X77223100Y-117844147D01*
X77068228Y-117908297D01*
X76903816Y-117941000D01*
X76736184Y-117941000D01*
X76571772Y-117908297D01*
X76416900Y-117844147D01*
X76277519Y-117751015D01*
X76158985Y-117632481D01*
X76065853Y-117493100D01*
X76001703Y-117338228D01*
X75969000Y-117173816D01*
X75969000Y-117006184D01*
X76001703Y-116841772D01*
X76065853Y-116686900D01*
X76158985Y-116547519D01*
X76277519Y-116428985D01*
X76416900Y-116335853D01*
X76571772Y-116271703D01*
X76736184Y-116239000D01*
X76903816Y-116239000D01*
X77068228Y-116271703D01*
X77068228Y-116271703D01*
G37*
G36*
X87146823Y-116251313D02*
G01*
X87307242Y-116299976D01*
X87355654Y-116325853D01*
X87455078Y-116378996D01*
X87584659Y-116485341D01*
X87691004Y-116614922D01*
X87691005Y-116614924D01*
X87770024Y-116762758D01*
X87818687Y-116923177D01*
X87835117Y-117090000D01*
X87818687Y-117256823D01*
X87793763Y-117338985D01*
X87770681Y-117415078D01*
X87770024Y-117417242D01*
X87729477Y-117493100D01*
X87691004Y-117565078D01*
X87584659Y-117694659D01*
X87455078Y-117801004D01*
X87455076Y-117801005D01*
X87307242Y-117880024D01*
X87146823Y-117928687D01*
X87021804Y-117941000D01*
X86938196Y-117941000D01*
X86813177Y-117928687D01*
X86652758Y-117880024D01*
X86504924Y-117801005D01*
X86504922Y-117801004D01*
X86375341Y-117694659D01*
X86268996Y-117565078D01*
X86230523Y-117493100D01*
X86189976Y-117417242D01*
X86189320Y-117415078D01*
X86166237Y-117338985D01*
X86141313Y-117256823D01*
X86124883Y-117090000D01*
X86141313Y-116923177D01*
X86189976Y-116762758D01*
X86268995Y-116614924D01*
X86268996Y-116614922D01*
X86375341Y-116485341D01*
X86504922Y-116378996D01*
X86604346Y-116325853D01*
X86652758Y-116299976D01*
X86813177Y-116251313D01*
X86938196Y-116239000D01*
X87021804Y-116239000D01*
X87146823Y-116251313D01*
X87146823Y-116251313D01*
G37*
G36*
X62366823Y-116241313D02*
G01*
X62527242Y-116289976D01*
X62659906Y-116360886D01*
X62675078Y-116368996D01*
X62804659Y-116475341D01*
X62911004Y-116604922D01*
X62911005Y-116604924D01*
X62990024Y-116752758D01*
X62990025Y-116752761D01*
X62996218Y-116773177D01*
X63038687Y-116913177D01*
X63055117Y-117080000D01*
X63038687Y-117246823D01*
X62990024Y-117407242D01*
X62949477Y-117483100D01*
X62911004Y-117555078D01*
X62804659Y-117684659D01*
X62675078Y-117791004D01*
X62675076Y-117791005D01*
X62527242Y-117870024D01*
X62366823Y-117918687D01*
X62241804Y-117931000D01*
X62158196Y-117931000D01*
X62033177Y-117918687D01*
X61872758Y-117870024D01*
X61724924Y-117791005D01*
X61724922Y-117791004D01*
X61595341Y-117684659D01*
X61488996Y-117555078D01*
X61450523Y-117483100D01*
X61409976Y-117407242D01*
X61361313Y-117246823D01*
X61344883Y-117080000D01*
X61361313Y-116913177D01*
X61403782Y-116773177D01*
X61409975Y-116752761D01*
X61409976Y-116752758D01*
X61488995Y-116604924D01*
X61488996Y-116604922D01*
X61595341Y-116475341D01*
X61724922Y-116368996D01*
X61740094Y-116360886D01*
X61872758Y-116289976D01*
X62033177Y-116241313D01*
X62158196Y-116229000D01*
X62241804Y-116229000D01*
X62366823Y-116241313D01*
X62366823Y-116241313D01*
G37*
G36*
X74848228Y-116261703D02*
G01*
X75003100Y-116325853D01*
X75142481Y-116418985D01*
X75261015Y-116537519D01*
X75354147Y-116676900D01*
X75418297Y-116831772D01*
X75451000Y-116996184D01*
X75451000Y-117163816D01*
X75418297Y-117328228D01*
X75354147Y-117483100D01*
X75261015Y-117622481D01*
X75142481Y-117741015D01*
X75003100Y-117834147D01*
X74848228Y-117898297D01*
X74683816Y-117931000D01*
X74516184Y-117931000D01*
X74351772Y-117898297D01*
X74196900Y-117834147D01*
X74057519Y-117741015D01*
X73938985Y-117622481D01*
X73845853Y-117483100D01*
X73781703Y-117328228D01*
X73749000Y-117163816D01*
X73749000Y-116996184D01*
X73781703Y-116831772D01*
X73845853Y-116676900D01*
X73938985Y-116537519D01*
X74057519Y-116418985D01*
X74196900Y-116325853D01*
X74351772Y-116261703D01*
X74516184Y-116229000D01*
X74683816Y-116229000D01*
X74848228Y-116261703D01*
X74848228Y-116261703D01*
G37*
G36*
X64606823Y-116241313D02*
G01*
X64767242Y-116289976D01*
X64899906Y-116360886D01*
X64915078Y-116368996D01*
X65044659Y-116475341D01*
X65151004Y-116604922D01*
X65151005Y-116604924D01*
X65230024Y-116752758D01*
X65230025Y-116752761D01*
X65236218Y-116773177D01*
X65278687Y-116913177D01*
X65295117Y-117080000D01*
X65278687Y-117246823D01*
X65230024Y-117407242D01*
X65189477Y-117483100D01*
X65151004Y-117555078D01*
X65044659Y-117684659D01*
X64915078Y-117791004D01*
X64915076Y-117791005D01*
X64767242Y-117870024D01*
X64606823Y-117918687D01*
X64481804Y-117931000D01*
X64398196Y-117931000D01*
X64273177Y-117918687D01*
X64112758Y-117870024D01*
X63964924Y-117791005D01*
X63964922Y-117791004D01*
X63835341Y-117684659D01*
X63728996Y-117555078D01*
X63690523Y-117483100D01*
X63649976Y-117407242D01*
X63601313Y-117246823D01*
X63584883Y-117080000D01*
X63601313Y-116913177D01*
X63643782Y-116773177D01*
X63649975Y-116752761D01*
X63649976Y-116752758D01*
X63728995Y-116604924D01*
X63728996Y-116604922D01*
X63835341Y-116475341D01*
X63964922Y-116368996D01*
X63980094Y-116360886D01*
X64112758Y-116289976D01*
X64273177Y-116241313D01*
X64398196Y-116229000D01*
X64481804Y-116229000D01*
X64606823Y-116241313D01*
X64606823Y-116241313D01*
G37*
G36*
X52288228Y-116261703D02*
G01*
X52443100Y-116325853D01*
X52582481Y-116418985D01*
X52701015Y-116537519D01*
X52794147Y-116676900D01*
X52858297Y-116831772D01*
X52891000Y-116996184D01*
X52891000Y-117163816D01*
X52858297Y-117328228D01*
X52794147Y-117483100D01*
X52701015Y-117622481D01*
X52582481Y-117741015D01*
X52443100Y-117834147D01*
X52288228Y-117898297D01*
X52123816Y-117931000D01*
X51956184Y-117931000D01*
X51791772Y-117898297D01*
X51636900Y-117834147D01*
X51497519Y-117741015D01*
X51378985Y-117622481D01*
X51285853Y-117483100D01*
X51221703Y-117328228D01*
X51189000Y-117163816D01*
X51189000Y-116996184D01*
X51221703Y-116831772D01*
X51285853Y-116676900D01*
X51378985Y-116537519D01*
X51497519Y-116418985D01*
X51636900Y-116325853D01*
X51791772Y-116261703D01*
X51956184Y-116229000D01*
X52123816Y-116229000D01*
X52288228Y-116261703D01*
X52288228Y-116261703D01*
G37*
G36*
X142736823Y-116101313D02*
G01*
X142897242Y-116149976D01*
X142964361Y-116185852D01*
X143045078Y-116228996D01*
X143174659Y-116335341D01*
X143281004Y-116464922D01*
X143281005Y-116464924D01*
X143360024Y-116612758D01*
X143360025Y-116612761D01*
X143360681Y-116614924D01*
X143408687Y-116773177D01*
X143425117Y-116940000D01*
X143408687Y-117106823D01*
X143369083Y-117237380D01*
X143366218Y-117246825D01*
X143360024Y-117267242D01*
X143319477Y-117343100D01*
X143281004Y-117415078D01*
X143174659Y-117544659D01*
X143045078Y-117651004D01*
X143045076Y-117651005D01*
X142897242Y-117730024D01*
X142736823Y-117778687D01*
X142611804Y-117791000D01*
X142528196Y-117791000D01*
X142403177Y-117778687D01*
X142242758Y-117730024D01*
X142094924Y-117651005D01*
X142094922Y-117651004D01*
X141965341Y-117544659D01*
X141858996Y-117415078D01*
X141820523Y-117343100D01*
X141779976Y-117267242D01*
X141773783Y-117246825D01*
X141770917Y-117237380D01*
X141731313Y-117106823D01*
X141714883Y-116940000D01*
X141731313Y-116773177D01*
X141779319Y-116614924D01*
X141779975Y-116612761D01*
X141779976Y-116612758D01*
X141858995Y-116464924D01*
X141858996Y-116464922D01*
X141965341Y-116335341D01*
X142094922Y-116228996D01*
X142175639Y-116185852D01*
X142242758Y-116149976D01*
X142403177Y-116101313D01*
X142528196Y-116089000D01*
X142611804Y-116089000D01*
X142736823Y-116101313D01*
X142736823Y-116101313D01*
G37*
G36*
X130468228Y-116121703D02*
G01*
X130623100Y-116185853D01*
X130762481Y-116278985D01*
X130881015Y-116397519D01*
X130974147Y-116536900D01*
X131038297Y-116691772D01*
X131071000Y-116856184D01*
X131071000Y-117023816D01*
X131038297Y-117188228D01*
X130974147Y-117343100D01*
X130881015Y-117482481D01*
X130762481Y-117601015D01*
X130623100Y-117694147D01*
X130468228Y-117758297D01*
X130303816Y-117791000D01*
X130136184Y-117791000D01*
X129971772Y-117758297D01*
X129816900Y-117694147D01*
X129677519Y-117601015D01*
X129558985Y-117482481D01*
X129465853Y-117343100D01*
X129401703Y-117188228D01*
X129369000Y-117023816D01*
X129369000Y-116856184D01*
X129401703Y-116691772D01*
X129465853Y-116536900D01*
X129558985Y-116397519D01*
X129677519Y-116278985D01*
X129816900Y-116185853D01*
X129971772Y-116121703D01*
X130136184Y-116089000D01*
X130303816Y-116089000D01*
X130468228Y-116121703D01*
X130468228Y-116121703D01*
G37*
G36*
X120226823Y-116101313D02*
G01*
X120387242Y-116149976D01*
X120454361Y-116185852D01*
X120535078Y-116228996D01*
X120664659Y-116335341D01*
X120771004Y-116464922D01*
X120771005Y-116464924D01*
X120850024Y-116612758D01*
X120850025Y-116612761D01*
X120850681Y-116614924D01*
X120898687Y-116773177D01*
X120915117Y-116940000D01*
X120898687Y-117106823D01*
X120859083Y-117237380D01*
X120856218Y-117246825D01*
X120850024Y-117267242D01*
X120809477Y-117343100D01*
X120771004Y-117415078D01*
X120664659Y-117544659D01*
X120535078Y-117651004D01*
X120535076Y-117651005D01*
X120387242Y-117730024D01*
X120226823Y-117778687D01*
X120101804Y-117791000D01*
X120018196Y-117791000D01*
X119893177Y-117778687D01*
X119732758Y-117730024D01*
X119584924Y-117651005D01*
X119584922Y-117651004D01*
X119455341Y-117544659D01*
X119348996Y-117415078D01*
X119310523Y-117343100D01*
X119269976Y-117267242D01*
X119263783Y-117246825D01*
X119260917Y-117237380D01*
X119221313Y-117106823D01*
X119204883Y-116940000D01*
X119221313Y-116773177D01*
X119269319Y-116614924D01*
X119269975Y-116612761D01*
X119269976Y-116612758D01*
X119348995Y-116464924D01*
X119348996Y-116464922D01*
X119455341Y-116335341D01*
X119584922Y-116228996D01*
X119665639Y-116185852D01*
X119732758Y-116149976D01*
X119893177Y-116101313D01*
X120018196Y-116089000D01*
X120101804Y-116089000D01*
X120226823Y-116101313D01*
X120226823Y-116101313D01*
G37*
G36*
X117936823Y-116101313D02*
G01*
X118097242Y-116149976D01*
X118164361Y-116185852D01*
X118245078Y-116228996D01*
X118374659Y-116335341D01*
X118481004Y-116464922D01*
X118481005Y-116464924D01*
X118560024Y-116612758D01*
X118560025Y-116612761D01*
X118560681Y-116614924D01*
X118608687Y-116773177D01*
X118625117Y-116940000D01*
X118608687Y-117106823D01*
X118569083Y-117237380D01*
X118566218Y-117246825D01*
X118560024Y-117267242D01*
X118519477Y-117343100D01*
X118481004Y-117415078D01*
X118374659Y-117544659D01*
X118245078Y-117651004D01*
X118245076Y-117651005D01*
X118097242Y-117730024D01*
X117936823Y-117778687D01*
X117811804Y-117791000D01*
X117728196Y-117791000D01*
X117603177Y-117778687D01*
X117442758Y-117730024D01*
X117294924Y-117651005D01*
X117294922Y-117651004D01*
X117165341Y-117544659D01*
X117058996Y-117415078D01*
X117020523Y-117343100D01*
X116979976Y-117267242D01*
X116973783Y-117246825D01*
X116970917Y-117237380D01*
X116931313Y-117106823D01*
X116914883Y-116940000D01*
X116931313Y-116773177D01*
X116979319Y-116614924D01*
X116979975Y-116612761D01*
X116979976Y-116612758D01*
X117058995Y-116464924D01*
X117058996Y-116464922D01*
X117165341Y-116335341D01*
X117294922Y-116228996D01*
X117375639Y-116185852D01*
X117442758Y-116149976D01*
X117603177Y-116101313D01*
X117728196Y-116089000D01*
X117811804Y-116089000D01*
X117936823Y-116101313D01*
X117936823Y-116101313D01*
G37*
G36*
X107858228Y-116121703D02*
G01*
X108013100Y-116185853D01*
X108152481Y-116278985D01*
X108271015Y-116397519D01*
X108364147Y-116536900D01*
X108428297Y-116691772D01*
X108461000Y-116856184D01*
X108461000Y-117023816D01*
X108428297Y-117188228D01*
X108364147Y-117343100D01*
X108271015Y-117482481D01*
X108152481Y-117601015D01*
X108013100Y-117694147D01*
X107858228Y-117758297D01*
X107693816Y-117791000D01*
X107526184Y-117791000D01*
X107361772Y-117758297D01*
X107206900Y-117694147D01*
X107067519Y-117601015D01*
X106948985Y-117482481D01*
X106855853Y-117343100D01*
X106791703Y-117188228D01*
X106759000Y-117023816D01*
X106759000Y-116856184D01*
X106791703Y-116691772D01*
X106855853Y-116536900D01*
X106948985Y-116397519D01*
X107067519Y-116278985D01*
X107206900Y-116185853D01*
X107361772Y-116121703D01*
X107526184Y-116089000D01*
X107693816Y-116089000D01*
X107858228Y-116121703D01*
X107858228Y-116121703D01*
G37*
G36*
X132658228Y-116121703D02*
G01*
X132813100Y-116185853D01*
X132952481Y-116278985D01*
X133071015Y-116397519D01*
X133164147Y-116536900D01*
X133228297Y-116691772D01*
X133261000Y-116856184D01*
X133261000Y-117023816D01*
X133228297Y-117188228D01*
X133164147Y-117343100D01*
X133071015Y-117482481D01*
X132952481Y-117601015D01*
X132813100Y-117694147D01*
X132658228Y-117758297D01*
X132493816Y-117791000D01*
X132326184Y-117791000D01*
X132161772Y-117758297D01*
X132006900Y-117694147D01*
X131867519Y-117601015D01*
X131748985Y-117482481D01*
X131655853Y-117343100D01*
X131591703Y-117188228D01*
X131559000Y-117023816D01*
X131559000Y-116856184D01*
X131591703Y-116691772D01*
X131655853Y-116536900D01*
X131748985Y-116397519D01*
X131867519Y-116278985D01*
X132006900Y-116185853D01*
X132161772Y-116121703D01*
X132326184Y-116089000D01*
X132493816Y-116089000D01*
X132658228Y-116121703D01*
X132658228Y-116121703D01*
G37*
G36*
X85038228Y-113111703D02*
G01*
X85193100Y-113175853D01*
X85332481Y-113268985D01*
X85451015Y-113387519D01*
X85544147Y-113526900D01*
X85608297Y-113681772D01*
X85641000Y-113846184D01*
X85641000Y-114013816D01*
X85608297Y-114178228D01*
X85544147Y-114333100D01*
X85451015Y-114472481D01*
X85332481Y-114591015D01*
X85193100Y-114684147D01*
X85038228Y-114748297D01*
X84873816Y-114781000D01*
X84706184Y-114781000D01*
X84541772Y-114748297D01*
X84386900Y-114684147D01*
X84247519Y-114591015D01*
X84128985Y-114472481D01*
X84035853Y-114333100D01*
X83971703Y-114178228D01*
X83939000Y-114013816D01*
X83939000Y-113846184D01*
X83971703Y-113681772D01*
X84035853Y-113526900D01*
X84128985Y-113387519D01*
X84247519Y-113268985D01*
X84386900Y-113175853D01*
X84541772Y-113111703D01*
X84706184Y-113079000D01*
X84873816Y-113079000D01*
X85038228Y-113111703D01*
X85038228Y-113111703D01*
G37*
G36*
X74796823Y-113091313D02*
G01*
X74878814Y-113116185D01*
X74943651Y-113135853D01*
X74957242Y-113139976D01*
X75086349Y-113208985D01*
X75105078Y-113218996D01*
X75234659Y-113325341D01*
X75341004Y-113454922D01*
X75341005Y-113454924D01*
X75420024Y-113602758D01*
X75468687Y-113763177D01*
X75485117Y-113930000D01*
X75468687Y-114096823D01*
X75420024Y-114257242D01*
X75362385Y-114365076D01*
X75341004Y-114405078D01*
X75234659Y-114534659D01*
X75105078Y-114641004D01*
X75105076Y-114641005D01*
X74957242Y-114720024D01*
X74796823Y-114768687D01*
X74671804Y-114781000D01*
X74588196Y-114781000D01*
X74463177Y-114768687D01*
X74302758Y-114720024D01*
X74154924Y-114641005D01*
X74154922Y-114641004D01*
X74025341Y-114534659D01*
X73918996Y-114405078D01*
X73897615Y-114365076D01*
X73839976Y-114257242D01*
X73791313Y-114096823D01*
X73774883Y-113930000D01*
X73791313Y-113763177D01*
X73839976Y-113602758D01*
X73918995Y-113454924D01*
X73918996Y-113454922D01*
X74025341Y-113325341D01*
X74154922Y-113218996D01*
X74173651Y-113208985D01*
X74302758Y-113139976D01*
X74316350Y-113135853D01*
X74381186Y-113116185D01*
X74463177Y-113091313D01*
X74588196Y-113079000D01*
X74671804Y-113079000D01*
X74796823Y-113091313D01*
X74796823Y-113091313D01*
G37*
G36*
X52328228Y-113071703D02*
G01*
X52483100Y-113135853D01*
X52622481Y-113228985D01*
X52741015Y-113347519D01*
X52834147Y-113486900D01*
X52898297Y-113641772D01*
X52931000Y-113806184D01*
X52931000Y-113973816D01*
X52898297Y-114138228D01*
X52834147Y-114293100D01*
X52741015Y-114432481D01*
X52622481Y-114551015D01*
X52483100Y-114644147D01*
X52328228Y-114708297D01*
X52163816Y-114741000D01*
X51996184Y-114741000D01*
X51831772Y-114708297D01*
X51676900Y-114644147D01*
X51537519Y-114551015D01*
X51418985Y-114432481D01*
X51325853Y-114293100D01*
X51261703Y-114138228D01*
X51229000Y-113973816D01*
X51229000Y-113806184D01*
X51261703Y-113641772D01*
X51325853Y-113486900D01*
X51418985Y-113347519D01*
X51537519Y-113228985D01*
X51676900Y-113135853D01*
X51831772Y-113071703D01*
X51996184Y-113039000D01*
X52163816Y-113039000D01*
X52328228Y-113071703D01*
X52328228Y-113071703D01*
G37*
G36*
X62406823Y-113051313D02*
G01*
X62567242Y-113099976D01*
X62691108Y-113166184D01*
X62715078Y-113178996D01*
X62844659Y-113285341D01*
X62951004Y-113414922D01*
X62951005Y-113414924D01*
X63030024Y-113562758D01*
X63078687Y-113723177D01*
X63095117Y-113890000D01*
X63078687Y-114056823D01*
X63030024Y-114217242D01*
X62963083Y-114342480D01*
X62951004Y-114365078D01*
X62844659Y-114494659D01*
X62715078Y-114601004D01*
X62715076Y-114601005D01*
X62567242Y-114680024D01*
X62567239Y-114680025D01*
X62553647Y-114684148D01*
X62406823Y-114728687D01*
X62281804Y-114741000D01*
X62198196Y-114741000D01*
X62073177Y-114728687D01*
X61926353Y-114684148D01*
X61912761Y-114680025D01*
X61912758Y-114680024D01*
X61764924Y-114601005D01*
X61764922Y-114601004D01*
X61635341Y-114494659D01*
X61528996Y-114365078D01*
X61516917Y-114342480D01*
X61449976Y-114217242D01*
X61401313Y-114056823D01*
X61384883Y-113890000D01*
X61401313Y-113723177D01*
X61449976Y-113562758D01*
X61528995Y-113414924D01*
X61528996Y-113414922D01*
X61635341Y-113285341D01*
X61764922Y-113178996D01*
X61788892Y-113166184D01*
X61912758Y-113099976D01*
X62073177Y-113051313D01*
X62198196Y-113039000D01*
X62281804Y-113039000D01*
X62406823Y-113051313D01*
X62406823Y-113051313D01*
G37*
G36*
X130286823Y-113031313D02*
G01*
X130447242Y-113079976D01*
X130551780Y-113135853D01*
X130595078Y-113158996D01*
X130724659Y-113265341D01*
X130831004Y-113394922D01*
X130831005Y-113394924D01*
X130910024Y-113542758D01*
X130958687Y-113703177D01*
X130975117Y-113870000D01*
X130958687Y-114036823D01*
X130910024Y-114197242D01*
X130858788Y-114293097D01*
X130831004Y-114345078D01*
X130724659Y-114474659D01*
X130595078Y-114581004D01*
X130595076Y-114581005D01*
X130447242Y-114660024D01*
X130286823Y-114708687D01*
X130161804Y-114721000D01*
X130078196Y-114721000D01*
X129953177Y-114708687D01*
X129792758Y-114660024D01*
X129644924Y-114581005D01*
X129644922Y-114581004D01*
X129515341Y-114474659D01*
X129408996Y-114345078D01*
X129381212Y-114293097D01*
X129329976Y-114197242D01*
X129281313Y-114036823D01*
X129264883Y-113870000D01*
X129281313Y-113703177D01*
X129329976Y-113542758D01*
X129408995Y-113394924D01*
X129408996Y-113394922D01*
X129515341Y-113265341D01*
X129644922Y-113158996D01*
X129688220Y-113135853D01*
X129792758Y-113079976D01*
X129953177Y-113031313D01*
X130078196Y-113019000D01*
X130161804Y-113019000D01*
X130286823Y-113031313D01*
X130286823Y-113031313D01*
G37*
G36*
X140528228Y-113051703D02*
G01*
X140683100Y-113115853D01*
X140822481Y-113208985D01*
X140941015Y-113327519D01*
X141034147Y-113466900D01*
X141098297Y-113621772D01*
X141131000Y-113786184D01*
X141131000Y-113953816D01*
X141098297Y-114118228D01*
X141034147Y-114273100D01*
X140941015Y-114412481D01*
X140822481Y-114531015D01*
X140683100Y-114624147D01*
X140528228Y-114688297D01*
X140363816Y-114721000D01*
X140196184Y-114721000D01*
X140031772Y-114688297D01*
X139876900Y-114624147D01*
X139737519Y-114531015D01*
X139618985Y-114412481D01*
X139525853Y-114273100D01*
X139461703Y-114118228D01*
X139429000Y-113953816D01*
X139429000Y-113786184D01*
X139461703Y-113621772D01*
X139525853Y-113466900D01*
X139618985Y-113327519D01*
X139737519Y-113208985D01*
X139876900Y-113115853D01*
X140031772Y-113051703D01*
X140196184Y-113019000D01*
X140363816Y-113019000D01*
X140528228Y-113051703D01*
X140528228Y-113051703D01*
G37*
G36*
X117956823Y-112961313D02*
G01*
X118117242Y-113009976D01*
X118195311Y-113051705D01*
X118265078Y-113088996D01*
X118394659Y-113195341D01*
X118501004Y-113324922D01*
X118501005Y-113324924D01*
X118580024Y-113472758D01*
X118628687Y-113633177D01*
X118645117Y-113800000D01*
X118628687Y-113966823D01*
X118597905Y-114068297D01*
X118587985Y-114101000D01*
X118580024Y-114127242D01*
X118531918Y-114217242D01*
X118501004Y-114275078D01*
X118394659Y-114404659D01*
X118265078Y-114511004D01*
X118265076Y-114511005D01*
X118117242Y-114590024D01*
X117956823Y-114638687D01*
X117831804Y-114651000D01*
X117748196Y-114651000D01*
X117623177Y-114638687D01*
X117462758Y-114590024D01*
X117314924Y-114511005D01*
X117314922Y-114511004D01*
X117185341Y-114404659D01*
X117078996Y-114275078D01*
X117048082Y-114217242D01*
X116999976Y-114127242D01*
X116992016Y-114101000D01*
X116982095Y-114068297D01*
X116951313Y-113966823D01*
X116934883Y-113800000D01*
X116951313Y-113633177D01*
X116999976Y-113472758D01*
X117078995Y-113324924D01*
X117078996Y-113324922D01*
X117185341Y-113195341D01*
X117314922Y-113088996D01*
X117384689Y-113051705D01*
X117462758Y-113009976D01*
X117623177Y-112961313D01*
X117748196Y-112949000D01*
X117831804Y-112949000D01*
X117956823Y-112961313D01*
X117956823Y-112961313D01*
G37*
G36*
X107878228Y-112981703D02*
G01*
X108033100Y-113045853D01*
X108172481Y-113138985D01*
X108291015Y-113257519D01*
X108384147Y-113396900D01*
X108448297Y-113551772D01*
X108481000Y-113716184D01*
X108481000Y-113883816D01*
X108448297Y-114048228D01*
X108384147Y-114203100D01*
X108291015Y-114342481D01*
X108172481Y-114461015D01*
X108033100Y-114554147D01*
X107878228Y-114618297D01*
X107713816Y-114651000D01*
X107546184Y-114651000D01*
X107381772Y-114618297D01*
X107226900Y-114554147D01*
X107087519Y-114461015D01*
X106968985Y-114342481D01*
X106875853Y-114203100D01*
X106811703Y-114048228D01*
X106779000Y-113883816D01*
X106779000Y-113716184D01*
X106811703Y-113551772D01*
X106875853Y-113396900D01*
X106968985Y-113257519D01*
X107087519Y-113138985D01*
X107226900Y-113045853D01*
X107381772Y-112981703D01*
X107546184Y-112949000D01*
X107713816Y-112949000D01*
X107878228Y-112981703D01*
X107878228Y-112981703D01*
G37*
G36*
X121698228Y-112431703D02*
G01*
X121853100Y-112495853D01*
X121992481Y-112588985D01*
X122111015Y-112707519D01*
X122204147Y-112846900D01*
X122268297Y-113001772D01*
X122301000Y-113166184D01*
X122301000Y-113333816D01*
X122268297Y-113498228D01*
X122204147Y-113653100D01*
X122111015Y-113792481D01*
X121992481Y-113911015D01*
X121853100Y-114004147D01*
X121698228Y-114068297D01*
X121533816Y-114101000D01*
X121366184Y-114101000D01*
X121201772Y-114068297D01*
X121046900Y-114004147D01*
X120907519Y-113911015D01*
X120788985Y-113792481D01*
X120695853Y-113653100D01*
X120631703Y-113498228D01*
X120599000Y-113333816D01*
X120599000Y-113166184D01*
X120631703Y-113001772D01*
X120695853Y-112846900D01*
X120788985Y-112707519D01*
X120907519Y-112588985D01*
X121046900Y-112495853D01*
X121201772Y-112431703D01*
X121366184Y-112399000D01*
X121533816Y-112399000D01*
X121698228Y-112431703D01*
X121698228Y-112431703D01*
G37*
G36*
X126698228Y-112431703D02*
G01*
X126853100Y-112495853D01*
X126992481Y-112588985D01*
X127111015Y-112707519D01*
X127204147Y-112846900D01*
X127268297Y-113001772D01*
X127301000Y-113166184D01*
X127301000Y-113333816D01*
X127268297Y-113498228D01*
X127204147Y-113653100D01*
X127111015Y-113792481D01*
X126992481Y-113911015D01*
X126853100Y-114004147D01*
X126698228Y-114068297D01*
X126533816Y-114101000D01*
X126366184Y-114101000D01*
X126201772Y-114068297D01*
X126046900Y-114004147D01*
X125907519Y-113911015D01*
X125788985Y-113792481D01*
X125695853Y-113653100D01*
X125631703Y-113498228D01*
X125599000Y-113333816D01*
X125599000Y-113166184D01*
X125631703Y-113001772D01*
X125695853Y-112846900D01*
X125788985Y-112707519D01*
X125907519Y-112588985D01*
X126046900Y-112495853D01*
X126201772Y-112431703D01*
X126366184Y-112399000D01*
X126533816Y-112399000D01*
X126698228Y-112431703D01*
X126698228Y-112431703D01*
G37*
G36*
X71048228Y-112381703D02*
G01*
X71203100Y-112445853D01*
X71342481Y-112538985D01*
X71461015Y-112657519D01*
X71554147Y-112796900D01*
X71618297Y-112951772D01*
X71651000Y-113116184D01*
X71651000Y-113283816D01*
X71618297Y-113448228D01*
X71554147Y-113603100D01*
X71461015Y-113742481D01*
X71342481Y-113861015D01*
X71203100Y-113954147D01*
X71048228Y-114018297D01*
X70883816Y-114051000D01*
X70716184Y-114051000D01*
X70551772Y-114018297D01*
X70396900Y-113954147D01*
X70257519Y-113861015D01*
X70138985Y-113742481D01*
X70045853Y-113603100D01*
X69981703Y-113448228D01*
X69949000Y-113283816D01*
X69949000Y-113116184D01*
X69981703Y-112951772D01*
X70045853Y-112796900D01*
X70138985Y-112657519D01*
X70257519Y-112538985D01*
X70396900Y-112445853D01*
X70551772Y-112381703D01*
X70716184Y-112349000D01*
X70883816Y-112349000D01*
X71048228Y-112381703D01*
X71048228Y-112381703D01*
G37*
G36*
X66048228Y-112381703D02*
G01*
X66203100Y-112445853D01*
X66342481Y-112538985D01*
X66461015Y-112657519D01*
X66554147Y-112796900D01*
X66618297Y-112951772D01*
X66651000Y-113116184D01*
X66651000Y-113283816D01*
X66618297Y-113448228D01*
X66554147Y-113603100D01*
X66461015Y-113742481D01*
X66342481Y-113861015D01*
X66203100Y-113954147D01*
X66048228Y-114018297D01*
X65883816Y-114051000D01*
X65716184Y-114051000D01*
X65551772Y-114018297D01*
X65396900Y-113954147D01*
X65257519Y-113861015D01*
X65138985Y-113742481D01*
X65045853Y-113603100D01*
X64981703Y-113448228D01*
X64949000Y-113283816D01*
X64949000Y-113116184D01*
X64981703Y-112951772D01*
X65045853Y-112796900D01*
X65138985Y-112657519D01*
X65257519Y-112538985D01*
X65396900Y-112445853D01*
X65551772Y-112381703D01*
X65716184Y-112349000D01*
X65883816Y-112349000D01*
X66048228Y-112381703D01*
X66048228Y-112381703D01*
G37*
G36*
X84936823Y-109961313D02*
G01*
X85061043Y-109998995D01*
X85094012Y-110008996D01*
X85097242Y-110009976D01*
X85188931Y-110058985D01*
X85245078Y-110088996D01*
X85374659Y-110195341D01*
X85481004Y-110324922D01*
X85481005Y-110324924D01*
X85560024Y-110472758D01*
X85608687Y-110633177D01*
X85625117Y-110800000D01*
X85608687Y-110966823D01*
X85583152Y-111051000D01*
X85561281Y-111123100D01*
X85560024Y-111127242D01*
X85519477Y-111203100D01*
X85481004Y-111275078D01*
X85374659Y-111404659D01*
X85245078Y-111511004D01*
X85245076Y-111511005D01*
X85097242Y-111590024D01*
X84936823Y-111638687D01*
X84811804Y-111651000D01*
X84728196Y-111651000D01*
X84603177Y-111638687D01*
X84442758Y-111590024D01*
X84294924Y-111511005D01*
X84294922Y-111511004D01*
X84165341Y-111404659D01*
X84058996Y-111275078D01*
X84020523Y-111203100D01*
X83979976Y-111127242D01*
X83978720Y-111123100D01*
X83956848Y-111051000D01*
X83931313Y-110966823D01*
X83914883Y-110800000D01*
X83931313Y-110633177D01*
X83979976Y-110472758D01*
X84058995Y-110324924D01*
X84058996Y-110324922D01*
X84165341Y-110195341D01*
X84294922Y-110088996D01*
X84351069Y-110058985D01*
X84442758Y-110009976D01*
X84445989Y-110008996D01*
X84478957Y-109998995D01*
X84603177Y-109961313D01*
X84728196Y-109949000D01*
X84811804Y-109949000D01*
X84936823Y-109961313D01*
X84936823Y-109961313D01*
G37*
G36*
X74858228Y-109981703D02*
G01*
X75013100Y-110045853D01*
X75152481Y-110138985D01*
X75271015Y-110257519D01*
X75364147Y-110396900D01*
X75428297Y-110551772D01*
X75461000Y-110716184D01*
X75461000Y-110883816D01*
X75428297Y-111048228D01*
X75364147Y-111203100D01*
X75271015Y-111342481D01*
X75152481Y-111461015D01*
X75013100Y-111554147D01*
X74858228Y-111618297D01*
X74693816Y-111651000D01*
X74526184Y-111651000D01*
X74361772Y-111618297D01*
X74206900Y-111554147D01*
X74067519Y-111461015D01*
X73948985Y-111342481D01*
X73855853Y-111203100D01*
X73791703Y-111048228D01*
X73759000Y-110883816D01*
X73759000Y-110716184D01*
X73791703Y-110551772D01*
X73855853Y-110396900D01*
X73948985Y-110257519D01*
X74067519Y-110138985D01*
X74206900Y-110045853D01*
X74361772Y-109981703D01*
X74526184Y-109949000D01*
X74693816Y-109949000D01*
X74858228Y-109981703D01*
X74858228Y-109981703D01*
G37*
G36*
X140456823Y-109931313D02*
G01*
X140617242Y-109979976D01*
X140684361Y-110015852D01*
X140765078Y-110058996D01*
X140894659Y-110165341D01*
X141001004Y-110294922D01*
X141001005Y-110294924D01*
X141080024Y-110442758D01*
X141128687Y-110603177D01*
X141145117Y-110770000D01*
X141128687Y-110936823D01*
X141080024Y-111097242D01*
X141023443Y-111203097D01*
X141001004Y-111245078D01*
X140894659Y-111374659D01*
X140765078Y-111481004D01*
X140765076Y-111481005D01*
X140617242Y-111560024D01*
X140456823Y-111608687D01*
X140331804Y-111621000D01*
X140248196Y-111621000D01*
X140123177Y-111608687D01*
X139962758Y-111560024D01*
X139814924Y-111481005D01*
X139814922Y-111481004D01*
X139685341Y-111374659D01*
X139578996Y-111245078D01*
X139556557Y-111203097D01*
X139499976Y-111097242D01*
X139451313Y-110936823D01*
X139434883Y-110770000D01*
X139451313Y-110603177D01*
X139499976Y-110442758D01*
X139578995Y-110294924D01*
X139578996Y-110294922D01*
X139685341Y-110165341D01*
X139814922Y-110058996D01*
X139895639Y-110015852D01*
X139962758Y-109979976D01*
X140123177Y-109931313D01*
X140248196Y-109919000D01*
X140331804Y-109919000D01*
X140456823Y-109931313D01*
X140456823Y-109931313D01*
G37*
G36*
X130378228Y-109951703D02*
G01*
X130533100Y-110015853D01*
X130672481Y-110108985D01*
X130791015Y-110227519D01*
X130884147Y-110366900D01*
X130948297Y-110521772D01*
X130981000Y-110686184D01*
X130981000Y-110853816D01*
X130948297Y-111018228D01*
X130884147Y-111173100D01*
X130791015Y-111312481D01*
X130672481Y-111431015D01*
X130533100Y-111524147D01*
X130378228Y-111588297D01*
X130213816Y-111621000D01*
X130046184Y-111621000D01*
X129881772Y-111588297D01*
X129726900Y-111524147D01*
X129587519Y-111431015D01*
X129468985Y-111312481D01*
X129375853Y-111173100D01*
X129311703Y-111018228D01*
X129279000Y-110853816D01*
X129279000Y-110686184D01*
X129311703Y-110521772D01*
X129375853Y-110366900D01*
X129468985Y-110227519D01*
X129587519Y-110108985D01*
X129726900Y-110015853D01*
X129881772Y-109951703D01*
X130046184Y-109919000D01*
X130213816Y-109919000D01*
X130378228Y-109951703D01*
X130378228Y-109951703D01*
G37*
G36*
X107786823Y-109881313D02*
G01*
X107947242Y-109929976D01*
X107995654Y-109955853D01*
X108095078Y-110008996D01*
X108224659Y-110115341D01*
X108331004Y-110244922D01*
X108331005Y-110244924D01*
X108410024Y-110392758D01*
X108410025Y-110392761D01*
X108411281Y-110396903D01*
X108458687Y-110553177D01*
X108475117Y-110720000D01*
X108458687Y-110886823D01*
X108427381Y-110990024D01*
X108412620Y-111038686D01*
X108410024Y-111047242D01*
X108367263Y-111127242D01*
X108331004Y-111195078D01*
X108224659Y-111324659D01*
X108095078Y-111431004D01*
X108095076Y-111431005D01*
X107947242Y-111510024D01*
X107947239Y-111510025D01*
X107944008Y-111511005D01*
X107786823Y-111558687D01*
X107661804Y-111571000D01*
X107578196Y-111571000D01*
X107453177Y-111558687D01*
X107295992Y-111511005D01*
X107292761Y-111510025D01*
X107292758Y-111510024D01*
X107144924Y-111431005D01*
X107144922Y-111431004D01*
X107015341Y-111324659D01*
X106908996Y-111195078D01*
X106872737Y-111127242D01*
X106829976Y-111047242D01*
X106827381Y-111038686D01*
X106812619Y-110990024D01*
X106781313Y-110886823D01*
X106764883Y-110720000D01*
X106781313Y-110553177D01*
X106828719Y-110396903D01*
X106829975Y-110392761D01*
X106829976Y-110392758D01*
X106908995Y-110244924D01*
X106908996Y-110244922D01*
X107015341Y-110115341D01*
X107144922Y-110008996D01*
X107244346Y-109955853D01*
X107292758Y-109929976D01*
X107453177Y-109881313D01*
X107578196Y-109869000D01*
X107661804Y-109869000D01*
X107786823Y-109881313D01*
X107786823Y-109881313D01*
G37*
G36*
X118028228Y-109901703D02*
G01*
X118183100Y-109965853D01*
X118322481Y-110058985D01*
X118441015Y-110177519D01*
X118534147Y-110316900D01*
X118598297Y-110471772D01*
X118631000Y-110636184D01*
X118631000Y-110803816D01*
X118598297Y-110968228D01*
X118534147Y-111123100D01*
X118441015Y-111262481D01*
X118322481Y-111381015D01*
X118183100Y-111474147D01*
X118028228Y-111538297D01*
X117863816Y-111571000D01*
X117696184Y-111571000D01*
X117531772Y-111538297D01*
X117376900Y-111474147D01*
X117237519Y-111381015D01*
X117118985Y-111262481D01*
X117025853Y-111123100D01*
X116961703Y-110968228D01*
X116929000Y-110803816D01*
X116929000Y-110636184D01*
X116961703Y-110471772D01*
X117025853Y-110316900D01*
X117118985Y-110177519D01*
X117237519Y-110058985D01*
X117376900Y-109965853D01*
X117531772Y-109901703D01*
X117696184Y-109869000D01*
X117863816Y-109869000D01*
X118028228Y-109901703D01*
X118028228Y-109901703D01*
G37*
G36*
X62488228Y-109891703D02*
G01*
X62643100Y-109955853D01*
X62782481Y-110048985D01*
X62901015Y-110167519D01*
X62994147Y-110306900D01*
X63058297Y-110461772D01*
X63091000Y-110626184D01*
X63091000Y-110793816D01*
X63058297Y-110958228D01*
X62994147Y-111113100D01*
X62901015Y-111252481D01*
X62782481Y-111371015D01*
X62643100Y-111464147D01*
X62488228Y-111528297D01*
X62323816Y-111561000D01*
X62156184Y-111561000D01*
X61991772Y-111528297D01*
X61836900Y-111464147D01*
X61697519Y-111371015D01*
X61578985Y-111252481D01*
X61485853Y-111113100D01*
X61421703Y-110958228D01*
X61389000Y-110793816D01*
X61389000Y-110626184D01*
X61421703Y-110461772D01*
X61485853Y-110306900D01*
X61578985Y-110167519D01*
X61697519Y-110048985D01*
X61836900Y-109955853D01*
X61991772Y-109891703D01*
X62156184Y-109859000D01*
X62323816Y-109859000D01*
X62488228Y-109891703D01*
X62488228Y-109891703D01*
G37*
G36*
X52246823Y-109871313D02*
G01*
X52407242Y-109919976D01*
X52519492Y-109979975D01*
X52555078Y-109998996D01*
X52684659Y-110105341D01*
X52791004Y-110234922D01*
X52791005Y-110234924D01*
X52870024Y-110382758D01*
X52870025Y-110382761D01*
X52873058Y-110392761D01*
X52918687Y-110543177D01*
X52935117Y-110710000D01*
X52918687Y-110876823D01*
X52870024Y-111037242D01*
X52821918Y-111127242D01*
X52791004Y-111185078D01*
X52684659Y-111314659D01*
X52555078Y-111421004D01*
X52555076Y-111421005D01*
X52407242Y-111500024D01*
X52246823Y-111548687D01*
X52121804Y-111561000D01*
X52038196Y-111561000D01*
X51913177Y-111548687D01*
X51752758Y-111500024D01*
X51604924Y-111421005D01*
X51604922Y-111421004D01*
X51475341Y-111314659D01*
X51368996Y-111185078D01*
X51338082Y-111127242D01*
X51289976Y-111037242D01*
X51241313Y-110876823D01*
X51224883Y-110710000D01*
X51241313Y-110543177D01*
X51286942Y-110392761D01*
X51289975Y-110382761D01*
X51289976Y-110382758D01*
X51368995Y-110234924D01*
X51368996Y-110234922D01*
X51475341Y-110105341D01*
X51604922Y-109998996D01*
X51640508Y-109979975D01*
X51752758Y-109919976D01*
X51913177Y-109871313D01*
X52038196Y-109859000D01*
X52121804Y-109859000D01*
X52246823Y-109871313D01*
X52246823Y-109871313D01*
G37*
G36*
X127996823Y-109361313D02*
G01*
X128157242Y-109409976D01*
X128289906Y-109480886D01*
X128305078Y-109488996D01*
X128434659Y-109595341D01*
X128541004Y-109724922D01*
X128541005Y-109724924D01*
X128620024Y-109872758D01*
X128620025Y-109872761D01*
X128625771Y-109891703D01*
X128668687Y-110033177D01*
X128685117Y-110200000D01*
X128668687Y-110366823D01*
X128620024Y-110527242D01*
X128561793Y-110636184D01*
X128541004Y-110675078D01*
X128434659Y-110804659D01*
X128305078Y-110911004D01*
X128305076Y-110911005D01*
X128157242Y-110990024D01*
X127996823Y-111038687D01*
X127871804Y-111051000D01*
X127788196Y-111051000D01*
X127663177Y-111038687D01*
X127502758Y-110990024D01*
X127354924Y-110911005D01*
X127354922Y-110911004D01*
X127225341Y-110804659D01*
X127118996Y-110675078D01*
X127098207Y-110636184D01*
X127039976Y-110527242D01*
X126991313Y-110366823D01*
X126974883Y-110200000D01*
X126991313Y-110033177D01*
X127034229Y-109891703D01*
X127039975Y-109872761D01*
X127039976Y-109872758D01*
X127118995Y-109724924D01*
X127118996Y-109724922D01*
X127225341Y-109595341D01*
X127354922Y-109488996D01*
X127370094Y-109480886D01*
X127502758Y-109409976D01*
X127663177Y-109361313D01*
X127788196Y-109349000D01*
X127871804Y-109349000D01*
X127996823Y-109361313D01*
X127996823Y-109361313D01*
G37*
G36*
X72296823Y-109361313D02*
G01*
X72457242Y-109409976D01*
X72589906Y-109480886D01*
X72605078Y-109488996D01*
X72734659Y-109595341D01*
X72841004Y-109724922D01*
X72841005Y-109724924D01*
X72920024Y-109872758D01*
X72920025Y-109872761D01*
X72925771Y-109891703D01*
X72968687Y-110033177D01*
X72985117Y-110200000D01*
X72968687Y-110366823D01*
X72920024Y-110527242D01*
X72861793Y-110636184D01*
X72841004Y-110675078D01*
X72734659Y-110804659D01*
X72605078Y-110911004D01*
X72605076Y-110911005D01*
X72457242Y-110990024D01*
X72296823Y-111038687D01*
X72171804Y-111051000D01*
X72088196Y-111051000D01*
X71963177Y-111038687D01*
X71802758Y-110990024D01*
X71654924Y-110911005D01*
X71654922Y-110911004D01*
X71525341Y-110804659D01*
X71418996Y-110675078D01*
X71398207Y-110636184D01*
X71339976Y-110527242D01*
X71291313Y-110366823D01*
X71274883Y-110200000D01*
X71291313Y-110033177D01*
X71334229Y-109891703D01*
X71339975Y-109872761D01*
X71339976Y-109872758D01*
X71418995Y-109724924D01*
X71418996Y-109724922D01*
X71525341Y-109595341D01*
X71654922Y-109488996D01*
X71670094Y-109480886D01*
X71802758Y-109409976D01*
X71963177Y-109361313D01*
X72088196Y-109349000D01*
X72171804Y-109349000D01*
X72296823Y-109361313D01*
X72296823Y-109361313D01*
G37*
G36*
X121061000Y-111051000D02*
G01*
X119359000Y-111051000D01*
X119359000Y-109349000D01*
X121061000Y-109349000D01*
X121061000Y-111051000D01*
X121061000Y-111051000D01*
G37*
G36*
X65361000Y-111051000D02*
G01*
X63659000Y-111051000D01*
X63659000Y-109349000D01*
X65361000Y-109349000D01*
X65361000Y-111051000D01*
X65361000Y-111051000D01*
G37*
G36*
X43086823Y-107001313D02*
G01*
X43247242Y-107049976D01*
X43354897Y-107107519D01*
X43395078Y-107128996D01*
X43524659Y-107235341D01*
X43631004Y-107364922D01*
X43631005Y-107364924D01*
X43710024Y-107512758D01*
X43758687Y-107673177D01*
X43775117Y-107840000D01*
X43758687Y-108006823D01*
X43710024Y-108167242D01*
X43659901Y-108261015D01*
X43631004Y-108315078D01*
X43524659Y-108444659D01*
X43395078Y-108551004D01*
X43395076Y-108551005D01*
X43247242Y-108630024D01*
X43086823Y-108678687D01*
X42961804Y-108691000D01*
X42878196Y-108691000D01*
X42753177Y-108678687D01*
X42592758Y-108630024D01*
X42444924Y-108551005D01*
X42444922Y-108551004D01*
X42315341Y-108444659D01*
X42208996Y-108315078D01*
X42180099Y-108261015D01*
X42129976Y-108167242D01*
X42081313Y-108006823D01*
X42064883Y-107840000D01*
X42081313Y-107673177D01*
X42129976Y-107512758D01*
X42208995Y-107364924D01*
X42208996Y-107364922D01*
X42315341Y-107235341D01*
X42444922Y-107128996D01*
X42485103Y-107107519D01*
X42592758Y-107049976D01*
X42753177Y-107001313D01*
X42878196Y-106989000D01*
X42961804Y-106989000D01*
X43086823Y-107001313D01*
X43086823Y-107001313D01*
G37*
G36*
X84936823Y-106831313D02*
G01*
X85097242Y-106879976D01*
X85226367Y-106948995D01*
X85245078Y-106958996D01*
X85374659Y-107065341D01*
X85481004Y-107194922D01*
X85481005Y-107194924D01*
X85560024Y-107342758D01*
X85608687Y-107503177D01*
X85625117Y-107670000D01*
X85608687Y-107836823D01*
X85581259Y-107927239D01*
X85563058Y-107987242D01*
X85560024Y-107997242D01*
X85491695Y-108125076D01*
X85481004Y-108145078D01*
X85374659Y-108274659D01*
X85245078Y-108381004D01*
X85245076Y-108381005D01*
X85097242Y-108460024D01*
X84936823Y-108508687D01*
X84811804Y-108521000D01*
X84728196Y-108521000D01*
X84603177Y-108508687D01*
X84442758Y-108460024D01*
X84294924Y-108381005D01*
X84294922Y-108381004D01*
X84165341Y-108274659D01*
X84058996Y-108145078D01*
X84048305Y-108125076D01*
X83979976Y-107997242D01*
X83976943Y-107987242D01*
X83958741Y-107927239D01*
X83931313Y-107836823D01*
X83914883Y-107670000D01*
X83931313Y-107503177D01*
X83979976Y-107342758D01*
X84058995Y-107194924D01*
X84058996Y-107194922D01*
X84165341Y-107065341D01*
X84294922Y-106958996D01*
X84313633Y-106948995D01*
X84442758Y-106879976D01*
X84603177Y-106831313D01*
X84728196Y-106819000D01*
X84811804Y-106819000D01*
X84936823Y-106831313D01*
X84936823Y-106831313D01*
G37*
G36*
X74858228Y-106851703D02*
G01*
X75013100Y-106915853D01*
X75152481Y-107008985D01*
X75271015Y-107127519D01*
X75364147Y-107266900D01*
X75428297Y-107421772D01*
X75461000Y-107586184D01*
X75461000Y-107753816D01*
X75428297Y-107918228D01*
X75364147Y-108073100D01*
X75271015Y-108212481D01*
X75152481Y-108331015D01*
X75013100Y-108424147D01*
X74858228Y-108488297D01*
X74693816Y-108521000D01*
X74526184Y-108521000D01*
X74361772Y-108488297D01*
X74206900Y-108424147D01*
X74067519Y-108331015D01*
X73948985Y-108212481D01*
X73855853Y-108073100D01*
X73791703Y-107918228D01*
X73759000Y-107753816D01*
X73759000Y-107586184D01*
X73791703Y-107421772D01*
X73855853Y-107266900D01*
X73948985Y-107127519D01*
X74067519Y-107008985D01*
X74206900Y-106915853D01*
X74361772Y-106851703D01*
X74526184Y-106819000D01*
X74693816Y-106819000D01*
X74858228Y-106851703D01*
X74858228Y-106851703D01*
G37*
G36*
X120376823Y-106821313D02*
G01*
X120537242Y-106869976D01*
X120666349Y-106938985D01*
X120685078Y-106948996D01*
X120814659Y-107055341D01*
X120921004Y-107184922D01*
X120921005Y-107184924D01*
X121000024Y-107332758D01*
X121000025Y-107332761D01*
X121003058Y-107342761D01*
X121048687Y-107493177D01*
X121065117Y-107660000D01*
X121048687Y-107826823D01*
X121020959Y-107918228D01*
X121003058Y-107977242D01*
X121000024Y-107987242D01*
X120929114Y-108119906D01*
X120921004Y-108135078D01*
X120814659Y-108264659D01*
X120685078Y-108371004D01*
X120685076Y-108371005D01*
X120537242Y-108450024D01*
X120376823Y-108498687D01*
X120251804Y-108511000D01*
X120168196Y-108511000D01*
X120043177Y-108498687D01*
X119882758Y-108450024D01*
X119734924Y-108371005D01*
X119734922Y-108371004D01*
X119605341Y-108264659D01*
X119498996Y-108135078D01*
X119490886Y-108119906D01*
X119419976Y-107987242D01*
X119416943Y-107977242D01*
X119399041Y-107918228D01*
X119371313Y-107826823D01*
X119354883Y-107660000D01*
X119371313Y-107493177D01*
X119416942Y-107342761D01*
X119419975Y-107332761D01*
X119419976Y-107332758D01*
X119498995Y-107184924D01*
X119498996Y-107184922D01*
X119605341Y-107055341D01*
X119734922Y-106948996D01*
X119753651Y-106938985D01*
X119882758Y-106869976D01*
X120043177Y-106821313D01*
X120168196Y-106809000D01*
X120251804Y-106809000D01*
X120376823Y-106821313D01*
X120376823Y-106821313D01*
G37*
G36*
X140456823Y-106821313D02*
G01*
X140617242Y-106869976D01*
X140746349Y-106938985D01*
X140765078Y-106948996D01*
X140894659Y-107055341D01*
X141001004Y-107184922D01*
X141001005Y-107184924D01*
X141080024Y-107332758D01*
X141080025Y-107332761D01*
X141083058Y-107342761D01*
X141128687Y-107493177D01*
X141145117Y-107660000D01*
X141128687Y-107826823D01*
X141100959Y-107918228D01*
X141083058Y-107977242D01*
X141080024Y-107987242D01*
X141009114Y-108119906D01*
X141001004Y-108135078D01*
X140894659Y-108264659D01*
X140765078Y-108371004D01*
X140765076Y-108371005D01*
X140617242Y-108450024D01*
X140456823Y-108498687D01*
X140331804Y-108511000D01*
X140248196Y-108511000D01*
X140123177Y-108498687D01*
X139962758Y-108450024D01*
X139814924Y-108371005D01*
X139814922Y-108371004D01*
X139685341Y-108264659D01*
X139578996Y-108135078D01*
X139570886Y-108119906D01*
X139499976Y-107987242D01*
X139496943Y-107977242D01*
X139479041Y-107918228D01*
X139451313Y-107826823D01*
X139434883Y-107660000D01*
X139451313Y-107493177D01*
X139496942Y-107342761D01*
X139499975Y-107332761D01*
X139499976Y-107332758D01*
X139578995Y-107184924D01*
X139578996Y-107184922D01*
X139685341Y-107055341D01*
X139814922Y-106948996D01*
X139833651Y-106938985D01*
X139962758Y-106869976D01*
X140123177Y-106821313D01*
X140248196Y-106809000D01*
X140331804Y-106809000D01*
X140456823Y-106821313D01*
X140456823Y-106821313D01*
G37*
G36*
X127996823Y-106821313D02*
G01*
X128157242Y-106869976D01*
X128286349Y-106938985D01*
X128305078Y-106948996D01*
X128434659Y-107055341D01*
X128541004Y-107184922D01*
X128541005Y-107184924D01*
X128620024Y-107332758D01*
X128620025Y-107332761D01*
X128623058Y-107342761D01*
X128668687Y-107493177D01*
X128685117Y-107660000D01*
X128668687Y-107826823D01*
X128640959Y-107918228D01*
X128623058Y-107977242D01*
X128620024Y-107987242D01*
X128549114Y-108119906D01*
X128541004Y-108135078D01*
X128434659Y-108264659D01*
X128305078Y-108371004D01*
X128305076Y-108371005D01*
X128157242Y-108450024D01*
X127996823Y-108498687D01*
X127871804Y-108511000D01*
X127788196Y-108511000D01*
X127663177Y-108498687D01*
X127502758Y-108450024D01*
X127354924Y-108371005D01*
X127354922Y-108371004D01*
X127225341Y-108264659D01*
X127118996Y-108135078D01*
X127110886Y-108119906D01*
X127039976Y-107987242D01*
X127036943Y-107977242D01*
X127019041Y-107918228D01*
X126991313Y-107826823D01*
X126974883Y-107660000D01*
X126991313Y-107493177D01*
X127036942Y-107342761D01*
X127039975Y-107332761D01*
X127039976Y-107332758D01*
X127118995Y-107184924D01*
X127118996Y-107184922D01*
X127225341Y-107055341D01*
X127354922Y-106948996D01*
X127373651Y-106938985D01*
X127502758Y-106869976D01*
X127663177Y-106821313D01*
X127788196Y-106809000D01*
X127871804Y-106809000D01*
X127996823Y-106821313D01*
X127996823Y-106821313D01*
G37*
G36*
X64676823Y-106821313D02*
G01*
X64837242Y-106869976D01*
X64966349Y-106938985D01*
X64985078Y-106948996D01*
X65114659Y-107055341D01*
X65221004Y-107184922D01*
X65221005Y-107184924D01*
X65300024Y-107332758D01*
X65300025Y-107332761D01*
X65303058Y-107342761D01*
X65348687Y-107493177D01*
X65365117Y-107660000D01*
X65348687Y-107826823D01*
X65320959Y-107918228D01*
X65303058Y-107977242D01*
X65300024Y-107987242D01*
X65229114Y-108119906D01*
X65221004Y-108135078D01*
X65114659Y-108264659D01*
X64985078Y-108371004D01*
X64985076Y-108371005D01*
X64837242Y-108450024D01*
X64676823Y-108498687D01*
X64551804Y-108511000D01*
X64468196Y-108511000D01*
X64343177Y-108498687D01*
X64182758Y-108450024D01*
X64034924Y-108371005D01*
X64034922Y-108371004D01*
X63905341Y-108264659D01*
X63798996Y-108135078D01*
X63790886Y-108119906D01*
X63719976Y-107987242D01*
X63716943Y-107977242D01*
X63699041Y-107918228D01*
X63671313Y-107826823D01*
X63654883Y-107660000D01*
X63671313Y-107493177D01*
X63716942Y-107342761D01*
X63719975Y-107332761D01*
X63719976Y-107332758D01*
X63798995Y-107184924D01*
X63798996Y-107184922D01*
X63905341Y-107055341D01*
X64034922Y-106948996D01*
X64053651Y-106938985D01*
X64182758Y-106869976D01*
X64343177Y-106821313D01*
X64468196Y-106809000D01*
X64551804Y-106809000D01*
X64676823Y-106821313D01*
X64676823Y-106821313D01*
G37*
G36*
X72296823Y-106821313D02*
G01*
X72457242Y-106869976D01*
X72586349Y-106938985D01*
X72605078Y-106948996D01*
X72734659Y-107055341D01*
X72841004Y-107184922D01*
X72841005Y-107184924D01*
X72920024Y-107332758D01*
X72920025Y-107332761D01*
X72923058Y-107342761D01*
X72968687Y-107493177D01*
X72985117Y-107660000D01*
X72968687Y-107826823D01*
X72940959Y-107918228D01*
X72923058Y-107977242D01*
X72920024Y-107987242D01*
X72849114Y-108119906D01*
X72841004Y-108135078D01*
X72734659Y-108264659D01*
X72605078Y-108371004D01*
X72605076Y-108371005D01*
X72457242Y-108450024D01*
X72296823Y-108498687D01*
X72171804Y-108511000D01*
X72088196Y-108511000D01*
X71963177Y-108498687D01*
X71802758Y-108450024D01*
X71654924Y-108371005D01*
X71654922Y-108371004D01*
X71525341Y-108264659D01*
X71418996Y-108135078D01*
X71410886Y-108119906D01*
X71339976Y-107987242D01*
X71336943Y-107977242D01*
X71319041Y-107918228D01*
X71291313Y-107826823D01*
X71274883Y-107660000D01*
X71291313Y-107493177D01*
X71336942Y-107342761D01*
X71339975Y-107332761D01*
X71339976Y-107332758D01*
X71418995Y-107184924D01*
X71418996Y-107184922D01*
X71525341Y-107055341D01*
X71654922Y-106948996D01*
X71673651Y-106938985D01*
X71802758Y-106869976D01*
X71963177Y-106821313D01*
X72088196Y-106809000D01*
X72171804Y-106809000D01*
X72296823Y-106821313D01*
X72296823Y-106821313D01*
G37*
G36*
X130378228Y-106841703D02*
G01*
X130533100Y-106905853D01*
X130672481Y-106998985D01*
X130791015Y-107117519D01*
X130884147Y-107256900D01*
X130948297Y-107411772D01*
X130981000Y-107576184D01*
X130981000Y-107743816D01*
X130948297Y-107908228D01*
X130884147Y-108063100D01*
X130791015Y-108202481D01*
X130672481Y-108321015D01*
X130533100Y-108414147D01*
X130378228Y-108478297D01*
X130213816Y-108511000D01*
X130046184Y-108511000D01*
X129881772Y-108478297D01*
X129726900Y-108414147D01*
X129587519Y-108321015D01*
X129468985Y-108202481D01*
X129375853Y-108063100D01*
X129311703Y-107908228D01*
X129279000Y-107743816D01*
X129279000Y-107576184D01*
X129311703Y-107411772D01*
X129375853Y-107256900D01*
X129468985Y-107117519D01*
X129587519Y-106998985D01*
X129726900Y-106905853D01*
X129881772Y-106841703D01*
X130046184Y-106809000D01*
X130213816Y-106809000D01*
X130378228Y-106841703D01*
X130378228Y-106841703D01*
G37*
G36*
X107776823Y-106811313D02*
G01*
X107937242Y-106859976D01*
X108041780Y-106915853D01*
X108085078Y-106938996D01*
X108214659Y-107045341D01*
X108321004Y-107174922D01*
X108321005Y-107174924D01*
X108400024Y-107322758D01*
X108400025Y-107322761D01*
X108403058Y-107332761D01*
X108448687Y-107483177D01*
X108465117Y-107650000D01*
X108448687Y-107816823D01*
X108400024Y-107977242D01*
X108329114Y-108109906D01*
X108321004Y-108125078D01*
X108214659Y-108254659D01*
X108085078Y-108361004D01*
X108085076Y-108361005D01*
X107937242Y-108440024D01*
X107776823Y-108488687D01*
X107651804Y-108501000D01*
X107568196Y-108501000D01*
X107443177Y-108488687D01*
X107282758Y-108440024D01*
X107134924Y-108361005D01*
X107134922Y-108361004D01*
X107005341Y-108254659D01*
X106898996Y-108125078D01*
X106890886Y-108109906D01*
X106819976Y-107977242D01*
X106771313Y-107816823D01*
X106754883Y-107650000D01*
X106771313Y-107483177D01*
X106816942Y-107332761D01*
X106819975Y-107322761D01*
X106819976Y-107322758D01*
X106898995Y-107174924D01*
X106898996Y-107174922D01*
X107005341Y-107045341D01*
X107134922Y-106938996D01*
X107178220Y-106915853D01*
X107282758Y-106859976D01*
X107443177Y-106811313D01*
X107568196Y-106799000D01*
X107651804Y-106799000D01*
X107776823Y-106811313D01*
X107776823Y-106811313D01*
G37*
G36*
X118018228Y-106831703D02*
G01*
X118173100Y-106895853D01*
X118312481Y-106988985D01*
X118431015Y-107107519D01*
X118524147Y-107246900D01*
X118588297Y-107401772D01*
X118621000Y-107566184D01*
X118621000Y-107733816D01*
X118588297Y-107898228D01*
X118524147Y-108053100D01*
X118431015Y-108192481D01*
X118312481Y-108311015D01*
X118173100Y-108404147D01*
X118018228Y-108468297D01*
X117853816Y-108501000D01*
X117686184Y-108501000D01*
X117521772Y-108468297D01*
X117366900Y-108404147D01*
X117227519Y-108311015D01*
X117108985Y-108192481D01*
X117015853Y-108053100D01*
X116951703Y-107898228D01*
X116919000Y-107733816D01*
X116919000Y-107566184D01*
X116951703Y-107401772D01*
X117015853Y-107246900D01*
X117108985Y-107107519D01*
X117227519Y-106988985D01*
X117366900Y-106895853D01*
X117521772Y-106831703D01*
X117686184Y-106799000D01*
X117853816Y-106799000D01*
X118018228Y-106831703D01*
X118018228Y-106831703D01*
G37*
G36*
X52256823Y-106761313D02*
G01*
X52417242Y-106809976D01*
X52495311Y-106851705D01*
X52565078Y-106888996D01*
X52694659Y-106995341D01*
X52801004Y-107124922D01*
X52801005Y-107124924D01*
X52880024Y-107272758D01*
X52928687Y-107433177D01*
X52945117Y-107600000D01*
X52928687Y-107766823D01*
X52880024Y-107927242D01*
X52839477Y-108003100D01*
X52801004Y-108075078D01*
X52694659Y-108204659D01*
X52565078Y-108311004D01*
X52565076Y-108311005D01*
X52417242Y-108390024D01*
X52256823Y-108438687D01*
X52131804Y-108451000D01*
X52048196Y-108451000D01*
X51923177Y-108438687D01*
X51762758Y-108390024D01*
X51614924Y-108311005D01*
X51614922Y-108311004D01*
X51485341Y-108204659D01*
X51378996Y-108075078D01*
X51340523Y-108003100D01*
X51299976Y-107927242D01*
X51251313Y-107766823D01*
X51234883Y-107600000D01*
X51251313Y-107433177D01*
X51299976Y-107272758D01*
X51378995Y-107124924D01*
X51378996Y-107124922D01*
X51485341Y-106995341D01*
X51614922Y-106888996D01*
X51684689Y-106851705D01*
X51762758Y-106809976D01*
X51923177Y-106761313D01*
X52048196Y-106749000D01*
X52131804Y-106749000D01*
X52256823Y-106761313D01*
X52256823Y-106761313D01*
G37*
G36*
X62498228Y-106781703D02*
G01*
X62653100Y-106845853D01*
X62792481Y-106938985D01*
X62911015Y-107057519D01*
X63004147Y-107196900D01*
X63068297Y-107351772D01*
X63101000Y-107516184D01*
X63101000Y-107683816D01*
X63068297Y-107848228D01*
X63004147Y-108003100D01*
X62911015Y-108142481D01*
X62792481Y-108261015D01*
X62653100Y-108354147D01*
X62498228Y-108418297D01*
X62333816Y-108451000D01*
X62166184Y-108451000D01*
X62001772Y-108418297D01*
X61846900Y-108354147D01*
X61707519Y-108261015D01*
X61588985Y-108142481D01*
X61495853Y-108003100D01*
X61431703Y-107848228D01*
X61399000Y-107683816D01*
X61399000Y-107516184D01*
X61431703Y-107351772D01*
X61495853Y-107196900D01*
X61588985Y-107057519D01*
X61707519Y-106938985D01*
X61846900Y-106845853D01*
X62001772Y-106781703D01*
X62166184Y-106749000D01*
X62333816Y-106749000D01*
X62498228Y-106781703D01*
X62498228Y-106781703D01*
G37*
G36*
X127996823Y-104281313D02*
G01*
X128157242Y-104329976D01*
X128256770Y-104383175D01*
X128305078Y-104408996D01*
X128434659Y-104515341D01*
X128541004Y-104644922D01*
X128541005Y-104644924D01*
X128620024Y-104792758D01*
X128668687Y-104953177D01*
X128685117Y-105120000D01*
X128668687Y-105286823D01*
X128637905Y-105388297D01*
X128627985Y-105421000D01*
X128620024Y-105447242D01*
X128549114Y-105579906D01*
X128541004Y-105595078D01*
X128434659Y-105724659D01*
X128305078Y-105831004D01*
X128305076Y-105831005D01*
X128157242Y-105910024D01*
X127996823Y-105958687D01*
X127871804Y-105971000D01*
X127788196Y-105971000D01*
X127663177Y-105958687D01*
X127502758Y-105910024D01*
X127354924Y-105831005D01*
X127354922Y-105831004D01*
X127225341Y-105724659D01*
X127118996Y-105595078D01*
X127110886Y-105579906D01*
X127039976Y-105447242D01*
X127032016Y-105421000D01*
X127022095Y-105388297D01*
X126991313Y-105286823D01*
X126974883Y-105120000D01*
X126991313Y-104953177D01*
X127039976Y-104792758D01*
X127118995Y-104644924D01*
X127118996Y-104644922D01*
X127225341Y-104515341D01*
X127354922Y-104408996D01*
X127403230Y-104383175D01*
X127502758Y-104329976D01*
X127663177Y-104281313D01*
X127788196Y-104269000D01*
X127871804Y-104269000D01*
X127996823Y-104281313D01*
X127996823Y-104281313D01*
G37*
G36*
X120376823Y-104281313D02*
G01*
X120537242Y-104329976D01*
X120636770Y-104383175D01*
X120685078Y-104408996D01*
X120814659Y-104515341D01*
X120921004Y-104644922D01*
X120921005Y-104644924D01*
X121000024Y-104792758D01*
X121048687Y-104953177D01*
X121065117Y-105120000D01*
X121048687Y-105286823D01*
X121017905Y-105388297D01*
X121007985Y-105421000D01*
X121000024Y-105447242D01*
X120929114Y-105579906D01*
X120921004Y-105595078D01*
X120814659Y-105724659D01*
X120685078Y-105831004D01*
X120685076Y-105831005D01*
X120537242Y-105910024D01*
X120376823Y-105958687D01*
X120251804Y-105971000D01*
X120168196Y-105971000D01*
X120043177Y-105958687D01*
X119882758Y-105910024D01*
X119734924Y-105831005D01*
X119734922Y-105831004D01*
X119605341Y-105724659D01*
X119498996Y-105595078D01*
X119490886Y-105579906D01*
X119419976Y-105447242D01*
X119412016Y-105421000D01*
X119402095Y-105388297D01*
X119371313Y-105286823D01*
X119354883Y-105120000D01*
X119371313Y-104953177D01*
X119419976Y-104792758D01*
X119498995Y-104644924D01*
X119498996Y-104644922D01*
X119605341Y-104515341D01*
X119734922Y-104408996D01*
X119783230Y-104383175D01*
X119882758Y-104329976D01*
X120043177Y-104281313D01*
X120168196Y-104269000D01*
X120251804Y-104269000D01*
X120376823Y-104281313D01*
X120376823Y-104281313D01*
G37*
G36*
X72296823Y-104281313D02*
G01*
X72457242Y-104329976D01*
X72556770Y-104383175D01*
X72605078Y-104408996D01*
X72734659Y-104515341D01*
X72841004Y-104644922D01*
X72841005Y-104644924D01*
X72920024Y-104792758D01*
X72968687Y-104953177D01*
X72985117Y-105120000D01*
X72968687Y-105286823D01*
X72937905Y-105388297D01*
X72927985Y-105421000D01*
X72920024Y-105447242D01*
X72849114Y-105579906D01*
X72841004Y-105595078D01*
X72734659Y-105724659D01*
X72605078Y-105831004D01*
X72605076Y-105831005D01*
X72457242Y-105910024D01*
X72296823Y-105958687D01*
X72171804Y-105971000D01*
X72088196Y-105971000D01*
X71963177Y-105958687D01*
X71802758Y-105910024D01*
X71654924Y-105831005D01*
X71654922Y-105831004D01*
X71525341Y-105724659D01*
X71418996Y-105595078D01*
X71410886Y-105579906D01*
X71339976Y-105447242D01*
X71332016Y-105421000D01*
X71322095Y-105388297D01*
X71291313Y-105286823D01*
X71274883Y-105120000D01*
X71291313Y-104953177D01*
X71339976Y-104792758D01*
X71418995Y-104644924D01*
X71418996Y-104644922D01*
X71525341Y-104515341D01*
X71654922Y-104408996D01*
X71703230Y-104383175D01*
X71802758Y-104329976D01*
X71963177Y-104281313D01*
X72088196Y-104269000D01*
X72171804Y-104269000D01*
X72296823Y-104281313D01*
X72296823Y-104281313D01*
G37*
G36*
X64676823Y-104281313D02*
G01*
X64837242Y-104329976D01*
X64936770Y-104383175D01*
X64985078Y-104408996D01*
X65114659Y-104515341D01*
X65221004Y-104644922D01*
X65221005Y-104644924D01*
X65300024Y-104792758D01*
X65348687Y-104953177D01*
X65365117Y-105120000D01*
X65348687Y-105286823D01*
X65317905Y-105388297D01*
X65307985Y-105421000D01*
X65300024Y-105447242D01*
X65229114Y-105579906D01*
X65221004Y-105595078D01*
X65114659Y-105724659D01*
X64985078Y-105831004D01*
X64985076Y-105831005D01*
X64837242Y-105910024D01*
X64676823Y-105958687D01*
X64551804Y-105971000D01*
X64468196Y-105971000D01*
X64343177Y-105958687D01*
X64182758Y-105910024D01*
X64034924Y-105831005D01*
X64034922Y-105831004D01*
X63905341Y-105724659D01*
X63798996Y-105595078D01*
X63790886Y-105579906D01*
X63719976Y-105447242D01*
X63712016Y-105421000D01*
X63702095Y-105388297D01*
X63671313Y-105286823D01*
X63654883Y-105120000D01*
X63671313Y-104953177D01*
X63719976Y-104792758D01*
X63798995Y-104644924D01*
X63798996Y-104644922D01*
X63905341Y-104515341D01*
X64034922Y-104408996D01*
X64083230Y-104383175D01*
X64182758Y-104329976D01*
X64343177Y-104281313D01*
X64468196Y-104269000D01*
X64551804Y-104269000D01*
X64676823Y-104281313D01*
X64676823Y-104281313D01*
G37*
G36*
X85008228Y-103751703D02*
G01*
X85163100Y-103815853D01*
X85302481Y-103908985D01*
X85421015Y-104027519D01*
X85514147Y-104166900D01*
X85578297Y-104321772D01*
X85611000Y-104486184D01*
X85611000Y-104653816D01*
X85578297Y-104818228D01*
X85514147Y-104973100D01*
X85421015Y-105112481D01*
X85302481Y-105231015D01*
X85163100Y-105324147D01*
X85008228Y-105388297D01*
X84843816Y-105421000D01*
X84676184Y-105421000D01*
X84511772Y-105388297D01*
X84356900Y-105324147D01*
X84217519Y-105231015D01*
X84098985Y-105112481D01*
X84005853Y-104973100D01*
X83941703Y-104818228D01*
X83909000Y-104653816D01*
X83909000Y-104486184D01*
X83941703Y-104321772D01*
X84005853Y-104166900D01*
X84098985Y-104027519D01*
X84217519Y-103908985D01*
X84356900Y-103815853D01*
X84511772Y-103751703D01*
X84676184Y-103719000D01*
X84843816Y-103719000D01*
X85008228Y-103751703D01*
X85008228Y-103751703D01*
G37*
G36*
X74766823Y-103731313D02*
G01*
X74927242Y-103779976D01*
X75059906Y-103850886D01*
X75075078Y-103858996D01*
X75204659Y-103965341D01*
X75311004Y-104094922D01*
X75311005Y-104094924D01*
X75390024Y-104242758D01*
X75390025Y-104242761D01*
X75399083Y-104272620D01*
X75438687Y-104403177D01*
X75455117Y-104570000D01*
X75438687Y-104736823D01*
X75390024Y-104897242D01*
X75321695Y-105025076D01*
X75311004Y-105045078D01*
X75204659Y-105174659D01*
X75075078Y-105281004D01*
X75075076Y-105281005D01*
X74927242Y-105360024D01*
X74766823Y-105408687D01*
X74641804Y-105421000D01*
X74558196Y-105421000D01*
X74433177Y-105408687D01*
X74272758Y-105360024D01*
X74124924Y-105281005D01*
X74124922Y-105281004D01*
X73995341Y-105174659D01*
X73888996Y-105045078D01*
X73878305Y-105025076D01*
X73809976Y-104897242D01*
X73761313Y-104736823D01*
X73744883Y-104570000D01*
X73761313Y-104403177D01*
X73800917Y-104272620D01*
X73809975Y-104242761D01*
X73809976Y-104242758D01*
X73888995Y-104094924D01*
X73888996Y-104094922D01*
X73995341Y-103965341D01*
X74124922Y-103858996D01*
X74140094Y-103850886D01*
X74272758Y-103779976D01*
X74433177Y-103731313D01*
X74558196Y-103719000D01*
X74641804Y-103719000D01*
X74766823Y-103731313D01*
X74766823Y-103731313D01*
G37*
G36*
X130296823Y-103731313D02*
G01*
X130457242Y-103779976D01*
X130589906Y-103850886D01*
X130605078Y-103858996D01*
X130734659Y-103965341D01*
X130841004Y-104094922D01*
X130841005Y-104094924D01*
X130920024Y-104242758D01*
X130920025Y-104242761D01*
X130929083Y-104272620D01*
X130968687Y-104403177D01*
X130985117Y-104570000D01*
X130968687Y-104736823D01*
X130920024Y-104897242D01*
X130851695Y-105025076D01*
X130841004Y-105045078D01*
X130734659Y-105174659D01*
X130605078Y-105281004D01*
X130605076Y-105281005D01*
X130457242Y-105360024D01*
X130296823Y-105408687D01*
X130171804Y-105421000D01*
X130088196Y-105421000D01*
X129963177Y-105408687D01*
X129802758Y-105360024D01*
X129654924Y-105281005D01*
X129654922Y-105281004D01*
X129525341Y-105174659D01*
X129418996Y-105045078D01*
X129408305Y-105025076D01*
X129339976Y-104897242D01*
X129291313Y-104736823D01*
X129274883Y-104570000D01*
X129291313Y-104403177D01*
X129330917Y-104272620D01*
X129339975Y-104242761D01*
X129339976Y-104242758D01*
X129418995Y-104094924D01*
X129418996Y-104094922D01*
X129525341Y-103965341D01*
X129654922Y-103858996D01*
X129670094Y-103850886D01*
X129802758Y-103779976D01*
X129963177Y-103731313D01*
X130088196Y-103719000D01*
X130171804Y-103719000D01*
X130296823Y-103731313D01*
X130296823Y-103731313D01*
G37*
G36*
X140538228Y-103751703D02*
G01*
X140693100Y-103815853D01*
X140832481Y-103908985D01*
X140951015Y-104027519D01*
X141044147Y-104166900D01*
X141108297Y-104321772D01*
X141141000Y-104486184D01*
X141141000Y-104653816D01*
X141108297Y-104818228D01*
X141044147Y-104973100D01*
X140951015Y-105112481D01*
X140832481Y-105231015D01*
X140693100Y-105324147D01*
X140538228Y-105388297D01*
X140373816Y-105421000D01*
X140206184Y-105421000D01*
X140041772Y-105388297D01*
X139886900Y-105324147D01*
X139747519Y-105231015D01*
X139628985Y-105112481D01*
X139535853Y-104973100D01*
X139471703Y-104818228D01*
X139439000Y-104653816D01*
X139439000Y-104486184D01*
X139471703Y-104321772D01*
X139535853Y-104166900D01*
X139628985Y-104027519D01*
X139747519Y-103908985D01*
X139886900Y-103815853D01*
X140041772Y-103751703D01*
X140206184Y-103719000D01*
X140373816Y-103719000D01*
X140538228Y-103751703D01*
X140538228Y-103751703D01*
G37*
G36*
X107848228Y-103731703D02*
G01*
X108003100Y-103795853D01*
X108142481Y-103888985D01*
X108261015Y-104007519D01*
X108354147Y-104146900D01*
X108418297Y-104301772D01*
X108451000Y-104466184D01*
X108451000Y-104633816D01*
X108418297Y-104798228D01*
X108354147Y-104953100D01*
X108261015Y-105092481D01*
X108142481Y-105211015D01*
X108003100Y-105304147D01*
X107848228Y-105368297D01*
X107683816Y-105401000D01*
X107516184Y-105401000D01*
X107351772Y-105368297D01*
X107196900Y-105304147D01*
X107057519Y-105211015D01*
X106938985Y-105092481D01*
X106845853Y-104953100D01*
X106781703Y-104798228D01*
X106749000Y-104633816D01*
X106749000Y-104466184D01*
X106781703Y-104301772D01*
X106845853Y-104146900D01*
X106938985Y-104007519D01*
X107057519Y-103888985D01*
X107196900Y-103795853D01*
X107351772Y-103731703D01*
X107516184Y-103699000D01*
X107683816Y-103699000D01*
X107848228Y-103731703D01*
X107848228Y-103731703D01*
G37*
G36*
X117926823Y-103711313D02*
G01*
X118087242Y-103759976D01*
X118191780Y-103815853D01*
X118235078Y-103838996D01*
X118364659Y-103945341D01*
X118471004Y-104074922D01*
X118471005Y-104074924D01*
X118550024Y-104222758D01*
X118598687Y-104383177D01*
X118615117Y-104550000D01*
X118598687Y-104716823D01*
X118550024Y-104877242D01*
X118479114Y-105009906D01*
X118471004Y-105025078D01*
X118364659Y-105154659D01*
X118235078Y-105261004D01*
X118235076Y-105261005D01*
X118087242Y-105340024D01*
X117926823Y-105388687D01*
X117801804Y-105401000D01*
X117718196Y-105401000D01*
X117593177Y-105388687D01*
X117432758Y-105340024D01*
X117284924Y-105261005D01*
X117284922Y-105261004D01*
X117155341Y-105154659D01*
X117048996Y-105025078D01*
X117040886Y-105009906D01*
X116969976Y-104877242D01*
X116921313Y-104716823D01*
X116904883Y-104550000D01*
X116921313Y-104383177D01*
X116969976Y-104222758D01*
X117048995Y-104074924D01*
X117048996Y-104074922D01*
X117155341Y-103945341D01*
X117284922Y-103838996D01*
X117328220Y-103815853D01*
X117432758Y-103759976D01*
X117593177Y-103711313D01*
X117718196Y-103699000D01*
X117801804Y-103699000D01*
X117926823Y-103711313D01*
X117926823Y-103711313D01*
G37*
G36*
X62426823Y-103661313D02*
G01*
X62587242Y-103709976D01*
X62665311Y-103751705D01*
X62735078Y-103788996D01*
X62864659Y-103895341D01*
X62971004Y-104024922D01*
X62971005Y-104024924D01*
X63050024Y-104172758D01*
X63098687Y-104333177D01*
X63115117Y-104500000D01*
X63098687Y-104666823D01*
X63050024Y-104827242D01*
X63009477Y-104903100D01*
X62971004Y-104975078D01*
X62864659Y-105104659D01*
X62735078Y-105211004D01*
X62735076Y-105211005D01*
X62587242Y-105290024D01*
X62426823Y-105338687D01*
X62301804Y-105351000D01*
X62218196Y-105351000D01*
X62093177Y-105338687D01*
X61932758Y-105290024D01*
X61784924Y-105211005D01*
X61784922Y-105211004D01*
X61655341Y-105104659D01*
X61548996Y-104975078D01*
X61510523Y-104903100D01*
X61469976Y-104827242D01*
X61421313Y-104666823D01*
X61404883Y-104500000D01*
X61421313Y-104333177D01*
X61469976Y-104172758D01*
X61548995Y-104024924D01*
X61548996Y-104024922D01*
X61655341Y-103895341D01*
X61784922Y-103788996D01*
X61854689Y-103751705D01*
X61932758Y-103709976D01*
X62093177Y-103661313D01*
X62218196Y-103649000D01*
X62301804Y-103649000D01*
X62426823Y-103661313D01*
X62426823Y-103661313D01*
G37*
G36*
X52348228Y-103681703D02*
G01*
X52503100Y-103745853D01*
X52642481Y-103838985D01*
X52761015Y-103957519D01*
X52854147Y-104096900D01*
X52918297Y-104251772D01*
X52951000Y-104416184D01*
X52951000Y-104583816D01*
X52918297Y-104748228D01*
X52854147Y-104903100D01*
X52761015Y-105042481D01*
X52642481Y-105161015D01*
X52503100Y-105254147D01*
X52348228Y-105318297D01*
X52183816Y-105351000D01*
X52016184Y-105351000D01*
X51851772Y-105318297D01*
X51696900Y-105254147D01*
X51557519Y-105161015D01*
X51438985Y-105042481D01*
X51345853Y-104903100D01*
X51281703Y-104748228D01*
X51249000Y-104583816D01*
X51249000Y-104416184D01*
X51281703Y-104251772D01*
X51345853Y-104096900D01*
X51438985Y-103957519D01*
X51557519Y-103838985D01*
X51696900Y-103745853D01*
X51851772Y-103681703D01*
X52016184Y-103649000D01*
X52183816Y-103649000D01*
X52348228Y-103681703D01*
X52348228Y-103681703D01*
G37*
G36*
X127996823Y-101741313D02*
G01*
X128157242Y-101789976D01*
X128237921Y-101833100D01*
X128305078Y-101868996D01*
X128434659Y-101975341D01*
X128541004Y-102104922D01*
X128541005Y-102104924D01*
X128620024Y-102252758D01*
X128620025Y-102252761D01*
X128624856Y-102268686D01*
X128668687Y-102413177D01*
X128685117Y-102580000D01*
X128668687Y-102746823D01*
X128620024Y-102907242D01*
X128549114Y-103039906D01*
X128541004Y-103055078D01*
X128434659Y-103184659D01*
X128305078Y-103291004D01*
X128305076Y-103291005D01*
X128157242Y-103370024D01*
X127996823Y-103418687D01*
X127871804Y-103431000D01*
X127788196Y-103431000D01*
X127663177Y-103418687D01*
X127502758Y-103370024D01*
X127354924Y-103291005D01*
X127354922Y-103291004D01*
X127225341Y-103184659D01*
X127118996Y-103055078D01*
X127110886Y-103039906D01*
X127039976Y-102907242D01*
X126991313Y-102746823D01*
X126974883Y-102580000D01*
X126991313Y-102413177D01*
X127035144Y-102268686D01*
X127039975Y-102252761D01*
X127039976Y-102252758D01*
X127118995Y-102104924D01*
X127118996Y-102104922D01*
X127225341Y-101975341D01*
X127354922Y-101868996D01*
X127422079Y-101833100D01*
X127502758Y-101789976D01*
X127663177Y-101741313D01*
X127788196Y-101729000D01*
X127871804Y-101729000D01*
X127996823Y-101741313D01*
X127996823Y-101741313D01*
G37*
G36*
X120376823Y-101741313D02*
G01*
X120537242Y-101789976D01*
X120617921Y-101833100D01*
X120685078Y-101868996D01*
X120814659Y-101975341D01*
X120921004Y-102104922D01*
X120921005Y-102104924D01*
X121000024Y-102252758D01*
X121000025Y-102252761D01*
X121004856Y-102268686D01*
X121048687Y-102413177D01*
X121065117Y-102580000D01*
X121048687Y-102746823D01*
X121000024Y-102907242D01*
X120929114Y-103039906D01*
X120921004Y-103055078D01*
X120814659Y-103184659D01*
X120685078Y-103291004D01*
X120685076Y-103291005D01*
X120537242Y-103370024D01*
X120376823Y-103418687D01*
X120251804Y-103431000D01*
X120168196Y-103431000D01*
X120043177Y-103418687D01*
X119882758Y-103370024D01*
X119734924Y-103291005D01*
X119734922Y-103291004D01*
X119605341Y-103184659D01*
X119498996Y-103055078D01*
X119490886Y-103039906D01*
X119419976Y-102907242D01*
X119371313Y-102746823D01*
X119354883Y-102580000D01*
X119371313Y-102413177D01*
X119415144Y-102268686D01*
X119419975Y-102252761D01*
X119419976Y-102252758D01*
X119498995Y-102104924D01*
X119498996Y-102104922D01*
X119605341Y-101975341D01*
X119734922Y-101868996D01*
X119802079Y-101833100D01*
X119882758Y-101789976D01*
X120043177Y-101741313D01*
X120168196Y-101729000D01*
X120251804Y-101729000D01*
X120376823Y-101741313D01*
X120376823Y-101741313D01*
G37*
G36*
X72296823Y-101741313D02*
G01*
X72457242Y-101789976D01*
X72537921Y-101833100D01*
X72605078Y-101868996D01*
X72734659Y-101975341D01*
X72841004Y-102104922D01*
X72841005Y-102104924D01*
X72920024Y-102252758D01*
X72920025Y-102252761D01*
X72924856Y-102268686D01*
X72968687Y-102413177D01*
X72985117Y-102580000D01*
X72968687Y-102746823D01*
X72920024Y-102907242D01*
X72849114Y-103039906D01*
X72841004Y-103055078D01*
X72734659Y-103184659D01*
X72605078Y-103291004D01*
X72605076Y-103291005D01*
X72457242Y-103370024D01*
X72296823Y-103418687D01*
X72171804Y-103431000D01*
X72088196Y-103431000D01*
X71963177Y-103418687D01*
X71802758Y-103370024D01*
X71654924Y-103291005D01*
X71654922Y-103291004D01*
X71525341Y-103184659D01*
X71418996Y-103055078D01*
X71410886Y-103039906D01*
X71339976Y-102907242D01*
X71291313Y-102746823D01*
X71274883Y-102580000D01*
X71291313Y-102413177D01*
X71335144Y-102268686D01*
X71339975Y-102252761D01*
X71339976Y-102252758D01*
X71418995Y-102104924D01*
X71418996Y-102104922D01*
X71525341Y-101975341D01*
X71654922Y-101868996D01*
X71722079Y-101833100D01*
X71802758Y-101789976D01*
X71963177Y-101741313D01*
X72088196Y-101729000D01*
X72171804Y-101729000D01*
X72296823Y-101741313D01*
X72296823Y-101741313D01*
G37*
G36*
X64676823Y-101741313D02*
G01*
X64837242Y-101789976D01*
X64917921Y-101833100D01*
X64985078Y-101868996D01*
X65114659Y-101975341D01*
X65221004Y-102104922D01*
X65221005Y-102104924D01*
X65300024Y-102252758D01*
X65300025Y-102252761D01*
X65304856Y-102268686D01*
X65348687Y-102413177D01*
X65365117Y-102580000D01*
X65348687Y-102746823D01*
X65300024Y-102907242D01*
X65229114Y-103039906D01*
X65221004Y-103055078D01*
X65114659Y-103184659D01*
X64985078Y-103291004D01*
X64985076Y-103291005D01*
X64837242Y-103370024D01*
X64676823Y-103418687D01*
X64551804Y-103431000D01*
X64468196Y-103431000D01*
X64343177Y-103418687D01*
X64182758Y-103370024D01*
X64034924Y-103291005D01*
X64034922Y-103291004D01*
X63905341Y-103184659D01*
X63798996Y-103055078D01*
X63790886Y-103039906D01*
X63719976Y-102907242D01*
X63671313Y-102746823D01*
X63654883Y-102580000D01*
X63671313Y-102413177D01*
X63715144Y-102268686D01*
X63719975Y-102252761D01*
X63719976Y-102252758D01*
X63798995Y-102104924D01*
X63798996Y-102104922D01*
X63905341Y-101975341D01*
X64034922Y-101868996D01*
X64102079Y-101833100D01*
X64182758Y-101789976D01*
X64343177Y-101741313D01*
X64468196Y-101729000D01*
X64551804Y-101729000D01*
X64676823Y-101741313D01*
X64676823Y-101741313D01*
G37*
G36*
X130368228Y-100651703D02*
G01*
X130523100Y-100715853D01*
X130662481Y-100808985D01*
X130781015Y-100927519D01*
X130874147Y-101066900D01*
X130938297Y-101221772D01*
X130971000Y-101386184D01*
X130971000Y-101553816D01*
X130938297Y-101718228D01*
X130874147Y-101873100D01*
X130781015Y-102012481D01*
X130662481Y-102131015D01*
X130523100Y-102224147D01*
X130368228Y-102288297D01*
X130203816Y-102321000D01*
X130036184Y-102321000D01*
X129871772Y-102288297D01*
X129716900Y-102224147D01*
X129577519Y-102131015D01*
X129458985Y-102012481D01*
X129365853Y-101873100D01*
X129301703Y-101718228D01*
X129269000Y-101553816D01*
X129269000Y-101386184D01*
X129301703Y-101221772D01*
X129365853Y-101066900D01*
X129458985Y-100927519D01*
X129577519Y-100808985D01*
X129716900Y-100715853D01*
X129871772Y-100651703D01*
X130036184Y-100619000D01*
X130203816Y-100619000D01*
X130368228Y-100651703D01*
X130368228Y-100651703D01*
G37*
G36*
X140446823Y-100631313D02*
G01*
X140577380Y-100670917D01*
X140593651Y-100675853D01*
X140607242Y-100679976D01*
X140674361Y-100715852D01*
X140755078Y-100758996D01*
X140884659Y-100865341D01*
X140991004Y-100994922D01*
X140991005Y-100994924D01*
X141070024Y-101142758D01*
X141118687Y-101303177D01*
X141135117Y-101470000D01*
X141118687Y-101636823D01*
X141090725Y-101729000D01*
X141072229Y-101789975D01*
X141070024Y-101797242D01*
X141029477Y-101873100D01*
X140991004Y-101945078D01*
X140884659Y-102074659D01*
X140755078Y-102181004D01*
X140755076Y-102181005D01*
X140607242Y-102260024D01*
X140446823Y-102308687D01*
X140321804Y-102321000D01*
X140238196Y-102321000D01*
X140113177Y-102308687D01*
X139952758Y-102260024D01*
X139804924Y-102181005D01*
X139804922Y-102181004D01*
X139675341Y-102074659D01*
X139568996Y-101945078D01*
X139530523Y-101873100D01*
X139489976Y-101797242D01*
X139487772Y-101789975D01*
X139469275Y-101729000D01*
X139441313Y-101636823D01*
X139424883Y-101470000D01*
X139441313Y-101303177D01*
X139489976Y-101142758D01*
X139568995Y-100994924D01*
X139568996Y-100994922D01*
X139675341Y-100865341D01*
X139804922Y-100758996D01*
X139885639Y-100715852D01*
X139952758Y-100679976D01*
X139966350Y-100675853D01*
X139982620Y-100670917D01*
X140113177Y-100631313D01*
X140238196Y-100619000D01*
X140321804Y-100619000D01*
X140446823Y-100631313D01*
X140446823Y-100631313D01*
G37*
G36*
X74888228Y-100611703D02*
G01*
X75043100Y-100675853D01*
X75182481Y-100768985D01*
X75301015Y-100887519D01*
X75394147Y-101026900D01*
X75458297Y-101181772D01*
X75491000Y-101346184D01*
X75491000Y-101513816D01*
X75458297Y-101678228D01*
X75394147Y-101833100D01*
X75301015Y-101972481D01*
X75182481Y-102091015D01*
X75043100Y-102184147D01*
X74888228Y-102248297D01*
X74723816Y-102281000D01*
X74556184Y-102281000D01*
X74391772Y-102248297D01*
X74236900Y-102184147D01*
X74097519Y-102091015D01*
X73978985Y-101972481D01*
X73885853Y-101833100D01*
X73821703Y-101678228D01*
X73789000Y-101513816D01*
X73789000Y-101346184D01*
X73821703Y-101181772D01*
X73885853Y-101026900D01*
X73978985Y-100887519D01*
X74097519Y-100768985D01*
X74236900Y-100675853D01*
X74391772Y-100611703D01*
X74556184Y-100579000D01*
X74723816Y-100579000D01*
X74888228Y-100611703D01*
X74888228Y-100611703D01*
G37*
G36*
X84966823Y-100591313D02*
G01*
X85127242Y-100639976D01*
X85259906Y-100710886D01*
X85275078Y-100718996D01*
X85404659Y-100825341D01*
X85511004Y-100954922D01*
X85511005Y-100954924D01*
X85590024Y-101102758D01*
X85638687Y-101263177D01*
X85655117Y-101430000D01*
X85638687Y-101596823D01*
X85590024Y-101757242D01*
X85519114Y-101889906D01*
X85511004Y-101905078D01*
X85404659Y-102034659D01*
X85275078Y-102141004D01*
X85275076Y-102141005D01*
X85127242Y-102220024D01*
X85127239Y-102220025D01*
X85113647Y-102224148D01*
X84966823Y-102268687D01*
X84841804Y-102281000D01*
X84758196Y-102281000D01*
X84633177Y-102268687D01*
X84486353Y-102224148D01*
X84472761Y-102220025D01*
X84472758Y-102220024D01*
X84324924Y-102141005D01*
X84324922Y-102141004D01*
X84195341Y-102034659D01*
X84088996Y-101905078D01*
X84080886Y-101889906D01*
X84009976Y-101757242D01*
X83961313Y-101596823D01*
X83944883Y-101430000D01*
X83961313Y-101263177D01*
X84009976Y-101102758D01*
X84088995Y-100954924D01*
X84088996Y-100954922D01*
X84195341Y-100825341D01*
X84324922Y-100718996D01*
X84340094Y-100710886D01*
X84472758Y-100639976D01*
X84633177Y-100591313D01*
X84758196Y-100579000D01*
X84841804Y-100579000D01*
X84966823Y-100591313D01*
X84966823Y-100591313D01*
G37*
G36*
X66298228Y-98781703D02*
G01*
X66453100Y-98845853D01*
X66592481Y-98938985D01*
X66711015Y-99057519D01*
X66804147Y-99196900D01*
X66868297Y-99351772D01*
X66901000Y-99516184D01*
X66901000Y-99683816D01*
X66868297Y-99848228D01*
X66804147Y-100003100D01*
X66711015Y-100142481D01*
X66592481Y-100261015D01*
X66453100Y-100354147D01*
X66298228Y-100418297D01*
X66133816Y-100451000D01*
X65966184Y-100451000D01*
X65801772Y-100418297D01*
X65646900Y-100354147D01*
X65507519Y-100261015D01*
X65388985Y-100142481D01*
X65295853Y-100003100D01*
X65231703Y-99848228D01*
X65199000Y-99683816D01*
X65199000Y-99516184D01*
X65231703Y-99351772D01*
X65295853Y-99196900D01*
X65388985Y-99057519D01*
X65507519Y-98938985D01*
X65646900Y-98845853D01*
X65801772Y-98781703D01*
X65966184Y-98749000D01*
X66133816Y-98749000D01*
X66298228Y-98781703D01*
X66298228Y-98781703D01*
G37*
G36*
X71298228Y-98781703D02*
G01*
X71453100Y-98845853D01*
X71592481Y-98938985D01*
X71711015Y-99057519D01*
X71804147Y-99196900D01*
X71868297Y-99351772D01*
X71901000Y-99516184D01*
X71901000Y-99683816D01*
X71868297Y-99848228D01*
X71804147Y-100003100D01*
X71711015Y-100142481D01*
X71592481Y-100261015D01*
X71453100Y-100354147D01*
X71298228Y-100418297D01*
X71133816Y-100451000D01*
X70966184Y-100451000D01*
X70801772Y-100418297D01*
X70646900Y-100354147D01*
X70507519Y-100261015D01*
X70388985Y-100142481D01*
X70295853Y-100003100D01*
X70231703Y-99848228D01*
X70199000Y-99683816D01*
X70199000Y-99516184D01*
X70231703Y-99351772D01*
X70295853Y-99196900D01*
X70388985Y-99057519D01*
X70507519Y-98938985D01*
X70646900Y-98845853D01*
X70801772Y-98781703D01*
X70966184Y-98749000D01*
X71133816Y-98749000D01*
X71298228Y-98781703D01*
X71298228Y-98781703D01*
G37*
G36*
X121648228Y-98731703D02*
G01*
X121803100Y-98795853D01*
X121942481Y-98888985D01*
X122061015Y-99007519D01*
X122154147Y-99146900D01*
X122218297Y-99301772D01*
X122251000Y-99466184D01*
X122251000Y-99633816D01*
X122218297Y-99798228D01*
X122154147Y-99953100D01*
X122061015Y-100092481D01*
X121942481Y-100211015D01*
X121803100Y-100304147D01*
X121648228Y-100368297D01*
X121483816Y-100401000D01*
X121316184Y-100401000D01*
X121151772Y-100368297D01*
X120996900Y-100304147D01*
X120857519Y-100211015D01*
X120738985Y-100092481D01*
X120645853Y-99953100D01*
X120581703Y-99798228D01*
X120549000Y-99633816D01*
X120549000Y-99466184D01*
X120581703Y-99301772D01*
X120645853Y-99146900D01*
X120738985Y-99007519D01*
X120857519Y-98888985D01*
X120996900Y-98795853D01*
X121151772Y-98731703D01*
X121316184Y-98699000D01*
X121483816Y-98699000D01*
X121648228Y-98731703D01*
X121648228Y-98731703D01*
G37*
G36*
X126648228Y-98731703D02*
G01*
X126803100Y-98795853D01*
X126942481Y-98888985D01*
X127061015Y-99007519D01*
X127154147Y-99146900D01*
X127218297Y-99301772D01*
X127251000Y-99466184D01*
X127251000Y-99633816D01*
X127218297Y-99798228D01*
X127154147Y-99953100D01*
X127061015Y-100092481D01*
X126942481Y-100211015D01*
X126803100Y-100304147D01*
X126648228Y-100368297D01*
X126483816Y-100401000D01*
X126316184Y-100401000D01*
X126151772Y-100368297D01*
X125996900Y-100304147D01*
X125857519Y-100211015D01*
X125738985Y-100092481D01*
X125645853Y-99953100D01*
X125581703Y-99798228D01*
X125549000Y-99633816D01*
X125549000Y-99466184D01*
X125581703Y-99301772D01*
X125645853Y-99146900D01*
X125738985Y-99007519D01*
X125857519Y-98888985D01*
X125996900Y-98795853D01*
X126151772Y-98731703D01*
X126316184Y-98699000D01*
X126483816Y-98699000D01*
X126648228Y-98731703D01*
X126648228Y-98731703D01*
G37*
G36*
X98316564Y-85839389D02*
G01*
X98507833Y-85918615D01*
X98507835Y-85918616D01*
X98628138Y-85999000D01*
X98679973Y-86033635D01*
X98826365Y-86180027D01*
X98941385Y-86352167D01*
X99020611Y-86543436D01*
X99061000Y-86746484D01*
X99061000Y-86953516D01*
X99020611Y-87156564D01*
X98941385Y-87347833D01*
X98941384Y-87347835D01*
X98826365Y-87519973D01*
X98679973Y-87666365D01*
X98507835Y-87781384D01*
X98507834Y-87781385D01*
X98507833Y-87781385D01*
X98316564Y-87860611D01*
X98113516Y-87901000D01*
X97906484Y-87901000D01*
X97703436Y-87860611D01*
X97512167Y-87781385D01*
X97512166Y-87781385D01*
X97512165Y-87781384D01*
X97340027Y-87666365D01*
X97193635Y-87519973D01*
X97078616Y-87347835D01*
X97078615Y-87347833D01*
X96999389Y-87156564D01*
X96959000Y-86953516D01*
X96959000Y-86746484D01*
X96999389Y-86543436D01*
X97078615Y-86352167D01*
X97193635Y-86180027D01*
X97340027Y-86033635D01*
X97391862Y-85999000D01*
X97512165Y-85918616D01*
X97512167Y-85918615D01*
X97703436Y-85839389D01*
X97906484Y-85799000D01*
X98113516Y-85799000D01*
X98316564Y-85839389D01*
X98316564Y-85839389D01*
G37*
G36*
X95776564Y-85839389D02*
G01*
X95967833Y-85918615D01*
X95967835Y-85918616D01*
X96088138Y-85999000D01*
X96139973Y-86033635D01*
X96286365Y-86180027D01*
X96401385Y-86352167D01*
X96480611Y-86543436D01*
X96521000Y-86746484D01*
X96521000Y-86953516D01*
X96480611Y-87156564D01*
X96401385Y-87347833D01*
X96401384Y-87347835D01*
X96286365Y-87519973D01*
X96139973Y-87666365D01*
X95967835Y-87781384D01*
X95967834Y-87781385D01*
X95967833Y-87781385D01*
X95776564Y-87860611D01*
X95573516Y-87901000D01*
X95366484Y-87901000D01*
X95163436Y-87860611D01*
X94972167Y-87781385D01*
X94972166Y-87781385D01*
X94972165Y-87781384D01*
X94800027Y-87666365D01*
X94653635Y-87519973D01*
X94538616Y-87347835D01*
X94538615Y-87347833D01*
X94459389Y-87156564D01*
X94419000Y-86953516D01*
X94419000Y-86746484D01*
X94459389Y-86543436D01*
X94538615Y-86352167D01*
X94653635Y-86180027D01*
X94800027Y-86033635D01*
X94851862Y-85999000D01*
X94972165Y-85918616D01*
X94972167Y-85918615D01*
X95163436Y-85839389D01*
X95366484Y-85799000D01*
X95573516Y-85799000D01*
X95776564Y-85839389D01*
X95776564Y-85839389D01*
G37*
G36*
X93981000Y-87901000D02*
G01*
X91879000Y-87901000D01*
X91879000Y-85799000D01*
X93981000Y-85799000D01*
X93981000Y-87901000D01*
X93981000Y-87901000D01*
G37*
G36*
X84581000Y-87801000D02*
G01*
X82879000Y-87801000D01*
X82879000Y-86099000D01*
X84581000Y-86099000D01*
X84581000Y-87801000D01*
X84581000Y-87801000D01*
G37*
G36*
X88978228Y-86131703D02*
G01*
X89133100Y-86195853D01*
X89272481Y-86288985D01*
X89391015Y-86407519D01*
X89484147Y-86546900D01*
X89548297Y-86701772D01*
X89581000Y-86866184D01*
X89581000Y-87033816D01*
X89548297Y-87198228D01*
X89484147Y-87353100D01*
X89391015Y-87492481D01*
X89272481Y-87611015D01*
X89133100Y-87704147D01*
X88978228Y-87768297D01*
X88813816Y-87801000D01*
X88646184Y-87801000D01*
X88481772Y-87768297D01*
X88326900Y-87704147D01*
X88187519Y-87611015D01*
X88068985Y-87492481D01*
X87975853Y-87353100D01*
X87911703Y-87198228D01*
X87879000Y-87033816D01*
X87879000Y-86866184D01*
X87911703Y-86701772D01*
X87975853Y-86546900D01*
X88068985Y-86407519D01*
X88187519Y-86288985D01*
X88326900Y-86195853D01*
X88481772Y-86131703D01*
X88646184Y-86099000D01*
X88813816Y-86099000D01*
X88978228Y-86131703D01*
X88978228Y-86131703D01*
G37*
G36*
X103381000Y-87701000D02*
G01*
X101679000Y-87701000D01*
X101679000Y-85999000D01*
X103381000Y-85999000D01*
X103381000Y-87701000D01*
X103381000Y-87701000D01*
G37*
G36*
X107778228Y-86031703D02*
G01*
X107933100Y-86095853D01*
X108072481Y-86188985D01*
X108191015Y-86307519D01*
X108284147Y-86446900D01*
X108348297Y-86601772D01*
X108381000Y-86766184D01*
X108381000Y-86933816D01*
X108348297Y-87098228D01*
X108284147Y-87253100D01*
X108191015Y-87392481D01*
X108072481Y-87511015D01*
X107933100Y-87604147D01*
X107778228Y-87668297D01*
X107613816Y-87701000D01*
X107446184Y-87701000D01*
X107281772Y-87668297D01*
X107126900Y-87604147D01*
X106987519Y-87511015D01*
X106868985Y-87392481D01*
X106775853Y-87253100D01*
X106711703Y-87098228D01*
X106679000Y-86933816D01*
X106679000Y-86766184D01*
X106711703Y-86601772D01*
X106775853Y-86446900D01*
X106868985Y-86307519D01*
X106987519Y-86188985D01*
X107126900Y-86095853D01*
X107281772Y-86031703D01*
X107446184Y-85999000D01*
X107613816Y-85999000D01*
X107778228Y-86031703D01*
X107778228Y-86031703D01*
G37*
G36*
X48244098Y-30547033D02*
G01*
X48708350Y-30739332D01*
X48708352Y-30739333D01*
X49126168Y-31018509D01*
X49481491Y-31373832D01*
X49760667Y-31791648D01*
X49760668Y-31791650D01*
X49952967Y-32255902D01*
X50051000Y-32748747D01*
X50051000Y-33251253D01*
X49952967Y-33744098D01*
X49760668Y-34208350D01*
X49760667Y-34208352D01*
X49481491Y-34626168D01*
X49126168Y-34981491D01*
X48708352Y-35260667D01*
X48708351Y-35260668D01*
X48708350Y-35260668D01*
X48244098Y-35452967D01*
X47751253Y-35551000D01*
X47248747Y-35551000D01*
X46755902Y-35452967D01*
X46291650Y-35260668D01*
X46291649Y-35260668D01*
X46291648Y-35260667D01*
X45873832Y-34981491D01*
X45518509Y-34626168D01*
X45239333Y-34208352D01*
X45239332Y-34208350D01*
X45047033Y-33744098D01*
X44949000Y-33251253D01*
X44949000Y-32748747D01*
X45047033Y-32255902D01*
X45239332Y-31791650D01*
X45239333Y-31791648D01*
X45518509Y-31373832D01*
X45873832Y-31018509D01*
X46291648Y-30739333D01*
X46291650Y-30739332D01*
X46755902Y-30547033D01*
X47248747Y-30449000D01*
X47751253Y-30449000D01*
X48244098Y-30547033D01*
X48244098Y-30547033D01*
G37*
G36*
X144764098Y-30547033D02*
G01*
X145228350Y-30739332D01*
X145228352Y-30739333D01*
X145646168Y-31018509D01*
X146001491Y-31373832D01*
X146280667Y-31791648D01*
X146280668Y-31791650D01*
X146472967Y-32255902D01*
X146571000Y-32748747D01*
X146571000Y-33251253D01*
X146472967Y-33744098D01*
X146280668Y-34208350D01*
X146280667Y-34208352D01*
X146001491Y-34626168D01*
X145646168Y-34981491D01*
X145228352Y-35260667D01*
X145228351Y-35260668D01*
X145228350Y-35260668D01*
X144764098Y-35452967D01*
X144271253Y-35551000D01*
X143768747Y-35551000D01*
X143275902Y-35452967D01*
X142811650Y-35260668D01*
X142811649Y-35260668D01*
X142811648Y-35260667D01*
X142393832Y-34981491D01*
X142038509Y-34626168D01*
X141759333Y-34208352D01*
X141759332Y-34208350D01*
X141567033Y-33744098D01*
X141469000Y-33251253D01*
X141469000Y-32748747D01*
X141567033Y-32255902D01*
X141759332Y-31791650D01*
X141759333Y-31791648D01*
X142038509Y-31373832D01*
X142393832Y-31018509D01*
X142811648Y-30739333D01*
X142811650Y-30739332D01*
X143275902Y-30547033D01*
X143768747Y-30449000D01*
X144271253Y-30449000D01*
X144764098Y-30547033D01*
X144764098Y-30547033D01*
G37*
M02*
