M48
; DRILL file {KiCad (5.1.10)-1} date 01/27/22 16:45:04
; FORMAT={-:-/ absolute / inch / decimal}
; #@! TF.CreationDate,2022-01-27T16:45:04-08:00
; #@! TF.GenerationSoftware,Kicad,Pcbnew,(5.1.10)-1
; #@! TF.FileFunction,Plated,1,2,PTH
FMAT,2
INCH
T1C0.0157
T2C0.0315
T3C0.0354
T4C0.0394
T5C0.0433
T6C0.0591
T7C0.0630
T8C0.0728
T9C0.1260
%
G90
G05
T1
X2.1344Y-5.6309
X2.2608Y-5.0344
X2.5197Y-5.0683
X2.5197Y-5.561
X2.6378Y-4.5268
X2.6378Y-4.7563
X3.5165Y-4.7563
X3.5711Y-5.0683
X3.6173Y-5.0344
X3.7173Y-4.1169
X3.7173Y-5.5157
X3.7636Y-5.5748
X3.8173Y-5.4587
X3.8504Y-4.1161
X3.8671Y-5.3327
X3.9173Y-5.4024
X3.9711Y-5.2947
X3.972Y-3.862
X4.0417Y-5.3327
X4.5004Y-5.3327
X4.5555Y-4.7563
X4.8272Y-4.7571
X5.0681Y-4.7563
X5.1915Y-5.2947
X5.1929Y-5.6142
X5.2573Y-4.1171
X5.3209Y-4.4831
X5.4008Y-4.7563
X5.5541Y-5.3967
T2
X1.6898Y-4.2457
X1.6898Y-4.6457
X2.0488Y-4.6094
X2.05Y-3.86
X2.05Y-3.99
X2.0504Y-4.3587
X2.0504Y-4.4839
X2.0508Y-4.2362
X2.0512Y-4.1142
X2.4488Y-4.6094
X2.45Y-3.86
X2.45Y-3.99
X2.4504Y-4.3587
X2.4504Y-4.4839
X2.4508Y-4.2362
X2.4512Y-4.1142
X2.537Y-4.6094
X2.5398Y-4.0386
X2.5398Y-4.1386
X2.5398Y-4.2386
X2.5398Y-4.3386
X2.5906Y-4.4567
X2.6004Y-3.9213
X2.7264Y-5.5354
X2.7264Y-5.6142
X2.7264Y-5.6929
X2.7874Y-4.4567
X2.7972Y-3.9213
X2.8398Y-4.0386
X2.8398Y-4.1386
X2.8398Y-4.2386
X2.8398Y-4.3386
X2.937Y-4.1169
X2.937Y-4.6094
X2.9374Y-4.239
X2.9374Y-4.3622
X2.9382Y-4.4854
X2.9386Y-3.9933
X3.004Y-3.256
X3.004Y-3.456
X3.004Y-3.698
X3.006Y-3.028
X3.0244Y-4.6098
X3.2009Y-3.256
X3.2009Y-3.456
X3.2009Y-3.698
X3.2029Y-3.028
X3.337Y-4.1169
X3.3374Y-4.239
X3.3374Y-4.3622
X3.3382Y-4.4854
X3.3386Y-3.9933
X3.4244Y-4.6098
X4.2362Y-4.1161
X4.2366Y-3.99
X4.2366Y-4.2382
X4.2366Y-4.6039
X4.237Y-4.3591
X4.2374Y-4.4803
X4.24Y-3.86
X4.6362Y-4.1161
X4.6366Y-3.99
X4.6366Y-4.2382
X4.6366Y-4.6039
X4.637Y-4.3591
X4.6374Y-4.4803
X4.64Y-3.86
X4.7268Y-4.6039
X4.7327Y-4.0386
X4.7327Y-4.1386
X4.7327Y-4.2386
X4.7327Y-4.3386
X4.7795Y-3.9193
X4.7815Y-4.4587
X4.8858Y-5.5354
X4.8858Y-5.6142
X4.8858Y-5.6929
X4.9764Y-3.9193
X4.9783Y-4.4587
X5.0327Y-4.0386
X5.0327Y-4.1386
X5.0327Y-4.2386
X5.0327Y-4.3386
X5.1228Y-3.9949
X5.1228Y-4.4831
X5.1232Y-4.1169
X5.1232Y-4.2386
X5.1232Y-4.361
X5.1268Y-4.6039
X5.213Y-4.6039
X5.5228Y-3.9949
X5.5228Y-4.4831
X5.5232Y-4.1169
X5.5232Y-4.2386
X5.5232Y-4.361
X5.613Y-4.6039
T3
X1.6898Y-4.8425
X1.7898Y-4.8425
X2.0079Y-5.8268
X2.1079Y-5.8268
X2.2008Y-5.8268
X2.3008Y-5.8268
X3.1673Y-5.8268
X3.2673Y-5.8268
X3.3583Y-5.8268
X3.4583Y-5.8268
X4.1713Y-5.8268
X4.2713Y-5.8268
X4.3642Y-5.8268
X4.4642Y-5.8268
X5.3209Y-5.8268
X5.4209Y-5.8268
X5.5138Y-5.8268
X5.6138Y-5.8268
T4
X1.7457Y-5.0673
X1.7457Y-5.1673
X1.7457Y-5.2673
X1.7457Y-5.3673
X1.7457Y-5.4673
X1.8457Y-5.0673
X1.8457Y-5.1673
X1.8457Y-5.2673
X1.8457Y-5.3673
X1.8457Y-5.4673
X3.4173Y-4.8425
X3.4173Y-4.9425
X3.5173Y-4.8425
X3.5173Y-4.9425
X3.6173Y-4.8425
X3.6173Y-4.9425
X3.7173Y-4.8425
X3.7173Y-4.9425
X3.8173Y-4.8425
X3.8173Y-4.9425
X3.9173Y-4.8425
X3.9173Y-4.9425
X4.0173Y-4.8425
X4.0173Y-4.9425
X4.1173Y-4.8425
X4.1173Y-4.9425
X5.5035Y-4.8657
X5.5035Y-4.9657
X5.5035Y-5.0657
X5.5035Y-5.1657
X5.5035Y-5.2657
X5.6035Y-4.8657
X5.6035Y-4.9657
X5.6035Y-5.0657
X5.6035Y-5.1657
X5.6035Y-5.2657
T5
X2.842Y-3.256
X2.842Y-3.356
X2.842Y-3.456
T6
X1.989Y-5.5748
X2.0736Y-5.5157
X2.2488Y-5.5157
X2.3394Y-5.5748
X2.7264Y-5.4528
X2.7264Y-5.7756
X3.1504Y-5.5748
X3.235Y-5.5157
X3.4102Y-5.5157
X3.5008Y-5.5748
X4.1465Y-5.5748
X4.2311Y-5.5157
X4.4063Y-5.5157
X4.4969Y-5.5748
X4.8858Y-5.4528
X4.8858Y-5.7756
X5.2941Y-5.5748
X5.3787Y-5.5157
X5.5539Y-5.5157
X5.6445Y-5.5748
T7
X1.8268Y-5.8071
X2.0307Y-5.6752
X2.185Y-6.122
X2.6575Y-6.122
X2.9528Y-5.8071
X3.1921Y-5.6752
X3.987Y-5.8071
X4.1882Y-5.6752
X4.8425Y-6.122
X5.113Y-5.8071
X5.315Y-6.122
X5.3358Y-5.6752
T8
X2.3878Y-4.9091
X2.3878Y-5.2091
X2.6378Y-4.9091
X2.6378Y-5.2091
X2.8878Y-4.9091
X2.8878Y-5.2091
T9
X1.8701Y-1.2992
X1.8701Y-6.122
X5.6701Y-1.2992
X5.6701Y-6.122
T7
G00X2.274Y-5.6752
M15
G01X2.3134Y-5.6752
M16
G05
G00X3.4354Y-5.6752
M15
G01X3.4748Y-5.6752
M16
G05
G00X4.4315Y-5.6752
M15
G01X4.4709Y-5.6752
M16
G05
G00X5.5791Y-5.6752
M15
G01X5.6185Y-5.6752
M16
G05
T0
M30
