G04 #@! TF.GenerationSoftware,KiCad,Pcbnew,(5.1.10)-1*
G04 #@! TF.CreationDate,2022-01-27T10:16:35-08:00*
G04 #@! TF.ProjectId,PBJ EU,50424a20-4555-42e6-9b69-6361645f7063,4.8*
G04 #@! TF.SameCoordinates,Original*
G04 #@! TF.FileFunction,Soldermask,Bot*
G04 #@! TF.FilePolarity,Negative*
%FSLAX46Y46*%
G04 Gerber Fmt 4.6, Leading zero omitted, Abs format (unit mm)*
G04 Created by KiCad (PCBNEW (5.1.10)-1) date 2022-01-27 10:16:35*
%MOMM*%
%LPD*%
G01*
G04 APERTURE LIST*
%ADD10O,1.802000X1.802000*%
%ADD11C,3.102000*%
%ADD12C,1.902000*%
%ADD13O,1.702000X1.702000*%
%ADD14C,1.702000*%
%ADD15O,3.602000X2.302000*%
%ADD16O,2.602000X1.602000*%
%ADD17C,2.102000*%
%ADD18C,2.902000*%
%ADD19O,2.702000X1.702000*%
%ADD20C,2.352000*%
%ADD21C,5.102000*%
%ADD22C,0.100000*%
G04 APERTURE END LIST*
D10*
X139790000Y-123590000D03*
X142330000Y-123590000D03*
X139790000Y-126130000D03*
X142330000Y-126130000D03*
X139790000Y-128670000D03*
X142330000Y-128670000D03*
X139790000Y-131210000D03*
X142330000Y-131210000D03*
X139790000Y-133750000D03*
G36*
G01*
X143231000Y-132900000D02*
X143231000Y-134600000D01*
G75*
G02*
X143180000Y-134651000I-51000J0D01*
G01*
X141480000Y-134651000D01*
G75*
G02*
X141429000Y-134600000I0J51000D01*
G01*
X141429000Y-132900000D01*
G75*
G02*
X141480000Y-132849000I51000J0D01*
G01*
X143180000Y-132849000D01*
G75*
G02*
X143231000Y-132900000I0J-51000D01*
G01*
G37*
D11*
X60650000Y-124690000D03*
X60650000Y-132310000D03*
X67000000Y-124690000D03*
X67000000Y-132310000D03*
X73350000Y-124690000D03*
X73350000Y-132310000D03*
D12*
X108490000Y-148000000D03*
G36*
G01*
X104999000Y-148900000D02*
X104999000Y-147100000D01*
G75*
G02*
X105050000Y-147049000I51000J0D01*
G01*
X106850000Y-147049000D01*
G75*
G02*
X106901000Y-147100000I0J-51000D01*
G01*
X106901000Y-148900000D01*
G75*
G02*
X106850000Y-148951000I-51000J0D01*
G01*
X105050000Y-148951000D01*
G75*
G02*
X104999000Y-148900000I0J51000D01*
G01*
G37*
D13*
X74630000Y-113930000D03*
D14*
X84790000Y-113930000D03*
D13*
X84770000Y-107670000D03*
D14*
X74610000Y-107670000D03*
D13*
X140290000Y-107660000D03*
D14*
X130130000Y-107660000D03*
D13*
X42920000Y-107840000D03*
D14*
X42920000Y-118000000D03*
D13*
X130120000Y-113870000D03*
D14*
X140280000Y-113870000D03*
D13*
X117770000Y-116940000D03*
D14*
X107610000Y-116940000D03*
D13*
X64440000Y-117080000D03*
D14*
X74600000Y-117080000D03*
D13*
X62200000Y-117080000D03*
D14*
X52040000Y-117080000D03*
D13*
X120060000Y-116940000D03*
D14*
X130220000Y-116940000D03*
D13*
X117790000Y-113800000D03*
D14*
X107630000Y-113800000D03*
D13*
X62240000Y-113890000D03*
D14*
X52080000Y-113890000D03*
D13*
X62260000Y-104500000D03*
D14*
X52100000Y-104500000D03*
D13*
X52080000Y-110710000D03*
D14*
X62240000Y-110710000D03*
D13*
X52090000Y-107600000D03*
D14*
X62250000Y-107600000D03*
D13*
X107620000Y-110720000D03*
D14*
X117780000Y-110720000D03*
X88730000Y-86950000D03*
G36*
G01*
X82879000Y-87750000D02*
X82879000Y-86150000D01*
G75*
G02*
X82930000Y-86099000I51000J0D01*
G01*
X84530000Y-86099000D01*
G75*
G02*
X84581000Y-86150000I0J-51000D01*
G01*
X84581000Y-87750000D01*
G75*
G02*
X84530000Y-87801000I-51000J0D01*
G01*
X82930000Y-87801000D01*
G75*
G02*
X82879000Y-87750000I0J51000D01*
G01*
G37*
X66050000Y-99600000D03*
X71050000Y-99600000D03*
X121400000Y-99550000D03*
X126400000Y-99550000D03*
X121450000Y-113250000D03*
X126450000Y-113250000D03*
X65800000Y-113200000D03*
X70800000Y-113200000D03*
D12*
X53540000Y-148000000D03*
G36*
G01*
X50049000Y-148900000D02*
X50049000Y-147100000D01*
G75*
G02*
X50100000Y-147049000I51000J0D01*
G01*
X51900000Y-147049000D01*
G75*
G02*
X51951000Y-147100000I0J-51000D01*
G01*
X51951000Y-148900000D01*
G75*
G02*
X51900000Y-148951000I-51000J0D01*
G01*
X50100000Y-148951000D01*
G75*
G02*
X50049000Y-148900000I0J51000D01*
G01*
G37*
D13*
X140290000Y-110770000D03*
D14*
X130130000Y-110770000D03*
D13*
X72130000Y-110200000D03*
X64510000Y-102580000D03*
X72130000Y-107660000D03*
X64510000Y-105120000D03*
X72130000Y-105120000D03*
X64510000Y-107660000D03*
X72130000Y-102580000D03*
G36*
G01*
X63659000Y-111000000D02*
X63659000Y-109400000D01*
G75*
G02*
X63710000Y-109349000I51000J0D01*
G01*
X65310000Y-109349000D01*
G75*
G02*
X65361000Y-109400000I0J-51000D01*
G01*
X65361000Y-111000000D01*
G75*
G02*
X65310000Y-111051000I-51000J0D01*
G01*
X63710000Y-111051000D01*
G75*
G02*
X63659000Y-111000000I0J51000D01*
G01*
G37*
X142570000Y-116940000D03*
D14*
X132410000Y-116940000D03*
D15*
X69250000Y-146700000D03*
X69250000Y-138500000D03*
D16*
X69250000Y-144600000D03*
X69250000Y-142600000D03*
G36*
G01*
X68000000Y-139799000D02*
X70500000Y-139799000D01*
G75*
G02*
X70551000Y-139850000I0J-51000D01*
G01*
X70551000Y-141350000D01*
G75*
G02*
X70500000Y-141401000I-51000J0D01*
G01*
X68000000Y-141401000D01*
G75*
G02*
X67949000Y-141350000I0J51000D01*
G01*
X67949000Y-139850000D01*
G75*
G02*
X68000000Y-139799000I51000J0D01*
G01*
G37*
D17*
X98010000Y-86850000D03*
X95470000Y-86850000D03*
G36*
G01*
X91879000Y-87850000D02*
X91879000Y-85850000D01*
G75*
G02*
X91930000Y-85799000I51000J0D01*
G01*
X93930000Y-85799000D01*
G75*
G02*
X93981000Y-85850000I0J-51000D01*
G01*
X93981000Y-87850000D01*
G75*
G02*
X93930000Y-87901000I-51000J0D01*
G01*
X91930000Y-87901000D01*
G75*
G02*
X91879000Y-87850000I0J51000D01*
G01*
G37*
D13*
X86980000Y-117090000D03*
D14*
X76820000Y-117090000D03*
D18*
X46400000Y-147500000D03*
X75000000Y-147500000D03*
X101270000Y-147500000D03*
D13*
X84770000Y-110800000D03*
D14*
X74610000Y-110800000D03*
D18*
X129870000Y-147500000D03*
D14*
X107530000Y-86850000D03*
G36*
G01*
X101679000Y-87650000D02*
X101679000Y-86050000D01*
G75*
G02*
X101730000Y-85999000I51000J0D01*
G01*
X103330000Y-85999000D01*
G75*
G02*
X103381000Y-86050000I0J-51000D01*
G01*
X103381000Y-87650000D01*
G75*
G02*
X103330000Y-87701000I-51000J0D01*
G01*
X101730000Y-87701000D01*
G75*
G02*
X101679000Y-87650000I0J51000D01*
G01*
G37*
D15*
X124100000Y-146700000D03*
X124100000Y-138500000D03*
D16*
X124100000Y-144600000D03*
X124100000Y-142600000D03*
G36*
G01*
X122850000Y-139799000D02*
X125350000Y-139799000D01*
G75*
G02*
X125401000Y-139850000I0J-51000D01*
G01*
X125401000Y-141350000D01*
G75*
G02*
X125350000Y-141401000I-51000J0D01*
G01*
X122850000Y-141401000D01*
G75*
G02*
X122799000Y-141350000I0J51000D01*
G01*
X122799000Y-139850000D01*
G75*
G02*
X122850000Y-139799000I51000J0D01*
G01*
G37*
D12*
X45460000Y-123000000D03*
G36*
G01*
X41969000Y-123900000D02*
X41969000Y-122100000D01*
G75*
G02*
X42020000Y-122049000I51000J0D01*
G01*
X43820000Y-122049000D01*
G75*
G02*
X43871000Y-122100000I0J-51000D01*
G01*
X43871000Y-123900000D01*
G75*
G02*
X43820000Y-123951000I-51000J0D01*
G01*
X42020000Y-123951000D01*
G75*
G02*
X41969000Y-123900000I0J51000D01*
G01*
G37*
X87840000Y-148000000D03*
G36*
G01*
X84349000Y-148900000D02*
X84349000Y-147100000D01*
G75*
G02*
X84400000Y-147049000I51000J0D01*
G01*
X86200000Y-147049000D01*
G75*
G02*
X86251000Y-147100000I0J-51000D01*
G01*
X86251000Y-148900000D01*
G75*
G02*
X86200000Y-148951000I-51000J0D01*
G01*
X84400000Y-148951000D01*
G75*
G02*
X84349000Y-148900000I0J51000D01*
G01*
G37*
X82990000Y-148000000D03*
G36*
G01*
X79499000Y-148900000D02*
X79499000Y-147100000D01*
G75*
G02*
X79550000Y-147049000I51000J0D01*
G01*
X81350000Y-147049000D01*
G75*
G02*
X81401000Y-147100000I0J-51000D01*
G01*
X81401000Y-148900000D01*
G75*
G02*
X81350000Y-148951000I-51000J0D01*
G01*
X79550000Y-148951000D01*
G75*
G02*
X79499000Y-148900000I0J51000D01*
G01*
G37*
X142590000Y-148000000D03*
G36*
G01*
X139099000Y-148900000D02*
X139099000Y-147100000D01*
G75*
G02*
X139150000Y-147049000I51000J0D01*
G01*
X140950000Y-147049000D01*
G75*
G02*
X141001000Y-147100000I0J-51000D01*
G01*
X141001000Y-148900000D01*
G75*
G02*
X140950000Y-148951000I-51000J0D01*
G01*
X139150000Y-148951000D01*
G75*
G02*
X139099000Y-148900000I0J51000D01*
G01*
G37*
X137690000Y-148000000D03*
G36*
G01*
X134199000Y-148900000D02*
X134199000Y-147100000D01*
G75*
G02*
X134250000Y-147049000I51000J0D01*
G01*
X136050000Y-147049000D01*
G75*
G02*
X136101000Y-147100000I0J-51000D01*
G01*
X136101000Y-148900000D01*
G75*
G02*
X136050000Y-148951000I-51000J0D01*
G01*
X134250000Y-148951000D01*
G75*
G02*
X134199000Y-148900000I0J51000D01*
G01*
G37*
D14*
X51580000Y-144150000D03*
D19*
X58260000Y-144150000D03*
D20*
X59420000Y-141600000D03*
X57120000Y-140100000D03*
X52670000Y-140100000D03*
X50520000Y-141600000D03*
D12*
X58440000Y-148000000D03*
G36*
G01*
X54949000Y-148900000D02*
X54949000Y-147100000D01*
G75*
G02*
X55000000Y-147049000I51000J0D01*
G01*
X56800000Y-147049000D01*
G75*
G02*
X56851000Y-147100000I0J-51000D01*
G01*
X56851000Y-148900000D01*
G75*
G02*
X56800000Y-148951000I-51000J0D01*
G01*
X55000000Y-148951000D01*
G75*
G02*
X54949000Y-148900000I0J51000D01*
G01*
G37*
D14*
X81080000Y-144150000D03*
D19*
X87760000Y-144150000D03*
D20*
X88920000Y-141600000D03*
X86620000Y-140100000D03*
X82170000Y-140100000D03*
X80020000Y-141600000D03*
D12*
X113390000Y-148000000D03*
G36*
G01*
X109899000Y-148900000D02*
X109899000Y-147100000D01*
G75*
G02*
X109950000Y-147049000I51000J0D01*
G01*
X111750000Y-147049000D01*
G75*
G02*
X111801000Y-147100000I0J-51000D01*
G01*
X111801000Y-148900000D01*
G75*
G02*
X111750000Y-148951000I-51000J0D01*
G01*
X109950000Y-148951000D01*
G75*
G02*
X109899000Y-148900000I0J51000D01*
G01*
G37*
D14*
X106380000Y-144150000D03*
D19*
X113060000Y-144150000D03*
D20*
X114220000Y-141600000D03*
X111920000Y-140100000D03*
X107470000Y-140100000D03*
X105320000Y-141600000D03*
D14*
X135530000Y-144150000D03*
D19*
X142210000Y-144150000D03*
D20*
X143370000Y-141600000D03*
X141070000Y-140100000D03*
X136620000Y-140100000D03*
X134470000Y-141600000D03*
D21*
X47500000Y-155500000D03*
X144020000Y-155500000D03*
X144020000Y-33000000D03*
X47500000Y-33000000D03*
D18*
X55500000Y-155500000D03*
X67500000Y-155500000D03*
X123000000Y-155500000D03*
X135000000Y-155500000D03*
G36*
G01*
X87650000Y-126441000D02*
X85950000Y-126441000D01*
G75*
G02*
X85899000Y-126390000I0J51000D01*
G01*
X85899000Y-124690000D01*
G75*
G02*
X85950000Y-124639000I51000J0D01*
G01*
X87650000Y-124639000D01*
G75*
G02*
X87701000Y-124690000I0J-51000D01*
G01*
X87701000Y-126390000D01*
G75*
G02*
X87650000Y-126441000I-51000J0D01*
G01*
G37*
D10*
X86800000Y-123000000D03*
X89340000Y-125540000D03*
X89340000Y-123000000D03*
X91880000Y-125540000D03*
X91880000Y-123000000D03*
X94420000Y-125540000D03*
X94420000Y-123000000D03*
X96960000Y-125540000D03*
X96960000Y-123000000D03*
X99500000Y-125540000D03*
X99500000Y-123000000D03*
X102040000Y-125540000D03*
X102040000Y-123000000D03*
X104580000Y-125540000D03*
X104580000Y-123000000D03*
G36*
G01*
X119359000Y-111000000D02*
X119359000Y-109400000D01*
G75*
G02*
X119410000Y-109349000I51000J0D01*
G01*
X121010000Y-109349000D01*
G75*
G02*
X121061000Y-109400000I0J-51000D01*
G01*
X121061000Y-111000000D01*
G75*
G02*
X121010000Y-111051000I-51000J0D01*
G01*
X119410000Y-111051000D01*
G75*
G02*
X119359000Y-111000000I0J51000D01*
G01*
G37*
D13*
X127830000Y-102580000D03*
X120210000Y-107660000D03*
X127830000Y-105120000D03*
X120210000Y-105120000D03*
X127830000Y-107660000D03*
X120210000Y-102580000D03*
X127830000Y-110200000D03*
G36*
G01*
X47781000Y-127860000D02*
X47781000Y-129560000D01*
G75*
G02*
X47730000Y-129611000I-51000J0D01*
G01*
X46030000Y-129611000D01*
G75*
G02*
X45979000Y-129560000I0J51000D01*
G01*
X45979000Y-127860000D01*
G75*
G02*
X46030000Y-127809000I51000J0D01*
G01*
X47730000Y-127809000D01*
G75*
G02*
X47781000Y-127860000I0J-51000D01*
G01*
G37*
D10*
X44340000Y-128710000D03*
X46880000Y-131250000D03*
X44340000Y-131250000D03*
X46880000Y-133790000D03*
X44340000Y-133790000D03*
X46880000Y-136330000D03*
X44340000Y-136330000D03*
X46880000Y-138870000D03*
X44340000Y-138870000D03*
D13*
X117760000Y-104550000D03*
D14*
X107600000Y-104550000D03*
D13*
X107610000Y-107650000D03*
D14*
X117770000Y-107650000D03*
X84760000Y-104570000D03*
D13*
X74600000Y-104570000D03*
D14*
X140290000Y-104570000D03*
D13*
X130130000Y-104570000D03*
X84800000Y-101430000D03*
D14*
X74640000Y-101430000D03*
X130120000Y-101470000D03*
D13*
X140280000Y-101470000D03*
X52070000Y-98044000D03*
D14*
X62230000Y-98044000D03*
D13*
X107696000Y-98044000D03*
D14*
X117856000Y-98044000D03*
X62230000Y-101346000D03*
D13*
X52070000Y-101346000D03*
D14*
X117770000Y-101346000D03*
D13*
X107610000Y-101346000D03*
D22*
G36*
X123292629Y-145337310D02*
G01*
X123294240Y-145338171D01*
X123444128Y-145383639D01*
X123600094Y-145399000D01*
X124599906Y-145399000D01*
X124755872Y-145383639D01*
X124905760Y-145338171D01*
X124907372Y-145337309D01*
X124909371Y-145337374D01*
X124910314Y-145339138D01*
X124909426Y-145340736D01*
X124894321Y-145350829D01*
X124877274Y-145367876D01*
X124863880Y-145387923D01*
X124854653Y-145410197D01*
X124849949Y-145433847D01*
X124849949Y-145457953D01*
X124854653Y-145481603D01*
X124863880Y-145503877D01*
X124877275Y-145523925D01*
X124894322Y-145540972D01*
X124914369Y-145554366D01*
X124936643Y-145563593D01*
X124954460Y-145567137D01*
X124955964Y-145568456D01*
X124955574Y-145570418D01*
X124953874Y-145571089D01*
X124749906Y-145551000D01*
X123450094Y-145551000D01*
X123246124Y-145571089D01*
X123244302Y-145570264D01*
X123244106Y-145568274D01*
X123245538Y-145567137D01*
X123263358Y-145563592D01*
X123285632Y-145554366D01*
X123305679Y-145540971D01*
X123322726Y-145523924D01*
X123336121Y-145503876D01*
X123345347Y-145481602D01*
X123350051Y-145457952D01*
X123350051Y-145433846D01*
X123345346Y-145410196D01*
X123336120Y-145387922D01*
X123322725Y-145367875D01*
X123305678Y-145350828D01*
X123290575Y-145340737D01*
X123289690Y-145338943D01*
X123290801Y-145337280D01*
X123292629Y-145337310D01*
G37*
G36*
X68442629Y-145337310D02*
G01*
X68444240Y-145338171D01*
X68594128Y-145383639D01*
X68750094Y-145399000D01*
X69749906Y-145399000D01*
X69905872Y-145383639D01*
X70055760Y-145338171D01*
X70057372Y-145337309D01*
X70059371Y-145337374D01*
X70060314Y-145339138D01*
X70059426Y-145340736D01*
X70044321Y-145350829D01*
X70027274Y-145367876D01*
X70013880Y-145387923D01*
X70004653Y-145410197D01*
X69999949Y-145433847D01*
X69999949Y-145457953D01*
X70004653Y-145481603D01*
X70013880Y-145503877D01*
X70027275Y-145523925D01*
X70044322Y-145540972D01*
X70064369Y-145554366D01*
X70086643Y-145563593D01*
X70104460Y-145567137D01*
X70105964Y-145568456D01*
X70105574Y-145570418D01*
X70103874Y-145571089D01*
X69899906Y-145551000D01*
X68600094Y-145551000D01*
X68396124Y-145571089D01*
X68394302Y-145570264D01*
X68394106Y-145568274D01*
X68395538Y-145567137D01*
X68413358Y-145563592D01*
X68435632Y-145554366D01*
X68455679Y-145540971D01*
X68472726Y-145523924D01*
X68486121Y-145503876D01*
X68495347Y-145481602D01*
X68500051Y-145457952D01*
X68500051Y-145433846D01*
X68495346Y-145410196D01*
X68486120Y-145387922D01*
X68472725Y-145367875D01*
X68455678Y-145350828D01*
X68440575Y-145340737D01*
X68439690Y-145338943D01*
X68440801Y-145337280D01*
X68442629Y-145337310D01*
G37*
G36*
X68375846Y-139626914D02*
G01*
X68600094Y-139649000D01*
X69899906Y-139649000D01*
X70124154Y-139626914D01*
X70337291Y-139562259D01*
X70339239Y-139562713D01*
X70339820Y-139564627D01*
X70338983Y-139565836D01*
X70319386Y-139578929D01*
X70302339Y-139595976D01*
X70288945Y-139616024D01*
X70279718Y-139638298D01*
X70275014Y-139661948D01*
X70275014Y-139686054D01*
X70279718Y-139709704D01*
X70288945Y-139731978D01*
X70302339Y-139752026D01*
X70319386Y-139769073D01*
X70339434Y-139782467D01*
X70361665Y-139791677D01*
X70397704Y-139797022D01*
X70399271Y-139798265D01*
X70398978Y-139800243D01*
X70397411Y-139801000D01*
X68102589Y-139801000D01*
X68100857Y-139800000D01*
X68100857Y-139798000D01*
X68102393Y-139797010D01*
X68126580Y-139794628D01*
X68149655Y-139787628D01*
X68170919Y-139776263D01*
X68189556Y-139760968D01*
X68204851Y-139742331D01*
X68216216Y-139721067D01*
X68223216Y-139697992D01*
X68225579Y-139674001D01*
X68223216Y-139650010D01*
X68216216Y-139626935D01*
X68204851Y-139605671D01*
X68189586Y-139587070D01*
X68160834Y-139565747D01*
X68160038Y-139563912D01*
X68161229Y-139562306D01*
X68162606Y-139562227D01*
X68375846Y-139626914D01*
G37*
G36*
X123225846Y-139626914D02*
G01*
X123450094Y-139649000D01*
X124749906Y-139649000D01*
X124974154Y-139626914D01*
X125187291Y-139562259D01*
X125189239Y-139562713D01*
X125189820Y-139564627D01*
X125188983Y-139565836D01*
X125169386Y-139578929D01*
X125152339Y-139595976D01*
X125138945Y-139616024D01*
X125129718Y-139638298D01*
X125125014Y-139661948D01*
X125125014Y-139686054D01*
X125129718Y-139709704D01*
X125138945Y-139731978D01*
X125152339Y-139752026D01*
X125169386Y-139769073D01*
X125189434Y-139782467D01*
X125211665Y-139791677D01*
X125247704Y-139797022D01*
X125249271Y-139798265D01*
X125248978Y-139800243D01*
X125247411Y-139801000D01*
X122952589Y-139801000D01*
X122950857Y-139800000D01*
X122950857Y-139798000D01*
X122952393Y-139797010D01*
X122976580Y-139794628D01*
X122999655Y-139787628D01*
X123020919Y-139776263D01*
X123039556Y-139760968D01*
X123054851Y-139742331D01*
X123066216Y-139721067D01*
X123073216Y-139697992D01*
X123075579Y-139674001D01*
X123073216Y-139650010D01*
X123066216Y-139626935D01*
X123054851Y-139605671D01*
X123039586Y-139587070D01*
X123010834Y-139565747D01*
X123010038Y-139563912D01*
X123011229Y-139562306D01*
X123012606Y-139562227D01*
X123225846Y-139626914D01*
G37*
M02*
