G04 #@! TF.GenerationSoftware,KiCad,Pcbnew,(5.1.10)-1*
G04 #@! TF.CreationDate,2022-01-27T16:48:05-08:00*
G04 #@! TF.ProjectId,PBJ EU,50424a20-4555-42e6-9b69-6361645f7063,4.9*
G04 #@! TF.SameCoordinates,Original*
G04 #@! TF.FileFunction,Legend,Top*
G04 #@! TF.FilePolarity,Positive*
%FSLAX46Y46*%
G04 Gerber Fmt 4.6, Leading zero omitted, Abs format (unit mm)*
G04 Created by KiCad (PCBNEW (5.1.10)-1) date 2022-01-27 16:48:05*
%MOMM*%
%LPD*%
G01*
G04 APERTURE LIST*
%ADD10C,0.120000*%
%ADD11C,0.300000*%
%ADD12C,0.750000*%
%ADD13C,0.150000*%
%ADD14C,0.400000*%
%ADD15C,0.500000*%
%ADD16C,0.200000*%
%ADD17C,0.010000*%
G04 APERTURE END LIST*
D10*
X128620000Y-142670000D02*
X128620000Y-140610000D01*
X128620000Y-140610000D02*
X126600000Y-140610000D01*
X125630000Y-142670000D02*
X128620000Y-142670000D01*
X73740000Y-140600000D02*
X71720000Y-140600000D01*
X73740000Y-142660000D02*
X73740000Y-140600000D01*
X70750000Y-142660000D02*
X73740000Y-142660000D01*
D11*
X120338571Y-147588571D02*
X118838571Y-147588571D01*
X119910000Y-147088571D01*
X118838571Y-146588571D01*
X120338571Y-146588571D01*
X119338571Y-145231428D02*
X120338571Y-145231428D01*
X119338571Y-145874285D02*
X120124285Y-145874285D01*
X120267142Y-145802857D01*
X120338571Y-145660000D01*
X120338571Y-145445714D01*
X120267142Y-145302857D01*
X120195714Y-145231428D01*
X120338571Y-144302857D02*
X120267142Y-144445714D01*
X120124285Y-144517142D01*
X118838571Y-144517142D01*
X119338571Y-143945714D02*
X119338571Y-143374285D01*
X118838571Y-143731428D02*
X120124285Y-143731428D01*
X120267142Y-143660000D01*
X120338571Y-143517142D01*
X120338571Y-143374285D01*
X118838571Y-141874285D02*
X118838571Y-140945714D01*
X119410000Y-141445714D01*
X119410000Y-141231428D01*
X119481428Y-141088571D01*
X119552857Y-141017142D01*
X119695714Y-140945714D01*
X120052857Y-140945714D01*
X120195714Y-141017142D01*
X120267142Y-141088571D01*
X120338571Y-141231428D01*
X120338571Y-141660000D01*
X120267142Y-141802857D01*
X120195714Y-141874285D01*
X120338571Y-139088571D02*
X120338571Y-139160000D01*
X120267142Y-139302857D01*
X120052857Y-139517142D01*
X119624285Y-139874285D01*
X119410000Y-140017142D01*
X119195714Y-140088571D01*
X119052857Y-140088571D01*
X118910000Y-140017142D01*
X118838571Y-139874285D01*
X118838571Y-139802857D01*
X118910000Y-139660000D01*
X119052857Y-139588571D01*
X119124285Y-139588571D01*
X119267142Y-139660000D01*
X119338571Y-139731428D01*
X119624285Y-140160000D01*
X119695714Y-140231428D01*
X119838571Y-140302857D01*
X120052857Y-140302857D01*
X120195714Y-140231428D01*
X120267142Y-140160000D01*
X120338571Y-140017142D01*
X120338571Y-139802857D01*
X120267142Y-139660000D01*
X120195714Y-139588571D01*
X119910000Y-139374285D01*
X119695714Y-139302857D01*
X119552857Y-139302857D01*
X119338571Y-137802857D02*
X120338571Y-137802857D01*
X118767142Y-138160000D02*
X119838571Y-138517142D01*
X119838571Y-137588571D01*
X65628571Y-147968571D02*
X64128571Y-147968571D01*
X65200000Y-147468571D01*
X64128571Y-146968571D01*
X65628571Y-146968571D01*
X64628571Y-145611428D02*
X65628571Y-145611428D01*
X64628571Y-146254285D02*
X65414285Y-146254285D01*
X65557142Y-146182857D01*
X65628571Y-146040000D01*
X65628571Y-145825714D01*
X65557142Y-145682857D01*
X65485714Y-145611428D01*
X65628571Y-144682857D02*
X65557142Y-144825714D01*
X65414285Y-144897142D01*
X64128571Y-144897142D01*
X64628571Y-144325714D02*
X64628571Y-143754285D01*
X64128571Y-144111428D02*
X65414285Y-144111428D01*
X65557142Y-144040000D01*
X65628571Y-143897142D01*
X65628571Y-143754285D01*
X65628571Y-141325714D02*
X65628571Y-142182857D01*
X65628571Y-141754285D02*
X64128571Y-141754285D01*
X64342857Y-141897142D01*
X64485714Y-142040000D01*
X64557142Y-142182857D01*
X65628571Y-139468571D02*
X65628571Y-139540000D01*
X65557142Y-139682857D01*
X65342857Y-139897142D01*
X64914285Y-140254285D01*
X64700000Y-140397142D01*
X64485714Y-140468571D01*
X64342857Y-140468571D01*
X64200000Y-140397142D01*
X64128571Y-140254285D01*
X64128571Y-140182857D01*
X64200000Y-140040000D01*
X64342857Y-139968571D01*
X64414285Y-139968571D01*
X64557142Y-140040000D01*
X64628571Y-140111428D01*
X64914285Y-140540000D01*
X64985714Y-140611428D01*
X65128571Y-140682857D01*
X65342857Y-140682857D01*
X65485714Y-140611428D01*
X65557142Y-140540000D01*
X65628571Y-140397142D01*
X65628571Y-140182857D01*
X65557142Y-140040000D01*
X65485714Y-139968571D01*
X65200000Y-139754285D01*
X64985714Y-139682857D01*
X64842857Y-139682857D01*
X64271428Y-138897142D02*
X64200000Y-138825714D01*
X64128571Y-138682857D01*
X64128571Y-138325714D01*
X64200000Y-138182857D01*
X64271428Y-138111428D01*
X64414285Y-138040000D01*
X64557142Y-138040000D01*
X64771428Y-138111428D01*
X65628571Y-138968571D01*
X65628571Y-138040000D01*
D12*
X138620000Y-136020000D02*
X143620000Y-136020000D01*
D13*
X145262380Y-135889523D02*
X144262380Y-135889523D01*
X144262380Y-135508571D01*
X144310000Y-135413333D01*
X144357619Y-135365714D01*
X144452857Y-135318095D01*
X144595714Y-135318095D01*
X144690952Y-135365714D01*
X144738571Y-135413333D01*
X144786190Y-135508571D01*
X144786190Y-135889523D01*
X145262380Y-134889523D02*
X144595714Y-134889523D01*
X144262380Y-134889523D02*
X144310000Y-134937142D01*
X144357619Y-134889523D01*
X144310000Y-134841904D01*
X144262380Y-134889523D01*
X144357619Y-134889523D01*
X144595714Y-134413333D02*
X145262380Y-134413333D01*
X144690952Y-134413333D02*
X144643333Y-134365714D01*
X144595714Y-134270476D01*
X144595714Y-134127619D01*
X144643333Y-134032380D01*
X144738571Y-133984761D01*
X145262380Y-133984761D01*
X145262380Y-132222857D02*
X145262380Y-132794285D01*
X145262380Y-132508571D02*
X144262380Y-132508571D01*
X144405238Y-132603809D01*
X144500476Y-132699047D01*
X144548095Y-132794285D01*
D11*
X146907857Y-133447857D02*
X146907857Y-132947857D01*
X147693571Y-132733571D02*
X147693571Y-133447857D01*
X146193571Y-133447857D01*
X146193571Y-132733571D01*
X146193571Y-132090714D02*
X147407857Y-132090714D01*
X147550714Y-132019285D01*
X147622142Y-131947857D01*
X147693571Y-131805000D01*
X147693571Y-131519285D01*
X147622142Y-131376428D01*
X147550714Y-131305000D01*
X147407857Y-131233571D01*
X146193571Y-131233571D01*
X147693571Y-129376428D02*
X146193571Y-129376428D01*
X146193571Y-128805000D01*
X146265000Y-128662142D01*
X146336428Y-128590714D01*
X146479285Y-128519285D01*
X146693571Y-128519285D01*
X146836428Y-128590714D01*
X146907857Y-128662142D01*
X146979285Y-128805000D01*
X146979285Y-129376428D01*
X147693571Y-127662142D02*
X147622142Y-127805000D01*
X147550714Y-127876428D01*
X147407857Y-127947857D01*
X146979285Y-127947857D01*
X146836428Y-127876428D01*
X146765000Y-127805000D01*
X146693571Y-127662142D01*
X146693571Y-127447857D01*
X146765000Y-127305000D01*
X146836428Y-127233571D01*
X146979285Y-127162142D01*
X147407857Y-127162142D01*
X147550714Y-127233571D01*
X147622142Y-127305000D01*
X147693571Y-127447857D01*
X147693571Y-127662142D01*
X146693571Y-126662142D02*
X147693571Y-126376428D01*
X146979285Y-126090714D01*
X147693571Y-125805000D01*
X146693571Y-125519285D01*
X147622142Y-124376428D02*
X147693571Y-124519285D01*
X147693571Y-124805000D01*
X147622142Y-124947857D01*
X147479285Y-125019285D01*
X146907857Y-125019285D01*
X146765000Y-124947857D01*
X146693571Y-124805000D01*
X146693571Y-124519285D01*
X146765000Y-124376428D01*
X146907857Y-124305000D01*
X147050714Y-124305000D01*
X147193571Y-125019285D01*
X147693571Y-123662142D02*
X146693571Y-123662142D01*
X146979285Y-123662142D02*
X146836428Y-123590714D01*
X146765000Y-123519285D01*
X146693571Y-123376428D01*
X146693571Y-123233571D01*
X148743571Y-133162142D02*
X148743571Y-132876428D01*
X148815000Y-132733571D01*
X148957857Y-132590714D01*
X149243571Y-132519285D01*
X149743571Y-132519285D01*
X150029285Y-132590714D01*
X150172142Y-132733571D01*
X150243571Y-132876428D01*
X150243571Y-133162142D01*
X150172142Y-133305000D01*
X150029285Y-133447857D01*
X149743571Y-133519285D01*
X149243571Y-133519285D01*
X148957857Y-133447857D01*
X148815000Y-133305000D01*
X148743571Y-133162142D01*
X149243571Y-131233571D02*
X150243571Y-131233571D01*
X149243571Y-131876428D02*
X150029285Y-131876428D01*
X150172142Y-131805000D01*
X150243571Y-131662142D01*
X150243571Y-131447857D01*
X150172142Y-131305000D01*
X150100714Y-131233571D01*
X149243571Y-130733571D02*
X149243571Y-130162142D01*
X148743571Y-130519285D02*
X150029285Y-130519285D01*
X150172142Y-130447857D01*
X150243571Y-130305000D01*
X150243571Y-130162142D01*
X79771428Y-127928571D02*
X80057142Y-127928571D01*
X80200000Y-128000000D01*
X80342857Y-128142857D01*
X80414285Y-128428571D01*
X80414285Y-128928571D01*
X80342857Y-129214285D01*
X80200000Y-129357142D01*
X80057142Y-129428571D01*
X79771428Y-129428571D01*
X79628571Y-129357142D01*
X79485714Y-129214285D01*
X79414285Y-128928571D01*
X79414285Y-128428571D01*
X79485714Y-128142857D01*
X79628571Y-128000000D01*
X79771428Y-127928571D01*
X81057142Y-129428571D02*
X81057142Y-127928571D01*
X81914285Y-129428571D01*
X81914285Y-127928571D01*
D14*
X127551190Y-154475000D02*
X127360714Y-154379761D01*
X127075000Y-154379761D01*
X126789285Y-154475000D01*
X126598809Y-154665476D01*
X126503571Y-154855952D01*
X126408333Y-155236904D01*
X126408333Y-155522619D01*
X126503571Y-155903571D01*
X126598809Y-156094047D01*
X126789285Y-156284523D01*
X127075000Y-156379761D01*
X127265476Y-156379761D01*
X127551190Y-156284523D01*
X127646428Y-156189285D01*
X127646428Y-155522619D01*
X127265476Y-155522619D01*
X128503571Y-156379761D02*
X128503571Y-154379761D01*
X129646428Y-156379761D01*
X129646428Y-154379761D01*
X130598809Y-156379761D02*
X130598809Y-154379761D01*
X131075000Y-154379761D01*
X131360714Y-154475000D01*
X131551190Y-154665476D01*
X131646428Y-154855952D01*
X131741666Y-155236904D01*
X131741666Y-155522619D01*
X131646428Y-155903571D01*
X131551190Y-156094047D01*
X131360714Y-156284523D01*
X131075000Y-156379761D01*
X130598809Y-156379761D01*
X59901190Y-154500000D02*
X59710714Y-154404761D01*
X59425000Y-154404761D01*
X59139285Y-154500000D01*
X58948809Y-154690476D01*
X58853571Y-154880952D01*
X58758333Y-155261904D01*
X58758333Y-155547619D01*
X58853571Y-155928571D01*
X58948809Y-156119047D01*
X59139285Y-156309523D01*
X59425000Y-156404761D01*
X59615476Y-156404761D01*
X59901190Y-156309523D01*
X59996428Y-156214285D01*
X59996428Y-155547619D01*
X59615476Y-155547619D01*
X60853571Y-156404761D02*
X60853571Y-154404761D01*
X61996428Y-156404761D01*
X61996428Y-154404761D01*
X62948809Y-156404761D02*
X62948809Y-154404761D01*
X63425000Y-154404761D01*
X63710714Y-154500000D01*
X63901190Y-154690476D01*
X63996428Y-154880952D01*
X64091666Y-155261904D01*
X64091666Y-155547619D01*
X63996428Y-155928571D01*
X63901190Y-156119047D01*
X63710714Y-156309523D01*
X63425000Y-156404761D01*
X62948809Y-156404761D01*
D15*
X113890714Y-122500000D02*
X113605000Y-122357142D01*
X113176428Y-122357142D01*
X112747857Y-122500000D01*
X112462142Y-122785714D01*
X112319285Y-123071428D01*
X112176428Y-123642857D01*
X112176428Y-124071428D01*
X112319285Y-124642857D01*
X112462142Y-124928571D01*
X112747857Y-125214285D01*
X113176428Y-125357142D01*
X113462142Y-125357142D01*
X113890714Y-125214285D01*
X114033571Y-125071428D01*
X114033571Y-124071428D01*
X113462142Y-124071428D01*
X115319285Y-125357142D02*
X115319285Y-123357142D01*
X115319285Y-123928571D02*
X115462142Y-123642857D01*
X115605000Y-123500000D01*
X115890714Y-123357142D01*
X116176428Y-123357142D01*
X118319285Y-125214285D02*
X118033571Y-125357142D01*
X117462142Y-125357142D01*
X117176428Y-125214285D01*
X117033571Y-124928571D01*
X117033571Y-123785714D01*
X117176428Y-123500000D01*
X117462142Y-123357142D01*
X118033571Y-123357142D01*
X118319285Y-123500000D01*
X118462142Y-123785714D01*
X118462142Y-124071428D01*
X117033571Y-124357142D01*
X120890714Y-125214285D02*
X120605000Y-125357142D01*
X120033571Y-125357142D01*
X119747857Y-125214285D01*
X119605000Y-124928571D01*
X119605000Y-123785714D01*
X119747857Y-123500000D01*
X120033571Y-123357142D01*
X120605000Y-123357142D01*
X120890714Y-123500000D01*
X121033571Y-123785714D01*
X121033571Y-124071428D01*
X119605000Y-124357142D01*
X122319285Y-123357142D02*
X122319285Y-125357142D01*
X122319285Y-123642857D02*
X122462142Y-123500000D01*
X122747857Y-123357142D01*
X123176428Y-123357142D01*
X123462142Y-123500000D01*
X123605000Y-123785714D01*
X123605000Y-125357142D01*
X124605000Y-123357142D02*
X125747857Y-123357142D01*
X125033571Y-125357142D02*
X125033571Y-122785714D01*
X125176428Y-122500000D01*
X125462142Y-122357142D01*
X125747857Y-122357142D01*
X128033571Y-125357142D02*
X128033571Y-123785714D01*
X127890714Y-123500000D01*
X127605000Y-123357142D01*
X127033571Y-123357142D01*
X126747857Y-123500000D01*
X128033571Y-125214285D02*
X127747857Y-125357142D01*
X127033571Y-125357142D01*
X126747857Y-125214285D01*
X126605000Y-124928571D01*
X126605000Y-124642857D01*
X126747857Y-124357142D01*
X127033571Y-124214285D01*
X127747857Y-124214285D01*
X128033571Y-124071428D01*
X130747857Y-125214285D02*
X130462142Y-125357142D01*
X129890714Y-125357142D01*
X129605000Y-125214285D01*
X129462142Y-125071428D01*
X129319285Y-124785714D01*
X129319285Y-123928571D01*
X129462142Y-123642857D01*
X129605000Y-123500000D01*
X129890714Y-123357142D01*
X130462142Y-123357142D01*
X130747857Y-123500000D01*
X133176428Y-125214285D02*
X132890714Y-125357142D01*
X132319285Y-125357142D01*
X132033571Y-125214285D01*
X131890714Y-124928571D01*
X131890714Y-123785714D01*
X132033571Y-123500000D01*
X132319285Y-123357142D01*
X132890714Y-123357142D01*
X133176428Y-123500000D01*
X133319285Y-123785714D01*
X133319285Y-124071428D01*
X131890714Y-124357142D01*
X113747857Y-130357142D02*
X112319285Y-130357142D01*
X112319285Y-127357142D01*
X116033571Y-130357142D02*
X116033571Y-128785714D01*
X115890714Y-128500000D01*
X115605000Y-128357142D01*
X115033571Y-128357142D01*
X114747857Y-128500000D01*
X116033571Y-130214285D02*
X115747857Y-130357142D01*
X115033571Y-130357142D01*
X114747857Y-130214285D01*
X114605000Y-129928571D01*
X114605000Y-129642857D01*
X114747857Y-129357142D01*
X115033571Y-129214285D01*
X115747857Y-129214285D01*
X116033571Y-129071428D01*
X117462142Y-130357142D02*
X117462142Y-127357142D01*
X117462142Y-128500000D02*
X117747857Y-128357142D01*
X118319285Y-128357142D01*
X118605000Y-128500000D01*
X118747857Y-128642857D01*
X118890714Y-128928571D01*
X118890714Y-129785714D01*
X118747857Y-130071428D01*
X118605000Y-130214285D01*
X118319285Y-130357142D01*
X117747857Y-130357142D01*
X117462142Y-130214285D01*
X120033571Y-130214285D02*
X120319285Y-130357142D01*
X120890714Y-130357142D01*
X121176428Y-130214285D01*
X121319285Y-129928571D01*
X121319285Y-129785714D01*
X121176428Y-129500000D01*
X120890714Y-129357142D01*
X120462142Y-129357142D01*
X120176428Y-129214285D01*
X120033571Y-128928571D01*
X120033571Y-128785714D01*
X120176428Y-128500000D01*
X120462142Y-128357142D01*
X120890714Y-128357142D01*
X121176428Y-128500000D01*
D13*
X96516666Y-127752380D02*
X97135714Y-127752380D01*
X96802380Y-128133333D01*
X96945238Y-128133333D01*
X97040476Y-128180952D01*
X97088095Y-128228571D01*
X97135714Y-128323809D01*
X97135714Y-128561904D01*
X97088095Y-128657142D01*
X97040476Y-128704761D01*
X96945238Y-128752380D01*
X96659523Y-128752380D01*
X96564285Y-128704761D01*
X96516666Y-128657142D01*
X93964285Y-127847619D02*
X94011904Y-127800000D01*
X94107142Y-127752380D01*
X94345238Y-127752380D01*
X94440476Y-127800000D01*
X94488095Y-127847619D01*
X94535714Y-127942857D01*
X94535714Y-128038095D01*
X94488095Y-128180952D01*
X93916666Y-128752380D01*
X94535714Y-128752380D01*
X106692857Y-126104761D02*
X106835714Y-126152380D01*
X107073809Y-126152380D01*
X107169047Y-126104761D01*
X107216666Y-126057142D01*
X107264285Y-125961904D01*
X107264285Y-125866666D01*
X107216666Y-125771428D01*
X107169047Y-125723809D01*
X107073809Y-125676190D01*
X106883333Y-125628571D01*
X106788095Y-125580952D01*
X106740476Y-125533333D01*
X106692857Y-125438095D01*
X106692857Y-125342857D01*
X106740476Y-125247619D01*
X106788095Y-125200000D01*
X106883333Y-125152380D01*
X107121428Y-125152380D01*
X107264285Y-125200000D01*
X107597619Y-125152380D02*
X107835714Y-126152380D01*
X108026190Y-125438095D01*
X108216666Y-126152380D01*
X108454761Y-125152380D01*
X84916666Y-128350000D02*
X85450000Y-128350000D01*
X85183333Y-128616666D02*
X85183333Y-128083333D01*
X86150000Y-128616666D02*
X85750000Y-128616666D01*
X85950000Y-128616666D02*
X85950000Y-127916666D01*
X85883333Y-128016666D01*
X85816666Y-128083333D01*
X85750000Y-128116666D01*
X86416666Y-127983333D02*
X86450000Y-127950000D01*
X86516666Y-127916666D01*
X86683333Y-127916666D01*
X86750000Y-127950000D01*
X86783333Y-127983333D01*
X86816666Y-128050000D01*
X86816666Y-128116666D01*
X86783333Y-128216666D01*
X86383333Y-128616666D01*
X86816666Y-128616666D01*
X92135714Y-128752380D02*
X91564285Y-128752380D01*
X91850000Y-128752380D02*
X91850000Y-127752380D01*
X91754761Y-127895238D01*
X91659523Y-127990476D01*
X91564285Y-128038095D01*
X106773809Y-122552380D02*
X107345238Y-122552380D01*
X107059523Y-123552380D02*
X107059523Y-122552380D01*
X107678571Y-123552380D02*
X107678571Y-122885714D01*
X107678571Y-122552380D02*
X107630952Y-122600000D01*
X107678571Y-122647619D01*
X107726190Y-122600000D01*
X107678571Y-122552380D01*
X107678571Y-122647619D01*
X108154761Y-122885714D02*
X108154761Y-123885714D01*
X108154761Y-122933333D02*
X108250000Y-122885714D01*
X108440476Y-122885714D01*
X108535714Y-122933333D01*
X108583333Y-122980952D01*
X108630952Y-123076190D01*
X108630952Y-123361904D01*
X108583333Y-123457142D01*
X108535714Y-123504761D01*
X108440476Y-123552380D01*
X108250000Y-123552380D01*
X108154761Y-123504761D01*
D11*
X47682142Y-122763571D02*
X47682142Y-121263571D01*
X48253571Y-121263571D01*
X48396428Y-121335000D01*
X48467857Y-121406428D01*
X48539285Y-121549285D01*
X48539285Y-121763571D01*
X48467857Y-121906428D01*
X48396428Y-121977857D01*
X48253571Y-122049285D01*
X47682142Y-122049285D01*
X49396428Y-122763571D02*
X49253571Y-122692142D01*
X49182142Y-122620714D01*
X49110714Y-122477857D01*
X49110714Y-122049285D01*
X49182142Y-121906428D01*
X49253571Y-121835000D01*
X49396428Y-121763571D01*
X49610714Y-121763571D01*
X49753571Y-121835000D01*
X49825000Y-121906428D01*
X49896428Y-122049285D01*
X49896428Y-122477857D01*
X49825000Y-122620714D01*
X49753571Y-122692142D01*
X49610714Y-122763571D01*
X49396428Y-122763571D01*
X50396428Y-121763571D02*
X50682142Y-122763571D01*
X50967857Y-122049285D01*
X51253571Y-122763571D01*
X51539285Y-121763571D01*
X52682142Y-122692142D02*
X52539285Y-122763571D01*
X52253571Y-122763571D01*
X52110714Y-122692142D01*
X52039285Y-122549285D01*
X52039285Y-121977857D01*
X52110714Y-121835000D01*
X52253571Y-121763571D01*
X52539285Y-121763571D01*
X52682142Y-121835000D01*
X52753571Y-121977857D01*
X52753571Y-122120714D01*
X52039285Y-122263571D01*
X53396428Y-122763571D02*
X53396428Y-121763571D01*
X53396428Y-122049285D02*
X53467857Y-121906428D01*
X53539285Y-121835000D01*
X53682142Y-121763571D01*
X53825000Y-121763571D01*
X47967857Y-123813571D02*
X48253571Y-123813571D01*
X48396428Y-123885000D01*
X48539285Y-124027857D01*
X48610714Y-124313571D01*
X48610714Y-124813571D01*
X48539285Y-125099285D01*
X48396428Y-125242142D01*
X48253571Y-125313571D01*
X47967857Y-125313571D01*
X47825000Y-125242142D01*
X47682142Y-125099285D01*
X47610714Y-124813571D01*
X47610714Y-124313571D01*
X47682142Y-124027857D01*
X47825000Y-123885000D01*
X47967857Y-123813571D01*
X49253571Y-125313571D02*
X49253571Y-123813571D01*
X50110714Y-125313571D01*
X50110714Y-123813571D01*
D13*
X88166666Y-128350000D02*
X88700000Y-128350000D01*
X89400000Y-128616666D02*
X89000000Y-128616666D01*
X89200000Y-128616666D02*
X89200000Y-127916666D01*
X89133333Y-128016666D01*
X89066666Y-128083333D01*
X89000000Y-128116666D01*
X89666666Y-127983333D02*
X89700000Y-127950000D01*
X89766666Y-127916666D01*
X89933333Y-127916666D01*
X90000000Y-127950000D01*
X90033333Y-127983333D01*
X90066666Y-128050000D01*
X90066666Y-128116666D01*
X90033333Y-128216666D01*
X89633333Y-128616666D01*
X90066666Y-128616666D01*
X99490476Y-128085714D02*
X99490476Y-128752380D01*
X99252380Y-127704761D02*
X99014285Y-128419047D01*
X99633333Y-128419047D01*
X101100000Y-128150000D02*
X101633333Y-128150000D01*
X101366666Y-128416666D02*
X101366666Y-127883333D01*
X102300000Y-127716666D02*
X101966666Y-127716666D01*
X101933333Y-128050000D01*
X101966666Y-128016666D01*
X102033333Y-127983333D01*
X102200000Y-127983333D01*
X102266666Y-128016666D01*
X102300000Y-128050000D01*
X102333333Y-128116666D01*
X102333333Y-128283333D01*
X102300000Y-128350000D01*
X102266666Y-128383333D01*
X102200000Y-128416666D01*
X102033333Y-128416666D01*
X101966666Y-128383333D01*
X101933333Y-128350000D01*
X103966666Y-127800000D02*
X103900000Y-127766666D01*
X103800000Y-127766666D01*
X103700000Y-127800000D01*
X103633333Y-127866666D01*
X103600000Y-127933333D01*
X103566666Y-128066666D01*
X103566666Y-128166666D01*
X103600000Y-128300000D01*
X103633333Y-128366666D01*
X103700000Y-128433333D01*
X103800000Y-128466666D01*
X103866666Y-128466666D01*
X103966666Y-128433333D01*
X104000000Y-128400000D01*
X104000000Y-128166666D01*
X103866666Y-128166666D01*
X104300000Y-128466666D02*
X104300000Y-127766666D01*
X104700000Y-128466666D01*
X104700000Y-127766666D01*
X105033333Y-128466666D02*
X105033333Y-127766666D01*
X105200000Y-127766666D01*
X105300000Y-127800000D01*
X105366666Y-127866666D01*
X105400000Y-127933333D01*
X105433333Y-128066666D01*
X105433333Y-128166666D01*
X105400000Y-128300000D01*
X105366666Y-128366666D01*
X105300000Y-128433333D01*
X105200000Y-128466666D01*
X105033333Y-128466666D01*
D16*
X70821428Y-155821428D02*
X70892857Y-155750000D01*
X71035714Y-155678571D01*
X71392857Y-155678571D01*
X71535714Y-155750000D01*
X71607142Y-155821428D01*
X71678571Y-155964285D01*
X71678571Y-156107142D01*
X71607142Y-156321428D01*
X70750000Y-157178571D01*
X71678571Y-157178571D01*
X72250000Y-155821428D02*
X72321428Y-155750000D01*
X72464285Y-155678571D01*
X72821428Y-155678571D01*
X72964285Y-155750000D01*
X73035714Y-155821428D01*
X73107142Y-155964285D01*
X73107142Y-156107142D01*
X73035714Y-156321428D01*
X72178571Y-157178571D01*
X73107142Y-157178571D01*
X73750000Y-157178571D02*
X73750000Y-155678571D01*
X73750000Y-156392857D02*
X74607142Y-156392857D01*
X74607142Y-157178571D02*
X74607142Y-155678571D01*
X75321428Y-157178571D02*
X75321428Y-155678571D01*
X75892857Y-155678571D01*
X76035714Y-155750000D01*
X76107142Y-155821428D01*
X76178571Y-155964285D01*
X76178571Y-156178571D01*
X76107142Y-156321428D01*
X76035714Y-156392857D01*
X75892857Y-156464285D01*
X75321428Y-156464285D01*
X115257142Y-156178571D02*
X115614285Y-157178571D01*
X115971428Y-156178571D01*
X117185714Y-156178571D02*
X117185714Y-157178571D01*
X116828571Y-155607142D02*
X116471428Y-156678571D01*
X117400000Y-156678571D01*
X117971428Y-157035714D02*
X118042857Y-157107142D01*
X117971428Y-157178571D01*
X117900000Y-157107142D01*
X117971428Y-157035714D01*
X117971428Y-157178571D01*
X118757142Y-157178571D02*
X119042857Y-157178571D01*
X119185714Y-157107142D01*
X119257142Y-157035714D01*
X119400000Y-156821428D01*
X119471428Y-156535714D01*
X119471428Y-155964285D01*
X119400000Y-155821428D01*
X119328571Y-155750000D01*
X119185714Y-155678571D01*
X118900000Y-155678571D01*
X118757142Y-155750000D01*
X118685714Y-155821428D01*
X118614285Y-155964285D01*
X118614285Y-156321428D01*
X118685714Y-156464285D01*
X118757142Y-156535714D01*
X118900000Y-156607142D01*
X119185714Y-156607142D01*
X119328571Y-156535714D01*
X119400000Y-156464285D01*
X119471428Y-156321428D01*
D15*
X80850000Y-156988095D02*
X80850000Y-151488095D01*
X83135714Y-151488095D01*
X83707142Y-151750000D01*
X83992857Y-152011904D01*
X84278571Y-152535714D01*
X84278571Y-153321428D01*
X83992857Y-153845238D01*
X83707142Y-154107142D01*
X83135714Y-154369047D01*
X80850000Y-154369047D01*
X88850000Y-154107142D02*
X89707142Y-154369047D01*
X89992857Y-154630952D01*
X90278571Y-155154761D01*
X90278571Y-155940476D01*
X89992857Y-156464285D01*
X89707142Y-156726190D01*
X89135714Y-156988095D01*
X86850000Y-156988095D01*
X86850000Y-151488095D01*
X88850000Y-151488095D01*
X89421428Y-151750000D01*
X89707142Y-152011904D01*
X89992857Y-152535714D01*
X89992857Y-153059523D01*
X89707142Y-153583333D01*
X89421428Y-153845238D01*
X88850000Y-154107142D01*
X86850000Y-154107142D01*
X94564285Y-151488095D02*
X94564285Y-155416666D01*
X94278571Y-156202380D01*
X93707142Y-156726190D01*
X92850000Y-156988095D01*
X92278571Y-156988095D01*
X101992857Y-154107142D02*
X103992857Y-154107142D01*
X104850000Y-156988095D02*
X101992857Y-156988095D01*
X101992857Y-151488095D01*
X104850000Y-151488095D01*
X107421428Y-151488095D02*
X107421428Y-155940476D01*
X107707142Y-156464285D01*
X107992857Y-156726190D01*
X108564285Y-156988095D01*
X109707142Y-156988095D01*
X110278571Y-156726190D01*
X110564285Y-156464285D01*
X110850000Y-155940476D01*
X110850000Y-151488095D01*
D10*
X143660000Y-135080000D02*
X142330000Y-135080000D01*
X143660000Y-133750000D02*
X143660000Y-135080000D01*
X141060000Y-135080000D02*
X138460000Y-135080000D01*
X141060000Y-132480000D02*
X141060000Y-135080000D01*
X143660000Y-132480000D02*
X141060000Y-132480000D01*
X138460000Y-135080000D02*
X138460000Y-122260000D01*
X143660000Y-132480000D02*
X143660000Y-122260000D01*
X143660000Y-122260000D02*
X138460000Y-122260000D01*
X96300000Y-36200000D02*
X150900000Y-36200000D01*
X96300000Y-119800000D02*
X150900000Y-119800000D01*
X96300000Y-119800000D02*
X96300000Y-36200000D01*
X150900000Y-119800000D02*
X150900000Y-36200000D01*
X78750000Y-135500000D02*
X78750000Y-121500000D01*
X78750000Y-135500000D02*
X55250000Y-135500000D01*
X55250000Y-121500000D02*
X55250000Y-135500000D01*
X78750000Y-121500000D02*
X55250000Y-121500000D01*
X105660000Y-149080000D02*
X105660000Y-149236000D01*
X105660000Y-146764000D02*
X105660000Y-146920000D01*
X108261130Y-149079837D02*
G75*
G02*
X106179039Y-149080000I-1041130J1079837D01*
G01*
X108261130Y-146920163D02*
G75*
G03*
X106179039Y-146920000I-1041130J-1079837D01*
G01*
X108892335Y-149078608D02*
G75*
G02*
X105660000Y-149235516I-1672335J1078608D01*
G01*
X108892335Y-146921392D02*
G75*
G03*
X105660000Y-146764484I-1672335J-1078608D01*
G01*
X50710000Y-149080000D02*
X50710000Y-149236000D01*
X50710000Y-146764000D02*
X50710000Y-146920000D01*
X53311130Y-149079837D02*
G75*
G02*
X51229039Y-149080000I-1041130J1079837D01*
G01*
X53311130Y-146920163D02*
G75*
G03*
X51229039Y-146920000I-1041130J-1079837D01*
G01*
X53942335Y-149078608D02*
G75*
G02*
X50710000Y-149235516I-1672335J1078608D01*
G01*
X53942335Y-146921392D02*
G75*
G03*
X50710000Y-146764484I-1672335J-1078608D01*
G01*
X72210000Y-141100000D02*
X72210000Y-140100000D01*
X71710000Y-140600000D02*
X72210000Y-141100000D01*
X72210000Y-140100000D02*
X71710000Y-140600000D01*
X66990000Y-147010000D02*
X67300000Y-147010000D01*
X66990000Y-138190000D02*
X67300000Y-138190000D01*
X71200000Y-138190000D02*
X71510000Y-138190000D01*
X66990000Y-147010000D02*
X66990000Y-138190000D01*
X71510000Y-147010000D02*
X71200000Y-147010000D01*
X71510000Y-138190000D02*
X71510000Y-147010000D01*
D13*
X48150000Y-147500000D02*
G75*
G03*
X48150000Y-147500000I-1750000J0D01*
G01*
X76750000Y-147500000D02*
G75*
G03*
X76750000Y-147500000I-1750000J0D01*
G01*
X103020000Y-147500000D02*
G75*
G03*
X103020000Y-147500000I-1750000J0D01*
G01*
X131620000Y-147500000D02*
G75*
G03*
X131620000Y-147500000I-1750000J0D01*
G01*
D10*
X127060000Y-141100000D02*
X127060000Y-140100000D01*
X126560000Y-140600000D02*
X127060000Y-141100000D01*
X127060000Y-140100000D02*
X126560000Y-140600000D01*
X121840000Y-147010000D02*
X122150000Y-147010000D01*
X121840000Y-138190000D02*
X122150000Y-138190000D01*
X126050000Y-138190000D02*
X126360000Y-138190000D01*
X121840000Y-147010000D02*
X121840000Y-138190000D01*
X126360000Y-147010000D02*
X126050000Y-147010000D01*
X126360000Y-138190000D02*
X126360000Y-147010000D01*
X42630000Y-124080000D02*
X42630000Y-124236000D01*
X42630000Y-121764000D02*
X42630000Y-121920000D01*
X45231130Y-124079837D02*
G75*
G02*
X43149039Y-124080000I-1041130J1079837D01*
G01*
X45231130Y-121920163D02*
G75*
G03*
X43149039Y-121920000I-1041130J-1079837D01*
G01*
X45862335Y-124078608D02*
G75*
G02*
X42630000Y-124235516I-1672335J1078608D01*
G01*
X45862335Y-121921392D02*
G75*
G03*
X42630000Y-121764484I-1672335J-1078608D01*
G01*
X85010000Y-149080000D02*
X85010000Y-149236000D01*
X85010000Y-146764000D02*
X85010000Y-146920000D01*
X87611130Y-149079837D02*
G75*
G02*
X85529039Y-149080000I-1041130J1079837D01*
G01*
X87611130Y-146920163D02*
G75*
G03*
X85529039Y-146920000I-1041130J-1079837D01*
G01*
X88242335Y-149078608D02*
G75*
G02*
X85010000Y-149235516I-1672335J1078608D01*
G01*
X88242335Y-146921392D02*
G75*
G03*
X85010000Y-146764484I-1672335J-1078608D01*
G01*
X80160000Y-149080000D02*
X80160000Y-149236000D01*
X80160000Y-146764000D02*
X80160000Y-146920000D01*
X82761130Y-149079837D02*
G75*
G02*
X80679039Y-149080000I-1041130J1079837D01*
G01*
X82761130Y-146920163D02*
G75*
G03*
X80679039Y-146920000I-1041130J-1079837D01*
G01*
X83392335Y-149078608D02*
G75*
G02*
X80160000Y-149235516I-1672335J1078608D01*
G01*
X83392335Y-146921392D02*
G75*
G03*
X80160000Y-146764484I-1672335J-1078608D01*
G01*
X139760000Y-149080000D02*
X139760000Y-149236000D01*
X139760000Y-146764000D02*
X139760000Y-146920000D01*
X142361130Y-149079837D02*
G75*
G02*
X140279039Y-149080000I-1041130J1079837D01*
G01*
X142361130Y-146920163D02*
G75*
G03*
X140279039Y-146920000I-1041130J-1079837D01*
G01*
X142992335Y-149078608D02*
G75*
G02*
X139760000Y-149235516I-1672335J1078608D01*
G01*
X142992335Y-146921392D02*
G75*
G03*
X139760000Y-146764484I-1672335J-1078608D01*
G01*
X134860000Y-149080000D02*
X134860000Y-149236000D01*
X134860000Y-146764000D02*
X134860000Y-146920000D01*
X137461130Y-149079837D02*
G75*
G02*
X135379039Y-149080000I-1041130J1079837D01*
G01*
X137461130Y-146920163D02*
G75*
G03*
X135379039Y-146920000I-1041130J-1079837D01*
G01*
X138092335Y-149078608D02*
G75*
G02*
X134860000Y-149235516I-1672335J1078608D01*
G01*
X138092335Y-146921392D02*
G75*
G03*
X134860000Y-146764484I-1672335J-1078608D01*
G01*
X48720000Y-145650000D02*
X60980000Y-145650000D01*
X60980000Y-137550000D02*
X60980000Y-145650000D01*
X48720000Y-137550000D02*
X60980000Y-137550000D01*
X48720000Y-145650000D02*
X48720000Y-137550000D01*
X55610000Y-149080000D02*
X55610000Y-149236000D01*
X55610000Y-146764000D02*
X55610000Y-146920000D01*
X58211130Y-149079837D02*
G75*
G02*
X56129039Y-149080000I-1041130J1079837D01*
G01*
X58211130Y-146920163D02*
G75*
G03*
X56129039Y-146920000I-1041130J-1079837D01*
G01*
X58842335Y-149078608D02*
G75*
G02*
X55610000Y-149235516I-1672335J1078608D01*
G01*
X58842335Y-146921392D02*
G75*
G03*
X55610000Y-146764484I-1672335J-1078608D01*
G01*
X78220000Y-145650000D02*
X90480000Y-145650000D01*
X90480000Y-137550000D02*
X90480000Y-145650000D01*
X78220000Y-137550000D02*
X90480000Y-137550000D01*
X78220000Y-145650000D02*
X78220000Y-137550000D01*
X110560000Y-149080000D02*
X110560000Y-149236000D01*
X110560000Y-146764000D02*
X110560000Y-146920000D01*
X113161130Y-149079837D02*
G75*
G02*
X111079039Y-149080000I-1041130J1079837D01*
G01*
X113161130Y-146920163D02*
G75*
G03*
X111079039Y-146920000I-1041130J-1079837D01*
G01*
X113792335Y-149078608D02*
G75*
G02*
X110560000Y-149235516I-1672335J1078608D01*
G01*
X113792335Y-146921392D02*
G75*
G03*
X110560000Y-146764484I-1672335J-1078608D01*
G01*
X103520000Y-145650000D02*
X115780000Y-145650000D01*
X115780000Y-137550000D02*
X115780000Y-145650000D01*
X103520000Y-137550000D02*
X115780000Y-137550000D01*
X103520000Y-145650000D02*
X103520000Y-137550000D01*
X132670000Y-145650000D02*
X144930000Y-145650000D01*
X144930000Y-137550000D02*
X144930000Y-145650000D01*
X132670000Y-137550000D02*
X144930000Y-137550000D01*
X132670000Y-145650000D02*
X132670000Y-137550000D01*
X40450000Y-36200000D02*
X95050000Y-36200000D01*
X40450000Y-119800000D02*
X95050000Y-119800000D01*
X40450000Y-119800000D02*
X40450000Y-36200000D01*
X95050000Y-119800000D02*
X95050000Y-36200000D01*
D13*
X57250000Y-155500000D02*
G75*
G03*
X57250000Y-155500000I-1750000J0D01*
G01*
X69250000Y-155500000D02*
G75*
G03*
X69250000Y-155500000I-1750000J0D01*
G01*
X124750000Y-155500000D02*
G75*
G03*
X124750000Y-155500000I-1750000J0D01*
G01*
X136750000Y-155500000D02*
G75*
G03*
X136750000Y-155500000I-1750000J0D01*
G01*
D10*
X105910000Y-126870000D02*
X105910000Y-121670000D01*
X88070000Y-126870000D02*
X105910000Y-126870000D01*
X85470000Y-121670000D02*
X105910000Y-121670000D01*
X88070000Y-126870000D02*
X88070000Y-124270000D01*
X88070000Y-124270000D02*
X85470000Y-124270000D01*
X85470000Y-124270000D02*
X85470000Y-121670000D01*
X86800000Y-126870000D02*
X85470000Y-126870000D01*
X85470000Y-126870000D02*
X85470000Y-125540000D01*
D17*
G36*
X129175850Y-125163564D02*
G01*
X129215001Y-125183964D01*
X129236324Y-125203324D01*
X129279317Y-125278678D01*
X129288749Y-125371627D01*
X129263324Y-125460532D01*
X129252739Y-125477664D01*
X129210233Y-125513884D01*
X129134547Y-125541833D01*
X129043189Y-125560904D01*
X128770894Y-125622631D01*
X128542148Y-125707619D01*
X128354659Y-125817237D01*
X128206135Y-125952854D01*
X128094284Y-126115839D01*
X128085442Y-126132875D01*
X128026481Y-126293373D01*
X127993247Y-126484234D01*
X127988103Y-126690712D01*
X127990249Y-126727105D01*
X127997032Y-126795482D01*
X128011687Y-126825079D01*
X128045423Y-126827808D01*
X128079149Y-126821571D01*
X128352553Y-126776310D01*
X128653536Y-126743690D01*
X128967109Y-126724290D01*
X129278283Y-126718688D01*
X129572068Y-126727462D01*
X129833475Y-126751190D01*
X129849200Y-126753293D01*
X130263307Y-126826996D01*
X130676922Y-126933091D01*
X131073559Y-127066812D01*
X131378187Y-127195422D01*
X131491255Y-127246816D01*
X131567623Y-127277126D01*
X131615615Y-127288792D01*
X131643556Y-127284256D01*
X131653139Y-127276049D01*
X131690235Y-127248225D01*
X131762900Y-127205997D01*
X131859973Y-127154877D01*
X131970290Y-127100378D01*
X132082689Y-127048013D01*
X132186006Y-127003293D01*
X132269079Y-126971731D01*
X132270011Y-126971420D01*
X132411431Y-126931478D01*
X132573025Y-126896921D01*
X132734341Y-126871376D01*
X132874925Y-126858469D01*
X132912134Y-126857600D01*
X133008700Y-126863870D01*
X133071529Y-126885503D01*
X133099753Y-126907753D01*
X133157333Y-126992761D01*
X133167044Y-127080665D01*
X133132873Y-127158051D01*
X133101726Y-127193373D01*
X133062807Y-127219806D01*
X133006578Y-127240367D01*
X132923498Y-127258075D01*
X132804027Y-127275949D01*
X132729621Y-127285643D01*
X132578678Y-127312255D01*
X132419148Y-127352835D01*
X132267307Y-127402301D01*
X132139428Y-127455572D01*
X132077936Y-127489150D01*
X132001948Y-127537262D01*
X132163824Y-127646123D01*
X132264514Y-127716502D01*
X132368018Y-127793065D01*
X132445543Y-127854082D01*
X132565386Y-127953179D01*
X132713510Y-127866366D01*
X133018945Y-127714422D01*
X133333730Y-127611841D01*
X133661601Y-127557496D01*
X133761117Y-127550526D01*
X133968026Y-127549131D01*
X134146959Y-127570032D01*
X134317336Y-127617256D01*
X134498583Y-127694827D01*
X134528332Y-127709542D01*
X134782974Y-127865332D01*
X135011860Y-128062485D01*
X135211889Y-128296896D01*
X135379958Y-128564457D01*
X135512967Y-128861063D01*
X135592473Y-129118200D01*
X135615747Y-129255557D01*
X135627734Y-129426117D01*
X135628801Y-129613637D01*
X135619315Y-129801874D01*
X135599643Y-129974586D01*
X135570153Y-130115529D01*
X135569903Y-130116399D01*
X135458820Y-130419369D01*
X135306870Y-130694967D01*
X135111158Y-130947866D01*
X134959239Y-131102169D01*
X134868278Y-131189002D01*
X134810679Y-131250366D01*
X134780935Y-131293505D01*
X134773539Y-131325660D01*
X134777142Y-131341661D01*
X134789526Y-131385666D01*
X134809149Y-131467993D01*
X134833381Y-131577130D01*
X134859591Y-131701566D01*
X134861311Y-131709961D01*
X134943796Y-132227692D01*
X134976906Y-132734029D01*
X134960496Y-133230106D01*
X134894422Y-133717057D01*
X134778539Y-134196017D01*
X134612703Y-134668121D01*
X134434533Y-135060537D01*
X134197943Y-135476478D01*
X133916808Y-135871850D01*
X133594080Y-136244100D01*
X133232715Y-136590672D01*
X132835665Y-136909012D01*
X132405884Y-137196565D01*
X131946325Y-137450776D01*
X131459942Y-137669091D01*
X131384417Y-137698753D01*
X131101666Y-137803667D01*
X130846142Y-137888655D01*
X130600674Y-137958484D01*
X130348093Y-138017919D01*
X130071230Y-138071726D01*
X129988900Y-138086110D01*
X129803891Y-138111104D01*
X129581772Y-138130402D01*
X129335949Y-138143694D01*
X129079826Y-138150672D01*
X128826807Y-138151025D01*
X128590296Y-138144445D01*
X128383698Y-138130621D01*
X128325200Y-138124514D01*
X127809515Y-138040653D01*
X127305514Y-137911061D01*
X126820359Y-137737843D01*
X126472742Y-137580352D01*
X126064169Y-137355455D01*
X125685376Y-137100972D01*
X125328969Y-136811090D01*
X124987556Y-136479998D01*
X124774965Y-136245473D01*
X124715862Y-136179336D01*
X124678328Y-136146715D01*
X124651735Y-136141831D01*
X124625456Y-136158907D01*
X124621779Y-136162193D01*
X124562669Y-136202383D01*
X124467617Y-136252370D01*
X124349126Y-136306661D01*
X124219699Y-136359761D01*
X124091837Y-136406177D01*
X124005491Y-136433016D01*
X123841583Y-136468868D01*
X123654769Y-136493181D01*
X123462953Y-136504850D01*
X123284040Y-136502771D01*
X123139311Y-136486486D01*
X122860451Y-136412378D01*
X122609123Y-136299490D01*
X122378460Y-136143989D01*
X122161596Y-135942038D01*
X122158554Y-135938787D01*
X121986578Y-135727371D01*
X121861057Y-135508861D01*
X121777659Y-135275158D01*
X121758004Y-135190181D01*
X121727948Y-134919304D01*
X121735630Y-134817158D01*
X122136157Y-134817158D01*
X122137672Y-135026774D01*
X122182327Y-135236547D01*
X122273235Y-135441303D01*
X122284460Y-135460422D01*
X122400192Y-135616686D01*
X122550125Y-135764666D01*
X122721815Y-135895207D01*
X122902816Y-135999153D01*
X123080684Y-136067350D01*
X123123719Y-136077850D01*
X123254176Y-136093945D01*
X123415569Y-136096757D01*
X123590149Y-136087516D01*
X123760169Y-136067449D01*
X123907881Y-136037787D01*
X123969100Y-136019293D01*
X124148763Y-135952500D01*
X124283275Y-135895423D01*
X124371080Y-135848770D01*
X124405474Y-135820891D01*
X124415154Y-135792317D01*
X124403263Y-135746942D01*
X124366435Y-135675357D01*
X124333822Y-135620570D01*
X124274278Y-135518943D01*
X124204906Y-135394237D01*
X124138180Y-135269017D01*
X124120613Y-135234863D01*
X124068400Y-135133783D01*
X124031893Y-135070596D01*
X124004152Y-135037721D01*
X123978235Y-135027579D01*
X123947205Y-135032588D01*
X123937905Y-135035298D01*
X123817737Y-135077048D01*
X123733059Y-135121710D01*
X123685334Y-135160101D01*
X123626456Y-135234990D01*
X123612691Y-135312335D01*
X123642294Y-135404781D01*
X123649565Y-135419199D01*
X123695074Y-135536657D01*
X123697166Y-135630258D01*
X123655889Y-135698812D01*
X123637859Y-135712517D01*
X123565305Y-135738531D01*
X123496879Y-135717073D01*
X123430488Y-135646931D01*
X123382211Y-135564494D01*
X123324576Y-135402172D01*
X123316318Y-135245171D01*
X123356131Y-135098480D01*
X123442705Y-134967088D01*
X123566511Y-134861353D01*
X123635068Y-134818060D01*
X123686608Y-134789382D01*
X123705101Y-134782400D01*
X123740915Y-134774139D01*
X123793571Y-134756136D01*
X123862649Y-134729872D01*
X123788874Y-134651408D01*
X123688619Y-134568554D01*
X123571226Y-134520782D01*
X123424071Y-134503305D01*
X123397571Y-134503000D01*
X123219948Y-134526561D01*
X123063292Y-134594993D01*
X122932675Y-134704917D01*
X122833168Y-134852955D01*
X122815864Y-134890515D01*
X122757730Y-134992336D01*
X122691771Y-135045207D01*
X122619091Y-135048509D01*
X122573140Y-135026717D01*
X122522932Y-134966974D01*
X122509955Y-134884112D01*
X122530329Y-134784849D01*
X122580172Y-134675906D01*
X122655604Y-134564003D01*
X122752744Y-134455859D01*
X122867711Y-134358194D01*
X122996624Y-134277727D01*
X123009487Y-134271205D01*
X123069572Y-134244311D01*
X123128926Y-134226743D01*
X123200642Y-134216592D01*
X123297813Y-134211949D01*
X123423000Y-134210900D01*
X123715100Y-134210900D01*
X123664300Y-134002865D01*
X123639120Y-133903525D01*
X123614473Y-133836939D01*
X123580324Y-133796538D01*
X123526634Y-133775756D01*
X123443370Y-133768023D01*
X123320494Y-133766771D01*
X123303505Y-133766746D01*
X123071971Y-133788846D01*
X122858672Y-133852495D01*
X122666722Y-133952517D01*
X122499233Y-134083740D01*
X122359319Y-134240990D01*
X122250093Y-134419092D01*
X122174668Y-134612872D01*
X122136157Y-134817158D01*
X121735630Y-134817158D01*
X121747872Y-134654386D01*
X121817088Y-134397713D01*
X121934910Y-134151566D01*
X122100649Y-133918231D01*
X122161591Y-133848921D01*
X122327746Y-133698311D01*
X122524541Y-133568518D01*
X122628005Y-133518820D01*
X123971092Y-133518820D01*
X123980413Y-133591355D01*
X124000831Y-133696122D01*
X124030540Y-133824925D01*
X124067736Y-133969566D01*
X124110612Y-134121851D01*
X124125826Y-134172800D01*
X124298719Y-134659846D01*
X124512318Y-135117816D01*
X124764689Y-135545058D01*
X125053898Y-135939920D01*
X125378008Y-136300752D01*
X125735085Y-136625902D01*
X126123193Y-136913719D01*
X126540399Y-137162552D01*
X126984766Y-137370750D01*
X127454360Y-137536660D01*
X127947245Y-137658633D01*
X128274400Y-137712926D01*
X128456667Y-137731391D01*
X128674447Y-137743631D01*
X128912827Y-137749600D01*
X129156898Y-137749255D01*
X129391748Y-137742554D01*
X129602467Y-137729453D01*
X129722200Y-137717139D01*
X130256788Y-137626194D01*
X130778538Y-137490094D01*
X131283390Y-137310775D01*
X131767288Y-137090176D01*
X132226172Y-136830234D01*
X132655985Y-136532886D01*
X133052669Y-136200072D01*
X133204039Y-136054569D01*
X133522438Y-135707943D01*
X133794887Y-135349354D01*
X134026017Y-134971526D01*
X134220462Y-134567182D01*
X134329228Y-134287100D01*
X134444464Y-133895546D01*
X134522693Y-133477781D01*
X134563491Y-133042837D01*
X134566436Y-132599750D01*
X134531104Y-132157553D01*
X134457072Y-131725280D01*
X134450583Y-131696300D01*
X134429045Y-131602220D01*
X134408905Y-131541288D01*
X134380466Y-131509494D01*
X134334032Y-131502828D01*
X134259905Y-131517280D01*
X134148388Y-131548840D01*
X134116400Y-131558106D01*
X134005890Y-131585367D01*
X133890763Y-131602867D01*
X133754973Y-131612424D01*
X133608400Y-131615686D01*
X133475334Y-131615839D01*
X133370642Y-131612262D01*
X133278862Y-131602695D01*
X133184533Y-131584881D01*
X133072194Y-131556561D01*
X132930578Y-131516682D01*
X132919761Y-131521965D01*
X132928074Y-131551332D01*
X132957400Y-131608036D01*
X133009624Y-131695327D01*
X133086629Y-131816455D01*
X133190300Y-131974672D01*
X133235628Y-132043013D01*
X133409958Y-132310810D01*
X133559148Y-132551736D01*
X133682003Y-132763563D01*
X133777323Y-132944065D01*
X133843913Y-133091016D01*
X133880575Y-133202189D01*
X133887800Y-133255918D01*
X133863012Y-133356460D01*
X133789536Y-133447699D01*
X133668702Y-133529209D01*
X133501838Y-133600565D01*
X133290275Y-133661341D01*
X133035343Y-133711114D01*
X132738371Y-133749457D01*
X132400690Y-133775946D01*
X132236800Y-133783845D01*
X132091625Y-133789119D01*
X131988096Y-133791019D01*
X131917126Y-133788778D01*
X131869625Y-133781631D01*
X131836507Y-133768814D01*
X131808685Y-133749562D01*
X131806269Y-133747602D01*
X131756757Y-133677523D01*
X131742715Y-133589625D01*
X131764771Y-133503061D01*
X131796784Y-133458527D01*
X131822005Y-133438117D01*
X131856506Y-133422667D01*
X131908592Y-133410801D01*
X131986564Y-133401145D01*
X132098725Y-133392321D01*
X132252714Y-133382993D01*
X132480851Y-133367267D01*
X132699215Y-133346858D01*
X132901820Y-133322743D01*
X133082684Y-133295897D01*
X133235821Y-133267297D01*
X133355249Y-133237919D01*
X133434983Y-133208740D01*
X133467067Y-133184841D01*
X133461247Y-133149947D01*
X133426230Y-133076485D01*
X133363372Y-132966470D01*
X133274034Y-132821916D01*
X133159573Y-132644837D01*
X133021348Y-132437248D01*
X132860717Y-132201163D01*
X132679040Y-131938597D01*
X132477674Y-131651565D01*
X132257978Y-131342080D01*
X132021311Y-131012157D01*
X131769031Y-130663811D01*
X131739462Y-130623186D01*
X131652495Y-130504252D01*
X131588935Y-130420303D01*
X131542305Y-130365243D01*
X131506127Y-130332980D01*
X131473922Y-130317417D01*
X131439215Y-130312460D01*
X131408760Y-130312036D01*
X131291138Y-130336118D01*
X131175535Y-130403980D01*
X131069683Y-130508927D01*
X130981314Y-130644260D01*
X130951436Y-130708157D01*
X130934691Y-130751638D01*
X130928133Y-130789115D01*
X130934256Y-130831967D01*
X130955555Y-130891571D01*
X130994526Y-130979305D01*
X131025566Y-131046180D01*
X131151246Y-131372084D01*
X131228317Y-131702141D01*
X131257492Y-132032303D01*
X131239488Y-132358524D01*
X131175016Y-132676755D01*
X131064792Y-132982950D01*
X130909529Y-133273062D01*
X130709942Y-133543044D01*
X130556224Y-133706357D01*
X130294133Y-133927314D01*
X130012247Y-134101507D01*
X129710073Y-134229149D01*
X129387115Y-134310459D01*
X129099787Y-134343089D01*
X128751398Y-134340326D01*
X128424020Y-134291514D01*
X128115939Y-134196005D01*
X127825439Y-134053147D01*
X127550808Y-133862292D01*
X127344293Y-133677500D01*
X127115000Y-133420939D01*
X126934552Y-133151970D01*
X126802059Y-132868543D01*
X126716633Y-132568607D01*
X126677386Y-132250112D01*
X126674429Y-132133199D01*
X127080975Y-132133199D01*
X127085552Y-132308182D01*
X127102674Y-132456503D01*
X127136491Y-132595713D01*
X127191156Y-132743361D01*
X127262093Y-132898970D01*
X127330996Y-133034501D01*
X127395593Y-133140645D01*
X127468759Y-133235823D01*
X127563368Y-133338453D01*
X127583932Y-133359405D01*
X127682262Y-133453514D01*
X127784819Y-133542513D01*
X127882717Y-133619601D01*
X127967069Y-133677979D01*
X128028988Y-133710847D01*
X128049476Y-133715600D01*
X128053162Y-133695204D01*
X128038549Y-133644521D01*
X128031803Y-133627515D01*
X127997311Y-133483377D01*
X128007491Y-133336739D01*
X128057602Y-133196896D01*
X128142905Y-133073144D01*
X128258659Y-132974780D01*
X128396578Y-132912116D01*
X128562081Y-132885599D01*
X128713086Y-132907488D01*
X128852329Y-132978491D01*
X128938473Y-133051957D01*
X129042780Y-133185044D01*
X129097980Y-133328719D01*
X129105232Y-133486217D01*
X129102415Y-133510080D01*
X129069240Y-133632455D01*
X129009056Y-133751401D01*
X128932265Y-133849264D01*
X128875646Y-133894896D01*
X128795100Y-133944010D01*
X128998300Y-133943664D01*
X129127102Y-133938189D01*
X129265737Y-133924211D01*
X129378571Y-133905809D01*
X129607816Y-133836999D01*
X129841128Y-133730519D01*
X130063326Y-133595124D01*
X130259232Y-133439567D01*
X130356184Y-133342047D01*
X130522838Y-133124302D01*
X130662533Y-132877169D01*
X130769266Y-132614101D01*
X130837034Y-132348550D01*
X130853668Y-132227222D01*
X130858190Y-132052496D01*
X130843568Y-131853136D01*
X130812315Y-131650463D01*
X130766943Y-131465794D01*
X130762120Y-131450370D01*
X130673746Y-131229954D01*
X130552212Y-131007807D01*
X130407047Y-130798187D01*
X130247777Y-130615347D01*
X130135907Y-130513288D01*
X129902546Y-130354566D01*
X129652646Y-130243065D01*
X129388975Y-130179018D01*
X129114307Y-130162659D01*
X128831411Y-130194222D01*
X128543059Y-130273942D01*
X128333989Y-130361115D01*
X128125974Y-130467606D01*
X127951497Y-130575029D01*
X127794251Y-130694118D01*
X127694015Y-130782443D01*
X127477291Y-131014385D01*
X127306996Y-131265385D01*
X127183767Y-131534041D01*
X127108240Y-131818950D01*
X127081053Y-132118711D01*
X127080975Y-132133199D01*
X126674429Y-132133199D01*
X126674391Y-132131732D01*
X126672698Y-132039736D01*
X126666281Y-131989138D01*
X126652751Y-131970590D01*
X126633835Y-131973054D01*
X126605126Y-131988072D01*
X126537235Y-132025545D01*
X126434896Y-132082776D01*
X126302844Y-132157070D01*
X126145813Y-132245734D01*
X125968540Y-132346070D01*
X125775758Y-132455384D01*
X125572202Y-132570982D01*
X125362608Y-132690167D01*
X125151709Y-132810245D01*
X124944241Y-132928520D01*
X124744938Y-133042298D01*
X124558536Y-133148882D01*
X124389768Y-133245579D01*
X124243371Y-133329692D01*
X124124078Y-133398527D01*
X124036624Y-133449389D01*
X123985745Y-133479582D01*
X123974675Y-133486712D01*
X123971092Y-133518820D01*
X122628005Y-133518820D01*
X122739434Y-133465297D01*
X122959883Y-133394401D01*
X123173344Y-133361585D01*
X123227330Y-133360000D01*
X123328004Y-133352784D01*
X123416627Y-133334069D01*
X123450598Y-133320762D01*
X123499589Y-133290301D01*
X123515837Y-133255437D01*
X123508283Y-133194928D01*
X123506723Y-133187412D01*
X123497215Y-133110880D01*
X123490714Y-132992934D01*
X123487059Y-132842859D01*
X123486089Y-132669944D01*
X123486711Y-132595238D01*
X123879938Y-132595238D01*
X123882542Y-132740615D01*
X123888553Y-132865773D01*
X123897826Y-132963321D01*
X123910217Y-133025868D01*
X123925582Y-133046023D01*
X123927742Y-133045172D01*
X123952111Y-133031273D01*
X124016722Y-132994456D01*
X124117674Y-132936943D01*
X124251067Y-132860956D01*
X124412998Y-132768718D01*
X124599567Y-132662450D01*
X124806873Y-132544375D01*
X125031015Y-132416715D01*
X125251800Y-132290970D01*
X125491888Y-132154293D01*
X125721766Y-132023543D01*
X125937115Y-131901169D01*
X126133616Y-131789620D01*
X126306952Y-131691345D01*
X126452803Y-131608792D01*
X126566851Y-131544410D01*
X126644777Y-131500648D01*
X126679493Y-131481435D01*
X126761421Y-131428460D01*
X126812481Y-131367786D01*
X126842530Y-131302600D01*
X126929035Y-131120875D01*
X127052055Y-130926540D01*
X127202872Y-130730106D01*
X127372769Y-130542086D01*
X127553027Y-130372991D01*
X127721862Y-130242252D01*
X128031402Y-130054213D01*
X128345212Y-129912462D01*
X128660162Y-129816938D01*
X128973122Y-129767582D01*
X129280962Y-129764330D01*
X129580549Y-129807123D01*
X129868755Y-129895899D01*
X130142448Y-130030597D01*
X130398498Y-130211156D01*
X130495462Y-130296380D01*
X130560762Y-130355421D01*
X130611264Y-130397533D01*
X130636034Y-130413599D01*
X130636036Y-130413600D01*
X130657691Y-130394021D01*
X130690825Y-130346133D01*
X130695326Y-130338640D01*
X130810625Y-130190360D01*
X130961898Y-130066422D01*
X131137299Y-129974021D01*
X131324983Y-129920350D01*
X131398626Y-129911493D01*
X131574486Y-129898911D01*
X131574567Y-129723255D01*
X131973045Y-129723255D01*
X131982923Y-129888410D01*
X132007000Y-130028563D01*
X132019567Y-130070700D01*
X132103369Y-130276992D01*
X132202086Y-130462536D01*
X132308118Y-130613310D01*
X132323336Y-130631098D01*
X132432081Y-130754678D01*
X132430022Y-130603140D01*
X132443252Y-130461149D01*
X132491590Y-130344217D01*
X132581527Y-130238956D01*
X132624539Y-130201985D01*
X132746431Y-130133966D01*
X132882657Y-130108350D01*
X133022238Y-130123496D01*
X133154193Y-130177764D01*
X133267542Y-130269514D01*
X133294768Y-130302114D01*
X133338944Y-130372784D01*
X133363630Y-130451758D01*
X133375345Y-130555509D01*
X133378066Y-130654224D01*
X133367834Y-130725735D01*
X133339975Y-130792960D01*
X133319430Y-130829649D01*
X133220414Y-130951653D01*
X133091348Y-131033107D01*
X132998800Y-131061986D01*
X132941891Y-131075258D01*
X132930455Y-131085496D01*
X132960211Y-131099943D01*
X132973400Y-131104991D01*
X133234614Y-131181499D01*
X133503684Y-131217985D01*
X133769522Y-131214096D01*
X134021038Y-131169478D01*
X134112002Y-131141262D01*
X134382785Y-131020291D01*
X134622014Y-130860454D01*
X134827062Y-130664568D01*
X134995302Y-130435447D01*
X135124106Y-130175910D01*
X135186129Y-129989719D01*
X135222938Y-129786123D01*
X135231937Y-129559587D01*
X135213882Y-129329181D01*
X135169526Y-129113972D01*
X135148874Y-129048472D01*
X135031603Y-128774532D01*
X134883251Y-128532535D01*
X134707178Y-128326544D01*
X134506745Y-128160623D01*
X134331036Y-128059427D01*
X134228261Y-128012969D01*
X134144913Y-127983580D01*
X134061264Y-127966610D01*
X133957589Y-127957410D01*
X133883444Y-127953918D01*
X133748998Y-127951285D01*
X133641099Y-127957767D01*
X133535885Y-127976181D01*
X133409495Y-128009345D01*
X133406432Y-128010222D01*
X133110009Y-128118035D01*
X132837114Y-128262784D01*
X132592365Y-128440317D01*
X132380378Y-128646481D01*
X132205771Y-128877125D01*
X132073160Y-129128097D01*
X132027036Y-129250732D01*
X131995259Y-129387119D01*
X131977210Y-129550392D01*
X131973045Y-129723255D01*
X131574567Y-129723255D01*
X131574600Y-129654605D01*
X131596478Y-129369912D01*
X131659305Y-129090768D01*
X131717800Y-128927420D01*
X131779076Y-128805357D01*
X131866548Y-128663655D01*
X131969732Y-128517822D01*
X132078145Y-128383365D01*
X132108951Y-128348839D01*
X132164995Y-128289342D01*
X132201801Y-128246504D01*
X132216053Y-128212510D01*
X132204432Y-128179544D01*
X132163620Y-128139791D01*
X132090301Y-128085436D01*
X131981157Y-128008664D01*
X131957400Y-127991824D01*
X131840941Y-127909413D01*
X131757678Y-127853732D01*
X131699198Y-127822365D01*
X131657088Y-127812898D01*
X131622937Y-127822915D01*
X131588331Y-127850000D01*
X131559561Y-127877601D01*
X131445643Y-128010835D01*
X131344846Y-128171114D01*
X131282997Y-128305400D01*
X131225559Y-128418927D01*
X131155455Y-128485611D01*
X131069359Y-128508546D01*
X131064431Y-128508600D01*
X130987939Y-128488108D01*
X130919130Y-128436583D01*
X130874228Y-128368951D01*
X130865510Y-128325604D01*
X130878584Y-128258467D01*
X130913277Y-128161467D01*
X130963561Y-128047358D01*
X131023408Y-127928895D01*
X131086788Y-127818832D01*
X131146110Y-127731942D01*
X131198005Y-127661681D01*
X131232922Y-127608549D01*
X131243674Y-127583530D01*
X131243437Y-127583203D01*
X131207822Y-127562260D01*
X131135564Y-127528949D01*
X131037906Y-127487853D01*
X130926092Y-127443559D01*
X130811366Y-127400651D01*
X130706495Y-127364218D01*
X130223933Y-127231280D01*
X129735475Y-127148648D01*
X129241932Y-127116272D01*
X128744115Y-127134102D01*
X128242834Y-127202088D01*
X127738899Y-127320182D01*
X127233123Y-127488333D01*
X126976223Y-127592704D01*
X126559634Y-127799207D01*
X126158596Y-128051565D01*
X125777230Y-128346135D01*
X125419655Y-128679276D01*
X125089990Y-129047345D01*
X124792355Y-129446699D01*
X124675340Y-129626981D01*
X124460766Y-130014175D01*
X124275171Y-130435662D01*
X124121661Y-130882019D01*
X124003342Y-131343823D01*
X123923323Y-131811648D01*
X123906487Y-131959341D01*
X123894016Y-132111692D01*
X123885530Y-132273385D01*
X123880886Y-132437031D01*
X123879938Y-132595238D01*
X123486711Y-132595238D01*
X123487644Y-132483475D01*
X123491561Y-132292739D01*
X123497679Y-132107022D01*
X123505838Y-131935611D01*
X123515876Y-131787793D01*
X123527632Y-131672854D01*
X123533711Y-131632800D01*
X123580290Y-131387895D01*
X123629683Y-131158223D01*
X123679283Y-130955099D01*
X123726480Y-130789839D01*
X123731793Y-130773292D01*
X123755343Y-130689017D01*
X123766257Y-130624129D01*
X123762372Y-130593161D01*
X123727070Y-130577741D01*
X123658750Y-130557891D01*
X123596757Y-130543314D01*
X123379529Y-130475002D01*
X123163580Y-130367088D01*
X122961250Y-130228034D01*
X122784877Y-130066303D01*
X122648424Y-129892900D01*
X122558315Y-129735468D01*
X122498218Y-129584628D01*
X122463329Y-129423350D01*
X122448846Y-129234604D01*
X122447856Y-129181700D01*
X122448320Y-129045612D01*
X122454644Y-128941056D01*
X122469541Y-128848857D01*
X122495727Y-128749843D01*
X122519777Y-128673700D01*
X122580741Y-128513671D01*
X122644514Y-128401218D01*
X122713610Y-128333116D01*
X122790542Y-128306143D01*
X122807018Y-128305400D01*
X122888402Y-128328136D01*
X122938802Y-128367199D01*
X122971675Y-128415337D01*
X122985277Y-128475389D01*
X122978949Y-128555856D01*
X122952031Y-128665241D01*
X122904450Y-128810374D01*
X122848394Y-129036786D01*
X122840500Y-129254365D01*
X122879939Y-129459514D01*
X122965883Y-129648638D01*
X123097505Y-129818141D01*
X123147539Y-129866218D01*
X123299795Y-129982629D01*
X123469480Y-130077905D01*
X123642957Y-130146023D01*
X123806590Y-130180959D01*
X123867500Y-130184292D01*
X123902667Y-130181308D01*
X123931208Y-130167004D01*
X123959398Y-130133187D01*
X123993515Y-130071662D01*
X124039835Y-129974236D01*
X124056975Y-129936943D01*
X124270564Y-129524306D01*
X124529537Y-129120742D01*
X124836083Y-128722992D01*
X124997239Y-128537104D01*
X125090763Y-128431951D01*
X125153727Y-128357747D01*
X125190191Y-128308264D01*
X125204217Y-128277274D01*
X125199867Y-128258550D01*
X125185692Y-128248117D01*
X125125684Y-128204723D01*
X125045260Y-128130670D01*
X124953856Y-128036406D01*
X124860907Y-127932376D01*
X124775847Y-127829026D01*
X124708112Y-127736805D01*
X124675239Y-127682919D01*
X124565492Y-127424339D01*
X124504286Y-127162111D01*
X124490995Y-126900817D01*
X124524996Y-126645037D01*
X124605665Y-126399352D01*
X124732378Y-126168344D01*
X124904510Y-125956594D01*
X124911387Y-125949550D01*
X125019787Y-125847040D01*
X125107059Y-125784965D01*
X125179955Y-125761296D01*
X125245225Y-125774001D01*
X125309624Y-125821051D01*
X125316454Y-125827745D01*
X125362379Y-125886220D01*
X125376906Y-125945065D01*
X125357889Y-126012141D01*
X125303181Y-126095307D01*
X125215604Y-126197020D01*
X125058515Y-126395914D01*
X124951627Y-126596857D01*
X124894344Y-126802472D01*
X124886068Y-127015383D01*
X124926204Y-127238213D01*
X124957067Y-127334592D01*
X125037866Y-127502496D01*
X125154441Y-127669110D01*
X125293988Y-127819054D01*
X125443703Y-127936949D01*
X125473998Y-127955479D01*
X125549466Y-127999258D01*
X125737183Y-127858299D01*
X126169076Y-127565352D01*
X126629970Y-127312482D01*
X127114243Y-127102592D01*
X127383623Y-127008102D01*
X127597747Y-126939027D01*
X127592123Y-126663363D01*
X127606511Y-126376594D01*
X127662254Y-126119188D01*
X127759752Y-125890450D01*
X127899406Y-125689687D01*
X128081615Y-125516205D01*
X128306781Y-125369310D01*
X128352831Y-125345169D01*
X128462997Y-125299200D01*
X128606395Y-125253309D01*
X128765660Y-125212104D01*
X128923426Y-125180192D01*
X129032120Y-125164939D01*
X129120536Y-125158284D01*
X129175850Y-125163564D01*
G37*
X129175850Y-125163564D02*
X129215001Y-125183964D01*
X129236324Y-125203324D01*
X129279317Y-125278678D01*
X129288749Y-125371627D01*
X129263324Y-125460532D01*
X129252739Y-125477664D01*
X129210233Y-125513884D01*
X129134547Y-125541833D01*
X129043189Y-125560904D01*
X128770894Y-125622631D01*
X128542148Y-125707619D01*
X128354659Y-125817237D01*
X128206135Y-125952854D01*
X128094284Y-126115839D01*
X128085442Y-126132875D01*
X128026481Y-126293373D01*
X127993247Y-126484234D01*
X127988103Y-126690712D01*
X127990249Y-126727105D01*
X127997032Y-126795482D01*
X128011687Y-126825079D01*
X128045423Y-126827808D01*
X128079149Y-126821571D01*
X128352553Y-126776310D01*
X128653536Y-126743690D01*
X128967109Y-126724290D01*
X129278283Y-126718688D01*
X129572068Y-126727462D01*
X129833475Y-126751190D01*
X129849200Y-126753293D01*
X130263307Y-126826996D01*
X130676922Y-126933091D01*
X131073559Y-127066812D01*
X131378187Y-127195422D01*
X131491255Y-127246816D01*
X131567623Y-127277126D01*
X131615615Y-127288792D01*
X131643556Y-127284256D01*
X131653139Y-127276049D01*
X131690235Y-127248225D01*
X131762900Y-127205997D01*
X131859973Y-127154877D01*
X131970290Y-127100378D01*
X132082689Y-127048013D01*
X132186006Y-127003293D01*
X132269079Y-126971731D01*
X132270011Y-126971420D01*
X132411431Y-126931478D01*
X132573025Y-126896921D01*
X132734341Y-126871376D01*
X132874925Y-126858469D01*
X132912134Y-126857600D01*
X133008700Y-126863870D01*
X133071529Y-126885503D01*
X133099753Y-126907753D01*
X133157333Y-126992761D01*
X133167044Y-127080665D01*
X133132873Y-127158051D01*
X133101726Y-127193373D01*
X133062807Y-127219806D01*
X133006578Y-127240367D01*
X132923498Y-127258075D01*
X132804027Y-127275949D01*
X132729621Y-127285643D01*
X132578678Y-127312255D01*
X132419148Y-127352835D01*
X132267307Y-127402301D01*
X132139428Y-127455572D01*
X132077936Y-127489150D01*
X132001948Y-127537262D01*
X132163824Y-127646123D01*
X132264514Y-127716502D01*
X132368018Y-127793065D01*
X132445543Y-127854082D01*
X132565386Y-127953179D01*
X132713510Y-127866366D01*
X133018945Y-127714422D01*
X133333730Y-127611841D01*
X133661601Y-127557496D01*
X133761117Y-127550526D01*
X133968026Y-127549131D01*
X134146959Y-127570032D01*
X134317336Y-127617256D01*
X134498583Y-127694827D01*
X134528332Y-127709542D01*
X134782974Y-127865332D01*
X135011860Y-128062485D01*
X135211889Y-128296896D01*
X135379958Y-128564457D01*
X135512967Y-128861063D01*
X135592473Y-129118200D01*
X135615747Y-129255557D01*
X135627734Y-129426117D01*
X135628801Y-129613637D01*
X135619315Y-129801874D01*
X135599643Y-129974586D01*
X135570153Y-130115529D01*
X135569903Y-130116399D01*
X135458820Y-130419369D01*
X135306870Y-130694967D01*
X135111158Y-130947866D01*
X134959239Y-131102169D01*
X134868278Y-131189002D01*
X134810679Y-131250366D01*
X134780935Y-131293505D01*
X134773539Y-131325660D01*
X134777142Y-131341661D01*
X134789526Y-131385666D01*
X134809149Y-131467993D01*
X134833381Y-131577130D01*
X134859591Y-131701566D01*
X134861311Y-131709961D01*
X134943796Y-132227692D01*
X134976906Y-132734029D01*
X134960496Y-133230106D01*
X134894422Y-133717057D01*
X134778539Y-134196017D01*
X134612703Y-134668121D01*
X134434533Y-135060537D01*
X134197943Y-135476478D01*
X133916808Y-135871850D01*
X133594080Y-136244100D01*
X133232715Y-136590672D01*
X132835665Y-136909012D01*
X132405884Y-137196565D01*
X131946325Y-137450776D01*
X131459942Y-137669091D01*
X131384417Y-137698753D01*
X131101666Y-137803667D01*
X130846142Y-137888655D01*
X130600674Y-137958484D01*
X130348093Y-138017919D01*
X130071230Y-138071726D01*
X129988900Y-138086110D01*
X129803891Y-138111104D01*
X129581772Y-138130402D01*
X129335949Y-138143694D01*
X129079826Y-138150672D01*
X128826807Y-138151025D01*
X128590296Y-138144445D01*
X128383698Y-138130621D01*
X128325200Y-138124514D01*
X127809515Y-138040653D01*
X127305514Y-137911061D01*
X126820359Y-137737843D01*
X126472742Y-137580352D01*
X126064169Y-137355455D01*
X125685376Y-137100972D01*
X125328969Y-136811090D01*
X124987556Y-136479998D01*
X124774965Y-136245473D01*
X124715862Y-136179336D01*
X124678328Y-136146715D01*
X124651735Y-136141831D01*
X124625456Y-136158907D01*
X124621779Y-136162193D01*
X124562669Y-136202383D01*
X124467617Y-136252370D01*
X124349126Y-136306661D01*
X124219699Y-136359761D01*
X124091837Y-136406177D01*
X124005491Y-136433016D01*
X123841583Y-136468868D01*
X123654769Y-136493181D01*
X123462953Y-136504850D01*
X123284040Y-136502771D01*
X123139311Y-136486486D01*
X122860451Y-136412378D01*
X122609123Y-136299490D01*
X122378460Y-136143989D01*
X122161596Y-135942038D01*
X122158554Y-135938787D01*
X121986578Y-135727371D01*
X121861057Y-135508861D01*
X121777659Y-135275158D01*
X121758004Y-135190181D01*
X121727948Y-134919304D01*
X121735630Y-134817158D01*
X122136157Y-134817158D01*
X122137672Y-135026774D01*
X122182327Y-135236547D01*
X122273235Y-135441303D01*
X122284460Y-135460422D01*
X122400192Y-135616686D01*
X122550125Y-135764666D01*
X122721815Y-135895207D01*
X122902816Y-135999153D01*
X123080684Y-136067350D01*
X123123719Y-136077850D01*
X123254176Y-136093945D01*
X123415569Y-136096757D01*
X123590149Y-136087516D01*
X123760169Y-136067449D01*
X123907881Y-136037787D01*
X123969100Y-136019293D01*
X124148763Y-135952500D01*
X124283275Y-135895423D01*
X124371080Y-135848770D01*
X124405474Y-135820891D01*
X124415154Y-135792317D01*
X124403263Y-135746942D01*
X124366435Y-135675357D01*
X124333822Y-135620570D01*
X124274278Y-135518943D01*
X124204906Y-135394237D01*
X124138180Y-135269017D01*
X124120613Y-135234863D01*
X124068400Y-135133783D01*
X124031893Y-135070596D01*
X124004152Y-135037721D01*
X123978235Y-135027579D01*
X123947205Y-135032588D01*
X123937905Y-135035298D01*
X123817737Y-135077048D01*
X123733059Y-135121710D01*
X123685334Y-135160101D01*
X123626456Y-135234990D01*
X123612691Y-135312335D01*
X123642294Y-135404781D01*
X123649565Y-135419199D01*
X123695074Y-135536657D01*
X123697166Y-135630258D01*
X123655889Y-135698812D01*
X123637859Y-135712517D01*
X123565305Y-135738531D01*
X123496879Y-135717073D01*
X123430488Y-135646931D01*
X123382211Y-135564494D01*
X123324576Y-135402172D01*
X123316318Y-135245171D01*
X123356131Y-135098480D01*
X123442705Y-134967088D01*
X123566511Y-134861353D01*
X123635068Y-134818060D01*
X123686608Y-134789382D01*
X123705101Y-134782400D01*
X123740915Y-134774139D01*
X123793571Y-134756136D01*
X123862649Y-134729872D01*
X123788874Y-134651408D01*
X123688619Y-134568554D01*
X123571226Y-134520782D01*
X123424071Y-134503305D01*
X123397571Y-134503000D01*
X123219948Y-134526561D01*
X123063292Y-134594993D01*
X122932675Y-134704917D01*
X122833168Y-134852955D01*
X122815864Y-134890515D01*
X122757730Y-134992336D01*
X122691771Y-135045207D01*
X122619091Y-135048509D01*
X122573140Y-135026717D01*
X122522932Y-134966974D01*
X122509955Y-134884112D01*
X122530329Y-134784849D01*
X122580172Y-134675906D01*
X122655604Y-134564003D01*
X122752744Y-134455859D01*
X122867711Y-134358194D01*
X122996624Y-134277727D01*
X123009487Y-134271205D01*
X123069572Y-134244311D01*
X123128926Y-134226743D01*
X123200642Y-134216592D01*
X123297813Y-134211949D01*
X123423000Y-134210900D01*
X123715100Y-134210900D01*
X123664300Y-134002865D01*
X123639120Y-133903525D01*
X123614473Y-133836939D01*
X123580324Y-133796538D01*
X123526634Y-133775756D01*
X123443370Y-133768023D01*
X123320494Y-133766771D01*
X123303505Y-133766746D01*
X123071971Y-133788846D01*
X122858672Y-133852495D01*
X122666722Y-133952517D01*
X122499233Y-134083740D01*
X122359319Y-134240990D01*
X122250093Y-134419092D01*
X122174668Y-134612872D01*
X122136157Y-134817158D01*
X121735630Y-134817158D01*
X121747872Y-134654386D01*
X121817088Y-134397713D01*
X121934910Y-134151566D01*
X122100649Y-133918231D01*
X122161591Y-133848921D01*
X122327746Y-133698311D01*
X122524541Y-133568518D01*
X122628005Y-133518820D01*
X123971092Y-133518820D01*
X123980413Y-133591355D01*
X124000831Y-133696122D01*
X124030540Y-133824925D01*
X124067736Y-133969566D01*
X124110612Y-134121851D01*
X124125826Y-134172800D01*
X124298719Y-134659846D01*
X124512318Y-135117816D01*
X124764689Y-135545058D01*
X125053898Y-135939920D01*
X125378008Y-136300752D01*
X125735085Y-136625902D01*
X126123193Y-136913719D01*
X126540399Y-137162552D01*
X126984766Y-137370750D01*
X127454360Y-137536660D01*
X127947245Y-137658633D01*
X128274400Y-137712926D01*
X128456667Y-137731391D01*
X128674447Y-137743631D01*
X128912827Y-137749600D01*
X129156898Y-137749255D01*
X129391748Y-137742554D01*
X129602467Y-137729453D01*
X129722200Y-137717139D01*
X130256788Y-137626194D01*
X130778538Y-137490094D01*
X131283390Y-137310775D01*
X131767288Y-137090176D01*
X132226172Y-136830234D01*
X132655985Y-136532886D01*
X133052669Y-136200072D01*
X133204039Y-136054569D01*
X133522438Y-135707943D01*
X133794887Y-135349354D01*
X134026017Y-134971526D01*
X134220462Y-134567182D01*
X134329228Y-134287100D01*
X134444464Y-133895546D01*
X134522693Y-133477781D01*
X134563491Y-133042837D01*
X134566436Y-132599750D01*
X134531104Y-132157553D01*
X134457072Y-131725280D01*
X134450583Y-131696300D01*
X134429045Y-131602220D01*
X134408905Y-131541288D01*
X134380466Y-131509494D01*
X134334032Y-131502828D01*
X134259905Y-131517280D01*
X134148388Y-131548840D01*
X134116400Y-131558106D01*
X134005890Y-131585367D01*
X133890763Y-131602867D01*
X133754973Y-131612424D01*
X133608400Y-131615686D01*
X133475334Y-131615839D01*
X133370642Y-131612262D01*
X133278862Y-131602695D01*
X133184533Y-131584881D01*
X133072194Y-131556561D01*
X132930578Y-131516682D01*
X132919761Y-131521965D01*
X132928074Y-131551332D01*
X132957400Y-131608036D01*
X133009624Y-131695327D01*
X133086629Y-131816455D01*
X133190300Y-131974672D01*
X133235628Y-132043013D01*
X133409958Y-132310810D01*
X133559148Y-132551736D01*
X133682003Y-132763563D01*
X133777323Y-132944065D01*
X133843913Y-133091016D01*
X133880575Y-133202189D01*
X133887800Y-133255918D01*
X133863012Y-133356460D01*
X133789536Y-133447699D01*
X133668702Y-133529209D01*
X133501838Y-133600565D01*
X133290275Y-133661341D01*
X133035343Y-133711114D01*
X132738371Y-133749457D01*
X132400690Y-133775946D01*
X132236800Y-133783845D01*
X132091625Y-133789119D01*
X131988096Y-133791019D01*
X131917126Y-133788778D01*
X131869625Y-133781631D01*
X131836507Y-133768814D01*
X131808685Y-133749562D01*
X131806269Y-133747602D01*
X131756757Y-133677523D01*
X131742715Y-133589625D01*
X131764771Y-133503061D01*
X131796784Y-133458527D01*
X131822005Y-133438117D01*
X131856506Y-133422667D01*
X131908592Y-133410801D01*
X131986564Y-133401145D01*
X132098725Y-133392321D01*
X132252714Y-133382993D01*
X132480851Y-133367267D01*
X132699215Y-133346858D01*
X132901820Y-133322743D01*
X133082684Y-133295897D01*
X133235821Y-133267297D01*
X133355249Y-133237919D01*
X133434983Y-133208740D01*
X133467067Y-133184841D01*
X133461247Y-133149947D01*
X133426230Y-133076485D01*
X133363372Y-132966470D01*
X133274034Y-132821916D01*
X133159573Y-132644837D01*
X133021348Y-132437248D01*
X132860717Y-132201163D01*
X132679040Y-131938597D01*
X132477674Y-131651565D01*
X132257978Y-131342080D01*
X132021311Y-131012157D01*
X131769031Y-130663811D01*
X131739462Y-130623186D01*
X131652495Y-130504252D01*
X131588935Y-130420303D01*
X131542305Y-130365243D01*
X131506127Y-130332980D01*
X131473922Y-130317417D01*
X131439215Y-130312460D01*
X131408760Y-130312036D01*
X131291138Y-130336118D01*
X131175535Y-130403980D01*
X131069683Y-130508927D01*
X130981314Y-130644260D01*
X130951436Y-130708157D01*
X130934691Y-130751638D01*
X130928133Y-130789115D01*
X130934256Y-130831967D01*
X130955555Y-130891571D01*
X130994526Y-130979305D01*
X131025566Y-131046180D01*
X131151246Y-131372084D01*
X131228317Y-131702141D01*
X131257492Y-132032303D01*
X131239488Y-132358524D01*
X131175016Y-132676755D01*
X131064792Y-132982950D01*
X130909529Y-133273062D01*
X130709942Y-133543044D01*
X130556224Y-133706357D01*
X130294133Y-133927314D01*
X130012247Y-134101507D01*
X129710073Y-134229149D01*
X129387115Y-134310459D01*
X129099787Y-134343089D01*
X128751398Y-134340326D01*
X128424020Y-134291514D01*
X128115939Y-134196005D01*
X127825439Y-134053147D01*
X127550808Y-133862292D01*
X127344293Y-133677500D01*
X127115000Y-133420939D01*
X126934552Y-133151970D01*
X126802059Y-132868543D01*
X126716633Y-132568607D01*
X126677386Y-132250112D01*
X126674429Y-132133199D01*
X127080975Y-132133199D01*
X127085552Y-132308182D01*
X127102674Y-132456503D01*
X127136491Y-132595713D01*
X127191156Y-132743361D01*
X127262093Y-132898970D01*
X127330996Y-133034501D01*
X127395593Y-133140645D01*
X127468759Y-133235823D01*
X127563368Y-133338453D01*
X127583932Y-133359405D01*
X127682262Y-133453514D01*
X127784819Y-133542513D01*
X127882717Y-133619601D01*
X127967069Y-133677979D01*
X128028988Y-133710847D01*
X128049476Y-133715600D01*
X128053162Y-133695204D01*
X128038549Y-133644521D01*
X128031803Y-133627515D01*
X127997311Y-133483377D01*
X128007491Y-133336739D01*
X128057602Y-133196896D01*
X128142905Y-133073144D01*
X128258659Y-132974780D01*
X128396578Y-132912116D01*
X128562081Y-132885599D01*
X128713086Y-132907488D01*
X128852329Y-132978491D01*
X128938473Y-133051957D01*
X129042780Y-133185044D01*
X129097980Y-133328719D01*
X129105232Y-133486217D01*
X129102415Y-133510080D01*
X129069240Y-133632455D01*
X129009056Y-133751401D01*
X128932265Y-133849264D01*
X128875646Y-133894896D01*
X128795100Y-133944010D01*
X128998300Y-133943664D01*
X129127102Y-133938189D01*
X129265737Y-133924211D01*
X129378571Y-133905809D01*
X129607816Y-133836999D01*
X129841128Y-133730519D01*
X130063326Y-133595124D01*
X130259232Y-133439567D01*
X130356184Y-133342047D01*
X130522838Y-133124302D01*
X130662533Y-132877169D01*
X130769266Y-132614101D01*
X130837034Y-132348550D01*
X130853668Y-132227222D01*
X130858190Y-132052496D01*
X130843568Y-131853136D01*
X130812315Y-131650463D01*
X130766943Y-131465794D01*
X130762120Y-131450370D01*
X130673746Y-131229954D01*
X130552212Y-131007807D01*
X130407047Y-130798187D01*
X130247777Y-130615347D01*
X130135907Y-130513288D01*
X129902546Y-130354566D01*
X129652646Y-130243065D01*
X129388975Y-130179018D01*
X129114307Y-130162659D01*
X128831411Y-130194222D01*
X128543059Y-130273942D01*
X128333989Y-130361115D01*
X128125974Y-130467606D01*
X127951497Y-130575029D01*
X127794251Y-130694118D01*
X127694015Y-130782443D01*
X127477291Y-131014385D01*
X127306996Y-131265385D01*
X127183767Y-131534041D01*
X127108240Y-131818950D01*
X127081053Y-132118711D01*
X127080975Y-132133199D01*
X126674429Y-132133199D01*
X126674391Y-132131732D01*
X126672698Y-132039736D01*
X126666281Y-131989138D01*
X126652751Y-131970590D01*
X126633835Y-131973054D01*
X126605126Y-131988072D01*
X126537235Y-132025545D01*
X126434896Y-132082776D01*
X126302844Y-132157070D01*
X126145813Y-132245734D01*
X125968540Y-132346070D01*
X125775758Y-132455384D01*
X125572202Y-132570982D01*
X125362608Y-132690167D01*
X125151709Y-132810245D01*
X124944241Y-132928520D01*
X124744938Y-133042298D01*
X124558536Y-133148882D01*
X124389768Y-133245579D01*
X124243371Y-133329692D01*
X124124078Y-133398527D01*
X124036624Y-133449389D01*
X123985745Y-133479582D01*
X123974675Y-133486712D01*
X123971092Y-133518820D01*
X122628005Y-133518820D01*
X122739434Y-133465297D01*
X122959883Y-133394401D01*
X123173344Y-133361585D01*
X123227330Y-133360000D01*
X123328004Y-133352784D01*
X123416627Y-133334069D01*
X123450598Y-133320762D01*
X123499589Y-133290301D01*
X123515837Y-133255437D01*
X123508283Y-133194928D01*
X123506723Y-133187412D01*
X123497215Y-133110880D01*
X123490714Y-132992934D01*
X123487059Y-132842859D01*
X123486089Y-132669944D01*
X123486711Y-132595238D01*
X123879938Y-132595238D01*
X123882542Y-132740615D01*
X123888553Y-132865773D01*
X123897826Y-132963321D01*
X123910217Y-133025868D01*
X123925582Y-133046023D01*
X123927742Y-133045172D01*
X123952111Y-133031273D01*
X124016722Y-132994456D01*
X124117674Y-132936943D01*
X124251067Y-132860956D01*
X124412998Y-132768718D01*
X124599567Y-132662450D01*
X124806873Y-132544375D01*
X125031015Y-132416715D01*
X125251800Y-132290970D01*
X125491888Y-132154293D01*
X125721766Y-132023543D01*
X125937115Y-131901169D01*
X126133616Y-131789620D01*
X126306952Y-131691345D01*
X126452803Y-131608792D01*
X126566851Y-131544410D01*
X126644777Y-131500648D01*
X126679493Y-131481435D01*
X126761421Y-131428460D01*
X126812481Y-131367786D01*
X126842530Y-131302600D01*
X126929035Y-131120875D01*
X127052055Y-130926540D01*
X127202872Y-130730106D01*
X127372769Y-130542086D01*
X127553027Y-130372991D01*
X127721862Y-130242252D01*
X128031402Y-130054213D01*
X128345212Y-129912462D01*
X128660162Y-129816938D01*
X128973122Y-129767582D01*
X129280962Y-129764330D01*
X129580549Y-129807123D01*
X129868755Y-129895899D01*
X130142448Y-130030597D01*
X130398498Y-130211156D01*
X130495462Y-130296380D01*
X130560762Y-130355421D01*
X130611264Y-130397533D01*
X130636034Y-130413599D01*
X130636036Y-130413600D01*
X130657691Y-130394021D01*
X130690825Y-130346133D01*
X130695326Y-130338640D01*
X130810625Y-130190360D01*
X130961898Y-130066422D01*
X131137299Y-129974021D01*
X131324983Y-129920350D01*
X131398626Y-129911493D01*
X131574486Y-129898911D01*
X131574567Y-129723255D01*
X131973045Y-129723255D01*
X131982923Y-129888410D01*
X132007000Y-130028563D01*
X132019567Y-130070700D01*
X132103369Y-130276992D01*
X132202086Y-130462536D01*
X132308118Y-130613310D01*
X132323336Y-130631098D01*
X132432081Y-130754678D01*
X132430022Y-130603140D01*
X132443252Y-130461149D01*
X132491590Y-130344217D01*
X132581527Y-130238956D01*
X132624539Y-130201985D01*
X132746431Y-130133966D01*
X132882657Y-130108350D01*
X133022238Y-130123496D01*
X133154193Y-130177764D01*
X133267542Y-130269514D01*
X133294768Y-130302114D01*
X133338944Y-130372784D01*
X133363630Y-130451758D01*
X133375345Y-130555509D01*
X133378066Y-130654224D01*
X133367834Y-130725735D01*
X133339975Y-130792960D01*
X133319430Y-130829649D01*
X133220414Y-130951653D01*
X133091348Y-131033107D01*
X132998800Y-131061986D01*
X132941891Y-131075258D01*
X132930455Y-131085496D01*
X132960211Y-131099943D01*
X132973400Y-131104991D01*
X133234614Y-131181499D01*
X133503684Y-131217985D01*
X133769522Y-131214096D01*
X134021038Y-131169478D01*
X134112002Y-131141262D01*
X134382785Y-131020291D01*
X134622014Y-130860454D01*
X134827062Y-130664568D01*
X134995302Y-130435447D01*
X135124106Y-130175910D01*
X135186129Y-129989719D01*
X135222938Y-129786123D01*
X135231937Y-129559587D01*
X135213882Y-129329181D01*
X135169526Y-129113972D01*
X135148874Y-129048472D01*
X135031603Y-128774532D01*
X134883251Y-128532535D01*
X134707178Y-128326544D01*
X134506745Y-128160623D01*
X134331036Y-128059427D01*
X134228261Y-128012969D01*
X134144913Y-127983580D01*
X134061264Y-127966610D01*
X133957589Y-127957410D01*
X133883444Y-127953918D01*
X133748998Y-127951285D01*
X133641099Y-127957767D01*
X133535885Y-127976181D01*
X133409495Y-128009345D01*
X133406432Y-128010222D01*
X133110009Y-128118035D01*
X132837114Y-128262784D01*
X132592365Y-128440317D01*
X132380378Y-128646481D01*
X132205771Y-128877125D01*
X132073160Y-129128097D01*
X132027036Y-129250732D01*
X131995259Y-129387119D01*
X131977210Y-129550392D01*
X131973045Y-129723255D01*
X131574567Y-129723255D01*
X131574600Y-129654605D01*
X131596478Y-129369912D01*
X131659305Y-129090768D01*
X131717800Y-128927420D01*
X131779076Y-128805357D01*
X131866548Y-128663655D01*
X131969732Y-128517822D01*
X132078145Y-128383365D01*
X132108951Y-128348839D01*
X132164995Y-128289342D01*
X132201801Y-128246504D01*
X132216053Y-128212510D01*
X132204432Y-128179544D01*
X132163620Y-128139791D01*
X132090301Y-128085436D01*
X131981157Y-128008664D01*
X131957400Y-127991824D01*
X131840941Y-127909413D01*
X131757678Y-127853732D01*
X131699198Y-127822365D01*
X131657088Y-127812898D01*
X131622937Y-127822915D01*
X131588331Y-127850000D01*
X131559561Y-127877601D01*
X131445643Y-128010835D01*
X131344846Y-128171114D01*
X131282997Y-128305400D01*
X131225559Y-128418927D01*
X131155455Y-128485611D01*
X131069359Y-128508546D01*
X131064431Y-128508600D01*
X130987939Y-128488108D01*
X130919130Y-128436583D01*
X130874228Y-128368951D01*
X130865510Y-128325604D01*
X130878584Y-128258467D01*
X130913277Y-128161467D01*
X130963561Y-128047358D01*
X131023408Y-127928895D01*
X131086788Y-127818832D01*
X131146110Y-127731942D01*
X131198005Y-127661681D01*
X131232922Y-127608549D01*
X131243674Y-127583530D01*
X131243437Y-127583203D01*
X131207822Y-127562260D01*
X131135564Y-127528949D01*
X131037906Y-127487853D01*
X130926092Y-127443559D01*
X130811366Y-127400651D01*
X130706495Y-127364218D01*
X130223933Y-127231280D01*
X129735475Y-127148648D01*
X129241932Y-127116272D01*
X128744115Y-127134102D01*
X128242834Y-127202088D01*
X127738899Y-127320182D01*
X127233123Y-127488333D01*
X126976223Y-127592704D01*
X126559634Y-127799207D01*
X126158596Y-128051565D01*
X125777230Y-128346135D01*
X125419655Y-128679276D01*
X125089990Y-129047345D01*
X124792355Y-129446699D01*
X124675340Y-129626981D01*
X124460766Y-130014175D01*
X124275171Y-130435662D01*
X124121661Y-130882019D01*
X124003342Y-131343823D01*
X123923323Y-131811648D01*
X123906487Y-131959341D01*
X123894016Y-132111692D01*
X123885530Y-132273385D01*
X123880886Y-132437031D01*
X123879938Y-132595238D01*
X123486711Y-132595238D01*
X123487644Y-132483475D01*
X123491561Y-132292739D01*
X123497679Y-132107022D01*
X123505838Y-131935611D01*
X123515876Y-131787793D01*
X123527632Y-131672854D01*
X123533711Y-131632800D01*
X123580290Y-131387895D01*
X123629683Y-131158223D01*
X123679283Y-130955099D01*
X123726480Y-130789839D01*
X123731793Y-130773292D01*
X123755343Y-130689017D01*
X123766257Y-130624129D01*
X123762372Y-130593161D01*
X123727070Y-130577741D01*
X123658750Y-130557891D01*
X123596757Y-130543314D01*
X123379529Y-130475002D01*
X123163580Y-130367088D01*
X122961250Y-130228034D01*
X122784877Y-130066303D01*
X122648424Y-129892900D01*
X122558315Y-129735468D01*
X122498218Y-129584628D01*
X122463329Y-129423350D01*
X122448846Y-129234604D01*
X122447856Y-129181700D01*
X122448320Y-129045612D01*
X122454644Y-128941056D01*
X122469541Y-128848857D01*
X122495727Y-128749843D01*
X122519777Y-128673700D01*
X122580741Y-128513671D01*
X122644514Y-128401218D01*
X122713610Y-128333116D01*
X122790542Y-128306143D01*
X122807018Y-128305400D01*
X122888402Y-128328136D01*
X122938802Y-128367199D01*
X122971675Y-128415337D01*
X122985277Y-128475389D01*
X122978949Y-128555856D01*
X122952031Y-128665241D01*
X122904450Y-128810374D01*
X122848394Y-129036786D01*
X122840500Y-129254365D01*
X122879939Y-129459514D01*
X122965883Y-129648638D01*
X123097505Y-129818141D01*
X123147539Y-129866218D01*
X123299795Y-129982629D01*
X123469480Y-130077905D01*
X123642957Y-130146023D01*
X123806590Y-130180959D01*
X123867500Y-130184292D01*
X123902667Y-130181308D01*
X123931208Y-130167004D01*
X123959398Y-130133187D01*
X123993515Y-130071662D01*
X124039835Y-129974236D01*
X124056975Y-129936943D01*
X124270564Y-129524306D01*
X124529537Y-129120742D01*
X124836083Y-128722992D01*
X124997239Y-128537104D01*
X125090763Y-128431951D01*
X125153727Y-128357747D01*
X125190191Y-128308264D01*
X125204217Y-128277274D01*
X125199867Y-128258550D01*
X125185692Y-128248117D01*
X125125684Y-128204723D01*
X125045260Y-128130670D01*
X124953856Y-128036406D01*
X124860907Y-127932376D01*
X124775847Y-127829026D01*
X124708112Y-127736805D01*
X124675239Y-127682919D01*
X124565492Y-127424339D01*
X124504286Y-127162111D01*
X124490995Y-126900817D01*
X124524996Y-126645037D01*
X124605665Y-126399352D01*
X124732378Y-126168344D01*
X124904510Y-125956594D01*
X124911387Y-125949550D01*
X125019787Y-125847040D01*
X125107059Y-125784965D01*
X125179955Y-125761296D01*
X125245225Y-125774001D01*
X125309624Y-125821051D01*
X125316454Y-125827745D01*
X125362379Y-125886220D01*
X125376906Y-125945065D01*
X125357889Y-126012141D01*
X125303181Y-126095307D01*
X125215604Y-126197020D01*
X125058515Y-126395914D01*
X124951627Y-126596857D01*
X124894344Y-126802472D01*
X124886068Y-127015383D01*
X124926204Y-127238213D01*
X124957067Y-127334592D01*
X125037866Y-127502496D01*
X125154441Y-127669110D01*
X125293988Y-127819054D01*
X125443703Y-127936949D01*
X125473998Y-127955479D01*
X125549466Y-127999258D01*
X125737183Y-127858299D01*
X126169076Y-127565352D01*
X126629970Y-127312482D01*
X127114243Y-127102592D01*
X127383623Y-127008102D01*
X127597747Y-126939027D01*
X127592123Y-126663363D01*
X127606511Y-126376594D01*
X127662254Y-126119188D01*
X127759752Y-125890450D01*
X127899406Y-125689687D01*
X128081615Y-125516205D01*
X128306781Y-125369310D01*
X128352831Y-125345169D01*
X128462997Y-125299200D01*
X128606395Y-125253309D01*
X128765660Y-125212104D01*
X128923426Y-125180192D01*
X129032120Y-125164939D01*
X129120536Y-125158284D01*
X129175850Y-125163564D01*
G36*
X128277081Y-135910800D02*
G01*
X128367021Y-135939035D01*
X128456885Y-135976178D01*
X128643357Y-136047425D01*
X128870752Y-136105300D01*
X129141926Y-136150394D01*
X129455500Y-136182963D01*
X129708653Y-136197166D01*
X129926703Y-136195208D01*
X130123097Y-136175877D01*
X130311284Y-136137959D01*
X130471150Y-136091416D01*
X130578155Y-136058663D01*
X130651034Y-136043031D01*
X130702802Y-136042709D01*
X130741610Y-136053812D01*
X130811460Y-136107733D01*
X130850717Y-136189251D01*
X130851717Y-136280634D01*
X130846958Y-136297624D01*
X130799554Y-136364471D01*
X130707760Y-136425340D01*
X130577757Y-136479051D01*
X130415729Y-136524423D01*
X130227856Y-136560279D01*
X130020323Y-136585438D01*
X129799310Y-136598721D01*
X129571000Y-136598948D01*
X129341576Y-136584940D01*
X129341200Y-136584905D01*
X129108317Y-136556406D01*
X128879262Y-136516305D01*
X128662395Y-136466900D01*
X128466079Y-136410491D01*
X128298673Y-136349377D01*
X128168540Y-136285857D01*
X128110570Y-136246537D01*
X128052483Y-136174041D01*
X128032709Y-136091171D01*
X128047587Y-136010434D01*
X128093459Y-135944337D01*
X128166663Y-135905386D01*
X128211984Y-135900000D01*
X128277081Y-135910800D01*
G37*
X128277081Y-135910800D02*
X128367021Y-135939035D01*
X128456885Y-135976178D01*
X128643357Y-136047425D01*
X128870752Y-136105300D01*
X129141926Y-136150394D01*
X129455500Y-136182963D01*
X129708653Y-136197166D01*
X129926703Y-136195208D01*
X130123097Y-136175877D01*
X130311284Y-136137959D01*
X130471150Y-136091416D01*
X130578155Y-136058663D01*
X130651034Y-136043031D01*
X130702802Y-136042709D01*
X130741610Y-136053812D01*
X130811460Y-136107733D01*
X130850717Y-136189251D01*
X130851717Y-136280634D01*
X130846958Y-136297624D01*
X130799554Y-136364471D01*
X130707760Y-136425340D01*
X130577757Y-136479051D01*
X130415729Y-136524423D01*
X130227856Y-136560279D01*
X130020323Y-136585438D01*
X129799310Y-136598721D01*
X129571000Y-136598948D01*
X129341576Y-136584940D01*
X129341200Y-136584905D01*
X129108317Y-136556406D01*
X128879262Y-136516305D01*
X128662395Y-136466900D01*
X128466079Y-136410491D01*
X128298673Y-136349377D01*
X128168540Y-136285857D01*
X128110570Y-136246537D01*
X128052483Y-136174041D01*
X128032709Y-136091171D01*
X128047587Y-136010434D01*
X128093459Y-135944337D01*
X128166663Y-135905386D01*
X128211984Y-135900000D01*
X128277081Y-135910800D01*
G36*
X128772068Y-128805822D02*
G01*
X128835614Y-128813064D01*
X128880125Y-128826174D01*
X128916183Y-128846559D01*
X128926556Y-128854023D01*
X128984628Y-128922767D01*
X129008895Y-129007206D01*
X128996999Y-129090076D01*
X128965391Y-129138408D01*
X128938194Y-129158871D01*
X128898010Y-129173836D01*
X128835848Y-129184774D01*
X128742716Y-129193152D01*
X128609623Y-129200441D01*
X128576594Y-129201933D01*
X128368705Y-129215409D01*
X128196442Y-129237795D01*
X128044921Y-129272579D01*
X127899259Y-129323248D01*
X127744572Y-129393289D01*
X127730779Y-129400124D01*
X127502290Y-129531286D01*
X127282997Y-129690005D01*
X127079920Y-129869025D01*
X126900081Y-130061090D01*
X126750502Y-130258944D01*
X126638203Y-130455334D01*
X126587685Y-130581341D01*
X126536316Y-130690199D01*
X126468632Y-130751058D01*
X126384859Y-130763807D01*
X126288594Y-130730185D01*
X126220717Y-130669169D01*
X126192751Y-130581023D01*
X126204860Y-130465117D01*
X126257207Y-130320819D01*
X126349956Y-130147500D01*
X126483271Y-129944527D01*
X126497370Y-129924635D01*
X126693159Y-129686126D01*
X126927738Y-129460627D01*
X127189237Y-129257381D01*
X127465785Y-129085628D01*
X127741000Y-128956367D01*
X127935830Y-128887026D01*
X128112250Y-128841200D01*
X128291370Y-128814872D01*
X128494305Y-128804025D01*
X128545556Y-128803306D01*
X128678909Y-128803039D01*
X128772068Y-128805822D01*
G37*
X128772068Y-128805822D02*
X128835614Y-128813064D01*
X128880125Y-128826174D01*
X128916183Y-128846559D01*
X128926556Y-128854023D01*
X128984628Y-128922767D01*
X129008895Y-129007206D01*
X128996999Y-129090076D01*
X128965391Y-129138408D01*
X128938194Y-129158871D01*
X128898010Y-129173836D01*
X128835848Y-129184774D01*
X128742716Y-129193152D01*
X128609623Y-129200441D01*
X128576594Y-129201933D01*
X128368705Y-129215409D01*
X128196442Y-129237795D01*
X128044921Y-129272579D01*
X127899259Y-129323248D01*
X127744572Y-129393289D01*
X127730779Y-129400124D01*
X127502290Y-129531286D01*
X127282997Y-129690005D01*
X127079920Y-129869025D01*
X126900081Y-130061090D01*
X126750502Y-130258944D01*
X126638203Y-130455334D01*
X126587685Y-130581341D01*
X126536316Y-130690199D01*
X126468632Y-130751058D01*
X126384859Y-130763807D01*
X126288594Y-130730185D01*
X126220717Y-130669169D01*
X126192751Y-130581023D01*
X126204860Y-130465117D01*
X126257207Y-130320819D01*
X126349956Y-130147500D01*
X126483271Y-129944527D01*
X126497370Y-129924635D01*
X126693159Y-129686126D01*
X126927738Y-129460627D01*
X127189237Y-129257381D01*
X127465785Y-129085628D01*
X127741000Y-128956367D01*
X127935830Y-128887026D01*
X128112250Y-128841200D01*
X128291370Y-128814872D01*
X128494305Y-128804025D01*
X128545556Y-128803306D01*
X128678909Y-128803039D01*
X128772068Y-128805822D01*
D13*
X140070476Y-120542380D02*
X140070476Y-121256666D01*
X140022857Y-121399523D01*
X139927619Y-121494761D01*
X139784761Y-121542380D01*
X139689523Y-121542380D01*
X141070476Y-121542380D02*
X140499047Y-121542380D01*
X140784761Y-121542380D02*
X140784761Y-120542380D01*
X140689523Y-120685238D01*
X140594285Y-120780476D01*
X140499047Y-120828095D01*
X141689523Y-120542380D02*
X141784761Y-120542380D01*
X141880000Y-120590000D01*
X141927619Y-120637619D01*
X141975238Y-120732857D01*
X142022857Y-120923333D01*
X142022857Y-121161428D01*
X141975238Y-121351904D01*
X141927619Y-121447142D01*
X141880000Y-121494761D01*
X141784761Y-121542380D01*
X141689523Y-121542380D01*
X141594285Y-121494761D01*
X141546666Y-121447142D01*
X141499047Y-121351904D01*
X141451428Y-121161428D01*
X141451428Y-120923333D01*
X141499047Y-120732857D01*
X141546666Y-120637619D01*
X141594285Y-120590000D01*
X141689523Y-120542380D01*
X124028571Y-78404761D02*
X124076190Y-78261904D01*
X124123809Y-78214285D01*
X124219047Y-78166666D01*
X124361904Y-78166666D01*
X124457142Y-78214285D01*
X124504761Y-78261904D01*
X124552380Y-78357142D01*
X124552380Y-78738095D01*
X123552380Y-78738095D01*
X123552380Y-78404761D01*
X123600000Y-78309523D01*
X123647619Y-78261904D01*
X123742857Y-78214285D01*
X123838095Y-78214285D01*
X123933333Y-78261904D01*
X123980952Y-78309523D01*
X124028571Y-78404761D01*
X124028571Y-78738095D01*
X123647619Y-77785714D02*
X123600000Y-77738095D01*
X123552380Y-77642857D01*
X123552380Y-77404761D01*
X123600000Y-77309523D01*
X123647619Y-77261904D01*
X123742857Y-77214285D01*
X123838095Y-77214285D01*
X123980952Y-77261904D01*
X124552380Y-77833333D01*
X124552380Y-77214285D01*
X75476666Y-134474761D02*
X75619523Y-134522380D01*
X75857619Y-134522380D01*
X75952857Y-134474761D01*
X76000476Y-134427142D01*
X76048095Y-134331904D01*
X76048095Y-134236666D01*
X76000476Y-134141428D01*
X75952857Y-134093809D01*
X75857619Y-134046190D01*
X75667142Y-133998571D01*
X75571904Y-133950952D01*
X75524285Y-133903333D01*
X75476666Y-133808095D01*
X75476666Y-133712857D01*
X75524285Y-133617619D01*
X75571904Y-133570000D01*
X75667142Y-133522380D01*
X75905238Y-133522380D01*
X76048095Y-133570000D01*
X76381428Y-133522380D02*
X76619523Y-134522380D01*
X76810000Y-133808095D01*
X77000476Y-134522380D01*
X77238571Y-133522380D01*
X78095714Y-133522380D02*
X77619523Y-133522380D01*
X77571904Y-133998571D01*
X77619523Y-133950952D01*
X77714761Y-133903333D01*
X77952857Y-133903333D01*
X78048095Y-133950952D01*
X78095714Y-133998571D01*
X78143333Y-134093809D01*
X78143333Y-134331904D01*
X78095714Y-134427142D01*
X78048095Y-134474761D01*
X77952857Y-134522380D01*
X77714761Y-134522380D01*
X77619523Y-134474761D01*
X77571904Y-134427142D01*
X107961904Y-150202380D02*
X107961904Y-149202380D01*
X108200000Y-149202380D01*
X108342857Y-149250000D01*
X108438095Y-149345238D01*
X108485714Y-149440476D01*
X108533333Y-149630952D01*
X108533333Y-149773809D01*
X108485714Y-149964285D01*
X108438095Y-150059523D01*
X108342857Y-150154761D01*
X108200000Y-150202380D01*
X107961904Y-150202380D01*
X108914285Y-149297619D02*
X108961904Y-149250000D01*
X109057142Y-149202380D01*
X109295238Y-149202380D01*
X109390476Y-149250000D01*
X109438095Y-149297619D01*
X109485714Y-149392857D01*
X109485714Y-149488095D01*
X109438095Y-149630952D01*
X108866666Y-150202380D01*
X109485714Y-150202380D01*
X53061904Y-150202380D02*
X53061904Y-149202380D01*
X53300000Y-149202380D01*
X53442857Y-149250000D01*
X53538095Y-149345238D01*
X53585714Y-149440476D01*
X53633333Y-149630952D01*
X53633333Y-149773809D01*
X53585714Y-149964285D01*
X53538095Y-150059523D01*
X53442857Y-150154761D01*
X53300000Y-150202380D01*
X53061904Y-150202380D01*
X54585714Y-150202380D02*
X54014285Y-150202380D01*
X54300000Y-150202380D02*
X54300000Y-149202380D01*
X54204761Y-149345238D01*
X54109523Y-149440476D01*
X54014285Y-149488095D01*
X68086666Y-149254761D02*
X68229523Y-149302380D01*
X68467619Y-149302380D01*
X68562857Y-149254761D01*
X68610476Y-149207142D01*
X68658095Y-149111904D01*
X68658095Y-149016666D01*
X68610476Y-148921428D01*
X68562857Y-148873809D01*
X68467619Y-148826190D01*
X68277142Y-148778571D01*
X68181904Y-148730952D01*
X68134285Y-148683333D01*
X68086666Y-148588095D01*
X68086666Y-148492857D01*
X68134285Y-148397619D01*
X68181904Y-148350000D01*
X68277142Y-148302380D01*
X68515238Y-148302380D01*
X68658095Y-148350000D01*
X68991428Y-148302380D02*
X69229523Y-149302380D01*
X69420000Y-148588095D01*
X69610476Y-149302380D01*
X69848571Y-148302380D01*
X70753333Y-149302380D02*
X70181904Y-149302380D01*
X70467619Y-149302380D02*
X70467619Y-148302380D01*
X70372380Y-148445238D01*
X70277142Y-148540476D01*
X70181904Y-148588095D01*
X45338095Y-149702380D02*
X45909523Y-149702380D01*
X45623809Y-150702380D02*
X45623809Y-149702380D01*
X46242857Y-150702380D02*
X46242857Y-149702380D01*
X46623809Y-149702380D01*
X46719047Y-149750000D01*
X46766666Y-149797619D01*
X46814285Y-149892857D01*
X46814285Y-150035714D01*
X46766666Y-150130952D01*
X46719047Y-150178571D01*
X46623809Y-150226190D01*
X46242857Y-150226190D01*
X47766666Y-150702380D02*
X47195238Y-150702380D01*
X47480952Y-150702380D02*
X47480952Y-149702380D01*
X47385714Y-149845238D01*
X47290476Y-149940476D01*
X47195238Y-149988095D01*
X73688095Y-149852380D02*
X74259523Y-149852380D01*
X73973809Y-150852380D02*
X73973809Y-149852380D01*
X74592857Y-150852380D02*
X74592857Y-149852380D01*
X74973809Y-149852380D01*
X75069047Y-149900000D01*
X75116666Y-149947619D01*
X75164285Y-150042857D01*
X75164285Y-150185714D01*
X75116666Y-150280952D01*
X75069047Y-150328571D01*
X74973809Y-150376190D01*
X74592857Y-150376190D01*
X75545238Y-149947619D02*
X75592857Y-149900000D01*
X75688095Y-149852380D01*
X75926190Y-149852380D01*
X76021428Y-149900000D01*
X76069047Y-149947619D01*
X76116666Y-150042857D01*
X76116666Y-150138095D01*
X76069047Y-150280952D01*
X75497619Y-150852380D01*
X76116666Y-150852380D01*
X100058095Y-149652380D02*
X100629523Y-149652380D01*
X100343809Y-150652380D02*
X100343809Y-149652380D01*
X100962857Y-150652380D02*
X100962857Y-149652380D01*
X101343809Y-149652380D01*
X101439047Y-149700000D01*
X101486666Y-149747619D01*
X101534285Y-149842857D01*
X101534285Y-149985714D01*
X101486666Y-150080952D01*
X101439047Y-150128571D01*
X101343809Y-150176190D01*
X100962857Y-150176190D01*
X101867619Y-149652380D02*
X102486666Y-149652380D01*
X102153333Y-150033333D01*
X102296190Y-150033333D01*
X102391428Y-150080952D01*
X102439047Y-150128571D01*
X102486666Y-150223809D01*
X102486666Y-150461904D01*
X102439047Y-150557142D01*
X102391428Y-150604761D01*
X102296190Y-150652380D01*
X102010476Y-150652380D01*
X101915238Y-150604761D01*
X101867619Y-150557142D01*
X128658095Y-149652380D02*
X129229523Y-149652380D01*
X128943809Y-150652380D02*
X128943809Y-149652380D01*
X129562857Y-150652380D02*
X129562857Y-149652380D01*
X129943809Y-149652380D01*
X130039047Y-149700000D01*
X130086666Y-149747619D01*
X130134285Y-149842857D01*
X130134285Y-149985714D01*
X130086666Y-150080952D01*
X130039047Y-150128571D01*
X129943809Y-150176190D01*
X129562857Y-150176190D01*
X130991428Y-149985714D02*
X130991428Y-150652380D01*
X130753333Y-149604761D02*
X130515238Y-150319047D01*
X131134285Y-150319047D01*
X122836666Y-149344761D02*
X122979523Y-149392380D01*
X123217619Y-149392380D01*
X123312857Y-149344761D01*
X123360476Y-149297142D01*
X123408095Y-149201904D01*
X123408095Y-149106666D01*
X123360476Y-149011428D01*
X123312857Y-148963809D01*
X123217619Y-148916190D01*
X123027142Y-148868571D01*
X122931904Y-148820952D01*
X122884285Y-148773333D01*
X122836666Y-148678095D01*
X122836666Y-148582857D01*
X122884285Y-148487619D01*
X122931904Y-148440000D01*
X123027142Y-148392380D01*
X123265238Y-148392380D01*
X123408095Y-148440000D01*
X123741428Y-148392380D02*
X123979523Y-149392380D01*
X124170000Y-148678095D01*
X124360476Y-149392380D01*
X124598571Y-148392380D01*
X124931904Y-148487619D02*
X124979523Y-148440000D01*
X125074761Y-148392380D01*
X125312857Y-148392380D01*
X125408095Y-148440000D01*
X125455714Y-148487619D01*
X125503333Y-148582857D01*
X125503333Y-148678095D01*
X125455714Y-148820952D01*
X124884285Y-149392380D01*
X125503333Y-149392380D01*
X41945714Y-126582380D02*
X41945714Y-125582380D01*
X42183809Y-125582380D01*
X42326666Y-125630000D01*
X42421904Y-125725238D01*
X42469523Y-125820476D01*
X42517142Y-126010952D01*
X42517142Y-126153809D01*
X42469523Y-126344285D01*
X42421904Y-126439523D01*
X42326666Y-126534761D01*
X42183809Y-126582380D01*
X41945714Y-126582380D01*
X43469523Y-126582380D02*
X42898095Y-126582380D01*
X43183809Y-126582380D02*
X43183809Y-125582380D01*
X43088571Y-125725238D01*
X42993333Y-125820476D01*
X42898095Y-125868095D01*
X43802857Y-125582380D02*
X44421904Y-125582380D01*
X44088571Y-125963333D01*
X44231428Y-125963333D01*
X44326666Y-126010952D01*
X44374285Y-126058571D01*
X44421904Y-126153809D01*
X44421904Y-126391904D01*
X44374285Y-126487142D01*
X44326666Y-126534761D01*
X44231428Y-126582380D01*
X43945714Y-126582380D01*
X43850476Y-126534761D01*
X43802857Y-126487142D01*
X86435714Y-150202380D02*
X86435714Y-149202380D01*
X86673809Y-149202380D01*
X86816666Y-149250000D01*
X86911904Y-149345238D01*
X86959523Y-149440476D01*
X87007142Y-149630952D01*
X87007142Y-149773809D01*
X86959523Y-149964285D01*
X86911904Y-150059523D01*
X86816666Y-150154761D01*
X86673809Y-150202380D01*
X86435714Y-150202380D01*
X87959523Y-150202380D02*
X87388095Y-150202380D01*
X87673809Y-150202380D02*
X87673809Y-149202380D01*
X87578571Y-149345238D01*
X87483333Y-149440476D01*
X87388095Y-149488095D01*
X88578571Y-149202380D02*
X88673809Y-149202380D01*
X88769047Y-149250000D01*
X88816666Y-149297619D01*
X88864285Y-149392857D01*
X88911904Y-149583333D01*
X88911904Y-149821428D01*
X88864285Y-150011904D01*
X88816666Y-150107142D01*
X88769047Y-150154761D01*
X88673809Y-150202380D01*
X88578571Y-150202380D01*
X88483333Y-150154761D01*
X88435714Y-150107142D01*
X88388095Y-150011904D01*
X88340476Y-149821428D01*
X88340476Y-149583333D01*
X88388095Y-149392857D01*
X88435714Y-149297619D01*
X88483333Y-149250000D01*
X88578571Y-149202380D01*
X82461904Y-150202380D02*
X82461904Y-149202380D01*
X82700000Y-149202380D01*
X82842857Y-149250000D01*
X82938095Y-149345238D01*
X82985714Y-149440476D01*
X83033333Y-149630952D01*
X83033333Y-149773809D01*
X82985714Y-149964285D01*
X82938095Y-150059523D01*
X82842857Y-150154761D01*
X82700000Y-150202380D01*
X82461904Y-150202380D01*
X83366666Y-149202380D02*
X84033333Y-149202380D01*
X83604761Y-150202380D01*
X141135714Y-150202380D02*
X141135714Y-149202380D01*
X141373809Y-149202380D01*
X141516666Y-149250000D01*
X141611904Y-149345238D01*
X141659523Y-149440476D01*
X141707142Y-149630952D01*
X141707142Y-149773809D01*
X141659523Y-149964285D01*
X141611904Y-150059523D01*
X141516666Y-150154761D01*
X141373809Y-150202380D01*
X141135714Y-150202380D01*
X142659523Y-150202380D02*
X142088095Y-150202380D01*
X142373809Y-150202380D02*
X142373809Y-149202380D01*
X142278571Y-149345238D01*
X142183333Y-149440476D01*
X142088095Y-149488095D01*
X143611904Y-150202380D02*
X143040476Y-150202380D01*
X143326190Y-150202380D02*
X143326190Y-149202380D01*
X143230952Y-149345238D01*
X143135714Y-149440476D01*
X143040476Y-149488095D01*
X137161904Y-150202380D02*
X137161904Y-149202380D01*
X137400000Y-149202380D01*
X137542857Y-149250000D01*
X137638095Y-149345238D01*
X137685714Y-149440476D01*
X137733333Y-149630952D01*
X137733333Y-149773809D01*
X137685714Y-149964285D01*
X137638095Y-150059523D01*
X137542857Y-150154761D01*
X137400000Y-150202380D01*
X137161904Y-150202380D01*
X138304761Y-149630952D02*
X138209523Y-149583333D01*
X138161904Y-149535714D01*
X138114285Y-149440476D01*
X138114285Y-149392857D01*
X138161904Y-149297619D01*
X138209523Y-149250000D01*
X138304761Y-149202380D01*
X138495238Y-149202380D01*
X138590476Y-149250000D01*
X138638095Y-149297619D01*
X138685714Y-149392857D01*
X138685714Y-149440476D01*
X138638095Y-149535714D01*
X138590476Y-149583333D01*
X138495238Y-149630952D01*
X138304761Y-149630952D01*
X138209523Y-149678571D01*
X138161904Y-149726190D01*
X138114285Y-149821428D01*
X138114285Y-150011904D01*
X138161904Y-150107142D01*
X138209523Y-150154761D01*
X138304761Y-150202380D01*
X138495238Y-150202380D01*
X138590476Y-150154761D01*
X138638095Y-150107142D01*
X138685714Y-150011904D01*
X138685714Y-149821428D01*
X138638095Y-149726190D01*
X138590476Y-149678571D01*
X138495238Y-149630952D01*
X49366666Y-137952380D02*
X49366666Y-138666666D01*
X49319047Y-138809523D01*
X49223809Y-138904761D01*
X49080952Y-138952380D01*
X48985714Y-138952380D01*
X50366666Y-138952380D02*
X49795238Y-138952380D01*
X50080952Y-138952380D02*
X50080952Y-137952380D01*
X49985714Y-138095238D01*
X49890476Y-138190476D01*
X49795238Y-138238095D01*
X57911904Y-150202380D02*
X57911904Y-149202380D01*
X58150000Y-149202380D01*
X58292857Y-149250000D01*
X58388095Y-149345238D01*
X58435714Y-149440476D01*
X58483333Y-149630952D01*
X58483333Y-149773809D01*
X58435714Y-149964285D01*
X58388095Y-150059523D01*
X58292857Y-150154761D01*
X58150000Y-150202380D01*
X57911904Y-150202380D01*
X59340476Y-149535714D02*
X59340476Y-150202380D01*
X59102380Y-149154761D02*
X58864285Y-149869047D01*
X59483333Y-149869047D01*
X79316666Y-138052380D02*
X79316666Y-138766666D01*
X79269047Y-138909523D01*
X79173809Y-139004761D01*
X79030952Y-139052380D01*
X78935714Y-139052380D01*
X79745238Y-138147619D02*
X79792857Y-138100000D01*
X79888095Y-138052380D01*
X80126190Y-138052380D01*
X80221428Y-138100000D01*
X80269047Y-138147619D01*
X80316666Y-138242857D01*
X80316666Y-138338095D01*
X80269047Y-138480952D01*
X79697619Y-139052380D01*
X80316666Y-139052380D01*
X112861904Y-150202380D02*
X112861904Y-149202380D01*
X113100000Y-149202380D01*
X113242857Y-149250000D01*
X113338095Y-149345238D01*
X113385714Y-149440476D01*
X113433333Y-149630952D01*
X113433333Y-149773809D01*
X113385714Y-149964285D01*
X113338095Y-150059523D01*
X113242857Y-150154761D01*
X113100000Y-150202380D01*
X112861904Y-150202380D01*
X114338095Y-149202380D02*
X113861904Y-149202380D01*
X113814285Y-149678571D01*
X113861904Y-149630952D01*
X113957142Y-149583333D01*
X114195238Y-149583333D01*
X114290476Y-149630952D01*
X114338095Y-149678571D01*
X114385714Y-149773809D01*
X114385714Y-150011904D01*
X114338095Y-150107142D01*
X114290476Y-150154761D01*
X114195238Y-150202380D01*
X113957142Y-150202380D01*
X113861904Y-150154761D01*
X113814285Y-150107142D01*
X104366666Y-138102380D02*
X104366666Y-138816666D01*
X104319047Y-138959523D01*
X104223809Y-139054761D01*
X104080952Y-139102380D01*
X103985714Y-139102380D01*
X104747619Y-138102380D02*
X105366666Y-138102380D01*
X105033333Y-138483333D01*
X105176190Y-138483333D01*
X105271428Y-138530952D01*
X105319047Y-138578571D01*
X105366666Y-138673809D01*
X105366666Y-138911904D01*
X105319047Y-139007142D01*
X105271428Y-139054761D01*
X105176190Y-139102380D01*
X104890476Y-139102380D01*
X104795238Y-139054761D01*
X104747619Y-139007142D01*
X133716666Y-138052380D02*
X133716666Y-138766666D01*
X133669047Y-138909523D01*
X133573809Y-139004761D01*
X133430952Y-139052380D01*
X133335714Y-139052380D01*
X134621428Y-138385714D02*
X134621428Y-139052380D01*
X134383333Y-138004761D02*
X134145238Y-138719047D01*
X134764285Y-138719047D01*
X68178571Y-78404761D02*
X68226190Y-78261904D01*
X68273809Y-78214285D01*
X68369047Y-78166666D01*
X68511904Y-78166666D01*
X68607142Y-78214285D01*
X68654761Y-78261904D01*
X68702380Y-78357142D01*
X68702380Y-78738095D01*
X67702380Y-78738095D01*
X67702380Y-78404761D01*
X67750000Y-78309523D01*
X67797619Y-78261904D01*
X67892857Y-78214285D01*
X67988095Y-78214285D01*
X68083333Y-78261904D01*
X68130952Y-78309523D01*
X68178571Y-78404761D01*
X68178571Y-78738095D01*
X68702380Y-77214285D02*
X68702380Y-77785714D01*
X68702380Y-77500000D02*
X67702380Y-77500000D01*
X67845238Y-77595238D01*
X67940476Y-77690476D01*
X67988095Y-77785714D01*
X46788095Y-155902380D02*
X46788095Y-154902380D01*
X46788095Y-155378571D02*
X47359523Y-155378571D01*
X47359523Y-155902380D02*
X47359523Y-154902380D01*
X48359523Y-155902380D02*
X47788095Y-155902380D01*
X48073809Y-155902380D02*
X48073809Y-154902380D01*
X47978571Y-155045238D01*
X47883333Y-155140476D01*
X47788095Y-155188095D01*
X143238095Y-155902380D02*
X143238095Y-154902380D01*
X143238095Y-155378571D02*
X143809523Y-155378571D01*
X143809523Y-155902380D02*
X143809523Y-154902380D01*
X144238095Y-154997619D02*
X144285714Y-154950000D01*
X144380952Y-154902380D01*
X144619047Y-154902380D01*
X144714285Y-154950000D01*
X144761904Y-154997619D01*
X144809523Y-155092857D01*
X144809523Y-155188095D01*
X144761904Y-155330952D01*
X144190476Y-155902380D01*
X144809523Y-155902380D01*
X143288095Y-33502380D02*
X143288095Y-32502380D01*
X143288095Y-32978571D02*
X143859523Y-32978571D01*
X143859523Y-33502380D02*
X143859523Y-32502380D01*
X144240476Y-32502380D02*
X144859523Y-32502380D01*
X144526190Y-32883333D01*
X144669047Y-32883333D01*
X144764285Y-32930952D01*
X144811904Y-32978571D01*
X144859523Y-33073809D01*
X144859523Y-33311904D01*
X144811904Y-33407142D01*
X144764285Y-33454761D01*
X144669047Y-33502380D01*
X144383333Y-33502380D01*
X144288095Y-33454761D01*
X144240476Y-33407142D01*
X46738095Y-33452380D02*
X46738095Y-32452380D01*
X46738095Y-32928571D02*
X47309523Y-32928571D01*
X47309523Y-33452380D02*
X47309523Y-32452380D01*
X48214285Y-32785714D02*
X48214285Y-33452380D01*
X47976190Y-32404761D02*
X47738095Y-33119047D01*
X48357142Y-33119047D01*
X54238095Y-152202380D02*
X54809523Y-152202380D01*
X54523809Y-153202380D02*
X54523809Y-152202380D01*
X55142857Y-153202380D02*
X55142857Y-152202380D01*
X55523809Y-152202380D01*
X55619047Y-152250000D01*
X55666666Y-152297619D01*
X55714285Y-152392857D01*
X55714285Y-152535714D01*
X55666666Y-152630952D01*
X55619047Y-152678571D01*
X55523809Y-152726190D01*
X55142857Y-152726190D01*
X56047619Y-152202380D02*
X56714285Y-152202380D01*
X56285714Y-153202380D01*
X66238095Y-152202380D02*
X66809523Y-152202380D01*
X66523809Y-153202380D02*
X66523809Y-152202380D01*
X67142857Y-153202380D02*
X67142857Y-152202380D01*
X67523809Y-152202380D01*
X67619047Y-152250000D01*
X67666666Y-152297619D01*
X67714285Y-152392857D01*
X67714285Y-152535714D01*
X67666666Y-152630952D01*
X67619047Y-152678571D01*
X67523809Y-152726190D01*
X67142857Y-152726190D01*
X68285714Y-152630952D02*
X68190476Y-152583333D01*
X68142857Y-152535714D01*
X68095238Y-152440476D01*
X68095238Y-152392857D01*
X68142857Y-152297619D01*
X68190476Y-152250000D01*
X68285714Y-152202380D01*
X68476190Y-152202380D01*
X68571428Y-152250000D01*
X68619047Y-152297619D01*
X68666666Y-152392857D01*
X68666666Y-152440476D01*
X68619047Y-152535714D01*
X68571428Y-152583333D01*
X68476190Y-152630952D01*
X68285714Y-152630952D01*
X68190476Y-152678571D01*
X68142857Y-152726190D01*
X68095238Y-152821428D01*
X68095238Y-153011904D01*
X68142857Y-153107142D01*
X68190476Y-153154761D01*
X68285714Y-153202380D01*
X68476190Y-153202380D01*
X68571428Y-153154761D01*
X68619047Y-153107142D01*
X68666666Y-153011904D01*
X68666666Y-152821428D01*
X68619047Y-152726190D01*
X68571428Y-152678571D01*
X68476190Y-152630952D01*
X121738095Y-152202380D02*
X122309523Y-152202380D01*
X122023809Y-153202380D02*
X122023809Y-152202380D01*
X122642857Y-153202380D02*
X122642857Y-152202380D01*
X123023809Y-152202380D01*
X123119047Y-152250000D01*
X123166666Y-152297619D01*
X123214285Y-152392857D01*
X123214285Y-152535714D01*
X123166666Y-152630952D01*
X123119047Y-152678571D01*
X123023809Y-152726190D01*
X122642857Y-152726190D01*
X123690476Y-153202380D02*
X123880952Y-153202380D01*
X123976190Y-153154761D01*
X124023809Y-153107142D01*
X124119047Y-152964285D01*
X124166666Y-152773809D01*
X124166666Y-152392857D01*
X124119047Y-152297619D01*
X124071428Y-152250000D01*
X123976190Y-152202380D01*
X123785714Y-152202380D01*
X123690476Y-152250000D01*
X123642857Y-152297619D01*
X123595238Y-152392857D01*
X123595238Y-152630952D01*
X123642857Y-152726190D01*
X123690476Y-152773809D01*
X123785714Y-152821428D01*
X123976190Y-152821428D01*
X124071428Y-152773809D01*
X124119047Y-152726190D01*
X124166666Y-152630952D01*
X133261904Y-152202380D02*
X133833333Y-152202380D01*
X133547619Y-153202380D02*
X133547619Y-152202380D01*
X134166666Y-153202380D02*
X134166666Y-152202380D01*
X134547619Y-152202380D01*
X134642857Y-152250000D01*
X134690476Y-152297619D01*
X134738095Y-152392857D01*
X134738095Y-152535714D01*
X134690476Y-152630952D01*
X134642857Y-152678571D01*
X134547619Y-152726190D01*
X134166666Y-152726190D01*
X135690476Y-153202380D02*
X135119047Y-153202380D01*
X135404761Y-153202380D02*
X135404761Y-152202380D01*
X135309523Y-152345238D01*
X135214285Y-152440476D01*
X135119047Y-152488095D01*
X136309523Y-152202380D02*
X136404761Y-152202380D01*
X136500000Y-152250000D01*
X136547619Y-152297619D01*
X136595238Y-152392857D01*
X136642857Y-152583333D01*
X136642857Y-152821428D01*
X136595238Y-153011904D01*
X136547619Y-153107142D01*
X136500000Y-153154761D01*
X136404761Y-153202380D01*
X136309523Y-153202380D01*
X136214285Y-153154761D01*
X136166666Y-153107142D01*
X136119047Y-153011904D01*
X136071428Y-152821428D01*
X136071428Y-152583333D01*
X136119047Y-152392857D01*
X136166666Y-152297619D01*
X136214285Y-152250000D01*
X136309523Y-152202380D01*
X83406666Y-123692380D02*
X83406666Y-124406666D01*
X83359047Y-124549523D01*
X83263809Y-124644761D01*
X83120952Y-124692380D01*
X83025714Y-124692380D01*
X83930476Y-124692380D02*
X84120952Y-124692380D01*
X84216190Y-124644761D01*
X84263809Y-124597142D01*
X84359047Y-124454285D01*
X84406666Y-124263809D01*
X84406666Y-123882857D01*
X84359047Y-123787619D01*
X84311428Y-123740000D01*
X84216190Y-123692380D01*
X84025714Y-123692380D01*
X83930476Y-123740000D01*
X83882857Y-123787619D01*
X83835238Y-123882857D01*
X83835238Y-124120952D01*
X83882857Y-124216190D01*
X83930476Y-124263809D01*
X84025714Y-124311428D01*
X84216190Y-124311428D01*
X84311428Y-124263809D01*
X84359047Y-124216190D01*
X84406666Y-124120952D01*
M02*
