G04 #@! TF.GenerationSoftware,KiCad,Pcbnew,(6.0.1)*
G04 #@! TF.CreationDate,2022-02-18T20:40:05-08:00*
G04 #@! TF.ProjectId,PBJ EU,50424a20-4555-42e6-9b69-6361645f7063,4.9*
G04 #@! TF.SameCoordinates,Original*
G04 #@! TF.FileFunction,Legend,Bot*
G04 #@! TF.FilePolarity,Positive*
%FSLAX46Y46*%
G04 Gerber Fmt 4.6, Leading zero omitted, Abs format (unit mm)*
G04 Created by KiCad (PCBNEW (6.0.1)) date 2022-02-18 20:40:05*
%MOMM*%
%LPD*%
G01*
G04 APERTURE LIST*
%ADD10C,0.750000*%
%ADD11C,0.100000*%
%ADD12C,0.150000*%
%ADD13C,0.650000*%
%ADD14C,0.800000*%
%ADD15C,0.200000*%
%ADD16C,0.300000*%
%ADD17C,0.120000*%
%ADD18C,0.010000*%
G04 APERTURE END LIST*
D10*
X43070000Y-126210000D02*
X48070000Y-126210000D01*
D11*
X111404400Y-157276800D02*
X79248000Y-157327600D01*
X79248000Y-157327600D02*
X79248000Y-150723600D01*
X79248000Y-150723600D02*
X111404400Y-150672800D01*
X111404400Y-150672800D02*
X111404400Y-157276800D01*
G36*
X111404400Y-157276800D02*
G01*
X79248000Y-157327600D01*
X79248000Y-150723600D01*
X111404400Y-150672800D01*
X111404400Y-157276800D01*
G37*
X111404400Y-157276800D02*
X79248000Y-157327600D01*
X79248000Y-150723600D01*
X111404400Y-150672800D01*
X111404400Y-157276800D01*
D12*
X48987619Y-129779523D02*
X49987619Y-129779523D01*
X49987619Y-129398571D01*
X49940000Y-129303333D01*
X49892380Y-129255714D01*
X49797142Y-129208095D01*
X49654285Y-129208095D01*
X49559047Y-129255714D01*
X49511428Y-129303333D01*
X49463809Y-129398571D01*
X49463809Y-129779523D01*
X48987619Y-128779523D02*
X49654285Y-128779523D01*
X49987619Y-128779523D02*
X49940000Y-128827142D01*
X49892380Y-128779523D01*
X49940000Y-128731904D01*
X49987619Y-128779523D01*
X49892380Y-128779523D01*
X49654285Y-128303333D02*
X48987619Y-128303333D01*
X49559047Y-128303333D02*
X49606666Y-128255714D01*
X49654285Y-128160476D01*
X49654285Y-128017619D01*
X49606666Y-127922380D01*
X49511428Y-127874761D01*
X48987619Y-127874761D01*
X48987619Y-126112857D02*
X48987619Y-126684285D01*
X48987619Y-126398571D02*
X49987619Y-126398571D01*
X49844761Y-126493809D01*
X49749523Y-126589047D01*
X49701904Y-126684285D01*
D13*
X86484476Y-43364400D02*
X86865428Y-43173923D01*
X87436857Y-43173923D01*
X88008285Y-43364400D01*
X88389238Y-43745352D01*
X88579714Y-44126304D01*
X88770190Y-44888209D01*
X88770190Y-45459638D01*
X88579714Y-46221542D01*
X88389238Y-46602495D01*
X88008285Y-46983447D01*
X87436857Y-47173923D01*
X87055904Y-47173923D01*
X86484476Y-46983447D01*
X86294000Y-46792971D01*
X86294000Y-45459638D01*
X87055904Y-45459638D01*
X84579714Y-47173923D02*
X84579714Y-44507257D01*
X84579714Y-45269161D02*
X84389238Y-44888209D01*
X84198761Y-44697733D01*
X83817809Y-44507257D01*
X83436857Y-44507257D01*
X80579714Y-46983447D02*
X80960666Y-47173923D01*
X81722571Y-47173923D01*
X82103523Y-46983447D01*
X82294000Y-46602495D01*
X82294000Y-45078685D01*
X82103523Y-44697733D01*
X81722571Y-44507257D01*
X80960666Y-44507257D01*
X80579714Y-44697733D01*
X80389238Y-45078685D01*
X80389238Y-45459638D01*
X82294000Y-45840590D01*
X77151142Y-46983447D02*
X77532095Y-47173923D01*
X78294000Y-47173923D01*
X78674952Y-46983447D01*
X78865428Y-46602495D01*
X78865428Y-45078685D01*
X78674952Y-44697733D01*
X78294000Y-44507257D01*
X77532095Y-44507257D01*
X77151142Y-44697733D01*
X76960666Y-45078685D01*
X76960666Y-45459638D01*
X78865428Y-45840590D01*
X75246380Y-44507257D02*
X75246380Y-47173923D01*
X75246380Y-44888209D02*
X75055904Y-44697733D01*
X74674952Y-44507257D01*
X74103523Y-44507257D01*
X73722571Y-44697733D01*
X73532095Y-45078685D01*
X73532095Y-47173923D01*
X72198761Y-44507257D02*
X70674952Y-44507257D01*
X71627333Y-47173923D02*
X71627333Y-43745352D01*
X71436857Y-43364400D01*
X71055904Y-43173923D01*
X70674952Y-43173923D01*
X67627333Y-47173923D02*
X67627333Y-45078685D01*
X67817809Y-44697733D01*
X68198761Y-44507257D01*
X68960666Y-44507257D01*
X69341619Y-44697733D01*
X67627333Y-46983447D02*
X68008285Y-47173923D01*
X68960666Y-47173923D01*
X69341619Y-46983447D01*
X69532095Y-46602495D01*
X69532095Y-46221542D01*
X69341619Y-45840590D01*
X68960666Y-45650114D01*
X68008285Y-45650114D01*
X67627333Y-45459638D01*
X64008285Y-46983447D02*
X64389238Y-47173923D01*
X65151142Y-47173923D01*
X65532095Y-46983447D01*
X65722571Y-46792971D01*
X65913047Y-46412019D01*
X65913047Y-45269161D01*
X65722571Y-44888209D01*
X65532095Y-44697733D01*
X65151142Y-44507257D01*
X64389238Y-44507257D01*
X64008285Y-44697733D01*
X60770190Y-46983447D02*
X61151142Y-47173923D01*
X61913047Y-47173923D01*
X62294000Y-46983447D01*
X62484476Y-46602495D01*
X62484476Y-45078685D01*
X62294000Y-44697733D01*
X61913047Y-44507257D01*
X61151142Y-44507257D01*
X60770190Y-44697733D01*
X60579714Y-45078685D01*
X60579714Y-45459638D01*
X62484476Y-45840590D01*
X53913047Y-47173923D02*
X55817809Y-47173923D01*
X55817809Y-43173923D01*
X50865428Y-47173923D02*
X50865428Y-45078685D01*
X51055904Y-44697733D01*
X51436857Y-44507257D01*
X52198761Y-44507257D01*
X52579714Y-44697733D01*
X50865428Y-46983447D02*
X51246380Y-47173923D01*
X52198761Y-47173923D01*
X52579714Y-46983447D01*
X52770190Y-46602495D01*
X52770190Y-46221542D01*
X52579714Y-45840590D01*
X52198761Y-45650114D01*
X51246380Y-45650114D01*
X50865428Y-45459638D01*
X48960666Y-47173923D02*
X48960666Y-43173923D01*
X48960666Y-44697733D02*
X48579714Y-44507257D01*
X47817809Y-44507257D01*
X47436857Y-44697733D01*
X47246380Y-44888209D01*
X47055904Y-45269161D01*
X47055904Y-46412019D01*
X47246380Y-46792971D01*
X47436857Y-46983447D01*
X47817809Y-47173923D01*
X48579714Y-47173923D01*
X48960666Y-46983447D01*
X45532095Y-46983447D02*
X45151142Y-47173923D01*
X44389238Y-47173923D01*
X44008285Y-46983447D01*
X43817809Y-46602495D01*
X43817809Y-46412019D01*
X44008285Y-46031066D01*
X44389238Y-45840590D01*
X44960666Y-45840590D01*
X45341619Y-45650114D01*
X45532095Y-45269161D01*
X45532095Y-45078685D01*
X45341619Y-44697733D01*
X44960666Y-44507257D01*
X44389238Y-44507257D01*
X44008285Y-44697733D01*
D14*
X81294000Y-58899085D02*
X81294000Y-52899085D01*
X79008285Y-52899085D01*
X78436857Y-53184800D01*
X78151142Y-53470514D01*
X77865428Y-54041942D01*
X77865428Y-54899085D01*
X78151142Y-55470514D01*
X78436857Y-55756228D01*
X79008285Y-56041942D01*
X81294000Y-56041942D01*
X73294000Y-55756228D02*
X72436857Y-56041942D01*
X72151142Y-56327657D01*
X71865428Y-56899085D01*
X71865428Y-57756228D01*
X72151142Y-58327657D01*
X72436857Y-58613371D01*
X73008285Y-58899085D01*
X75294000Y-58899085D01*
X75294000Y-52899085D01*
X73294000Y-52899085D01*
X72722571Y-53184800D01*
X72436857Y-53470514D01*
X72151142Y-54041942D01*
X72151142Y-54613371D01*
X72436857Y-55184800D01*
X72722571Y-55470514D01*
X73294000Y-55756228D01*
X75294000Y-55756228D01*
X67579714Y-52899085D02*
X67579714Y-57184800D01*
X67865428Y-58041942D01*
X68436857Y-58613371D01*
X69294000Y-58899085D01*
X69865428Y-58899085D01*
X60151142Y-55756228D02*
X58151142Y-55756228D01*
X57294000Y-58899085D02*
X60151142Y-58899085D01*
X60151142Y-52899085D01*
X57294000Y-52899085D01*
X54722571Y-52899085D02*
X54722571Y-57756228D01*
X54436857Y-58327657D01*
X54151142Y-58613371D01*
X53579714Y-58899085D01*
X52436857Y-58899085D01*
X51865428Y-58613371D01*
X51579714Y-58327657D01*
X51294000Y-57756228D01*
X51294000Y-52899085D01*
D15*
X85562266Y-66592128D02*
X84728933Y-66592128D01*
X84371790Y-67901652D02*
X85562266Y-67901652D01*
X85562266Y-65401652D01*
X84371790Y-65401652D01*
X82228933Y-66234985D02*
X82228933Y-67901652D01*
X83300361Y-66234985D02*
X83300361Y-67544509D01*
X83181314Y-67782604D01*
X82943219Y-67901652D01*
X82586076Y-67901652D01*
X82347980Y-67782604D01*
X82228933Y-67663557D01*
X81038457Y-67901652D02*
X81038457Y-66234985D01*
X81038457Y-66711176D02*
X80919409Y-66473080D01*
X80800361Y-66354033D01*
X80562266Y-66234985D01*
X80324171Y-66234985D01*
X79133695Y-67901652D02*
X79371790Y-67782604D01*
X79490838Y-67663557D01*
X79609885Y-67425461D01*
X79609885Y-66711176D01*
X79490838Y-66473080D01*
X79371790Y-66354033D01*
X79133695Y-66234985D01*
X78776552Y-66234985D01*
X78538457Y-66354033D01*
X78419409Y-66473080D01*
X78300361Y-66711176D01*
X78300361Y-67425461D01*
X78419409Y-67663557D01*
X78538457Y-67782604D01*
X78776552Y-67901652D01*
X79133695Y-67901652D01*
X77228933Y-67901652D02*
X77228933Y-66234985D01*
X77228933Y-66711176D02*
X77109885Y-66473080D01*
X76990838Y-66354033D01*
X76752742Y-66234985D01*
X76514647Y-66234985D01*
X74609885Y-67901652D02*
X74609885Y-66592128D01*
X74728933Y-66354033D01*
X74967028Y-66234985D01*
X75443219Y-66234985D01*
X75681314Y-66354033D01*
X74609885Y-67782604D02*
X74847980Y-67901652D01*
X75443219Y-67901652D01*
X75681314Y-67782604D01*
X75800361Y-67544509D01*
X75800361Y-67306414D01*
X75681314Y-67068319D01*
X75443219Y-66949271D01*
X74847980Y-66949271D01*
X74609885Y-66830223D01*
X72347980Y-67782604D02*
X72586076Y-67901652D01*
X73062266Y-67901652D01*
X73300361Y-67782604D01*
X73419409Y-67663557D01*
X73538457Y-67425461D01*
X73538457Y-66711176D01*
X73419409Y-66473080D01*
X73300361Y-66354033D01*
X73062266Y-66234985D01*
X72586076Y-66234985D01*
X72347980Y-66354033D01*
X71276552Y-67901652D02*
X71276552Y-65401652D01*
X71038457Y-66949271D02*
X70324171Y-67901652D01*
X70324171Y-66234985D02*
X71276552Y-67187366D01*
X67467028Y-67782604D02*
X67109885Y-67901652D01*
X66514647Y-67901652D01*
X66276552Y-67782604D01*
X66157504Y-67663557D01*
X66038457Y-67425461D01*
X66038457Y-67187366D01*
X66157504Y-66949271D01*
X66276552Y-66830223D01*
X66514647Y-66711176D01*
X66990838Y-66592128D01*
X67228933Y-66473080D01*
X67347980Y-66354033D01*
X67467028Y-66115938D01*
X67467028Y-65877842D01*
X67347980Y-65639747D01*
X67228933Y-65520700D01*
X66990838Y-65401652D01*
X66395600Y-65401652D01*
X66038457Y-65520700D01*
X65205123Y-66234985D02*
X64609885Y-67901652D01*
X64014647Y-66234985D02*
X64609885Y-67901652D01*
X64847980Y-68496890D01*
X64967028Y-68615938D01*
X65205123Y-68734985D01*
X63062266Y-66234985D02*
X63062266Y-67901652D01*
X63062266Y-66473080D02*
X62943219Y-66354033D01*
X62705123Y-66234985D01*
X62347980Y-66234985D01*
X62109885Y-66354033D01*
X61990838Y-66592128D01*
X61990838Y-67901652D01*
X61157504Y-66234985D02*
X60205123Y-66234985D01*
X60800361Y-65401652D02*
X60800361Y-67544509D01*
X60681314Y-67782604D01*
X60443219Y-67901652D01*
X60205123Y-67901652D01*
X59371790Y-67901652D02*
X59371790Y-65401652D01*
X58300361Y-67901652D02*
X58300361Y-66592128D01*
X58419409Y-66354033D01*
X58657504Y-66234985D01*
X59014647Y-66234985D01*
X59252742Y-66354033D01*
X59371790Y-66473080D01*
X56157504Y-67782604D02*
X56395600Y-67901652D01*
X56871790Y-67901652D01*
X57109885Y-67782604D01*
X57228933Y-67544509D01*
X57228933Y-66592128D01*
X57109885Y-66354033D01*
X56871790Y-66234985D01*
X56395600Y-66234985D01*
X56157504Y-66354033D01*
X56038457Y-66592128D01*
X56038457Y-66830223D01*
X57228933Y-67068319D01*
X55086076Y-67782604D02*
X54847980Y-67901652D01*
X54371790Y-67901652D01*
X54133695Y-67782604D01*
X54014647Y-67544509D01*
X54014647Y-67425461D01*
X54133695Y-67187366D01*
X54371790Y-67068319D01*
X54728933Y-67068319D01*
X54967028Y-66949271D01*
X55086076Y-66711176D01*
X55086076Y-66592128D01*
X54967028Y-66354033D01*
X54728933Y-66234985D01*
X54371790Y-66234985D01*
X54133695Y-66354033D01*
X52943219Y-67901652D02*
X52943219Y-66234985D01*
X52943219Y-65401652D02*
X53062266Y-65520700D01*
X52943219Y-65639747D01*
X52824171Y-65520700D01*
X52943219Y-65401652D01*
X52943219Y-65639747D01*
X51990838Y-66234985D02*
X50681314Y-66234985D01*
X51990838Y-67901652D01*
X50681314Y-67901652D01*
X48776552Y-67782604D02*
X49014647Y-67901652D01*
X49490838Y-67901652D01*
X49728933Y-67782604D01*
X49847980Y-67544509D01*
X49847980Y-66592128D01*
X49728933Y-66354033D01*
X49490838Y-66234985D01*
X49014647Y-66234985D01*
X48776552Y-66354033D01*
X48657504Y-66592128D01*
X48657504Y-66830223D01*
X49847980Y-67068319D01*
X47586076Y-67901652D02*
X47586076Y-66234985D01*
X47586076Y-66711176D02*
X47467028Y-66473080D01*
X47347980Y-66354033D01*
X47109885Y-66234985D01*
X46871790Y-66234985D01*
X84014647Y-71926652D02*
X84014647Y-69426652D01*
X83062266Y-69426652D01*
X82824171Y-69545700D01*
X82705123Y-69664747D01*
X82586076Y-69902842D01*
X82586076Y-70259985D01*
X82705123Y-70498080D01*
X82824171Y-70617128D01*
X83062266Y-70736176D01*
X84014647Y-70736176D01*
X81514647Y-71926652D02*
X81514647Y-70259985D01*
X81514647Y-70736176D02*
X81395600Y-70498080D01*
X81276552Y-70379033D01*
X81038457Y-70259985D01*
X80800361Y-70259985D01*
X79609885Y-71926652D02*
X79847980Y-71807604D01*
X79967028Y-71688557D01*
X80086076Y-71450461D01*
X80086076Y-70736176D01*
X79967028Y-70498080D01*
X79847980Y-70379033D01*
X79609885Y-70259985D01*
X79252742Y-70259985D01*
X79014647Y-70379033D01*
X78895600Y-70498080D01*
X78776552Y-70736176D01*
X78776552Y-71450461D01*
X78895600Y-71688557D01*
X79014647Y-71807604D01*
X79252742Y-71926652D01*
X79609885Y-71926652D01*
X78062266Y-70259985D02*
X77109885Y-70259985D01*
X77705123Y-69426652D02*
X77705123Y-71569509D01*
X77586076Y-71807604D01*
X77347980Y-71926652D01*
X77109885Y-71926652D01*
X75919409Y-71926652D02*
X76157504Y-71807604D01*
X76276552Y-71688557D01*
X76395600Y-71450461D01*
X76395600Y-70736176D01*
X76276552Y-70498080D01*
X76157504Y-70379033D01*
X75919409Y-70259985D01*
X75562266Y-70259985D01*
X75324171Y-70379033D01*
X75205123Y-70498080D01*
X75086076Y-70736176D01*
X75086076Y-71450461D01*
X75205123Y-71688557D01*
X75324171Y-71807604D01*
X75562266Y-71926652D01*
X75919409Y-71926652D01*
X74371790Y-70259985D02*
X73419409Y-70259985D01*
X74014647Y-69426652D02*
X74014647Y-71569509D01*
X73895600Y-71807604D01*
X73657504Y-71926652D01*
X73419409Y-71926652D01*
X72824171Y-70259985D02*
X72228933Y-71926652D01*
X71633695Y-70259985D02*
X72228933Y-71926652D01*
X72467028Y-72521890D01*
X72586076Y-72640938D01*
X72824171Y-72759985D01*
X70681314Y-70259985D02*
X70681314Y-72759985D01*
X70681314Y-70379033D02*
X70443219Y-70259985D01*
X69967028Y-70259985D01*
X69728933Y-70379033D01*
X69609885Y-70498080D01*
X69490838Y-70736176D01*
X69490838Y-71450461D01*
X69609885Y-71688557D01*
X69728933Y-71807604D01*
X69967028Y-71926652D01*
X70443219Y-71926652D01*
X70681314Y-71807604D01*
X68419409Y-71926652D02*
X68419409Y-70259985D01*
X68419409Y-69426652D02*
X68538457Y-69545700D01*
X68419409Y-69664747D01*
X68300361Y-69545700D01*
X68419409Y-69426652D01*
X68419409Y-69664747D01*
X67228933Y-70259985D02*
X67228933Y-71926652D01*
X67228933Y-70498080D02*
X67109885Y-70379033D01*
X66871790Y-70259985D01*
X66514647Y-70259985D01*
X66276552Y-70379033D01*
X66157504Y-70617128D01*
X66157504Y-71926652D01*
X63895600Y-70259985D02*
X63895600Y-72283795D01*
X64014647Y-72521890D01*
X64133695Y-72640938D01*
X64371790Y-72759985D01*
X64728933Y-72759985D01*
X64967028Y-72640938D01*
X63895600Y-71807604D02*
X64133695Y-71926652D01*
X64609885Y-71926652D01*
X64847980Y-71807604D01*
X64967028Y-71688557D01*
X65086076Y-71450461D01*
X65086076Y-70736176D01*
X64967028Y-70498080D01*
X64847980Y-70379033D01*
X64609885Y-70259985D01*
X64133695Y-70259985D01*
X63895600Y-70379033D01*
X60919409Y-71807604D02*
X60562266Y-71926652D01*
X59967028Y-71926652D01*
X59728933Y-71807604D01*
X59609885Y-71688557D01*
X59490838Y-71450461D01*
X59490838Y-71212366D01*
X59609885Y-70974271D01*
X59728933Y-70855223D01*
X59967028Y-70736176D01*
X60443219Y-70617128D01*
X60681314Y-70498080D01*
X60800361Y-70379033D01*
X60919409Y-70140938D01*
X60919409Y-69902842D01*
X60800361Y-69664747D01*
X60681314Y-69545700D01*
X60443219Y-69426652D01*
X59847980Y-69426652D01*
X59490838Y-69545700D01*
X58657504Y-70259985D02*
X58062266Y-71926652D01*
X57467028Y-70259985D02*
X58062266Y-71926652D01*
X58300361Y-72521890D01*
X58419409Y-72640938D01*
X58657504Y-72759985D01*
X56633695Y-71807604D02*
X56395600Y-71926652D01*
X55919409Y-71926652D01*
X55681314Y-71807604D01*
X55562266Y-71569509D01*
X55562266Y-71450461D01*
X55681314Y-71212366D01*
X55919409Y-71093319D01*
X56276552Y-71093319D01*
X56514647Y-70974271D01*
X56633695Y-70736176D01*
X56633695Y-70617128D01*
X56514647Y-70379033D01*
X56276552Y-70259985D01*
X55919409Y-70259985D01*
X55681314Y-70379033D01*
X54847980Y-70259985D02*
X53895600Y-70259985D01*
X54490838Y-69426652D02*
X54490838Y-71569509D01*
X54371790Y-71807604D01*
X54133695Y-71926652D01*
X53895600Y-71926652D01*
X52109885Y-71807604D02*
X52347980Y-71926652D01*
X52824171Y-71926652D01*
X53062266Y-71807604D01*
X53181314Y-71569509D01*
X53181314Y-70617128D01*
X53062266Y-70379033D01*
X52824171Y-70259985D01*
X52347980Y-70259985D01*
X52109885Y-70379033D01*
X51990838Y-70617128D01*
X51990838Y-70855223D01*
X53181314Y-71093319D01*
X50919409Y-71926652D02*
X50919409Y-70259985D01*
X50919409Y-70498080D02*
X50800361Y-70379033D01*
X50562266Y-70259985D01*
X50205123Y-70259985D01*
X49967028Y-70379033D01*
X49847980Y-70617128D01*
X49847980Y-71926652D01*
X49847980Y-70617128D02*
X49728933Y-70379033D01*
X49490838Y-70259985D01*
X49133695Y-70259985D01*
X48895600Y-70379033D01*
X48776552Y-70617128D01*
X48776552Y-71926652D01*
D10*
X120379619Y-156151009D02*
X119665333Y-156389104D01*
X118474857Y-156389104D01*
X117998666Y-156151009D01*
X117760571Y-155912914D01*
X117522476Y-155436723D01*
X117522476Y-154960533D01*
X117760571Y-154484342D01*
X117998666Y-154246247D01*
X118474857Y-154008152D01*
X119427238Y-153770057D01*
X119903428Y-153531961D01*
X120141523Y-153293866D01*
X120379619Y-152817676D01*
X120379619Y-152341485D01*
X120141523Y-151865295D01*
X119903428Y-151627200D01*
X119427238Y-151389104D01*
X118236761Y-151389104D01*
X117522476Y-151627200D01*
X115379619Y-156389104D02*
X115379619Y-151389104D01*
X112522476Y-156389104D01*
X112522476Y-151389104D01*
D16*
X146203771Y-92739871D02*
X146203771Y-91239871D01*
X145346628Y-92739871D01*
X145346628Y-91239871D01*
X144418057Y-92739871D02*
X144560914Y-92668442D01*
X144632342Y-92597014D01*
X144703771Y-92454157D01*
X144703771Y-92025585D01*
X144632342Y-91882728D01*
X144560914Y-91811300D01*
X144418057Y-91739871D01*
X144203771Y-91739871D01*
X144060914Y-91811300D01*
X143989485Y-91882728D01*
X143918057Y-92025585D01*
X143918057Y-92454157D01*
X143989485Y-92597014D01*
X144060914Y-92668442D01*
X144203771Y-92739871D01*
X144418057Y-92739871D01*
X143489485Y-91739871D02*
X142918057Y-91739871D01*
X143275200Y-91239871D02*
X143275200Y-92525585D01*
X143203771Y-92668442D01*
X143060914Y-92739871D01*
X142918057Y-92739871D01*
X141846628Y-92668442D02*
X141989485Y-92739871D01*
X142275200Y-92739871D01*
X142418057Y-92668442D01*
X142489485Y-92525585D01*
X142489485Y-91954157D01*
X142418057Y-91811300D01*
X142275200Y-91739871D01*
X141989485Y-91739871D01*
X141846628Y-91811300D01*
X141775200Y-91954157D01*
X141775200Y-92097014D01*
X142489485Y-92239871D01*
X139989485Y-92739871D02*
X139989485Y-91739871D01*
X139989485Y-91239871D02*
X140060914Y-91311300D01*
X139989485Y-91382728D01*
X139918057Y-91311300D01*
X139989485Y-91239871D01*
X139989485Y-91382728D01*
X139275200Y-91739871D02*
X139275200Y-92739871D01*
X139275200Y-91882728D02*
X139203771Y-91811300D01*
X139060914Y-91739871D01*
X138846628Y-91739871D01*
X138703771Y-91811300D01*
X138632342Y-91954157D01*
X138632342Y-92739871D01*
X138060914Y-91739871D02*
X137703771Y-92739871D01*
X137346628Y-91739871D01*
X136203771Y-92668442D02*
X136346628Y-92739871D01*
X136632342Y-92739871D01*
X136775200Y-92668442D01*
X136846628Y-92525585D01*
X136846628Y-91954157D01*
X136775200Y-91811300D01*
X136632342Y-91739871D01*
X136346628Y-91739871D01*
X136203771Y-91811300D01*
X136132342Y-91954157D01*
X136132342Y-92097014D01*
X136846628Y-92239871D01*
X135489485Y-92739871D02*
X135489485Y-91739871D01*
X135489485Y-92025585D02*
X135418057Y-91882728D01*
X135346628Y-91811300D01*
X135203771Y-91739871D01*
X135060914Y-91739871D01*
X134775200Y-91739871D02*
X134203771Y-91739871D01*
X134560914Y-91239871D02*
X134560914Y-92525585D01*
X134489485Y-92668442D01*
X134346628Y-92739871D01*
X134203771Y-92739871D01*
X133132342Y-92668442D02*
X133275200Y-92739871D01*
X133560914Y-92739871D01*
X133703771Y-92668442D01*
X133775200Y-92525585D01*
X133775200Y-91954157D01*
X133703771Y-91811300D01*
X133560914Y-91739871D01*
X133275200Y-91739871D01*
X133132342Y-91811300D01*
X133060914Y-91954157D01*
X133060914Y-92097014D01*
X133775200Y-92239871D01*
X131775200Y-92739871D02*
X131775200Y-91239871D01*
X131775200Y-92668442D02*
X131918057Y-92739871D01*
X132203771Y-92739871D01*
X132346628Y-92668442D01*
X132418057Y-92597014D01*
X132489485Y-92454157D01*
X132489485Y-92025585D01*
X132418057Y-91882728D01*
X132346628Y-91811300D01*
X132203771Y-91739871D01*
X131918057Y-91739871D01*
X131775200Y-91811300D01*
X129703771Y-92739871D02*
X129846628Y-92668442D01*
X129918057Y-92597014D01*
X129989485Y-92454157D01*
X129989485Y-92025585D01*
X129918057Y-91882728D01*
X129846628Y-91811300D01*
X129703771Y-91739871D01*
X129489485Y-91739871D01*
X129346628Y-91811300D01*
X129275200Y-91882728D01*
X129203771Y-92025585D01*
X129203771Y-92454157D01*
X129275200Y-92597014D01*
X129346628Y-92668442D01*
X129489485Y-92739871D01*
X129703771Y-92739871D01*
X128560914Y-92739871D02*
X128560914Y-91739871D01*
X128560914Y-92025585D02*
X128489485Y-91882728D01*
X128418057Y-91811300D01*
X128275200Y-91739871D01*
X128132342Y-91739871D01*
X127632342Y-92739871D02*
X127632342Y-91739871D01*
X127632342Y-91239871D02*
X127703771Y-91311300D01*
X127632342Y-91382728D01*
X127560914Y-91311300D01*
X127632342Y-91239871D01*
X127632342Y-91382728D01*
X126346628Y-92668442D02*
X126489485Y-92739871D01*
X126775200Y-92739871D01*
X126918057Y-92668442D01*
X126989485Y-92525585D01*
X126989485Y-91954157D01*
X126918057Y-91811300D01*
X126775200Y-91739871D01*
X126489485Y-91739871D01*
X126346628Y-91811300D01*
X126275200Y-91954157D01*
X126275200Y-92097014D01*
X126989485Y-92239871D01*
X125632342Y-91739871D02*
X125632342Y-92739871D01*
X125632342Y-91882728D02*
X125560914Y-91811300D01*
X125418057Y-91739871D01*
X125203771Y-91739871D01*
X125060914Y-91811300D01*
X124989485Y-91954157D01*
X124989485Y-92739871D01*
X124489485Y-91739871D02*
X123918057Y-91739871D01*
X124275200Y-91239871D02*
X124275200Y-92525585D01*
X124203771Y-92668442D01*
X124060914Y-92739871D01*
X123918057Y-92739871D01*
X122775200Y-92739871D02*
X122775200Y-91954157D01*
X122846628Y-91811300D01*
X122989485Y-91739871D01*
X123275200Y-91739871D01*
X123418057Y-91811300D01*
X122775200Y-92668442D02*
X122918057Y-92739871D01*
X123275200Y-92739871D01*
X123418057Y-92668442D01*
X123489485Y-92525585D01*
X123489485Y-92382728D01*
X123418057Y-92239871D01*
X123275200Y-92168442D01*
X122918057Y-92168442D01*
X122775200Y-92097014D01*
X122275200Y-91739871D02*
X121703771Y-91739871D01*
X122060914Y-91239871D02*
X122060914Y-92525585D01*
X121989485Y-92668442D01*
X121846628Y-92739871D01*
X121703771Y-92739871D01*
X121203771Y-92739871D02*
X121203771Y-91739871D01*
X121203771Y-91239871D02*
X121275200Y-91311300D01*
X121203771Y-91382728D01*
X121132342Y-91311300D01*
X121203771Y-91239871D01*
X121203771Y-91382728D01*
X120275200Y-92739871D02*
X120418057Y-92668442D01*
X120489485Y-92597014D01*
X120560914Y-92454157D01*
X120560914Y-92025585D01*
X120489485Y-91882728D01*
X120418057Y-91811300D01*
X120275200Y-91739871D01*
X120060914Y-91739871D01*
X119918057Y-91811300D01*
X119846628Y-91882728D01*
X119775200Y-92025585D01*
X119775200Y-92454157D01*
X119846628Y-92597014D01*
X119918057Y-92668442D01*
X120060914Y-92739871D01*
X120275200Y-92739871D01*
X119132342Y-91739871D02*
X119132342Y-92739871D01*
X119132342Y-91882728D02*
X119060914Y-91811300D01*
X118918057Y-91739871D01*
X118703771Y-91739871D01*
X118560914Y-91811300D01*
X118489485Y-91954157D01*
X118489485Y-92739871D01*
X137953771Y-95154871D02*
X138096628Y-95083442D01*
X138168057Y-95012014D01*
X138239485Y-94869157D01*
X138239485Y-94440585D01*
X138168057Y-94297728D01*
X138096628Y-94226300D01*
X137953771Y-94154871D01*
X137739485Y-94154871D01*
X137596628Y-94226300D01*
X137525200Y-94297728D01*
X137453771Y-94440585D01*
X137453771Y-94869157D01*
X137525200Y-95012014D01*
X137596628Y-95083442D01*
X137739485Y-95154871D01*
X137953771Y-95154871D01*
X137025200Y-94154871D02*
X136453771Y-94154871D01*
X136810914Y-95154871D02*
X136810914Y-93869157D01*
X136739485Y-93726300D01*
X136596628Y-93654871D01*
X136453771Y-93654871D01*
X134810914Y-93654871D02*
X134810914Y-94869157D01*
X134739485Y-95012014D01*
X134668057Y-95083442D01*
X134525200Y-95154871D01*
X134239485Y-95154871D01*
X134096628Y-95083442D01*
X134025200Y-95012014D01*
X133953771Y-94869157D01*
X133953771Y-93654871D01*
X132453771Y-95154871D02*
X133310914Y-95154871D01*
X132882342Y-95154871D02*
X132882342Y-93654871D01*
X133025200Y-93869157D01*
X133168057Y-94012014D01*
X133310914Y-94083442D01*
X129453771Y-95154871D02*
X129525200Y-95154871D01*
X129668057Y-95083442D01*
X129882342Y-94869157D01*
X130239485Y-94440585D01*
X130382342Y-94226300D01*
X130453771Y-94012014D01*
X130453771Y-93869157D01*
X130382342Y-93726300D01*
X130239485Y-93654871D01*
X130168057Y-93654871D01*
X130025200Y-93726300D01*
X129953771Y-93869157D01*
X129953771Y-93940585D01*
X130025200Y-94083442D01*
X130096628Y-94154871D01*
X130525200Y-94440585D01*
X130596628Y-94512014D01*
X130668057Y-94654871D01*
X130668057Y-94869157D01*
X130596628Y-95012014D01*
X130525200Y-95083442D01*
X130382342Y-95154871D01*
X130168057Y-95154871D01*
X130025200Y-95083442D01*
X129953771Y-95012014D01*
X129739485Y-94726300D01*
X129668057Y-94512014D01*
X129668057Y-94369157D01*
X127668057Y-93654871D02*
X127668057Y-94869157D01*
X127596628Y-95012014D01*
X127525200Y-95083442D01*
X127382342Y-95154871D01*
X127096628Y-95154871D01*
X126953771Y-95083442D01*
X126882342Y-95012014D01*
X126810914Y-94869157D01*
X126810914Y-93654871D01*
X126168057Y-93797728D02*
X126096628Y-93726300D01*
X125953771Y-93654871D01*
X125596628Y-93654871D01*
X125453771Y-93726300D01*
X125382342Y-93797728D01*
X125310914Y-93940585D01*
X125310914Y-94083442D01*
X125382342Y-94297728D01*
X126239485Y-95154871D01*
X125310914Y-95154871D01*
D12*
X79019066Y-81018342D02*
X79066685Y-81065961D01*
X79209542Y-81113580D01*
X79304780Y-81113580D01*
X79447638Y-81065961D01*
X79542876Y-80970723D01*
X79590495Y-80875485D01*
X79638114Y-80685009D01*
X79638114Y-80542152D01*
X79590495Y-80351676D01*
X79542876Y-80256438D01*
X79447638Y-80161200D01*
X79304780Y-80113580D01*
X79209542Y-80113580D01*
X79066685Y-80161200D01*
X79019066Y-80208819D01*
X78066685Y-81113580D02*
X78638114Y-81113580D01*
X78352400Y-81113580D02*
X78352400Y-80113580D01*
X78447638Y-80256438D01*
X78542876Y-80351676D01*
X78638114Y-80399295D01*
X43322380Y-112207142D02*
X42846190Y-111873809D01*
X43322380Y-111635714D02*
X42322380Y-111635714D01*
X42322380Y-112016666D01*
X42370000Y-112111904D01*
X42417619Y-112159523D01*
X42512857Y-112207142D01*
X42655714Y-112207142D01*
X42750952Y-112159523D01*
X42798571Y-112111904D01*
X42846190Y-112016666D01*
X42846190Y-111635714D01*
X42655714Y-113064285D02*
X43322380Y-113064285D01*
X42274761Y-112826190D02*
X42989047Y-112588095D01*
X42989047Y-113207142D01*
X42322380Y-113492857D02*
X42322380Y-114111904D01*
X42703333Y-113778571D01*
X42703333Y-113921428D01*
X42750952Y-114016666D01*
X42798571Y-114064285D01*
X42893809Y-114111904D01*
X43131904Y-114111904D01*
X43227142Y-114064285D01*
X43274761Y-114016666D01*
X43322380Y-113921428D01*
X43322380Y-113635714D01*
X43274761Y-113540476D01*
X43227142Y-113492857D01*
X69081904Y-108902380D02*
X69081904Y-109711904D01*
X69034285Y-109807142D01*
X68986666Y-109854761D01*
X68891428Y-109902380D01*
X68700952Y-109902380D01*
X68605714Y-109854761D01*
X68558095Y-109807142D01*
X68510476Y-109711904D01*
X68510476Y-108902380D01*
X67510476Y-109902380D02*
X68081904Y-109902380D01*
X67796190Y-109902380D02*
X67796190Y-108902380D01*
X67891428Y-109045238D01*
X67986666Y-109140476D01*
X68081904Y-109188095D01*
X80302857Y-111202380D02*
X80636190Y-110726190D01*
X80874285Y-111202380D02*
X80874285Y-110202380D01*
X80493333Y-110202380D01*
X80398095Y-110250000D01*
X80350476Y-110297619D01*
X80302857Y-110392857D01*
X80302857Y-110535714D01*
X80350476Y-110630952D01*
X80398095Y-110678571D01*
X80493333Y-110726190D01*
X80874285Y-110726190D01*
X79445714Y-110535714D02*
X79445714Y-111202380D01*
X79683809Y-110154761D02*
X79921904Y-110869047D01*
X79302857Y-110869047D01*
X79017142Y-110202380D02*
X78350476Y-110202380D01*
X78779047Y-111202380D01*
X82462857Y-117492380D02*
X82796190Y-117016190D01*
X83034285Y-117492380D02*
X83034285Y-116492380D01*
X82653333Y-116492380D01*
X82558095Y-116540000D01*
X82510476Y-116587619D01*
X82462857Y-116682857D01*
X82462857Y-116825714D01*
X82510476Y-116920952D01*
X82558095Y-116968571D01*
X82653333Y-117016190D01*
X83034285Y-117016190D01*
X81605714Y-116825714D02*
X81605714Y-117492380D01*
X81843809Y-116444761D02*
X82081904Y-117159047D01*
X81462857Y-117159047D01*
X80653333Y-116825714D02*
X80653333Y-117492380D01*
X80891428Y-116444761D02*
X81129523Y-117159047D01*
X80510476Y-117159047D01*
X80332857Y-108122380D02*
X80666190Y-107646190D01*
X80904285Y-108122380D02*
X80904285Y-107122380D01*
X80523333Y-107122380D01*
X80428095Y-107170000D01*
X80380476Y-107217619D01*
X80332857Y-107312857D01*
X80332857Y-107455714D01*
X80380476Y-107550952D01*
X80428095Y-107598571D01*
X80523333Y-107646190D01*
X80904285Y-107646190D01*
X79999523Y-107122380D02*
X79380476Y-107122380D01*
X79713809Y-107503333D01*
X79570952Y-107503333D01*
X79475714Y-107550952D01*
X79428095Y-107598571D01*
X79380476Y-107693809D01*
X79380476Y-107931904D01*
X79428095Y-108027142D01*
X79475714Y-108074761D01*
X79570952Y-108122380D01*
X79856666Y-108122380D01*
X79951904Y-108074761D01*
X79999523Y-108027142D01*
X79047142Y-107122380D02*
X78380476Y-107122380D01*
X78809047Y-108122380D01*
X57682857Y-117482380D02*
X58016190Y-117006190D01*
X58254285Y-117482380D02*
X58254285Y-116482380D01*
X57873333Y-116482380D01*
X57778095Y-116530000D01*
X57730476Y-116577619D01*
X57682857Y-116672857D01*
X57682857Y-116815714D01*
X57730476Y-116910952D01*
X57778095Y-116958571D01*
X57873333Y-117006190D01*
X58254285Y-117006190D01*
X57301904Y-116577619D02*
X57254285Y-116530000D01*
X57159047Y-116482380D01*
X56920952Y-116482380D01*
X56825714Y-116530000D01*
X56778095Y-116577619D01*
X56730476Y-116672857D01*
X56730476Y-116768095D01*
X56778095Y-116910952D01*
X57349523Y-117482380D01*
X56730476Y-117482380D01*
X56349523Y-116577619D02*
X56301904Y-116530000D01*
X56206666Y-116482380D01*
X55968571Y-116482380D01*
X55873333Y-116530000D01*
X55825714Y-116577619D01*
X55778095Y-116672857D01*
X55778095Y-116768095D01*
X55825714Y-116910952D01*
X56397142Y-117482380D01*
X55778095Y-117482380D01*
X57842857Y-107852380D02*
X58176190Y-107376190D01*
X58414285Y-107852380D02*
X58414285Y-106852380D01*
X58033333Y-106852380D01*
X57938095Y-106900000D01*
X57890476Y-106947619D01*
X57842857Y-107042857D01*
X57842857Y-107185714D01*
X57890476Y-107280952D01*
X57938095Y-107328571D01*
X58033333Y-107376190D01*
X58414285Y-107376190D01*
X56890476Y-107852380D02*
X57461904Y-107852380D01*
X57176190Y-107852380D02*
X57176190Y-106852380D01*
X57271428Y-106995238D01*
X57366666Y-107090476D01*
X57461904Y-107138095D01*
X56033333Y-106852380D02*
X56223809Y-106852380D01*
X56319047Y-106900000D01*
X56366666Y-106947619D01*
X56461904Y-107090476D01*
X56509523Y-107280952D01*
X56509523Y-107661904D01*
X56461904Y-107757142D01*
X56414285Y-107804761D01*
X56319047Y-107852380D01*
X56128571Y-107852380D01*
X56033333Y-107804761D01*
X55985714Y-107757142D01*
X55938095Y-107661904D01*
X55938095Y-107423809D01*
X55985714Y-107328571D01*
X56033333Y-107280952D01*
X56128571Y-107233333D01*
X56319047Y-107233333D01*
X56414285Y-107280952D01*
X56461904Y-107328571D01*
X56509523Y-107423809D01*
X57296666Y-114392380D02*
X57630000Y-113916190D01*
X57868095Y-114392380D02*
X57868095Y-113392380D01*
X57487142Y-113392380D01*
X57391904Y-113440000D01*
X57344285Y-113487619D01*
X57296666Y-113582857D01*
X57296666Y-113725714D01*
X57344285Y-113820952D01*
X57391904Y-113868571D01*
X57487142Y-113916190D01*
X57868095Y-113916190D01*
X56963333Y-113392380D02*
X56296666Y-113392380D01*
X56725238Y-114392380D01*
X70162857Y-117582380D02*
X70496190Y-117106190D01*
X70734285Y-117582380D02*
X70734285Y-116582380D01*
X70353333Y-116582380D01*
X70258095Y-116630000D01*
X70210476Y-116677619D01*
X70162857Y-116772857D01*
X70162857Y-116915714D01*
X70210476Y-117010952D01*
X70258095Y-117058571D01*
X70353333Y-117106190D01*
X70734285Y-117106190D01*
X69210476Y-117582380D02*
X69781904Y-117582380D01*
X69496190Y-117582380D02*
X69496190Y-116582380D01*
X69591428Y-116725238D01*
X69686666Y-116820476D01*
X69781904Y-116868095D01*
X68734285Y-117582380D02*
X68543809Y-117582380D01*
X68448571Y-117534761D01*
X68400952Y-117487142D01*
X68305714Y-117344285D01*
X68258095Y-117153809D01*
X68258095Y-116772857D01*
X68305714Y-116677619D01*
X68353333Y-116630000D01*
X68448571Y-116582380D01*
X68639047Y-116582380D01*
X68734285Y-116630000D01*
X68781904Y-116677619D01*
X68829523Y-116772857D01*
X68829523Y-117010952D01*
X68781904Y-117106190D01*
X68734285Y-117153809D01*
X68639047Y-117201428D01*
X68448571Y-117201428D01*
X68353333Y-117153809D01*
X68305714Y-117106190D01*
X68258095Y-117010952D01*
X57842857Y-104852380D02*
X58176190Y-104376190D01*
X58414285Y-104852380D02*
X58414285Y-103852380D01*
X58033333Y-103852380D01*
X57938095Y-103900000D01*
X57890476Y-103947619D01*
X57842857Y-104042857D01*
X57842857Y-104185714D01*
X57890476Y-104280952D01*
X57938095Y-104328571D01*
X58033333Y-104376190D01*
X58414285Y-104376190D01*
X56890476Y-104852380D02*
X57461904Y-104852380D01*
X57176190Y-104852380D02*
X57176190Y-103852380D01*
X57271428Y-103995238D01*
X57366666Y-104090476D01*
X57461904Y-104138095D01*
X56271428Y-103852380D02*
X56176190Y-103852380D01*
X56080952Y-103900000D01*
X56033333Y-103947619D01*
X55985714Y-104042857D01*
X55938095Y-104233333D01*
X55938095Y-104471428D01*
X55985714Y-104661904D01*
X56033333Y-104757142D01*
X56080952Y-104804761D01*
X56176190Y-104852380D01*
X56271428Y-104852380D01*
X56366666Y-104804761D01*
X56414285Y-104757142D01*
X56461904Y-104661904D01*
X56509523Y-104471428D01*
X56509523Y-104233333D01*
X56461904Y-104042857D01*
X56414285Y-103947619D01*
X56366666Y-103900000D01*
X56271428Y-103852380D01*
X57882857Y-111162380D02*
X58216190Y-110686190D01*
X58454285Y-111162380D02*
X58454285Y-110162380D01*
X58073333Y-110162380D01*
X57978095Y-110210000D01*
X57930476Y-110257619D01*
X57882857Y-110352857D01*
X57882857Y-110495714D01*
X57930476Y-110590952D01*
X57978095Y-110638571D01*
X58073333Y-110686190D01*
X58454285Y-110686190D01*
X56930476Y-111162380D02*
X57501904Y-111162380D01*
X57216190Y-111162380D02*
X57216190Y-110162380D01*
X57311428Y-110305238D01*
X57406666Y-110400476D01*
X57501904Y-110448095D01*
X56597142Y-110162380D02*
X55978095Y-110162380D01*
X56311428Y-110543333D01*
X56168571Y-110543333D01*
X56073333Y-110590952D01*
X56025714Y-110638571D01*
X55978095Y-110733809D01*
X55978095Y-110971904D01*
X56025714Y-111067142D01*
X56073333Y-111114761D01*
X56168571Y-111162380D01*
X56454285Y-111162380D01*
X56549523Y-111114761D01*
X56597142Y-111067142D01*
X124066666Y-113507142D02*
X124114285Y-113554761D01*
X124257142Y-113602380D01*
X124352380Y-113602380D01*
X124495238Y-113554761D01*
X124590476Y-113459523D01*
X124638095Y-113364285D01*
X124685714Y-113173809D01*
X124685714Y-113030952D01*
X124638095Y-112840476D01*
X124590476Y-112745238D01*
X124495238Y-112650000D01*
X124352380Y-112602380D01*
X124257142Y-112602380D01*
X124114285Y-112650000D01*
X124066666Y-112697619D01*
X123209523Y-112602380D02*
X123400000Y-112602380D01*
X123495238Y-112650000D01*
X123542857Y-112697619D01*
X123638095Y-112840476D01*
X123685714Y-113030952D01*
X123685714Y-113411904D01*
X123638095Y-113507142D01*
X123590476Y-113554761D01*
X123495238Y-113602380D01*
X123304761Y-113602380D01*
X123209523Y-113554761D01*
X123161904Y-113507142D01*
X123114285Y-113411904D01*
X123114285Y-113173809D01*
X123161904Y-113078571D01*
X123209523Y-113030952D01*
X123304761Y-112983333D01*
X123495238Y-112983333D01*
X123590476Y-113030952D01*
X123638095Y-113078571D01*
X123685714Y-113173809D01*
X68466666Y-113607142D02*
X68514285Y-113654761D01*
X68657142Y-113702380D01*
X68752380Y-113702380D01*
X68895238Y-113654761D01*
X68990476Y-113559523D01*
X69038095Y-113464285D01*
X69085714Y-113273809D01*
X69085714Y-113130952D01*
X69038095Y-112940476D01*
X68990476Y-112845238D01*
X68895238Y-112750000D01*
X68752380Y-112702380D01*
X68657142Y-112702380D01*
X68514285Y-112750000D01*
X68466666Y-112797619D01*
X67609523Y-113035714D02*
X67609523Y-113702380D01*
X67847619Y-112654761D02*
X68085714Y-113369047D01*
X67466666Y-113369047D01*
X124166666Y-100057142D02*
X124214285Y-100104761D01*
X124357142Y-100152380D01*
X124452380Y-100152380D01*
X124595238Y-100104761D01*
X124690476Y-100009523D01*
X124738095Y-99914285D01*
X124785714Y-99723809D01*
X124785714Y-99580952D01*
X124738095Y-99390476D01*
X124690476Y-99295238D01*
X124595238Y-99200000D01*
X124452380Y-99152380D01*
X124357142Y-99152380D01*
X124214285Y-99200000D01*
X124166666Y-99247619D01*
X123833333Y-99152380D02*
X123166666Y-99152380D01*
X123595238Y-100152380D01*
X135852857Y-111172380D02*
X136186190Y-110696190D01*
X136424285Y-111172380D02*
X136424285Y-110172380D01*
X136043333Y-110172380D01*
X135948095Y-110220000D01*
X135900476Y-110267619D01*
X135852857Y-110362857D01*
X135852857Y-110505714D01*
X135900476Y-110600952D01*
X135948095Y-110648571D01*
X136043333Y-110696190D01*
X136424285Y-110696190D01*
X134995714Y-110505714D02*
X134995714Y-111172380D01*
X135233809Y-110124761D02*
X135471904Y-110839047D01*
X134852857Y-110839047D01*
X134329047Y-110600952D02*
X134424285Y-110553333D01*
X134471904Y-110505714D01*
X134519523Y-110410476D01*
X134519523Y-110362857D01*
X134471904Y-110267619D01*
X134424285Y-110220000D01*
X134329047Y-110172380D01*
X134138571Y-110172380D01*
X134043333Y-110220000D01*
X133995714Y-110267619D01*
X133948095Y-110362857D01*
X133948095Y-110410476D01*
X133995714Y-110505714D01*
X134043333Y-110553333D01*
X134138571Y-110600952D01*
X134329047Y-110600952D01*
X134424285Y-110648571D01*
X134471904Y-110696190D01*
X134519523Y-110791428D01*
X134519523Y-110981904D01*
X134471904Y-111077142D01*
X134424285Y-111124761D01*
X134329047Y-111172380D01*
X134138571Y-111172380D01*
X134043333Y-111124761D01*
X133995714Y-111077142D01*
X133948095Y-110981904D01*
X133948095Y-110791428D01*
X133995714Y-110696190D01*
X134043333Y-110648571D01*
X134138571Y-110600952D01*
X138202857Y-117342380D02*
X138536190Y-116866190D01*
X138774285Y-117342380D02*
X138774285Y-116342380D01*
X138393333Y-116342380D01*
X138298095Y-116390000D01*
X138250476Y-116437619D01*
X138202857Y-116532857D01*
X138202857Y-116675714D01*
X138250476Y-116770952D01*
X138298095Y-116818571D01*
X138393333Y-116866190D01*
X138774285Y-116866190D01*
X137345714Y-116675714D02*
X137345714Y-117342380D01*
X137583809Y-116294761D02*
X137821904Y-117009047D01*
X137202857Y-117009047D01*
X136345714Y-116342380D02*
X136821904Y-116342380D01*
X136869523Y-116818571D01*
X136821904Y-116770952D01*
X136726666Y-116723333D01*
X136488571Y-116723333D01*
X136393333Y-116770952D01*
X136345714Y-116818571D01*
X136298095Y-116913809D01*
X136298095Y-117151904D01*
X136345714Y-117247142D01*
X136393333Y-117294761D01*
X136488571Y-117342380D01*
X136726666Y-117342380D01*
X136821904Y-117294761D01*
X136869523Y-117247142D01*
X135822857Y-114272380D02*
X136156190Y-113796190D01*
X136394285Y-114272380D02*
X136394285Y-113272380D01*
X136013333Y-113272380D01*
X135918095Y-113320000D01*
X135870476Y-113367619D01*
X135822857Y-113462857D01*
X135822857Y-113605714D01*
X135870476Y-113700952D01*
X135918095Y-113748571D01*
X136013333Y-113796190D01*
X136394285Y-113796190D01*
X135489523Y-113272380D02*
X134870476Y-113272380D01*
X135203809Y-113653333D01*
X135060952Y-113653333D01*
X134965714Y-113700952D01*
X134918095Y-113748571D01*
X134870476Y-113843809D01*
X134870476Y-114081904D01*
X134918095Y-114177142D01*
X134965714Y-114224761D01*
X135060952Y-114272380D01*
X135346666Y-114272380D01*
X135441904Y-114224761D01*
X135489523Y-114177142D01*
X134489523Y-113367619D02*
X134441904Y-113320000D01*
X134346666Y-113272380D01*
X134108571Y-113272380D01*
X134013333Y-113320000D01*
X133965714Y-113367619D01*
X133918095Y-113462857D01*
X133918095Y-113558095D01*
X133965714Y-113700952D01*
X134537142Y-114272380D01*
X133918095Y-114272380D01*
X112996666Y-114252380D02*
X113330000Y-113776190D01*
X113568095Y-114252380D02*
X113568095Y-113252380D01*
X113187142Y-113252380D01*
X113091904Y-113300000D01*
X113044285Y-113347619D01*
X112996666Y-113442857D01*
X112996666Y-113585714D01*
X113044285Y-113680952D01*
X113091904Y-113728571D01*
X113187142Y-113776190D01*
X113568095Y-113776190D01*
X112425238Y-113680952D02*
X112520476Y-113633333D01*
X112568095Y-113585714D01*
X112615714Y-113490476D01*
X112615714Y-113442857D01*
X112568095Y-113347619D01*
X112520476Y-113300000D01*
X112425238Y-113252380D01*
X112234761Y-113252380D01*
X112139523Y-113300000D01*
X112091904Y-113347619D01*
X112044285Y-113442857D01*
X112044285Y-113490476D01*
X112091904Y-113585714D01*
X112139523Y-113633333D01*
X112234761Y-113680952D01*
X112425238Y-113680952D01*
X112520476Y-113728571D01*
X112568095Y-113776190D01*
X112615714Y-113871428D01*
X112615714Y-114061904D01*
X112568095Y-114157142D01*
X112520476Y-114204761D01*
X112425238Y-114252380D01*
X112234761Y-114252380D01*
X112139523Y-114204761D01*
X112091904Y-114157142D01*
X112044285Y-114061904D01*
X112044285Y-113871428D01*
X112091904Y-113776190D01*
X112139523Y-113728571D01*
X112234761Y-113680952D01*
X135872857Y-108262380D02*
X136206190Y-107786190D01*
X136444285Y-108262380D02*
X136444285Y-107262380D01*
X136063333Y-107262380D01*
X135968095Y-107310000D01*
X135920476Y-107357619D01*
X135872857Y-107452857D01*
X135872857Y-107595714D01*
X135920476Y-107690952D01*
X135968095Y-107738571D01*
X136063333Y-107786190D01*
X136444285Y-107786190D01*
X135539523Y-107262380D02*
X134920476Y-107262380D01*
X135253809Y-107643333D01*
X135110952Y-107643333D01*
X135015714Y-107690952D01*
X134968095Y-107738571D01*
X134920476Y-107833809D01*
X134920476Y-108071904D01*
X134968095Y-108167142D01*
X135015714Y-108214761D01*
X135110952Y-108262380D01*
X135396666Y-108262380D01*
X135491904Y-108214761D01*
X135539523Y-108167142D01*
X134349047Y-107690952D02*
X134444285Y-107643333D01*
X134491904Y-107595714D01*
X134539523Y-107500476D01*
X134539523Y-107452857D01*
X134491904Y-107357619D01*
X134444285Y-107310000D01*
X134349047Y-107262380D01*
X134158571Y-107262380D01*
X134063333Y-107310000D01*
X134015714Y-107357619D01*
X133968095Y-107452857D01*
X133968095Y-107500476D01*
X134015714Y-107595714D01*
X134063333Y-107643333D01*
X134158571Y-107690952D01*
X134349047Y-107690952D01*
X134444285Y-107738571D01*
X134491904Y-107786190D01*
X134539523Y-107881428D01*
X134539523Y-108071904D01*
X134491904Y-108167142D01*
X134444285Y-108214761D01*
X134349047Y-108262380D01*
X134158571Y-108262380D01*
X134063333Y-108214761D01*
X134015714Y-108167142D01*
X133968095Y-108071904D01*
X133968095Y-107881428D01*
X134015714Y-107786190D01*
X134063333Y-107738571D01*
X134158571Y-107690952D01*
X113372857Y-111222380D02*
X113706190Y-110746190D01*
X113944285Y-111222380D02*
X113944285Y-110222380D01*
X113563333Y-110222380D01*
X113468095Y-110270000D01*
X113420476Y-110317619D01*
X113372857Y-110412857D01*
X113372857Y-110555714D01*
X113420476Y-110650952D01*
X113468095Y-110698571D01*
X113563333Y-110746190D01*
X113944285Y-110746190D01*
X112420476Y-111222380D02*
X112991904Y-111222380D01*
X112706190Y-111222380D02*
X112706190Y-110222380D01*
X112801428Y-110365238D01*
X112896666Y-110460476D01*
X112991904Y-110508095D01*
X111563333Y-110555714D02*
X111563333Y-111222380D01*
X111801428Y-110174761D02*
X112039523Y-110889047D01*
X111420476Y-110889047D01*
X113352857Y-117342380D02*
X113686190Y-116866190D01*
X113924285Y-117342380D02*
X113924285Y-116342380D01*
X113543333Y-116342380D01*
X113448095Y-116390000D01*
X113400476Y-116437619D01*
X113352857Y-116532857D01*
X113352857Y-116675714D01*
X113400476Y-116770952D01*
X113448095Y-116818571D01*
X113543333Y-116866190D01*
X113924285Y-116866190D01*
X112971904Y-116437619D02*
X112924285Y-116390000D01*
X112829047Y-116342380D01*
X112590952Y-116342380D01*
X112495714Y-116390000D01*
X112448095Y-116437619D01*
X112400476Y-116532857D01*
X112400476Y-116628095D01*
X112448095Y-116770952D01*
X113019523Y-117342380D01*
X112400476Y-117342380D01*
X112067142Y-116342380D02*
X111448095Y-116342380D01*
X111781428Y-116723333D01*
X111638571Y-116723333D01*
X111543333Y-116770952D01*
X111495714Y-116818571D01*
X111448095Y-116913809D01*
X111448095Y-117151904D01*
X111495714Y-117247142D01*
X111543333Y-117294761D01*
X111638571Y-117342380D01*
X111924285Y-117342380D01*
X112019523Y-117294761D01*
X112067142Y-117247142D01*
X125862857Y-117492380D02*
X126196190Y-117016190D01*
X126434285Y-117492380D02*
X126434285Y-116492380D01*
X126053333Y-116492380D01*
X125958095Y-116540000D01*
X125910476Y-116587619D01*
X125862857Y-116682857D01*
X125862857Y-116825714D01*
X125910476Y-116920952D01*
X125958095Y-116968571D01*
X126053333Y-117016190D01*
X126434285Y-117016190D01*
X125481904Y-116587619D02*
X125434285Y-116540000D01*
X125339047Y-116492380D01*
X125100952Y-116492380D01*
X125005714Y-116540000D01*
X124958095Y-116587619D01*
X124910476Y-116682857D01*
X124910476Y-116778095D01*
X124958095Y-116920952D01*
X125529523Y-117492380D01*
X124910476Y-117492380D01*
X124291428Y-116492380D02*
X124196190Y-116492380D01*
X124100952Y-116540000D01*
X124053333Y-116587619D01*
X124005714Y-116682857D01*
X123958095Y-116873333D01*
X123958095Y-117111428D01*
X124005714Y-117301904D01*
X124053333Y-117397142D01*
X124100952Y-117444761D01*
X124196190Y-117492380D01*
X124291428Y-117492380D01*
X124386666Y-117444761D01*
X124434285Y-117397142D01*
X124481904Y-117301904D01*
X124529523Y-117111428D01*
X124529523Y-116873333D01*
X124481904Y-116682857D01*
X124434285Y-116587619D01*
X124386666Y-116540000D01*
X124291428Y-116492380D01*
X78968266Y-98036342D02*
X79015885Y-98083961D01*
X79158742Y-98131580D01*
X79253980Y-98131580D01*
X79396838Y-98083961D01*
X79492076Y-97988723D01*
X79539695Y-97893485D01*
X79587314Y-97703009D01*
X79587314Y-97560152D01*
X79539695Y-97369676D01*
X79492076Y-97274438D01*
X79396838Y-97179200D01*
X79253980Y-97131580D01*
X79158742Y-97131580D01*
X79015885Y-97179200D01*
X78968266Y-97226819D01*
X78587314Y-97226819D02*
X78539695Y-97179200D01*
X78444457Y-97131580D01*
X78206361Y-97131580D01*
X78111123Y-97179200D01*
X78063504Y-97226819D01*
X78015885Y-97322057D01*
X78015885Y-97417295D01*
X78063504Y-97560152D01*
X78634933Y-98131580D01*
X78015885Y-98131580D01*
X80432857Y-114282380D02*
X80766190Y-113806190D01*
X81004285Y-114282380D02*
X81004285Y-113282380D01*
X80623333Y-113282380D01*
X80528095Y-113330000D01*
X80480476Y-113377619D01*
X80432857Y-113472857D01*
X80432857Y-113615714D01*
X80480476Y-113710952D01*
X80528095Y-113758571D01*
X80623333Y-113806190D01*
X81004285Y-113806190D01*
X80099523Y-113282380D02*
X79480476Y-113282380D01*
X79813809Y-113663333D01*
X79670952Y-113663333D01*
X79575714Y-113710952D01*
X79528095Y-113758571D01*
X79480476Y-113853809D01*
X79480476Y-114091904D01*
X79528095Y-114187142D01*
X79575714Y-114234761D01*
X79670952Y-114282380D01*
X79956666Y-114282380D01*
X80051904Y-114234761D01*
X80099523Y-114187142D01*
X78528095Y-114282380D02*
X79099523Y-114282380D01*
X78813809Y-114282380D02*
X78813809Y-113282380D01*
X78909047Y-113425238D01*
X79004285Y-113520476D01*
X79099523Y-113568095D01*
X124911904Y-108952380D02*
X124911904Y-109761904D01*
X124864285Y-109857142D01*
X124816666Y-109904761D01*
X124721428Y-109952380D01*
X124530952Y-109952380D01*
X124435714Y-109904761D01*
X124388095Y-109857142D01*
X124340476Y-109761904D01*
X124340476Y-108952380D01*
X123911904Y-109047619D02*
X123864285Y-109000000D01*
X123769047Y-108952380D01*
X123530952Y-108952380D01*
X123435714Y-109000000D01*
X123388095Y-109047619D01*
X123340476Y-109142857D01*
X123340476Y-109238095D01*
X123388095Y-109380952D01*
X123959523Y-109952380D01*
X123340476Y-109952380D01*
X68666666Y-99907142D02*
X68714285Y-99954761D01*
X68857142Y-100002380D01*
X68952380Y-100002380D01*
X69095238Y-99954761D01*
X69190476Y-99859523D01*
X69238095Y-99764285D01*
X69285714Y-99573809D01*
X69285714Y-99430952D01*
X69238095Y-99240476D01*
X69190476Y-99145238D01*
X69095238Y-99050000D01*
X68952380Y-99002380D01*
X68857142Y-99002380D01*
X68714285Y-99050000D01*
X68666666Y-99097619D01*
X67761904Y-99002380D02*
X68238095Y-99002380D01*
X68285714Y-99478571D01*
X68238095Y-99430952D01*
X68142857Y-99383333D01*
X67904761Y-99383333D01*
X67809523Y-99430952D01*
X67761904Y-99478571D01*
X67714285Y-99573809D01*
X67714285Y-99811904D01*
X67761904Y-99907142D01*
X67809523Y-99954761D01*
X67904761Y-100002380D01*
X68142857Y-100002380D01*
X68238095Y-99954761D01*
X68285714Y-99907142D01*
X41873333Y-133712380D02*
X41873333Y-134426666D01*
X41920952Y-134569523D01*
X42016190Y-134664761D01*
X42159047Y-134712380D01*
X42254285Y-134712380D01*
X41492380Y-133712380D02*
X40825714Y-133712380D01*
X41254285Y-134712380D01*
X113482857Y-104982380D02*
X113816190Y-104506190D01*
X114054285Y-104982380D02*
X114054285Y-103982380D01*
X113673333Y-103982380D01*
X113578095Y-104030000D01*
X113530476Y-104077619D01*
X113482857Y-104172857D01*
X113482857Y-104315714D01*
X113530476Y-104410952D01*
X113578095Y-104458571D01*
X113673333Y-104506190D01*
X114054285Y-104506190D01*
X112530476Y-104982380D02*
X113101904Y-104982380D01*
X112816190Y-104982380D02*
X112816190Y-103982380D01*
X112911428Y-104125238D01*
X113006666Y-104220476D01*
X113101904Y-104268095D01*
X111578095Y-104982380D02*
X112149523Y-104982380D01*
X111863809Y-104982380D02*
X111863809Y-103982380D01*
X111959047Y-104125238D01*
X112054285Y-104220476D01*
X112149523Y-104268095D01*
X113562857Y-108112380D02*
X113896190Y-107636190D01*
X114134285Y-108112380D02*
X114134285Y-107112380D01*
X113753333Y-107112380D01*
X113658095Y-107160000D01*
X113610476Y-107207619D01*
X113562857Y-107302857D01*
X113562857Y-107445714D01*
X113610476Y-107540952D01*
X113658095Y-107588571D01*
X113753333Y-107636190D01*
X114134285Y-107636190D01*
X112610476Y-108112380D02*
X113181904Y-108112380D01*
X112896190Y-108112380D02*
X112896190Y-107112380D01*
X112991428Y-107255238D01*
X113086666Y-107350476D01*
X113181904Y-107398095D01*
X112277142Y-107112380D02*
X111610476Y-107112380D01*
X112039047Y-108112380D01*
X135822857Y-104982380D02*
X136156190Y-104506190D01*
X136394285Y-104982380D02*
X136394285Y-103982380D01*
X136013333Y-103982380D01*
X135918095Y-104030000D01*
X135870476Y-104077619D01*
X135822857Y-104172857D01*
X135822857Y-104315714D01*
X135870476Y-104410952D01*
X135918095Y-104458571D01*
X136013333Y-104506190D01*
X136394285Y-104506190D01*
X135489523Y-103982380D02*
X134870476Y-103982380D01*
X135203809Y-104363333D01*
X135060952Y-104363333D01*
X134965714Y-104410952D01*
X134918095Y-104458571D01*
X134870476Y-104553809D01*
X134870476Y-104791904D01*
X134918095Y-104887142D01*
X134965714Y-104934761D01*
X135060952Y-104982380D01*
X135346666Y-104982380D01*
X135441904Y-104934761D01*
X135489523Y-104887142D01*
X133965714Y-103982380D02*
X134441904Y-103982380D01*
X134489523Y-104458571D01*
X134441904Y-104410952D01*
X134346666Y-104363333D01*
X134108571Y-104363333D01*
X134013333Y-104410952D01*
X133965714Y-104458571D01*
X133918095Y-104553809D01*
X133918095Y-104791904D01*
X133965714Y-104887142D01*
X134013333Y-104934761D01*
X134108571Y-104982380D01*
X134346666Y-104982380D01*
X134441904Y-104934761D01*
X134489523Y-104887142D01*
X80432857Y-101892380D02*
X80766190Y-101416190D01*
X81004285Y-101892380D02*
X81004285Y-100892380D01*
X80623333Y-100892380D01*
X80528095Y-100940000D01*
X80480476Y-100987619D01*
X80432857Y-101082857D01*
X80432857Y-101225714D01*
X80480476Y-101320952D01*
X80528095Y-101368571D01*
X80623333Y-101416190D01*
X81004285Y-101416190D01*
X79575714Y-101225714D02*
X79575714Y-101892380D01*
X79813809Y-100844761D02*
X80051904Y-101559047D01*
X79432857Y-101559047D01*
X78861428Y-100892380D02*
X78766190Y-100892380D01*
X78670952Y-100940000D01*
X78623333Y-100987619D01*
X78575714Y-101082857D01*
X78528095Y-101273333D01*
X78528095Y-101511428D01*
X78575714Y-101701904D01*
X78623333Y-101797142D01*
X78670952Y-101844761D01*
X78766190Y-101892380D01*
X78861428Y-101892380D01*
X78956666Y-101844761D01*
X79004285Y-101797142D01*
X79051904Y-101701904D01*
X79099523Y-101511428D01*
X79099523Y-101273333D01*
X79051904Y-101082857D01*
X79004285Y-100987619D01*
X78956666Y-100940000D01*
X78861428Y-100892380D01*
X80392857Y-105002380D02*
X80726190Y-104526190D01*
X80964285Y-105002380D02*
X80964285Y-104002380D01*
X80583333Y-104002380D01*
X80488095Y-104050000D01*
X80440476Y-104097619D01*
X80392857Y-104192857D01*
X80392857Y-104335714D01*
X80440476Y-104430952D01*
X80488095Y-104478571D01*
X80583333Y-104526190D01*
X80964285Y-104526190D01*
X80059523Y-104002380D02*
X79440476Y-104002380D01*
X79773809Y-104383333D01*
X79630952Y-104383333D01*
X79535714Y-104430952D01*
X79488095Y-104478571D01*
X79440476Y-104573809D01*
X79440476Y-104811904D01*
X79488095Y-104907142D01*
X79535714Y-104954761D01*
X79630952Y-105002380D01*
X79916666Y-105002380D01*
X80011904Y-104954761D01*
X80059523Y-104907142D01*
X78583333Y-104335714D02*
X78583333Y-105002380D01*
X78821428Y-103954761D02*
X79059523Y-104669047D01*
X78440476Y-104669047D01*
X135842857Y-101882380D02*
X136176190Y-101406190D01*
X136414285Y-101882380D02*
X136414285Y-100882380D01*
X136033333Y-100882380D01*
X135938095Y-100930000D01*
X135890476Y-100977619D01*
X135842857Y-101072857D01*
X135842857Y-101215714D01*
X135890476Y-101310952D01*
X135938095Y-101358571D01*
X136033333Y-101406190D01*
X136414285Y-101406190D01*
X134985714Y-101215714D02*
X134985714Y-101882380D01*
X135223809Y-100834761D02*
X135461904Y-101549047D01*
X134842857Y-101549047D01*
X133938095Y-101882380D02*
X134509523Y-101882380D01*
X134223809Y-101882380D02*
X134223809Y-100882380D01*
X134319047Y-101025238D01*
X134414285Y-101120476D01*
X134509523Y-101168095D01*
X57316666Y-98496380D02*
X57650000Y-98020190D01*
X57888095Y-98496380D02*
X57888095Y-97496380D01*
X57507142Y-97496380D01*
X57411904Y-97544000D01*
X57364285Y-97591619D01*
X57316666Y-97686857D01*
X57316666Y-97829714D01*
X57364285Y-97924952D01*
X57411904Y-97972571D01*
X57507142Y-98020190D01*
X57888095Y-98020190D01*
X56364285Y-98496380D02*
X56935714Y-98496380D01*
X56650000Y-98496380D02*
X56650000Y-97496380D01*
X56745238Y-97639238D01*
X56840476Y-97734476D01*
X56935714Y-97782095D01*
X112942666Y-98496380D02*
X113276000Y-98020190D01*
X113514095Y-98496380D02*
X113514095Y-97496380D01*
X113133142Y-97496380D01*
X113037904Y-97544000D01*
X112990285Y-97591619D01*
X112942666Y-97686857D01*
X112942666Y-97829714D01*
X112990285Y-97924952D01*
X113037904Y-97972571D01*
X113133142Y-98020190D01*
X113514095Y-98020190D01*
X112561714Y-97591619D02*
X112514095Y-97544000D01*
X112418857Y-97496380D01*
X112180761Y-97496380D01*
X112085523Y-97544000D01*
X112037904Y-97591619D01*
X111990285Y-97686857D01*
X111990285Y-97782095D01*
X112037904Y-97924952D01*
X112609333Y-98496380D01*
X111990285Y-98496380D01*
X57316666Y-101798380D02*
X57650000Y-101322190D01*
X57888095Y-101798380D02*
X57888095Y-100798380D01*
X57507142Y-100798380D01*
X57411904Y-100846000D01*
X57364285Y-100893619D01*
X57316666Y-100988857D01*
X57316666Y-101131714D01*
X57364285Y-101226952D01*
X57411904Y-101274571D01*
X57507142Y-101322190D01*
X57888095Y-101322190D01*
X56983333Y-100798380D02*
X56364285Y-100798380D01*
X56697619Y-101179333D01*
X56554761Y-101179333D01*
X56459523Y-101226952D01*
X56411904Y-101274571D01*
X56364285Y-101369809D01*
X56364285Y-101607904D01*
X56411904Y-101703142D01*
X56459523Y-101750761D01*
X56554761Y-101798380D01*
X56840476Y-101798380D01*
X56935714Y-101750761D01*
X56983333Y-101703142D01*
X112942666Y-101798380D02*
X113276000Y-101322190D01*
X113514095Y-101798380D02*
X113514095Y-100798380D01*
X113133142Y-100798380D01*
X113037904Y-100846000D01*
X112990285Y-100893619D01*
X112942666Y-100988857D01*
X112942666Y-101131714D01*
X112990285Y-101226952D01*
X113037904Y-101274571D01*
X113133142Y-101322190D01*
X113514095Y-101322190D01*
X112085523Y-101131714D02*
X112085523Y-101798380D01*
X112323619Y-100750761D02*
X112561714Y-101465047D01*
X111942666Y-101465047D01*
X78968266Y-85309542D02*
X79015885Y-85357161D01*
X79158742Y-85404780D01*
X79253980Y-85404780D01*
X79396838Y-85357161D01*
X79492076Y-85261923D01*
X79539695Y-85166685D01*
X79587314Y-84976209D01*
X79587314Y-84833352D01*
X79539695Y-84642876D01*
X79492076Y-84547638D01*
X79396838Y-84452400D01*
X79253980Y-84404780D01*
X79158742Y-84404780D01*
X79015885Y-84452400D01*
X78968266Y-84500019D01*
X78634933Y-84404780D02*
X78015885Y-84404780D01*
X78349219Y-84785733D01*
X78206361Y-84785733D01*
X78111123Y-84833352D01*
X78063504Y-84880971D01*
X78015885Y-84976209D01*
X78015885Y-85214304D01*
X78063504Y-85309542D01*
X78111123Y-85357161D01*
X78206361Y-85404780D01*
X78492076Y-85404780D01*
X78587314Y-85357161D01*
X78634933Y-85309542D01*
X78968266Y-90389542D02*
X79015885Y-90437161D01*
X79158742Y-90484780D01*
X79253980Y-90484780D01*
X79396838Y-90437161D01*
X79492076Y-90341923D01*
X79539695Y-90246685D01*
X79587314Y-90056209D01*
X79587314Y-89913352D01*
X79539695Y-89722876D01*
X79492076Y-89627638D01*
X79396838Y-89532400D01*
X79253980Y-89484780D01*
X79158742Y-89484780D01*
X79015885Y-89532400D01*
X78968266Y-89580019D01*
X78396838Y-89913352D02*
X78492076Y-89865733D01*
X78539695Y-89818114D01*
X78587314Y-89722876D01*
X78587314Y-89675257D01*
X78539695Y-89580019D01*
X78492076Y-89532400D01*
X78396838Y-89484780D01*
X78206361Y-89484780D01*
X78111123Y-89532400D01*
X78063504Y-89580019D01*
X78015885Y-89675257D01*
X78015885Y-89722876D01*
X78063504Y-89818114D01*
X78111123Y-89865733D01*
X78206361Y-89913352D01*
X78396838Y-89913352D01*
X78492076Y-89960971D01*
X78539695Y-90008590D01*
X78587314Y-90103828D01*
X78587314Y-90294304D01*
X78539695Y-90389542D01*
X78492076Y-90437161D01*
X78396838Y-90484780D01*
X78206361Y-90484780D01*
X78111123Y-90437161D01*
X78063504Y-90389542D01*
X78015885Y-90294304D01*
X78015885Y-90103828D01*
X78063504Y-90008590D01*
X78111123Y-89960971D01*
X78206361Y-89913352D01*
X67369180Y-84480495D02*
X68178704Y-84480495D01*
X68273942Y-84528114D01*
X68321561Y-84575733D01*
X68369180Y-84670971D01*
X68369180Y-84861447D01*
X68321561Y-84956685D01*
X68273942Y-85004304D01*
X68178704Y-85051923D01*
X67369180Y-85051923D01*
X67369180Y-85432876D02*
X67369180Y-86099542D01*
X68369180Y-85670971D01*
D17*
X76047625Y-78386200D02*
X76547625Y-78386200D01*
X76297625Y-78636200D02*
X76297625Y-78136200D01*
X76456403Y-77971200D02*
G75*
G03*
X81248397Y-77971200I2395997J1060001D01*
G01*
X81248397Y-75851200D02*
G75*
G03*
X76456403Y-75851200I-2395997J-1060001D01*
G01*
X41550000Y-109650000D02*
X44290000Y-109650000D01*
X44290000Y-109650000D02*
X44290000Y-116190000D01*
X41550000Y-116190000D02*
X41550000Y-109650000D01*
X42920000Y-116960000D02*
X42920000Y-116190000D01*
X44290000Y-116190000D02*
X41550000Y-116190000D01*
X42920000Y-108880000D02*
X42920000Y-109650000D01*
X67320000Y-111530000D02*
X65670000Y-111530000D01*
X65670000Y-111530000D02*
X65670000Y-101250000D01*
X70970000Y-111530000D02*
X69320000Y-111530000D01*
X65670000Y-101250000D02*
X70970000Y-101250000D01*
X70970000Y-101250000D02*
X70970000Y-111530000D01*
X69320000Y-111530000D02*
G75*
G03*
X67320000Y-111530000I-1000000J0D01*
G01*
X76420000Y-112170000D02*
X76420000Y-109430000D01*
X75650000Y-110800000D02*
X76420000Y-110800000D01*
X76420000Y-109430000D02*
X82960000Y-109430000D01*
X82960000Y-112170000D02*
X76420000Y-112170000D01*
X82960000Y-109430000D02*
X82960000Y-112170000D01*
X83730000Y-110800000D02*
X82960000Y-110800000D01*
X85170000Y-118460000D02*
X78630000Y-118460000D01*
X77860000Y-117090000D02*
X78630000Y-117090000D01*
X85940000Y-117090000D02*
X85170000Y-117090000D01*
X78630000Y-115720000D02*
X85170000Y-115720000D01*
X78630000Y-118460000D02*
X78630000Y-115720000D01*
X85170000Y-115720000D02*
X85170000Y-118460000D01*
X82960000Y-106300000D02*
X82960000Y-109040000D01*
X83730000Y-107670000D02*
X82960000Y-107670000D01*
X75650000Y-107670000D02*
X76420000Y-107670000D01*
X76420000Y-109040000D02*
X76420000Y-106300000D01*
X76420000Y-106300000D02*
X82960000Y-106300000D01*
X82960000Y-109040000D02*
X76420000Y-109040000D01*
X53850000Y-115710000D02*
X60390000Y-115710000D01*
X53080000Y-117080000D02*
X53850000Y-117080000D01*
X53850000Y-118450000D02*
X53850000Y-115710000D01*
X60390000Y-118450000D02*
X53850000Y-118450000D01*
X60390000Y-115710000D02*
X60390000Y-118450000D01*
X61160000Y-117080000D02*
X60390000Y-117080000D01*
X60440000Y-108970000D02*
X53900000Y-108970000D01*
X53130000Y-107600000D02*
X53900000Y-107600000D01*
X53900000Y-108970000D02*
X53900000Y-106230000D01*
X61210000Y-107600000D02*
X60440000Y-107600000D01*
X60440000Y-106230000D02*
X60440000Y-108970000D01*
X53900000Y-106230000D02*
X60440000Y-106230000D01*
X53890000Y-112520000D02*
X60430000Y-112520000D01*
X61200000Y-113890000D02*
X60430000Y-113890000D01*
X53120000Y-113890000D02*
X53890000Y-113890000D01*
X60430000Y-115260000D02*
X53890000Y-115260000D01*
X60430000Y-112520000D02*
X60430000Y-115260000D01*
X53890000Y-115260000D02*
X53890000Y-112520000D01*
X66250000Y-118450000D02*
X66250000Y-115710000D01*
X72790000Y-118450000D02*
X66250000Y-118450000D01*
X66250000Y-115710000D02*
X72790000Y-115710000D01*
X72790000Y-115710000D02*
X72790000Y-118450000D01*
X65480000Y-117080000D02*
X66250000Y-117080000D01*
X73560000Y-117080000D02*
X72790000Y-117080000D01*
X53910000Y-105870000D02*
X53910000Y-103130000D01*
X53140000Y-104500000D02*
X53910000Y-104500000D01*
X53910000Y-103130000D02*
X60450000Y-103130000D01*
X60450000Y-103130000D02*
X60450000Y-105870000D01*
X60450000Y-105870000D02*
X53910000Y-105870000D01*
X61220000Y-104500000D02*
X60450000Y-104500000D01*
X53890000Y-109340000D02*
X60430000Y-109340000D01*
X61200000Y-110710000D02*
X60430000Y-110710000D01*
X60430000Y-112080000D02*
X53890000Y-112080000D01*
X53890000Y-112080000D02*
X53890000Y-109340000D01*
X53120000Y-110710000D02*
X53890000Y-110710000D01*
X60430000Y-109340000D02*
X60430000Y-112080000D01*
X127570000Y-114370000D02*
X120330000Y-114370000D01*
X127570000Y-112130000D02*
X127570000Y-114370000D01*
X127570000Y-112130000D02*
X120330000Y-112130000D01*
X120330000Y-112130000D02*
X120330000Y-114370000D01*
X64680000Y-112080000D02*
X64680000Y-114320000D01*
X71920000Y-112080000D02*
X64680000Y-112080000D01*
X71920000Y-114320000D02*
X64680000Y-114320000D01*
X71920000Y-112080000D02*
X71920000Y-114320000D01*
X127520000Y-98430000D02*
X120280000Y-98430000D01*
X127520000Y-98430000D02*
X127520000Y-100670000D01*
X120280000Y-98430000D02*
X120280000Y-100670000D01*
X127520000Y-100670000D02*
X120280000Y-100670000D01*
X131940000Y-112140000D02*
X131940000Y-109400000D01*
X139250000Y-110770000D02*
X138480000Y-110770000D01*
X138480000Y-109400000D02*
X138480000Y-112140000D01*
X138480000Y-112140000D02*
X131940000Y-112140000D01*
X131170000Y-110770000D02*
X131940000Y-110770000D01*
X131940000Y-109400000D02*
X138480000Y-109400000D01*
X134220000Y-118310000D02*
X134220000Y-115570000D01*
X133450000Y-116940000D02*
X134220000Y-116940000D01*
X134220000Y-115570000D02*
X140760000Y-115570000D01*
X141530000Y-116940000D02*
X140760000Y-116940000D01*
X140760000Y-115570000D02*
X140760000Y-118310000D01*
X140760000Y-118310000D02*
X134220000Y-118310000D01*
X138470000Y-115240000D02*
X131930000Y-115240000D01*
X139240000Y-113870000D02*
X138470000Y-113870000D01*
X131930000Y-115240000D02*
X131930000Y-112500000D01*
X131930000Y-112500000D02*
X138470000Y-112500000D01*
X138470000Y-112500000D02*
X138470000Y-115240000D01*
X131160000Y-113870000D02*
X131930000Y-113870000D01*
X109440000Y-112430000D02*
X115980000Y-112430000D01*
X108670000Y-113800000D02*
X109440000Y-113800000D01*
X115980000Y-115170000D02*
X109440000Y-115170000D01*
X116750000Y-113800000D02*
X115980000Y-113800000D01*
X115980000Y-112430000D02*
X115980000Y-115170000D01*
X109440000Y-115170000D02*
X109440000Y-112430000D01*
X131940000Y-109030000D02*
X131940000Y-106290000D01*
X138480000Y-106290000D02*
X138480000Y-109030000D01*
X131940000Y-106290000D02*
X138480000Y-106290000D01*
X138480000Y-109030000D02*
X131940000Y-109030000D01*
X131170000Y-107660000D02*
X131940000Y-107660000D01*
X139250000Y-107660000D02*
X138480000Y-107660000D01*
X115970000Y-112090000D02*
X109430000Y-112090000D01*
X108660000Y-110720000D02*
X109430000Y-110720000D01*
X116740000Y-110720000D02*
X115970000Y-110720000D01*
X109430000Y-109350000D02*
X115970000Y-109350000D01*
X115970000Y-109350000D02*
X115970000Y-112090000D01*
X109430000Y-112090000D02*
X109430000Y-109350000D01*
X116730000Y-116940000D02*
X115960000Y-116940000D01*
X115960000Y-115570000D02*
X115960000Y-118310000D01*
X109420000Y-118310000D02*
X109420000Y-115570000D01*
X108650000Y-116940000D02*
X109420000Y-116940000D01*
X115960000Y-118310000D02*
X109420000Y-118310000D01*
X109420000Y-115570000D02*
X115960000Y-115570000D01*
X121870000Y-115570000D02*
X128410000Y-115570000D01*
X129180000Y-116940000D02*
X128410000Y-116940000D01*
X121100000Y-116940000D02*
X121870000Y-116940000D01*
X121870000Y-118310000D02*
X121870000Y-115570000D01*
X128410000Y-115570000D02*
X128410000Y-118310000D01*
X128410000Y-118310000D02*
X121870000Y-118310000D01*
X76246825Y-95654200D02*
X76246825Y-95154200D01*
X75996825Y-95404200D02*
X76496825Y-95404200D01*
X81197597Y-92869200D02*
G75*
G03*
X76405603Y-92869200I-2395997J-1060001D01*
G01*
X76405603Y-94989200D02*
G75*
G03*
X81197597Y-94989200I2395997J1060001D01*
G01*
X82980000Y-115300000D02*
X76440000Y-115300000D01*
X76440000Y-112560000D02*
X82980000Y-112560000D01*
X76440000Y-115300000D02*
X76440000Y-112560000D01*
X75670000Y-113930000D02*
X76440000Y-113930000D01*
X83750000Y-113930000D02*
X82980000Y-113930000D01*
X82980000Y-112560000D02*
X82980000Y-115300000D01*
X121370000Y-101250000D02*
X126670000Y-101250000D01*
X121370000Y-111530000D02*
X121370000Y-101250000D01*
X126670000Y-111530000D02*
X125020000Y-111530000D01*
X123020000Y-111530000D02*
X121370000Y-111530000D01*
X126670000Y-101250000D02*
X126670000Y-111530000D01*
X125020000Y-111530000D02*
G75*
G03*
X123020000Y-111530000I-1000000J0D01*
G01*
X72170000Y-98480000D02*
X64930000Y-98480000D01*
X72170000Y-100720000D02*
X64930000Y-100720000D01*
X72170000Y-98480000D02*
X72170000Y-100720000D01*
X64930000Y-98480000D02*
X64930000Y-100720000D01*
X48210000Y-128710000D02*
X48210000Y-127380000D01*
X43010000Y-127380000D02*
X43010000Y-140200000D01*
X48210000Y-129980000D02*
X45610000Y-129980000D01*
X48210000Y-127380000D02*
X46880000Y-127380000D01*
X45610000Y-127380000D02*
X43010000Y-127380000D01*
X48210000Y-129980000D02*
X48210000Y-140200000D01*
X45610000Y-129980000D02*
X45610000Y-127380000D01*
X48210000Y-140200000D02*
X43010000Y-140200000D01*
X109410000Y-105920000D02*
X109410000Y-103180000D01*
X108640000Y-104550000D02*
X109410000Y-104550000D01*
X116720000Y-104550000D02*
X115950000Y-104550000D01*
X115950000Y-105920000D02*
X109410000Y-105920000D01*
X115950000Y-103180000D02*
X115950000Y-105920000D01*
X109410000Y-103180000D02*
X115950000Y-103180000D01*
X115960000Y-109020000D02*
X109420000Y-109020000D01*
X108650000Y-107650000D02*
X109420000Y-107650000D01*
X109420000Y-109020000D02*
X109420000Y-106280000D01*
X116730000Y-107650000D02*
X115960000Y-107650000D01*
X109420000Y-106280000D02*
X115960000Y-106280000D01*
X115960000Y-106280000D02*
X115960000Y-109020000D01*
X138480000Y-103200000D02*
X138480000Y-105940000D01*
X139250000Y-104570000D02*
X138480000Y-104570000D01*
X138480000Y-105940000D02*
X131940000Y-105940000D01*
X131940000Y-105940000D02*
X131940000Y-103200000D01*
X131940000Y-103200000D02*
X138480000Y-103200000D01*
X131170000Y-104570000D02*
X131940000Y-104570000D01*
X76450000Y-100060000D02*
X82990000Y-100060000D01*
X82990000Y-100060000D02*
X82990000Y-102800000D01*
X76450000Y-102800000D02*
X76450000Y-100060000D01*
X82990000Y-102800000D02*
X76450000Y-102800000D01*
X75680000Y-101430000D02*
X76450000Y-101430000D01*
X83760000Y-101430000D02*
X82990000Y-101430000D01*
X76410000Y-103200000D02*
X82950000Y-103200000D01*
X82950000Y-103200000D02*
X82950000Y-105940000D01*
X76410000Y-105940000D02*
X76410000Y-103200000D01*
X75640000Y-104570000D02*
X76410000Y-104570000D01*
X83720000Y-104570000D02*
X82950000Y-104570000D01*
X82950000Y-105940000D02*
X76410000Y-105940000D01*
X131930000Y-100100000D02*
X138470000Y-100100000D01*
X131160000Y-101470000D02*
X131930000Y-101470000D01*
X139240000Y-101470000D02*
X138470000Y-101470000D01*
X131930000Y-102840000D02*
X131930000Y-100100000D01*
X138470000Y-100100000D02*
X138470000Y-102840000D01*
X138470000Y-102840000D02*
X131930000Y-102840000D01*
X60420000Y-96674000D02*
X60420000Y-99414000D01*
X53880000Y-96674000D02*
X60420000Y-96674000D01*
X61190000Y-98044000D02*
X60420000Y-98044000D01*
X60420000Y-99414000D02*
X53880000Y-99414000D01*
X53110000Y-98044000D02*
X53880000Y-98044000D01*
X53880000Y-99414000D02*
X53880000Y-96674000D01*
X116046000Y-99414000D02*
X109506000Y-99414000D01*
X109506000Y-99414000D02*
X109506000Y-96674000D01*
X108736000Y-98044000D02*
X109506000Y-98044000D01*
X116046000Y-96674000D02*
X116046000Y-99414000D01*
X109506000Y-96674000D02*
X116046000Y-96674000D01*
X116816000Y-98044000D02*
X116046000Y-98044000D01*
X53880000Y-99976000D02*
X60420000Y-99976000D01*
X60420000Y-102716000D02*
X53880000Y-102716000D01*
X53880000Y-102716000D02*
X53880000Y-99976000D01*
X60420000Y-99976000D02*
X60420000Y-102716000D01*
X53110000Y-101346000D02*
X53880000Y-101346000D01*
X61190000Y-101346000D02*
X60420000Y-101346000D01*
X109420000Y-102716000D02*
X109420000Y-99976000D01*
X116730000Y-101346000D02*
X115960000Y-101346000D01*
X115960000Y-102716000D02*
X109420000Y-102716000D01*
X115960000Y-99976000D02*
X115960000Y-102716000D01*
X108650000Y-101346000D02*
X109420000Y-101346000D01*
X109420000Y-99976000D02*
X115960000Y-99976000D01*
D18*
X122693963Y-77615857D02*
X121379882Y-78102068D01*
X121379882Y-78102068D02*
X119728111Y-78420731D01*
X119728111Y-78420731D02*
X117916400Y-78546645D01*
X117916400Y-78546645D02*
X116499006Y-78494165D01*
X116499006Y-78494165D02*
X115042561Y-78366156D01*
X115042561Y-78366156D02*
X114033366Y-78290180D01*
X114033366Y-78290180D02*
X113386078Y-78270482D01*
X113386078Y-78270482D02*
X113015349Y-78311305D01*
X113015349Y-78311305D02*
X112835833Y-78416890D01*
X112835833Y-78416890D02*
X112762186Y-78591482D01*
X112762186Y-78591482D02*
X112743395Y-78680877D01*
X112743395Y-78680877D02*
X112909412Y-79093681D01*
X112909412Y-79093681D02*
X113511270Y-79465398D01*
X113511270Y-79465398D02*
X114450409Y-79773875D01*
X114450409Y-79773875D02*
X115628269Y-79996955D01*
X115628269Y-79996955D02*
X116946289Y-80112484D01*
X116946289Y-80112484D02*
X118305910Y-80098306D01*
X118305910Y-80098306D02*
X118839916Y-80051289D01*
X118839916Y-80051289D02*
X120586275Y-79788145D01*
X120586275Y-79788145D02*
X122041214Y-79437042D01*
X122041214Y-79437042D02*
X123109444Y-79023985D01*
X123109444Y-79023985D02*
X123496971Y-78780330D01*
X123496971Y-78780330D02*
X123957841Y-78354644D01*
X123957841Y-78354644D02*
X124031734Y-78030977D01*
X124031734Y-78030977D02*
X123846432Y-77708632D01*
X123846432Y-77708632D02*
X123548156Y-77390035D01*
X123548156Y-77390035D02*
X123208660Y-77380108D01*
X123208660Y-77380108D02*
X122693963Y-77615857D01*
X122693963Y-77615857D02*
X122693963Y-77615857D01*
G36*
X123548156Y-77390035D02*
G01*
X123846432Y-77708632D01*
X124031734Y-78030977D01*
X123957841Y-78354644D01*
X123496971Y-78780330D01*
X123109444Y-79023985D01*
X122041214Y-79437042D01*
X120586275Y-79788145D01*
X118839916Y-80051289D01*
X118305910Y-80098306D01*
X116946289Y-80112484D01*
X115628269Y-79996955D01*
X114450409Y-79773875D01*
X113511270Y-79465398D01*
X112909412Y-79093681D01*
X112743395Y-78680877D01*
X112762186Y-78591482D01*
X112835833Y-78416890D01*
X113015349Y-78311305D01*
X113386078Y-78270482D01*
X114033366Y-78290180D01*
X115042561Y-78366156D01*
X116499006Y-78494165D01*
X117916400Y-78546645D01*
X119728111Y-78420731D01*
X121379882Y-78102068D01*
X122693963Y-77615857D01*
X123208660Y-77380108D01*
X123548156Y-77390035D01*
G37*
X123548156Y-77390035D02*
X123846432Y-77708632D01*
X124031734Y-78030977D01*
X123957841Y-78354644D01*
X123496971Y-78780330D01*
X123109444Y-79023985D01*
X122041214Y-79437042D01*
X120586275Y-79788145D01*
X118839916Y-80051289D01*
X118305910Y-80098306D01*
X116946289Y-80112484D01*
X115628269Y-79996955D01*
X114450409Y-79773875D01*
X113511270Y-79465398D01*
X112909412Y-79093681D01*
X112743395Y-78680877D01*
X112762186Y-78591482D01*
X112835833Y-78416890D01*
X113015349Y-78311305D01*
X113386078Y-78270482D01*
X114033366Y-78290180D01*
X115042561Y-78366156D01*
X116499006Y-78494165D01*
X117916400Y-78546645D01*
X119728111Y-78420731D01*
X121379882Y-78102068D01*
X122693963Y-77615857D01*
X123208660Y-77380108D01*
X123548156Y-77390035D01*
X120908659Y-48218434D02*
X120543443Y-48419561D01*
X120543443Y-48419561D02*
X120470564Y-48498186D01*
X120470564Y-48498186D02*
X120256846Y-48999984D01*
X120256846Y-48999984D02*
X120552404Y-49382610D01*
X120552404Y-49382610D02*
X121362065Y-49649109D01*
X121362065Y-49649109D02*
X122519339Y-49791119D01*
X122519339Y-49791119D02*
X123883958Y-49985085D01*
X123883958Y-49985085D02*
X125076839Y-50329705D01*
X125076839Y-50329705D02*
X125428668Y-50486078D01*
X125428668Y-50486078D02*
X126596466Y-51235321D01*
X126596466Y-51235321D02*
X127812557Y-52265411D01*
X127812557Y-52265411D02*
X128913935Y-53418633D01*
X128913935Y-53418633D02*
X129737594Y-54537268D01*
X129737594Y-54537268D02*
X129881961Y-54794874D01*
X129881961Y-54794874D02*
X130381022Y-55649445D01*
X130381022Y-55649445D02*
X130782062Y-56035160D01*
X130782062Y-56035160D02*
X131149881Y-55992509D01*
X131149881Y-55992509D02*
X131407130Y-55747907D01*
X131407130Y-55747907D02*
X131574874Y-55420077D01*
X131574874Y-55420077D02*
X131531845Y-54974872D01*
X131531845Y-54974872D02*
X131253808Y-54261615D01*
X131253808Y-54261615D02*
X131121950Y-53974983D01*
X131121950Y-53974983D02*
X130162465Y-52475987D01*
X130162465Y-52475987D02*
X128793070Y-51079435D01*
X128793070Y-51079435D02*
X127138259Y-49868916D01*
X127138259Y-49868916D02*
X125322527Y-48928022D01*
X125322527Y-48928022D02*
X123470368Y-48340346D01*
X123470368Y-48340346D02*
X122522922Y-48201182D01*
X122522922Y-48201182D02*
X121522154Y-48152345D01*
X121522154Y-48152345D02*
X120908659Y-48218434D01*
X120908659Y-48218434D02*
X120908659Y-48218434D01*
G36*
X122522922Y-48201182D02*
G01*
X123470368Y-48340346D01*
X125322527Y-48928022D01*
X127138259Y-49868916D01*
X128793070Y-51079435D01*
X130162465Y-52475987D01*
X131121950Y-53974983D01*
X131253808Y-54261615D01*
X131531845Y-54974872D01*
X131574874Y-55420077D01*
X131407130Y-55747907D01*
X131149881Y-55992509D01*
X130782062Y-56035160D01*
X130381022Y-55649445D01*
X129881961Y-54794874D01*
X129737594Y-54537268D01*
X128913935Y-53418633D01*
X127812557Y-52265411D01*
X126596466Y-51235321D01*
X125428668Y-50486078D01*
X125076839Y-50329705D01*
X123883958Y-49985085D01*
X122519339Y-49791119D01*
X121362065Y-49649109D01*
X120552404Y-49382610D01*
X120256846Y-48999984D01*
X120470564Y-48498186D01*
X120543443Y-48419561D01*
X120908659Y-48218434D01*
X121522154Y-48152345D01*
X122522922Y-48201182D01*
G37*
X122522922Y-48201182D02*
X123470368Y-48340346D01*
X125322527Y-48928022D01*
X127138259Y-49868916D01*
X128793070Y-51079435D01*
X130162465Y-52475987D01*
X131121950Y-53974983D01*
X131253808Y-54261615D01*
X131531845Y-54974872D01*
X131574874Y-55420077D01*
X131407130Y-55747907D01*
X131149881Y-55992509D01*
X130782062Y-56035160D01*
X130381022Y-55649445D01*
X129881961Y-54794874D01*
X129737594Y-54537268D01*
X128913935Y-53418633D01*
X127812557Y-52265411D01*
X126596466Y-51235321D01*
X125428668Y-50486078D01*
X125076839Y-50329705D01*
X123883958Y-49985085D01*
X122519339Y-49791119D01*
X121362065Y-49649109D01*
X120552404Y-49382610D01*
X120256846Y-48999984D01*
X120470564Y-48498186D01*
X120543443Y-48419561D01*
X120908659Y-48218434D01*
X121522154Y-48152345D01*
X122522922Y-48201182D01*
X119305889Y-33461095D02*
X119107852Y-33924882D01*
X119107852Y-33924882D02*
X119107285Y-33961026D01*
X119107285Y-33961026D02*
X119251549Y-34274483D01*
X119251549Y-34274483D02*
X119739336Y-34574820D01*
X119739336Y-34574820D02*
X120653136Y-34908892D01*
X120653136Y-34908892D02*
X120923765Y-34992854D01*
X120923765Y-34992854D02*
X122477752Y-35628308D01*
X122477752Y-35628308D02*
X123558794Y-36468861D01*
X123558794Y-36468861D02*
X124203843Y-37558530D01*
X124203843Y-37558530D02*
X124449851Y-38941331D01*
X124449851Y-38941331D02*
X124454653Y-39198761D01*
X124454653Y-39198761D02*
X124454653Y-40126354D01*
X124454653Y-40126354D02*
X123050969Y-39916619D01*
X123050969Y-39916619D02*
X121685373Y-39785213D01*
X121685373Y-39785213D02*
X120052960Y-39738605D01*
X120052960Y-39738605D02*
X118320899Y-39770858D01*
X118320899Y-39770858D02*
X116656358Y-39876035D01*
X116656358Y-39876035D02*
X115226505Y-40048198D01*
X115226505Y-40048198D02*
X114384342Y-40224425D01*
X114384342Y-40224425D02*
X113242809Y-40580112D01*
X113242809Y-40580112D02*
X111958634Y-41034387D01*
X111958634Y-41034387D02*
X111164471Y-41344753D01*
X111164471Y-41344753D02*
X109504814Y-42029996D01*
X109504814Y-42029996D02*
X108068981Y-41327508D01*
X108068981Y-41327508D02*
X106818249Y-40812949D01*
X106818249Y-40812949D02*
X105579695Y-40471339D01*
X105579695Y-40471339D02*
X104485025Y-40325504D01*
X104485025Y-40325504D02*
X103665940Y-40398267D01*
X103665940Y-40398267D02*
X103406600Y-40519531D01*
X103406600Y-40519531D02*
X103103765Y-40850159D01*
X103103765Y-40850159D02*
X103257387Y-41218937D01*
X103257387Y-41218937D02*
X103308536Y-41282162D01*
X103308536Y-41282162D02*
X103850382Y-41627942D01*
X103850382Y-41627942D02*
X104291045Y-41712147D01*
X104291045Y-41712147D02*
X104865840Y-41795332D01*
X104865840Y-41795332D02*
X105636186Y-42007900D01*
X105636186Y-42007900D02*
X106455519Y-42294370D01*
X106455519Y-42294370D02*
X107177277Y-42599264D01*
X107177277Y-42599264D02*
X107654897Y-42867101D01*
X107654897Y-42867101D02*
X107759009Y-43024910D01*
X107759009Y-43024910D02*
X107480021Y-43287088D01*
X107480021Y-43287088D02*
X106917242Y-43718554D01*
X106917242Y-43718554D02*
X106597128Y-43945860D01*
X106597128Y-43945860D02*
X105560396Y-44664316D01*
X105560396Y-44664316D02*
X104029747Y-43963562D01*
X104029747Y-43963562D02*
X102004084Y-43278302D01*
X102004084Y-43278302D02*
X100078516Y-43107421D01*
X100078516Y-43107421D02*
X98285214Y-43442120D01*
X98285214Y-43442120D02*
X96656352Y-44273601D01*
X96656352Y-44273601D02*
X95224103Y-45593063D01*
X95224103Y-45593063D02*
X94502171Y-46569178D01*
X94502171Y-46569178D02*
X93511849Y-48528697D01*
X93511849Y-48528697D02*
X93049950Y-50521077D01*
X93049950Y-50521077D02*
X93119409Y-52532469D01*
X93119409Y-52532469D02*
X93175414Y-52832907D01*
X93175414Y-52832907D02*
X93534517Y-54240324D01*
X93534517Y-54240324D02*
X94017736Y-55353209D01*
X94017736Y-55353209D02*
X94741308Y-56394534D01*
X94741308Y-56394534D02*
X95451062Y-57198144D01*
X95451062Y-57198144D02*
X96602899Y-58429551D01*
X96602899Y-58429551D02*
X96237982Y-59836341D01*
X96237982Y-59836341D02*
X95712119Y-62891823D01*
X95712119Y-62891823D02*
X95694089Y-65951152D01*
X95694089Y-65951152D02*
X96159553Y-68965856D01*
X96159553Y-68965856D02*
X97084173Y-71887464D01*
X97084173Y-71887464D02*
X98443609Y-74667504D01*
X98443609Y-74667504D02*
X100213523Y-77257506D01*
X100213523Y-77257506D02*
X102369576Y-79608997D01*
X102369576Y-79608997D02*
X104887430Y-81673506D01*
X104887430Y-81673506D02*
X107742746Y-83402562D01*
X107742746Y-83402562D02*
X108181047Y-83621438D01*
X108181047Y-83621438D02*
X111775766Y-85126672D01*
X111775766Y-85126672D02*
X115298818Y-86106394D01*
X115298818Y-86106394D02*
X118764259Y-86562911D01*
X118764259Y-86562911D02*
X122186146Y-86498530D01*
X122186146Y-86498530D02*
X124095959Y-86234479D01*
X124095959Y-86234479D02*
X127447136Y-85409616D01*
X127447136Y-85409616D02*
X130472972Y-84193107D01*
X130472972Y-84193107D02*
X133250780Y-82545180D01*
X133250780Y-82545180D02*
X135857875Y-80426059D01*
X135857875Y-80426059D02*
X136408477Y-79900248D01*
X136408477Y-79900248D02*
X138068616Y-78272472D01*
X138068616Y-78272472D02*
X139349529Y-78892272D01*
X139349529Y-78892272D02*
X140542765Y-79304804D01*
X140542765Y-79304804D02*
X141991455Y-79566620D01*
X141991455Y-79566620D02*
X143485718Y-79659202D01*
X143485718Y-79659202D02*
X144815670Y-79564036D01*
X144815670Y-79564036D02*
X145398231Y-79425894D01*
X145398231Y-79425894D02*
X146120393Y-79074019D01*
X146120393Y-79074019D02*
X146991756Y-78493970D01*
X146991756Y-78493970D02*
X147570663Y-78028393D01*
X147570663Y-78028393D02*
X148898122Y-76569559D01*
X148898122Y-76569559D02*
X149716518Y-74998910D01*
X149716518Y-74998910D02*
X150020003Y-73352806D01*
X150020003Y-73352806D02*
X150018952Y-73344648D01*
X150018952Y-73344648D02*
X148495691Y-73344648D01*
X148495691Y-73344648D02*
X148224098Y-74753569D01*
X148224098Y-74753569D02*
X148148640Y-74941261D01*
X148148640Y-74941261D02*
X147304419Y-76270508D01*
X147304419Y-76270508D02*
X146103304Y-77277084D01*
X146103304Y-77277084D02*
X144638219Y-77927462D01*
X144638219Y-77927462D02*
X143002090Y-78188116D01*
X143002090Y-78188116D02*
X141287843Y-78025520D01*
X141287843Y-78025520D02*
X140363074Y-77750187D01*
X140363074Y-77750187D02*
X139582418Y-77424508D01*
X139582418Y-77424508D02*
X139193438Y-77100886D01*
X139193438Y-77100886D02*
X139163810Y-76650604D01*
X139163810Y-76650604D02*
X139461214Y-75944945D01*
X139461214Y-75944945D02*
X139766739Y-75375354D01*
X139766739Y-75375354D02*
X140316902Y-74453630D01*
X140316902Y-74453630D02*
X140763450Y-73962809D01*
X140763450Y-73962809D02*
X141208510Y-73840220D01*
X141208510Y-73840220D02*
X141754207Y-74023193D01*
X141754207Y-74023193D02*
X141871272Y-74083887D01*
X141871272Y-74083887D02*
X142212611Y-74362885D01*
X142212611Y-74362885D02*
X142304245Y-74809431D01*
X142304245Y-74809431D02*
X142231247Y-75420729D01*
X142231247Y-75420729D02*
X142155041Y-76111163D01*
X142155041Y-76111163D02*
X142258544Y-76416591D01*
X142258544Y-76416591D02*
X142469113Y-76470042D01*
X142469113Y-76470042D02*
X142953517Y-76238948D01*
X142953517Y-76238948D02*
X143280240Y-75659027D01*
X143280240Y-75659027D02*
X143420914Y-74900317D01*
X143420914Y-74900317D02*
X143347170Y-74132856D01*
X143347170Y-74132856D02*
X143030637Y-73526684D01*
X143030637Y-73526684D02*
X142969916Y-73468368D01*
X142969916Y-73468368D02*
X142315676Y-73046555D01*
X142315676Y-73046555D02*
X141900443Y-72874175D01*
X141900443Y-72874175D02*
X141389006Y-72606411D01*
X141389006Y-72606411D02*
X141406895Y-72274759D01*
X141406895Y-72274759D02*
X141954574Y-71877297D01*
X141954574Y-71877297D02*
X142167811Y-71770516D01*
X142167811Y-71770516D02*
X143222956Y-71539380D01*
X143222956Y-71539380D02*
X144289819Y-71749969D01*
X144289819Y-71749969D02*
X145192175Y-72345967D01*
X145192175Y-72345967D02*
X145578805Y-72860568D01*
X145578805Y-72860568D02*
X146021382Y-73451622D01*
X146021382Y-73451622D02*
X146420437Y-73655323D01*
X146420437Y-73655323D02*
X146674789Y-73459054D01*
X146674789Y-73459054D02*
X146705591Y-73001072D01*
X146705591Y-73001072D02*
X146364208Y-72143300D01*
X146364208Y-72143300D02*
X145631732Y-71371130D01*
X145631732Y-71371130D02*
X144651806Y-70770428D01*
X144651806Y-70770428D02*
X143568076Y-70427064D01*
X143568076Y-70427064D02*
X142524184Y-70426905D01*
X142524184Y-70426905D02*
X142433819Y-70447479D01*
X142433819Y-70447479D02*
X141975807Y-70516992D01*
X141975807Y-70516992D02*
X141867662Y-70304526D01*
X141867662Y-70304526D02*
X141956482Y-69867369D01*
X141956482Y-69867369D02*
X142256455Y-69030630D01*
X142256455Y-69030630D02*
X142711835Y-68598550D01*
X142711835Y-68598550D02*
X143460914Y-68480549D01*
X143460914Y-68480549D02*
X144022442Y-68514203D01*
X144022442Y-68514203D02*
X145504050Y-68888286D01*
X145504050Y-68888286D02*
X146749340Y-69647408D01*
X146749340Y-69647408D02*
X147701151Y-70702532D01*
X147701151Y-70702532D02*
X148302321Y-71964624D01*
X148302321Y-71964624D02*
X148495691Y-73344648D01*
X148495691Y-73344648D02*
X150018952Y-73344648D01*
X150018952Y-73344648D02*
X149802728Y-71667605D01*
X149802728Y-71667605D02*
X149058844Y-69979664D01*
X149058844Y-69979664D02*
X148904920Y-69733768D01*
X148904920Y-69733768D02*
X147989922Y-68731143D01*
X147989922Y-68731143D02*
X146696259Y-67857686D01*
X146696259Y-67857686D02*
X146437137Y-67746393D01*
X146437137Y-67746393D02*
X140901873Y-67746393D01*
X140901873Y-67746393D02*
X140778255Y-68527662D01*
X140778255Y-68527662D02*
X140486314Y-69601406D01*
X140486314Y-69601406D02*
X140055716Y-70871934D01*
X140055716Y-70871934D02*
X139516128Y-72243557D01*
X139516128Y-72243557D02*
X138897219Y-73620584D01*
X138897219Y-73620584D02*
X138861526Y-73694455D01*
X138861526Y-73694455D02*
X137249949Y-76490471D01*
X137249949Y-76490471D02*
X135313209Y-78886519D01*
X135313209Y-78886519D02*
X133030493Y-80898446D01*
X133030493Y-80898446D02*
X130380990Y-82542094D01*
X130380990Y-82542094D02*
X127343888Y-83833308D01*
X127343888Y-83833308D02*
X124454653Y-84662626D01*
X124454653Y-84662626D02*
X123177684Y-84851689D01*
X123177684Y-84851689D02*
X121535201Y-84935220D01*
X121535201Y-84935220D02*
X119684568Y-84919687D01*
X119684568Y-84919687D02*
X117783148Y-84811562D01*
X117783148Y-84811562D02*
X115988304Y-84617312D01*
X115988304Y-84617312D02*
X114457397Y-84343408D01*
X114457397Y-84343408D02*
X114027285Y-84233935D01*
X114027285Y-84233935D02*
X111108321Y-83289549D01*
X111108321Y-83289549D02*
X108595869Y-82189167D01*
X108595869Y-82189167D02*
X106369006Y-80864881D01*
X106369006Y-80864881D02*
X104306814Y-79248783D01*
X104306814Y-79248783D02*
X103065179Y-78077747D01*
X103065179Y-78077747D02*
X101446807Y-76335304D01*
X101446807Y-76335304D02*
X100188321Y-74669289D01*
X100188321Y-74669289D02*
X99177144Y-72905685D01*
X99177144Y-72905685D02*
X98300699Y-70870476D01*
X98300699Y-70870476D02*
X98161961Y-70498496D01*
X98161961Y-70498496D02*
X97824902Y-69534112D01*
X97824902Y-69534112D02*
X97597425Y-68718042D01*
X97597425Y-68718042D02*
X97457744Y-67898502D01*
X97457744Y-67898502D02*
X97384072Y-66923710D01*
X97384072Y-66923710D02*
X97354622Y-65641882D01*
X97354622Y-65641882D02*
X97349675Y-64839515D01*
X97349675Y-64839515D02*
X97373908Y-63199408D01*
X97373908Y-63199408D02*
X97452853Y-61770158D01*
X97452853Y-61770158D02*
X97577847Y-60673878D01*
X97577847Y-60673878D02*
X97678771Y-60200796D01*
X97678771Y-60200796D02*
X97922101Y-59491105D01*
X97922101Y-59491105D02*
X98163249Y-59193446D01*
X98163249Y-59193446D02*
X98508087Y-59196145D01*
X98508087Y-59196145D02*
X98604230Y-59224626D01*
X98604230Y-59224626D02*
X99519340Y-59419281D01*
X99519340Y-59419281D02*
X100673304Y-59533722D01*
X100673304Y-59533722D02*
X101859660Y-59560880D01*
X101859660Y-59560880D02*
X102871946Y-59493683D01*
X102871946Y-59493683D02*
X103363796Y-59387633D01*
X103363796Y-59387633D02*
X103957535Y-59204491D01*
X103957535Y-59204491D02*
X104277037Y-59151412D01*
X104277037Y-59151412D02*
X104288022Y-59156731D01*
X104288022Y-59156731D02*
X104179724Y-59393309D01*
X104179724Y-59393309D02*
X103834173Y-59974001D01*
X103834173Y-59974001D02*
X103312191Y-60798967D01*
X103312191Y-60798967D02*
X102943534Y-61363726D01*
X102943534Y-61363726D02*
X101817776Y-63116543D01*
X101817776Y-63116543D02*
X101009225Y-64500266D01*
X101009225Y-64500266D02*
X100503331Y-65565181D01*
X100503331Y-65565181D02*
X100285545Y-66361575D01*
X100285545Y-66361575D02*
X100341314Y-66939733D01*
X100341314Y-66939733D02*
X100656091Y-67349944D01*
X100656091Y-67349944D02*
X101135649Y-67611879D01*
X101135649Y-67611879D02*
X102149479Y-67929133D01*
X102149479Y-67929133D02*
X103390455Y-68188300D01*
X103390455Y-68188300D02*
X104735815Y-68379293D01*
X104735815Y-68379293D02*
X106062794Y-68492022D01*
X106062794Y-68492022D02*
X107248630Y-68516398D01*
X107248630Y-68516398D02*
X108170561Y-68442334D01*
X108170561Y-68442334D02*
X108705823Y-68259739D01*
X108705823Y-68259739D02*
X108732307Y-68236177D01*
X108732307Y-68236177D02*
X108924263Y-67860177D01*
X108924263Y-67860177D02*
X108669095Y-67542484D01*
X108669095Y-67542484D02*
X107944406Y-67274408D01*
X107944406Y-67274408D02*
X106727800Y-67047258D01*
X106727800Y-67047258D02*
X105219536Y-66873083D01*
X105219536Y-66873083D02*
X103982523Y-66736153D01*
X103982523Y-66736153D02*
X102938448Y-66584978D01*
X102938448Y-66584978D02*
X102204616Y-66438869D01*
X102204616Y-66438869D02*
X101906394Y-66327677D01*
X101906394Y-66327677D02*
X101847723Y-66146417D01*
X101847723Y-66146417D02*
X101930903Y-65817286D01*
X101930903Y-65817286D02*
X102181537Y-65299074D01*
X102181537Y-65299074D02*
X102625231Y-64550574D01*
X102625231Y-64550574D02*
X103287587Y-63530576D01*
X103287587Y-63530576D02*
X104194210Y-62197870D01*
X104194210Y-62197870D02*
X105370706Y-60511248D01*
X105370706Y-60511248D02*
X106610329Y-58756884D01*
X106610329Y-58756884D02*
X107784267Y-57133495D01*
X107784267Y-57133495D02*
X108763663Y-55844595D01*
X108763663Y-55844595D02*
X109523299Y-54921270D01*
X109523299Y-54921270D02*
X110037957Y-54394604D01*
X110037957Y-54394604D02*
X110243448Y-54278463D01*
X110243448Y-54278463D02*
X110934014Y-54485725D01*
X110934014Y-54485725D02*
X111655431Y-55000290D01*
X111655431Y-55000290D02*
X112168161Y-55638577D01*
X112168161Y-55638577D02*
X112280418Y-56064485D01*
X112280418Y-56064485D02*
X112194096Y-56667815D01*
X112194096Y-56667815D02*
X111885892Y-57579269D01*
X111885892Y-57579269D02*
X111769177Y-57876256D01*
X111769177Y-57876256D02*
X111161333Y-60065587D01*
X111161333Y-60065587D02*
X111072922Y-62239309D01*
X111072922Y-62239309D02*
X111492892Y-64339313D01*
X111492892Y-64339313D02*
X112410191Y-66307492D01*
X112410191Y-66307492D02*
X113685822Y-67953906D01*
X113685822Y-67953906D02*
X115283217Y-69339985D01*
X115283217Y-69339985D02*
X117014297Y-70245331D01*
X117014297Y-70245331D02*
X118992650Y-70723569D01*
X118992650Y-70723569D02*
X119705512Y-70795817D01*
X119705512Y-70795817D02*
X121756058Y-70756322D01*
X121756058Y-70756322D02*
X123600328Y-70288805D01*
X123600328Y-70288805D02*
X125402378Y-69350988D01*
X125402378Y-69350988D02*
X125461623Y-69312451D01*
X125461623Y-69312451D02*
X127171474Y-67905939D01*
X127171474Y-67905939D02*
X128445305Y-66228537D01*
X128445305Y-66228537D02*
X129255320Y-64327648D01*
X129255320Y-64327648D02*
X129572026Y-62302935D01*
X129572026Y-62302935D02*
X129592402Y-61898463D01*
X129592402Y-61898463D02*
X128055086Y-61898463D01*
X128055086Y-61898463D02*
X128017220Y-63041936D01*
X128017220Y-63041936D02*
X127855559Y-63907456D01*
X127855559Y-63907456D02*
X127509897Y-64748012D01*
X127509897Y-64748012D02*
X127268732Y-65202816D01*
X127268732Y-65202816D02*
X126764826Y-65972873D01*
X126764826Y-65972873D02*
X126104843Y-66796470D01*
X126104843Y-66796470D02*
X125397851Y-67558272D01*
X125397851Y-67558272D02*
X124752920Y-68142943D01*
X124752920Y-68142943D02*
X124279118Y-68435147D01*
X124279118Y-68435147D02*
X124198935Y-68448989D01*
X124198935Y-68448989D02*
X124121250Y-68213482D01*
X124121250Y-68213482D02*
X124121887Y-67625621D01*
X124121887Y-67625621D02*
X124140073Y-67394059D01*
X124140073Y-67394059D02*
X124021604Y-66370700D01*
X124021604Y-66370700D02*
X123531005Y-65588404D01*
X123531005Y-65588404D02*
X122787155Y-65105859D01*
X122787155Y-65105859D02*
X121908935Y-64981751D01*
X121908935Y-64981751D02*
X121015223Y-65274769D01*
X121015223Y-65274769D02*
X120565658Y-65629468D01*
X120565658Y-65629468D02*
X120051022Y-66457010D01*
X120051022Y-66457010D02*
X119906340Y-67416295D01*
X119906340Y-67416295D02*
X120140779Y-68311979D01*
X120140779Y-68311979D02*
X120421846Y-68694077D01*
X120421846Y-68694077D02*
X120747371Y-69116708D01*
X120747371Y-69116708D02*
X120781757Y-69359079D01*
X120781757Y-69359079D02*
X120390036Y-69437262D01*
X120390036Y-69437262D02*
X119646858Y-69359596D01*
X119646858Y-69359596D02*
X118702340Y-69155615D01*
X118702340Y-69155615D02*
X117706598Y-68854856D01*
X117706598Y-68854856D02*
X117163486Y-68647179D01*
X117163486Y-68647179D02*
X116061885Y-68000332D01*
X116061885Y-68000332D02*
X114938195Y-67036944D01*
X114938195Y-67036944D02*
X113931938Y-65906318D01*
X113931938Y-65906318D02*
X113182637Y-64757758D01*
X113182637Y-64757758D02*
X112904578Y-64089692D01*
X112904578Y-64089692D02*
X112574438Y-62136432D01*
X112574438Y-62136432D02*
X112700946Y-60182851D01*
X112700946Y-60182851D02*
X113246301Y-58323543D01*
X113246301Y-58323543D02*
X114172698Y-56653101D01*
X114172698Y-56653101D02*
X115442336Y-55266118D01*
X115442336Y-55266118D02*
X116790132Y-54366965D01*
X116790132Y-54366965D02*
X117648488Y-53980123D01*
X117648488Y-53980123D02*
X118403446Y-53796458D01*
X118403446Y-53796458D02*
X119304544Y-53771329D01*
X119304544Y-53771329D02*
X119922047Y-53806691D01*
X119922047Y-53806691D02*
X122092867Y-54217267D01*
X122092867Y-54217267D02*
X124064374Y-55107514D01*
X124064374Y-55107514D02*
X125765807Y-56442630D01*
X125765807Y-56442630D02*
X126966400Y-57882131D01*
X126966400Y-57882131D02*
X127699169Y-59386604D01*
X127699169Y-59386604D02*
X128024992Y-61101132D01*
X128024992Y-61101132D02*
X128055086Y-61898463D01*
X128055086Y-61898463D02*
X129592402Y-61898463D01*
X129592402Y-61898463D02*
X129610512Y-61539003D01*
X129610512Y-61539003D02*
X129656966Y-61053669D01*
X129656966Y-61053669D02*
X129683220Y-60962673D01*
X129683220Y-60962673D02*
X129931464Y-61089299D01*
X129931464Y-61089299D02*
X130564116Y-61439277D01*
X130564116Y-61439277D02*
X131502969Y-61967762D01*
X131502969Y-61967762D02*
X132669819Y-62629905D01*
X132669819Y-62629905D02*
X133986458Y-63380861D01*
X133986458Y-63380861D02*
X135374680Y-64175783D01*
X135374680Y-64175783D02*
X136756278Y-64969823D01*
X136756278Y-64969823D02*
X138053047Y-65718134D01*
X138053047Y-65718134D02*
X139186780Y-66375870D01*
X139186780Y-66375870D02*
X140079271Y-66898183D01*
X140079271Y-66898183D02*
X140652313Y-67240228D01*
X140652313Y-67240228D02*
X140827501Y-67353288D01*
X140827501Y-67353288D02*
X140901873Y-67746393D01*
X140901873Y-67746393D02*
X146437137Y-67746393D01*
X146437137Y-67746393D02*
X145178744Y-67205914D01*
X145178744Y-67205914D02*
X144281411Y-66970746D01*
X144281411Y-66970746D02*
X142837537Y-66682435D01*
X142837537Y-66682435D02*
X142792217Y-64194495D01*
X142792217Y-64194495D02*
X141313423Y-64194495D01*
X141313423Y-64194495D02*
X141308462Y-65073435D01*
X141308462Y-65073435D02*
X141244251Y-65607056D01*
X141244251Y-65607056D02*
X141135937Y-65714140D01*
X141135937Y-65714140D02*
X140847236Y-65548145D01*
X140847236Y-65548145D02*
X140159472Y-65153896D01*
X140159472Y-65153896D02*
X139137738Y-64568669D01*
X139137738Y-64568669D02*
X137847125Y-63829738D01*
X137847125Y-63829738D02*
X136352722Y-62974380D01*
X136352722Y-62974380D02*
X135015706Y-62209281D01*
X135015706Y-62209281D02*
X133192206Y-61161516D01*
X133192206Y-61161516D02*
X131777283Y-60333986D01*
X131777283Y-60333986D02*
X130712657Y-59686174D01*
X130712657Y-59686174D02*
X129940051Y-59177565D01*
X129940051Y-59177565D02*
X129401186Y-58767643D01*
X129401186Y-58767643D02*
X129037785Y-58415891D01*
X129037785Y-58415891D02*
X128791569Y-58081795D01*
X128791569Y-58081795D02*
X128623095Y-57765030D01*
X128623095Y-57765030D02*
X127909036Y-56632770D01*
X127909036Y-56632770D02*
X126863984Y-55441024D01*
X126863984Y-55441024D02*
X125644226Y-54350547D01*
X125644226Y-54350547D02*
X124609234Y-53636423D01*
X124609234Y-53636423D02*
X123310813Y-53025519D01*
X123310813Y-53025519D02*
X121778810Y-52527677D01*
X121778810Y-52527677D02*
X120261249Y-52213108D01*
X120261249Y-52213108D02*
X119321347Y-52139515D01*
X119321347Y-52139515D02*
X118087849Y-52312655D01*
X118087849Y-52312655D02*
X116689239Y-52776002D01*
X116689239Y-52776002D02*
X115342284Y-53445444D01*
X115342284Y-53445444D02*
X114544436Y-53993078D01*
X114544436Y-53993078D02*
X113547360Y-54794350D01*
X113547360Y-54794350D02*
X112565275Y-53868124D01*
X112565275Y-53868124D02*
X111444741Y-53075626D01*
X111444741Y-53075626D02*
X110532605Y-52773904D01*
X110532605Y-52773904D02*
X109482021Y-52605908D01*
X109482021Y-52605908D02*
X109482021Y-52035679D01*
X109482021Y-52035679D02*
X108007077Y-52035679D01*
X108007077Y-52035679D02*
X107743445Y-53359419D01*
X107743445Y-53359419D02*
X107265507Y-54619959D01*
X107265507Y-54619959D02*
X106678367Y-55539058D01*
X106678367Y-55539058D02*
X106023130Y-56283726D01*
X106023130Y-56283726D02*
X106014681Y-55456217D01*
X106014681Y-55456217D02*
X105768633Y-54548396D01*
X105768633Y-54548396D02*
X105126142Y-53912209D01*
X105126142Y-53912209D02*
X104199828Y-53655577D01*
X104199828Y-53655577D02*
X104134653Y-53654603D01*
X104134653Y-53654603D02*
X103203971Y-53862706D01*
X103203971Y-53862706D02*
X102580125Y-54403592D01*
X102580125Y-54403592D02*
X102293806Y-55152131D01*
X102293806Y-55152131D02*
X102375702Y-55983191D01*
X102375702Y-55983191D02*
X102856503Y-56771640D01*
X102856503Y-56771640D02*
X103282572Y-57128793D01*
X103282572Y-57128793D02*
X104168385Y-57723693D01*
X104168385Y-57723693D02*
X103148888Y-57894553D01*
X103148888Y-57894553D02*
X102419718Y-58027751D01*
X102419718Y-58027751D02*
X101916699Y-58139211D01*
X101916699Y-58139211D02*
X101862021Y-58155488D01*
X101862021Y-58155488D02*
X101350872Y-58181078D01*
X101350872Y-58181078D02*
X100514302Y-58083949D01*
X100514302Y-58083949D02*
X99539913Y-57892216D01*
X99539913Y-57892216D02*
X98819180Y-57699469D01*
X98819180Y-57699469D02*
X97733847Y-57150827D01*
X97733847Y-57150827D02*
X96639867Y-56232231D01*
X96639867Y-56232231D02*
X95683971Y-55085388D01*
X95683971Y-55085388D02*
X95138468Y-54144779D01*
X95138468Y-54144779D02*
X94577338Y-52400403D01*
X94577338Y-52400403D02*
X94537578Y-50658815D01*
X94537578Y-50658815D02*
X95020867Y-48877782D01*
X95020867Y-48877782D02*
X95378337Y-48111450D01*
X95378337Y-48111450D02*
X96318407Y-46598950D01*
X96318407Y-46598950D02*
X97344399Y-45564051D01*
X97344399Y-45564051D02*
X98530935Y-44949737D01*
X98530935Y-44949737D02*
X99834539Y-44706574D01*
X99834539Y-44706574D02*
X101726382Y-44818431D01*
X101726382Y-44818431D02*
X103518139Y-45388538D01*
X103518139Y-45388538D02*
X105125948Y-46353374D01*
X105125948Y-46353374D02*
X106465944Y-47649419D01*
X106465944Y-47649419D02*
X107454265Y-49213153D01*
X107454265Y-49213153D02*
X107990151Y-50883851D01*
X107990151Y-50883851D02*
X108007077Y-52035679D01*
X108007077Y-52035679D02*
X109482021Y-52035679D01*
X109482021Y-52035679D02*
X109482021Y-51325405D01*
X109482021Y-51325405D02*
X109232336Y-49674795D01*
X109232336Y-49674795D02*
X108506564Y-47956186D01*
X108506564Y-47956186D02*
X107665533Y-46669487D01*
X107665533Y-46669487D02*
X106862801Y-45611038D01*
X106862801Y-45611038D02*
X107838201Y-44872189D01*
X107838201Y-44872189D02*
X108524983Y-44420613D01*
X108524983Y-44420613D02*
X109103828Y-44154917D01*
X109103828Y-44154917D02*
X109258562Y-44125901D01*
X109258562Y-44125901D02*
X109638169Y-44338611D01*
X109638169Y-44338611D02*
X110148136Y-44905115D01*
X110148136Y-44905115D02*
X110537137Y-45473258D01*
X110537137Y-45473258D02*
X111148886Y-46336950D01*
X111148886Y-46336950D02*
X111630512Y-46716247D01*
X111630512Y-46716247D02*
X111830070Y-46732780D01*
X111830070Y-46732780D02*
X112175498Y-46431012D01*
X112175498Y-46431012D02*
X112220885Y-45807232D01*
X112220885Y-45807232D02*
X111979675Y-44972636D01*
X111979675Y-44972636D02*
X111512836Y-44109117D01*
X111512836Y-44109117D02*
X110846878Y-43102787D01*
X110846878Y-43102787D02*
X112102871Y-42564230D01*
X112102871Y-42564230D02*
X113010300Y-42237273D01*
X113010300Y-42237273D02*
X114192204Y-41893571D01*
X114192204Y-41893571D02*
X115395961Y-41606445D01*
X115395961Y-41606445D02*
X115419697Y-41601542D01*
X115419697Y-41601542D02*
X118647195Y-41204928D01*
X118647195Y-41204928D02*
X121895810Y-41318903D01*
X121895810Y-41318903D02*
X125102275Y-41926020D01*
X125102275Y-41926020D02*
X128203322Y-43008833D01*
X128203322Y-43008833D02*
X131135683Y-44549893D01*
X131135683Y-44549893D02*
X133836091Y-46531753D01*
X133836091Y-46531753D02*
X134086004Y-46749152D01*
X134086004Y-46749152D02*
X136148324Y-48895649D01*
X136148324Y-48895649D02*
X137951751Y-51429715D01*
X137951751Y-51429715D02*
X139427421Y-54239089D01*
X139427421Y-54239089D02*
X140506470Y-57211506D01*
X140506470Y-57211506D02*
X140508746Y-57219515D01*
X140508746Y-57219515D02*
X140705608Y-58088984D01*
X140705608Y-58088984D02*
X140887127Y-59207816D01*
X140887127Y-59207816D02*
X141045987Y-60476896D01*
X141045987Y-60476896D02*
X141174868Y-61797112D01*
X141174868Y-61797112D02*
X141266452Y-63069350D01*
X141266452Y-63069350D02*
X141313423Y-64194495D01*
X141313423Y-64194495D02*
X142792217Y-64194495D01*
X142792217Y-64194495D02*
X142774483Y-63220975D01*
X142774483Y-63220975D02*
X142699462Y-61244693D01*
X142699462Y-61244693D02*
X142531776Y-59570018D01*
X142531776Y-59570018D02*
X142237063Y-57967008D01*
X142237063Y-57967008D02*
X141780956Y-56205720D01*
X141780956Y-56205720D02*
X141667814Y-55815831D01*
X141667814Y-55815831D02*
X141707075Y-55431537D01*
X141707075Y-55431537D02*
X142030455Y-55347936D01*
X142030455Y-55347936D02*
X142920087Y-55152927D01*
X142920087Y-55152927D02*
X143964466Y-54639560D01*
X143964466Y-54639560D02*
X144994928Y-53915330D01*
X144994928Y-53915330D02*
X145842811Y-53087733D01*
X145842811Y-53087733D02*
X146085240Y-52763697D01*
X146085240Y-52763697D02*
X146780317Y-51325582D01*
X146780317Y-51325582D02*
X147081651Y-49790304D01*
X147081651Y-49790304D02*
X146984697Y-48293542D01*
X146984697Y-48293542D02*
X146484908Y-46970973D01*
X146484908Y-46970973D02*
X146289312Y-46673602D01*
X146289312Y-46673602D02*
X145804250Y-46295523D01*
X145804250Y-46295523D02*
X145367328Y-46362887D01*
X145367328Y-46362887D02*
X145130085Y-46796489D01*
X145130085Y-46796489D02*
X145160936Y-47263367D01*
X145160936Y-47263367D02*
X145458943Y-48964141D01*
X145458943Y-48964141D02*
X145472377Y-50419393D01*
X145472377Y-50419393D02*
X145203123Y-51537883D01*
X145203123Y-51537883D02*
X145067253Y-51794520D01*
X145067253Y-51794520D02*
X144303676Y-52613624D01*
X144303676Y-52613624D02*
X143181561Y-53324293D01*
X143181561Y-53324293D02*
X141877107Y-53816972D01*
X141877107Y-53816972D02*
X141772457Y-53843134D01*
X141772457Y-53843134D02*
X141370162Y-53899285D01*
X141370162Y-53899285D02*
X141061372Y-53773732D01*
X141061372Y-53773732D02*
X140747277Y-53372877D01*
X140747277Y-53372877D02*
X140329071Y-52603118D01*
X140329071Y-52603118D02*
X140204736Y-52358045D01*
X140204736Y-52358045D02*
X139278353Y-50721992D01*
X139278353Y-50721992D02*
X138151439Y-49032027D01*
X138151439Y-49032027D02*
X136978787Y-47512483D01*
X136978787Y-47512483D02*
X136445562Y-46909980D01*
X136445562Y-46909980D02*
X135678074Y-46092024D01*
X135678074Y-46092024D02*
X136868424Y-44849705D01*
X136868424Y-44849705D02*
X137948208Y-43375772D01*
X137948208Y-43375772D02*
X138538648Y-41767995D01*
X138538648Y-41767995D02*
X138636873Y-40103566D01*
X138636873Y-40103566D02*
X138240015Y-38459674D01*
X138240015Y-38459674D02*
X137345204Y-36913511D01*
X137345204Y-36913511D02*
X137171402Y-36698989D01*
X137171402Y-36698989D02*
X136527802Y-36118112D01*
X136527802Y-36118112D02*
X135927310Y-35856081D01*
X135927310Y-35856081D02*
X135469042Y-35884836D01*
X135469042Y-35884836D02*
X135252113Y-36176314D01*
X135252113Y-36176314D02*
X135375638Y-36702455D01*
X135375638Y-36702455D02*
X135660584Y-37126733D01*
X135660584Y-37126733D02*
X136138282Y-37820555D01*
X136138282Y-37820555D02*
X136640296Y-38703548D01*
X136640296Y-38703548D02*
X136787099Y-38999323D01*
X136787099Y-38999323D02*
X137117558Y-39805425D01*
X137117558Y-39805425D02*
X137198488Y-40459769D01*
X137198488Y-40459769D02*
X137060024Y-41266371D01*
X137060024Y-41266371D02*
X137025629Y-41405638D01*
X137025629Y-41405638D02*
X136593536Y-42566563D01*
X136593536Y-42566563D02*
X135952698Y-43633204D01*
X135952698Y-43633204D02*
X135220225Y-44427122D01*
X135220225Y-44427122D02*
X134900964Y-44643062D01*
X134900964Y-44643062D02*
X134561721Y-44715057D01*
X134561721Y-44715057D02*
X134084111Y-44579510D01*
X134084111Y-44579510D02*
X133370572Y-44194931D01*
X133370572Y-44194931D02*
X132435497Y-43594582D01*
X132435497Y-43594582D02*
X131505375Y-43026950D01*
X131505375Y-43026950D02*
X130376621Y-42414584D01*
X130376621Y-42414584D02*
X129171515Y-41814854D01*
X129171515Y-41814854D02*
X128012340Y-41285130D01*
X128012340Y-41285130D02*
X127021379Y-40882781D01*
X127021379Y-40882781D02*
X126320913Y-40665177D01*
X126320913Y-40665177D02*
X126143552Y-40642673D01*
X126143552Y-40642673D02*
X126019973Y-40400267D01*
X126019973Y-40400267D02*
X125933697Y-39772514D01*
X125933697Y-39772514D02*
X125907026Y-39105305D01*
X125907026Y-39105305D02*
X125683254Y-37343090D01*
X125683254Y-37343090D02*
X125030807Y-35892619D01*
X125030807Y-35892619D02*
X123943353Y-34746744D01*
X123943353Y-34746744D02*
X122414562Y-33898315D01*
X122414562Y-33898315D02*
X120882280Y-33431793D01*
X120882280Y-33431793D02*
X119885075Y-33300396D01*
X119885075Y-33300396D02*
X119305889Y-33461095D01*
X119305889Y-33461095D02*
X119305889Y-33461095D01*
G36*
X147989922Y-68731143D02*
G01*
X148904920Y-69733768D01*
X149058844Y-69979664D01*
X149802728Y-71667605D01*
X150018952Y-73344648D01*
X150020003Y-73352806D01*
X149716518Y-74998910D01*
X148898122Y-76569559D01*
X147570663Y-78028393D01*
X146991756Y-78493970D01*
X146120393Y-79074019D01*
X145398231Y-79425894D01*
X144815670Y-79564036D01*
X143485718Y-79659202D01*
X141991455Y-79566620D01*
X140542765Y-79304804D01*
X139349529Y-78892272D01*
X138068616Y-78272472D01*
X136408477Y-79900248D01*
X135857875Y-80426059D01*
X133250780Y-82545180D01*
X130472972Y-84193107D01*
X127447136Y-85409616D01*
X124095959Y-86234479D01*
X122186146Y-86498530D01*
X118764259Y-86562911D01*
X115298818Y-86106394D01*
X111775766Y-85126672D01*
X108181047Y-83621438D01*
X107742746Y-83402562D01*
X104887430Y-81673506D01*
X102369576Y-79608997D01*
X100213523Y-77257506D01*
X98443609Y-74667504D01*
X97084173Y-71887464D01*
X96159553Y-68965856D01*
X95694089Y-65951152D01*
X95700640Y-64839515D01*
X97349675Y-64839515D01*
X97354622Y-65641882D01*
X97384072Y-66923710D01*
X97457744Y-67898502D01*
X97597425Y-68718042D01*
X97824902Y-69534112D01*
X98161961Y-70498496D01*
X98300699Y-70870476D01*
X99177144Y-72905685D01*
X100188321Y-74669289D01*
X101446807Y-76335304D01*
X103065179Y-78077747D01*
X104306814Y-79248783D01*
X106369006Y-80864881D01*
X108595869Y-82189167D01*
X111108321Y-83289549D01*
X114027285Y-84233935D01*
X114457397Y-84343408D01*
X115988304Y-84617312D01*
X117783148Y-84811562D01*
X119684568Y-84919687D01*
X121535201Y-84935220D01*
X123177684Y-84851689D01*
X124454653Y-84662626D01*
X127343888Y-83833308D01*
X130380990Y-82542094D01*
X133030493Y-80898446D01*
X135313209Y-78886519D01*
X137120513Y-76650604D01*
X139163810Y-76650604D01*
X139193438Y-77100886D01*
X139582418Y-77424508D01*
X140363074Y-77750187D01*
X141287843Y-78025520D01*
X143002090Y-78188116D01*
X144638219Y-77927462D01*
X146103304Y-77277084D01*
X147304419Y-76270508D01*
X148148640Y-74941261D01*
X148224098Y-74753569D01*
X148495691Y-73344648D01*
X148302321Y-71964624D01*
X147701151Y-70702532D01*
X146749340Y-69647408D01*
X145504050Y-68888286D01*
X144022442Y-68514203D01*
X143460914Y-68480549D01*
X142711835Y-68598550D01*
X142256455Y-69030630D01*
X141956482Y-69867369D01*
X141867662Y-70304526D01*
X141975807Y-70516992D01*
X142433819Y-70447479D01*
X142524184Y-70426905D01*
X143568076Y-70427064D01*
X144651806Y-70770428D01*
X145631732Y-71371130D01*
X146364208Y-72143300D01*
X146705591Y-73001072D01*
X146674789Y-73459054D01*
X146420437Y-73655323D01*
X146021382Y-73451622D01*
X145578805Y-72860568D01*
X145192175Y-72345967D01*
X144289819Y-71749969D01*
X143222956Y-71539380D01*
X142167811Y-71770516D01*
X141954574Y-71877297D01*
X141406895Y-72274759D01*
X141389006Y-72606411D01*
X141900443Y-72874175D01*
X142315676Y-73046555D01*
X142969916Y-73468368D01*
X143030637Y-73526684D01*
X143347170Y-74132856D01*
X143420914Y-74900317D01*
X143280240Y-75659027D01*
X142953517Y-76238948D01*
X142469113Y-76470042D01*
X142258544Y-76416591D01*
X142155041Y-76111163D01*
X142231247Y-75420729D01*
X142304245Y-74809431D01*
X142212611Y-74362885D01*
X141871272Y-74083887D01*
X141754207Y-74023193D01*
X141208510Y-73840220D01*
X140763450Y-73962809D01*
X140316902Y-74453630D01*
X139766739Y-75375354D01*
X139461214Y-75944945D01*
X139163810Y-76650604D01*
X137120513Y-76650604D01*
X137249949Y-76490471D01*
X138861526Y-73694455D01*
X138897219Y-73620584D01*
X139516128Y-72243557D01*
X140055716Y-70871934D01*
X140486314Y-69601406D01*
X140778255Y-68527662D01*
X140901873Y-67746393D01*
X140827501Y-67353288D01*
X140652313Y-67240228D01*
X140079271Y-66898183D01*
X139186780Y-66375870D01*
X138053047Y-65718134D01*
X136756278Y-64969823D01*
X135374680Y-64175783D01*
X133986458Y-63380861D01*
X132669819Y-62629905D01*
X131502969Y-61967762D01*
X130564116Y-61439277D01*
X129931464Y-61089299D01*
X129683220Y-60962673D01*
X129656966Y-61053669D01*
X129610512Y-61539003D01*
X129592402Y-61898463D01*
X129572026Y-62302935D01*
X129255320Y-64327648D01*
X128445305Y-66228537D01*
X127171474Y-67905939D01*
X125461623Y-69312451D01*
X125402378Y-69350988D01*
X123600328Y-70288805D01*
X121756058Y-70756322D01*
X119705512Y-70795817D01*
X118992650Y-70723569D01*
X117014297Y-70245331D01*
X115283217Y-69339985D01*
X113685822Y-67953906D01*
X112410191Y-66307492D01*
X111492892Y-64339313D01*
X111072922Y-62239309D01*
X111077106Y-62136432D01*
X112574438Y-62136432D01*
X112904578Y-64089692D01*
X113182637Y-64757758D01*
X113931938Y-65906318D01*
X114938195Y-67036944D01*
X116061885Y-68000332D01*
X117163486Y-68647179D01*
X117706598Y-68854856D01*
X118702340Y-69155615D01*
X119646858Y-69359596D01*
X120390036Y-69437262D01*
X120781757Y-69359079D01*
X120747371Y-69116708D01*
X120421846Y-68694077D01*
X120140779Y-68311979D01*
X119906340Y-67416295D01*
X120051022Y-66457010D01*
X120565658Y-65629468D01*
X121015223Y-65274769D01*
X121908935Y-64981751D01*
X122787155Y-65105859D01*
X123531005Y-65588404D01*
X124021604Y-66370700D01*
X124140073Y-67394059D01*
X124121887Y-67625621D01*
X124121250Y-68213482D01*
X124198935Y-68448989D01*
X124279118Y-68435147D01*
X124752920Y-68142943D01*
X125397851Y-67558272D01*
X126104843Y-66796470D01*
X126764826Y-65972873D01*
X127268732Y-65202816D01*
X127509897Y-64748012D01*
X127855559Y-63907456D01*
X128017220Y-63041936D01*
X128055086Y-61898463D01*
X128024992Y-61101132D01*
X127699169Y-59386604D01*
X126966400Y-57882131D01*
X125765807Y-56442630D01*
X124064374Y-55107514D01*
X122092867Y-54217267D01*
X119922047Y-53806691D01*
X119304544Y-53771329D01*
X118403446Y-53796458D01*
X117648488Y-53980123D01*
X116790132Y-54366965D01*
X115442336Y-55266118D01*
X114172698Y-56653101D01*
X113246301Y-58323543D01*
X112700946Y-60182851D01*
X112574438Y-62136432D01*
X111077106Y-62136432D01*
X111161333Y-60065587D01*
X111769177Y-57876256D01*
X111885892Y-57579269D01*
X112194096Y-56667815D01*
X112280418Y-56064485D01*
X112168161Y-55638577D01*
X111655431Y-55000290D01*
X110934014Y-54485725D01*
X110243448Y-54278463D01*
X110037957Y-54394604D01*
X109523299Y-54921270D01*
X108763663Y-55844595D01*
X107784267Y-57133495D01*
X106610329Y-58756884D01*
X105370706Y-60511248D01*
X104194210Y-62197870D01*
X103287587Y-63530576D01*
X102625231Y-64550574D01*
X102181537Y-65299074D01*
X101930903Y-65817286D01*
X101847723Y-66146417D01*
X101906394Y-66327677D01*
X102204616Y-66438869D01*
X102938448Y-66584978D01*
X103982523Y-66736153D01*
X105219536Y-66873083D01*
X106727800Y-67047258D01*
X107944406Y-67274408D01*
X108669095Y-67542484D01*
X108924263Y-67860177D01*
X108732307Y-68236177D01*
X108705823Y-68259739D01*
X108170561Y-68442334D01*
X107248630Y-68516398D01*
X106062794Y-68492022D01*
X104735815Y-68379293D01*
X103390455Y-68188300D01*
X102149479Y-67929133D01*
X101135649Y-67611879D01*
X100656091Y-67349944D01*
X100341314Y-66939733D01*
X100285545Y-66361575D01*
X100503331Y-65565181D01*
X101009225Y-64500266D01*
X101817776Y-63116543D01*
X102943534Y-61363726D01*
X103312191Y-60798967D01*
X103834173Y-59974001D01*
X104179724Y-59393309D01*
X104288022Y-59156731D01*
X104277037Y-59151412D01*
X103957535Y-59204491D01*
X103363796Y-59387633D01*
X102871946Y-59493683D01*
X101859660Y-59560880D01*
X100673304Y-59533722D01*
X99519340Y-59419281D01*
X98604230Y-59224626D01*
X98508087Y-59196145D01*
X98163249Y-59193446D01*
X97922101Y-59491105D01*
X97678771Y-60200796D01*
X97577847Y-60673878D01*
X97452853Y-61770158D01*
X97373908Y-63199408D01*
X97349675Y-64839515D01*
X95700640Y-64839515D01*
X95712119Y-62891823D01*
X96237982Y-59836341D01*
X96602899Y-58429551D01*
X95451062Y-57198144D01*
X94741308Y-56394534D01*
X94017736Y-55353209D01*
X93534517Y-54240324D01*
X93175414Y-52832907D01*
X93119409Y-52532469D01*
X93054706Y-50658815D01*
X94537578Y-50658815D01*
X94577338Y-52400403D01*
X95138468Y-54144779D01*
X95683971Y-55085388D01*
X96639867Y-56232231D01*
X97733847Y-57150827D01*
X98819180Y-57699469D01*
X99539913Y-57892216D01*
X100514302Y-58083949D01*
X101350872Y-58181078D01*
X101862021Y-58155488D01*
X101916699Y-58139211D01*
X102419718Y-58027751D01*
X103148888Y-57894553D01*
X104168385Y-57723693D01*
X103282572Y-57128793D01*
X102856503Y-56771640D01*
X102375702Y-55983191D01*
X102293806Y-55152131D01*
X102580125Y-54403592D01*
X103203971Y-53862706D01*
X104134653Y-53654603D01*
X104199828Y-53655577D01*
X105126142Y-53912209D01*
X105768633Y-54548396D01*
X106014681Y-55456217D01*
X106023130Y-56283726D01*
X106678367Y-55539058D01*
X107265507Y-54619959D01*
X107743445Y-53359419D01*
X108007077Y-52035679D01*
X107990151Y-50883851D01*
X107454265Y-49213153D01*
X106465944Y-47649419D01*
X105125948Y-46353374D01*
X103888914Y-45611038D01*
X106862801Y-45611038D01*
X107665533Y-46669487D01*
X108506564Y-47956186D01*
X109232336Y-49674795D01*
X109482021Y-51325405D01*
X109482021Y-52605908D01*
X110532605Y-52773904D01*
X111444741Y-53075626D01*
X112565275Y-53868124D01*
X113547360Y-54794350D01*
X114544436Y-53993078D01*
X115342284Y-53445444D01*
X116689239Y-52776002D01*
X118087849Y-52312655D01*
X119321347Y-52139515D01*
X120261249Y-52213108D01*
X121778810Y-52527677D01*
X123310813Y-53025519D01*
X124609234Y-53636423D01*
X125644226Y-54350547D01*
X126863984Y-55441024D01*
X127909036Y-56632770D01*
X128623095Y-57765030D01*
X128791569Y-58081795D01*
X129037785Y-58415891D01*
X129401186Y-58767643D01*
X129940051Y-59177565D01*
X130712657Y-59686174D01*
X131777283Y-60333986D01*
X133192206Y-61161516D01*
X135015706Y-62209281D01*
X136352722Y-62974380D01*
X137847125Y-63829738D01*
X139137738Y-64568669D01*
X140159472Y-65153896D01*
X140847236Y-65548145D01*
X141135937Y-65714140D01*
X141244251Y-65607056D01*
X141308462Y-65073435D01*
X141313423Y-64194495D01*
X141266452Y-63069350D01*
X141174868Y-61797112D01*
X141045987Y-60476896D01*
X140887127Y-59207816D01*
X140705608Y-58088984D01*
X140508746Y-57219515D01*
X140506470Y-57211506D01*
X139427421Y-54239089D01*
X137951751Y-51429715D01*
X136148324Y-48895649D01*
X134086004Y-46749152D01*
X133836091Y-46531753D01*
X131135683Y-44549893D01*
X128203322Y-43008833D01*
X125102275Y-41926020D01*
X121895810Y-41318903D01*
X118647195Y-41204928D01*
X115419697Y-41601542D01*
X115395961Y-41606445D01*
X114192204Y-41893571D01*
X113010300Y-42237273D01*
X112102871Y-42564230D01*
X110846878Y-43102787D01*
X111512836Y-44109117D01*
X111979675Y-44972636D01*
X112220885Y-45807232D01*
X112175498Y-46431012D01*
X111830070Y-46732780D01*
X111630512Y-46716247D01*
X111148886Y-46336950D01*
X110537137Y-45473258D01*
X110148136Y-44905115D01*
X109638169Y-44338611D01*
X109258562Y-44125901D01*
X109103828Y-44154917D01*
X108524983Y-44420613D01*
X107838201Y-44872189D01*
X106862801Y-45611038D01*
X103888914Y-45611038D01*
X103518139Y-45388538D01*
X101726382Y-44818431D01*
X99834539Y-44706574D01*
X98530935Y-44949737D01*
X97344399Y-45564051D01*
X96318407Y-46598950D01*
X95378337Y-48111450D01*
X95020867Y-48877782D01*
X94537578Y-50658815D01*
X93054706Y-50658815D01*
X93049950Y-50521077D01*
X93511849Y-48528697D01*
X94502171Y-46569178D01*
X95224103Y-45593063D01*
X96656352Y-44273601D01*
X98285214Y-43442120D01*
X100078516Y-43107421D01*
X102004084Y-43278302D01*
X104029747Y-43963562D01*
X105560396Y-44664316D01*
X106597128Y-43945860D01*
X106917242Y-43718554D01*
X107480021Y-43287088D01*
X107759009Y-43024910D01*
X107654897Y-42867101D01*
X107177277Y-42599264D01*
X106455519Y-42294370D01*
X105636186Y-42007900D01*
X104865840Y-41795332D01*
X104291045Y-41712147D01*
X103850382Y-41627942D01*
X103308536Y-41282162D01*
X103257387Y-41218937D01*
X103103765Y-40850159D01*
X103406600Y-40519531D01*
X103665940Y-40398267D01*
X104485025Y-40325504D01*
X105579695Y-40471339D01*
X106818249Y-40812949D01*
X108068981Y-41327508D01*
X109504814Y-42029996D01*
X111164471Y-41344753D01*
X111958634Y-41034387D01*
X113242809Y-40580112D01*
X114384342Y-40224425D01*
X115226505Y-40048198D01*
X116656358Y-39876035D01*
X118320899Y-39770858D01*
X120052960Y-39738605D01*
X121685373Y-39785213D01*
X123050969Y-39916619D01*
X124454653Y-40126354D01*
X124454653Y-39198761D01*
X124449851Y-38941331D01*
X124203843Y-37558530D01*
X123558794Y-36468861D01*
X122477752Y-35628308D01*
X120923765Y-34992854D01*
X120653136Y-34908892D01*
X119739336Y-34574820D01*
X119251549Y-34274483D01*
X119107285Y-33961026D01*
X119107852Y-33924882D01*
X119305889Y-33461095D01*
X119885075Y-33300396D01*
X120882280Y-33431793D01*
X122414562Y-33898315D01*
X123943353Y-34746744D01*
X125030807Y-35892619D01*
X125683254Y-37343090D01*
X125907026Y-39105305D01*
X125933697Y-39772514D01*
X126019973Y-40400267D01*
X126143552Y-40642673D01*
X126320913Y-40665177D01*
X127021379Y-40882781D01*
X128012340Y-41285130D01*
X129171515Y-41814854D01*
X130376621Y-42414584D01*
X131505375Y-43026950D01*
X132435497Y-43594582D01*
X133370572Y-44194931D01*
X134084111Y-44579510D01*
X134561721Y-44715057D01*
X134900964Y-44643062D01*
X135220225Y-44427122D01*
X135952698Y-43633204D01*
X136593536Y-42566563D01*
X137025629Y-41405638D01*
X137060024Y-41266371D01*
X137198488Y-40459769D01*
X137117558Y-39805425D01*
X136787099Y-38999323D01*
X136640296Y-38703548D01*
X136138282Y-37820555D01*
X135660584Y-37126733D01*
X135375638Y-36702455D01*
X135252113Y-36176314D01*
X135469042Y-35884836D01*
X135927310Y-35856081D01*
X136527802Y-36118112D01*
X137171402Y-36698989D01*
X137345204Y-36913511D01*
X138240015Y-38459674D01*
X138636873Y-40103566D01*
X138538648Y-41767995D01*
X137948208Y-43375772D01*
X136868424Y-44849705D01*
X135678074Y-46092024D01*
X136445562Y-46909980D01*
X136978787Y-47512483D01*
X138151439Y-49032027D01*
X139278353Y-50721992D01*
X140204736Y-52358045D01*
X140329071Y-52603118D01*
X140747277Y-53372877D01*
X141061372Y-53773732D01*
X141370162Y-53899285D01*
X141772457Y-53843134D01*
X141877107Y-53816972D01*
X143181561Y-53324293D01*
X144303676Y-52613624D01*
X145067253Y-51794520D01*
X145203123Y-51537883D01*
X145472377Y-50419393D01*
X145458943Y-48964141D01*
X145160936Y-47263367D01*
X145130085Y-46796489D01*
X145367328Y-46362887D01*
X145804250Y-46295523D01*
X146289312Y-46673602D01*
X146484908Y-46970973D01*
X146984697Y-48293542D01*
X147081651Y-49790304D01*
X146780317Y-51325582D01*
X146085240Y-52763697D01*
X145842811Y-53087733D01*
X144994928Y-53915330D01*
X143964466Y-54639560D01*
X142920087Y-55152927D01*
X142030455Y-55347936D01*
X141707075Y-55431537D01*
X141667814Y-55815831D01*
X141780956Y-56205720D01*
X142237063Y-57967008D01*
X142531776Y-59570018D01*
X142699462Y-61244693D01*
X142774483Y-63220975D01*
X142792217Y-64194495D01*
X142837537Y-66682435D01*
X144281411Y-66970746D01*
X145178744Y-67205914D01*
X146437137Y-67746393D01*
X146696259Y-67857686D01*
X147989922Y-68731143D01*
G37*
X147989922Y-68731143D02*
X148904920Y-69733768D01*
X149058844Y-69979664D01*
X149802728Y-71667605D01*
X150018952Y-73344648D01*
X150020003Y-73352806D01*
X149716518Y-74998910D01*
X148898122Y-76569559D01*
X147570663Y-78028393D01*
X146991756Y-78493970D01*
X146120393Y-79074019D01*
X145398231Y-79425894D01*
X144815670Y-79564036D01*
X143485718Y-79659202D01*
X141991455Y-79566620D01*
X140542765Y-79304804D01*
X139349529Y-78892272D01*
X138068616Y-78272472D01*
X136408477Y-79900248D01*
X135857875Y-80426059D01*
X133250780Y-82545180D01*
X130472972Y-84193107D01*
X127447136Y-85409616D01*
X124095959Y-86234479D01*
X122186146Y-86498530D01*
X118764259Y-86562911D01*
X115298818Y-86106394D01*
X111775766Y-85126672D01*
X108181047Y-83621438D01*
X107742746Y-83402562D01*
X104887430Y-81673506D01*
X102369576Y-79608997D01*
X100213523Y-77257506D01*
X98443609Y-74667504D01*
X97084173Y-71887464D01*
X96159553Y-68965856D01*
X95694089Y-65951152D01*
X95700640Y-64839515D01*
X97349675Y-64839515D01*
X97354622Y-65641882D01*
X97384072Y-66923710D01*
X97457744Y-67898502D01*
X97597425Y-68718042D01*
X97824902Y-69534112D01*
X98161961Y-70498496D01*
X98300699Y-70870476D01*
X99177144Y-72905685D01*
X100188321Y-74669289D01*
X101446807Y-76335304D01*
X103065179Y-78077747D01*
X104306814Y-79248783D01*
X106369006Y-80864881D01*
X108595869Y-82189167D01*
X111108321Y-83289549D01*
X114027285Y-84233935D01*
X114457397Y-84343408D01*
X115988304Y-84617312D01*
X117783148Y-84811562D01*
X119684568Y-84919687D01*
X121535201Y-84935220D01*
X123177684Y-84851689D01*
X124454653Y-84662626D01*
X127343888Y-83833308D01*
X130380990Y-82542094D01*
X133030493Y-80898446D01*
X135313209Y-78886519D01*
X137120513Y-76650604D01*
X139163810Y-76650604D01*
X139193438Y-77100886D01*
X139582418Y-77424508D01*
X140363074Y-77750187D01*
X141287843Y-78025520D01*
X143002090Y-78188116D01*
X144638219Y-77927462D01*
X146103304Y-77277084D01*
X147304419Y-76270508D01*
X148148640Y-74941261D01*
X148224098Y-74753569D01*
X148495691Y-73344648D01*
X148302321Y-71964624D01*
X147701151Y-70702532D01*
X146749340Y-69647408D01*
X145504050Y-68888286D01*
X144022442Y-68514203D01*
X143460914Y-68480549D01*
X142711835Y-68598550D01*
X142256455Y-69030630D01*
X141956482Y-69867369D01*
X141867662Y-70304526D01*
X141975807Y-70516992D01*
X142433819Y-70447479D01*
X142524184Y-70426905D01*
X143568076Y-70427064D01*
X144651806Y-70770428D01*
X145631732Y-71371130D01*
X146364208Y-72143300D01*
X146705591Y-73001072D01*
X146674789Y-73459054D01*
X146420437Y-73655323D01*
X146021382Y-73451622D01*
X145578805Y-72860568D01*
X145192175Y-72345967D01*
X144289819Y-71749969D01*
X143222956Y-71539380D01*
X142167811Y-71770516D01*
X141954574Y-71877297D01*
X141406895Y-72274759D01*
X141389006Y-72606411D01*
X141900443Y-72874175D01*
X142315676Y-73046555D01*
X142969916Y-73468368D01*
X143030637Y-73526684D01*
X143347170Y-74132856D01*
X143420914Y-74900317D01*
X143280240Y-75659027D01*
X142953517Y-76238948D01*
X142469113Y-76470042D01*
X142258544Y-76416591D01*
X142155041Y-76111163D01*
X142231247Y-75420729D01*
X142304245Y-74809431D01*
X142212611Y-74362885D01*
X141871272Y-74083887D01*
X141754207Y-74023193D01*
X141208510Y-73840220D01*
X140763450Y-73962809D01*
X140316902Y-74453630D01*
X139766739Y-75375354D01*
X139461214Y-75944945D01*
X139163810Y-76650604D01*
X137120513Y-76650604D01*
X137249949Y-76490471D01*
X138861526Y-73694455D01*
X138897219Y-73620584D01*
X139516128Y-72243557D01*
X140055716Y-70871934D01*
X140486314Y-69601406D01*
X140778255Y-68527662D01*
X140901873Y-67746393D01*
X140827501Y-67353288D01*
X140652313Y-67240228D01*
X140079271Y-66898183D01*
X139186780Y-66375870D01*
X138053047Y-65718134D01*
X136756278Y-64969823D01*
X135374680Y-64175783D01*
X133986458Y-63380861D01*
X132669819Y-62629905D01*
X131502969Y-61967762D01*
X130564116Y-61439277D01*
X129931464Y-61089299D01*
X129683220Y-60962673D01*
X129656966Y-61053669D01*
X129610512Y-61539003D01*
X129592402Y-61898463D01*
X129572026Y-62302935D01*
X129255320Y-64327648D01*
X128445305Y-66228537D01*
X127171474Y-67905939D01*
X125461623Y-69312451D01*
X125402378Y-69350988D01*
X123600328Y-70288805D01*
X121756058Y-70756322D01*
X119705512Y-70795817D01*
X118992650Y-70723569D01*
X117014297Y-70245331D01*
X115283217Y-69339985D01*
X113685822Y-67953906D01*
X112410191Y-66307492D01*
X111492892Y-64339313D01*
X111072922Y-62239309D01*
X111077106Y-62136432D01*
X112574438Y-62136432D01*
X112904578Y-64089692D01*
X113182637Y-64757758D01*
X113931938Y-65906318D01*
X114938195Y-67036944D01*
X116061885Y-68000332D01*
X117163486Y-68647179D01*
X117706598Y-68854856D01*
X118702340Y-69155615D01*
X119646858Y-69359596D01*
X120390036Y-69437262D01*
X120781757Y-69359079D01*
X120747371Y-69116708D01*
X120421846Y-68694077D01*
X120140779Y-68311979D01*
X119906340Y-67416295D01*
X120051022Y-66457010D01*
X120565658Y-65629468D01*
X121015223Y-65274769D01*
X121908935Y-64981751D01*
X122787155Y-65105859D01*
X123531005Y-65588404D01*
X124021604Y-66370700D01*
X124140073Y-67394059D01*
X124121887Y-67625621D01*
X124121250Y-68213482D01*
X124198935Y-68448989D01*
X124279118Y-68435147D01*
X124752920Y-68142943D01*
X125397851Y-67558272D01*
X126104843Y-66796470D01*
X126764826Y-65972873D01*
X127268732Y-65202816D01*
X127509897Y-64748012D01*
X127855559Y-63907456D01*
X128017220Y-63041936D01*
X128055086Y-61898463D01*
X128024992Y-61101132D01*
X127699169Y-59386604D01*
X126966400Y-57882131D01*
X125765807Y-56442630D01*
X124064374Y-55107514D01*
X122092867Y-54217267D01*
X119922047Y-53806691D01*
X119304544Y-53771329D01*
X118403446Y-53796458D01*
X117648488Y-53980123D01*
X116790132Y-54366965D01*
X115442336Y-55266118D01*
X114172698Y-56653101D01*
X113246301Y-58323543D01*
X112700946Y-60182851D01*
X112574438Y-62136432D01*
X111077106Y-62136432D01*
X111161333Y-60065587D01*
X111769177Y-57876256D01*
X111885892Y-57579269D01*
X112194096Y-56667815D01*
X112280418Y-56064485D01*
X112168161Y-55638577D01*
X111655431Y-55000290D01*
X110934014Y-54485725D01*
X110243448Y-54278463D01*
X110037957Y-54394604D01*
X109523299Y-54921270D01*
X108763663Y-55844595D01*
X107784267Y-57133495D01*
X106610329Y-58756884D01*
X105370706Y-60511248D01*
X104194210Y-62197870D01*
X103287587Y-63530576D01*
X102625231Y-64550574D01*
X102181537Y-65299074D01*
X101930903Y-65817286D01*
X101847723Y-66146417D01*
X101906394Y-66327677D01*
X102204616Y-66438869D01*
X102938448Y-66584978D01*
X103982523Y-66736153D01*
X105219536Y-66873083D01*
X106727800Y-67047258D01*
X107944406Y-67274408D01*
X108669095Y-67542484D01*
X108924263Y-67860177D01*
X108732307Y-68236177D01*
X108705823Y-68259739D01*
X108170561Y-68442334D01*
X107248630Y-68516398D01*
X106062794Y-68492022D01*
X104735815Y-68379293D01*
X103390455Y-68188300D01*
X102149479Y-67929133D01*
X101135649Y-67611879D01*
X100656091Y-67349944D01*
X100341314Y-66939733D01*
X100285545Y-66361575D01*
X100503331Y-65565181D01*
X101009225Y-64500266D01*
X101817776Y-63116543D01*
X102943534Y-61363726D01*
X103312191Y-60798967D01*
X103834173Y-59974001D01*
X104179724Y-59393309D01*
X104288022Y-59156731D01*
X104277037Y-59151412D01*
X103957535Y-59204491D01*
X103363796Y-59387633D01*
X102871946Y-59493683D01*
X101859660Y-59560880D01*
X100673304Y-59533722D01*
X99519340Y-59419281D01*
X98604230Y-59224626D01*
X98508087Y-59196145D01*
X98163249Y-59193446D01*
X97922101Y-59491105D01*
X97678771Y-60200796D01*
X97577847Y-60673878D01*
X97452853Y-61770158D01*
X97373908Y-63199408D01*
X97349675Y-64839515D01*
X95700640Y-64839515D01*
X95712119Y-62891823D01*
X96237982Y-59836341D01*
X96602899Y-58429551D01*
X95451062Y-57198144D01*
X94741308Y-56394534D01*
X94017736Y-55353209D01*
X93534517Y-54240324D01*
X93175414Y-52832907D01*
X93119409Y-52532469D01*
X93054706Y-50658815D01*
X94537578Y-50658815D01*
X94577338Y-52400403D01*
X95138468Y-54144779D01*
X95683971Y-55085388D01*
X96639867Y-56232231D01*
X97733847Y-57150827D01*
X98819180Y-57699469D01*
X99539913Y-57892216D01*
X100514302Y-58083949D01*
X101350872Y-58181078D01*
X101862021Y-58155488D01*
X101916699Y-58139211D01*
X102419718Y-58027751D01*
X103148888Y-57894553D01*
X104168385Y-57723693D01*
X103282572Y-57128793D01*
X102856503Y-56771640D01*
X102375702Y-55983191D01*
X102293806Y-55152131D01*
X102580125Y-54403592D01*
X103203971Y-53862706D01*
X104134653Y-53654603D01*
X104199828Y-53655577D01*
X105126142Y-53912209D01*
X105768633Y-54548396D01*
X106014681Y-55456217D01*
X106023130Y-56283726D01*
X106678367Y-55539058D01*
X107265507Y-54619959D01*
X107743445Y-53359419D01*
X108007077Y-52035679D01*
X107990151Y-50883851D01*
X107454265Y-49213153D01*
X106465944Y-47649419D01*
X105125948Y-46353374D01*
X103888914Y-45611038D01*
X106862801Y-45611038D01*
X107665533Y-46669487D01*
X108506564Y-47956186D01*
X109232336Y-49674795D01*
X109482021Y-51325405D01*
X109482021Y-52605908D01*
X110532605Y-52773904D01*
X111444741Y-53075626D01*
X112565275Y-53868124D01*
X113547360Y-54794350D01*
X114544436Y-53993078D01*
X115342284Y-53445444D01*
X116689239Y-52776002D01*
X118087849Y-52312655D01*
X119321347Y-52139515D01*
X120261249Y-52213108D01*
X121778810Y-52527677D01*
X123310813Y-53025519D01*
X124609234Y-53636423D01*
X125644226Y-54350547D01*
X126863984Y-55441024D01*
X127909036Y-56632770D01*
X128623095Y-57765030D01*
X128791569Y-58081795D01*
X129037785Y-58415891D01*
X129401186Y-58767643D01*
X129940051Y-59177565D01*
X130712657Y-59686174D01*
X131777283Y-60333986D01*
X133192206Y-61161516D01*
X135015706Y-62209281D01*
X136352722Y-62974380D01*
X137847125Y-63829738D01*
X139137738Y-64568669D01*
X140159472Y-65153896D01*
X140847236Y-65548145D01*
X141135937Y-65714140D01*
X141244251Y-65607056D01*
X141308462Y-65073435D01*
X141313423Y-64194495D01*
X141266452Y-63069350D01*
X141174868Y-61797112D01*
X141045987Y-60476896D01*
X140887127Y-59207816D01*
X140705608Y-58088984D01*
X140508746Y-57219515D01*
X140506470Y-57211506D01*
X139427421Y-54239089D01*
X137951751Y-51429715D01*
X136148324Y-48895649D01*
X134086004Y-46749152D01*
X133836091Y-46531753D01*
X131135683Y-44549893D01*
X128203322Y-43008833D01*
X125102275Y-41926020D01*
X121895810Y-41318903D01*
X118647195Y-41204928D01*
X115419697Y-41601542D01*
X115395961Y-41606445D01*
X114192204Y-41893571D01*
X113010300Y-42237273D01*
X112102871Y-42564230D01*
X110846878Y-43102787D01*
X111512836Y-44109117D01*
X111979675Y-44972636D01*
X112220885Y-45807232D01*
X112175498Y-46431012D01*
X111830070Y-46732780D01*
X111630512Y-46716247D01*
X111148886Y-46336950D01*
X110537137Y-45473258D01*
X110148136Y-44905115D01*
X109638169Y-44338611D01*
X109258562Y-44125901D01*
X109103828Y-44154917D01*
X108524983Y-44420613D01*
X107838201Y-44872189D01*
X106862801Y-45611038D01*
X103888914Y-45611038D01*
X103518139Y-45388538D01*
X101726382Y-44818431D01*
X99834539Y-44706574D01*
X98530935Y-44949737D01*
X97344399Y-45564051D01*
X96318407Y-46598950D01*
X95378337Y-48111450D01*
X95020867Y-48877782D01*
X94537578Y-50658815D01*
X93054706Y-50658815D01*
X93049950Y-50521077D01*
X93511849Y-48528697D01*
X94502171Y-46569178D01*
X95224103Y-45593063D01*
X96656352Y-44273601D01*
X98285214Y-43442120D01*
X100078516Y-43107421D01*
X102004084Y-43278302D01*
X104029747Y-43963562D01*
X105560396Y-44664316D01*
X106597128Y-43945860D01*
X106917242Y-43718554D01*
X107480021Y-43287088D01*
X107759009Y-43024910D01*
X107654897Y-42867101D01*
X107177277Y-42599264D01*
X106455519Y-42294370D01*
X105636186Y-42007900D01*
X104865840Y-41795332D01*
X104291045Y-41712147D01*
X103850382Y-41627942D01*
X103308536Y-41282162D01*
X103257387Y-41218937D01*
X103103765Y-40850159D01*
X103406600Y-40519531D01*
X103665940Y-40398267D01*
X104485025Y-40325504D01*
X105579695Y-40471339D01*
X106818249Y-40812949D01*
X108068981Y-41327508D01*
X109504814Y-42029996D01*
X111164471Y-41344753D01*
X111958634Y-41034387D01*
X113242809Y-40580112D01*
X114384342Y-40224425D01*
X115226505Y-40048198D01*
X116656358Y-39876035D01*
X118320899Y-39770858D01*
X120052960Y-39738605D01*
X121685373Y-39785213D01*
X123050969Y-39916619D01*
X124454653Y-40126354D01*
X124454653Y-39198761D01*
X124449851Y-38941331D01*
X124203843Y-37558530D01*
X123558794Y-36468861D01*
X122477752Y-35628308D01*
X120923765Y-34992854D01*
X120653136Y-34908892D01*
X119739336Y-34574820D01*
X119251549Y-34274483D01*
X119107285Y-33961026D01*
X119107852Y-33924882D01*
X119305889Y-33461095D01*
X119885075Y-33300396D01*
X120882280Y-33431793D01*
X122414562Y-33898315D01*
X123943353Y-34746744D01*
X125030807Y-35892619D01*
X125683254Y-37343090D01*
X125907026Y-39105305D01*
X125933697Y-39772514D01*
X126019973Y-40400267D01*
X126143552Y-40642673D01*
X126320913Y-40665177D01*
X127021379Y-40882781D01*
X128012340Y-41285130D01*
X129171515Y-41814854D01*
X130376621Y-42414584D01*
X131505375Y-43026950D01*
X132435497Y-43594582D01*
X133370572Y-44194931D01*
X134084111Y-44579510D01*
X134561721Y-44715057D01*
X134900964Y-44643062D01*
X135220225Y-44427122D01*
X135952698Y-43633204D01*
X136593536Y-42566563D01*
X137025629Y-41405638D01*
X137060024Y-41266371D01*
X137198488Y-40459769D01*
X137117558Y-39805425D01*
X136787099Y-38999323D01*
X136640296Y-38703548D01*
X136138282Y-37820555D01*
X135660584Y-37126733D01*
X135375638Y-36702455D01*
X135252113Y-36176314D01*
X135469042Y-35884836D01*
X135927310Y-35856081D01*
X136527802Y-36118112D01*
X137171402Y-36698989D01*
X137345204Y-36913511D01*
X138240015Y-38459674D01*
X138636873Y-40103566D01*
X138538648Y-41767995D01*
X137948208Y-43375772D01*
X136868424Y-44849705D01*
X135678074Y-46092024D01*
X136445562Y-46909980D01*
X136978787Y-47512483D01*
X138151439Y-49032027D01*
X139278353Y-50721992D01*
X140204736Y-52358045D01*
X140329071Y-52603118D01*
X140747277Y-53372877D01*
X141061372Y-53773732D01*
X141370162Y-53899285D01*
X141772457Y-53843134D01*
X141877107Y-53816972D01*
X143181561Y-53324293D01*
X144303676Y-52613624D01*
X145067253Y-51794520D01*
X145203123Y-51537883D01*
X145472377Y-50419393D01*
X145458943Y-48964141D01*
X145160936Y-47263367D01*
X145130085Y-46796489D01*
X145367328Y-46362887D01*
X145804250Y-46295523D01*
X146289312Y-46673602D01*
X146484908Y-46970973D01*
X146984697Y-48293542D01*
X147081651Y-49790304D01*
X146780317Y-51325582D01*
X146085240Y-52763697D01*
X145842811Y-53087733D01*
X144994928Y-53915330D01*
X143964466Y-54639560D01*
X142920087Y-55152927D01*
X142030455Y-55347936D01*
X141707075Y-55431537D01*
X141667814Y-55815831D01*
X141780956Y-56205720D01*
X142237063Y-57967008D01*
X142531776Y-59570018D01*
X142699462Y-61244693D01*
X142774483Y-63220975D01*
X142792217Y-64194495D01*
X142837537Y-66682435D01*
X144281411Y-66970746D01*
X145178744Y-67205914D01*
X146437137Y-67746393D01*
X146696259Y-67857686D01*
X147989922Y-68731143D01*
D17*
X75181600Y-83822400D02*
X75181600Y-81582400D01*
X82421600Y-83822400D02*
X82421600Y-81582400D01*
X75181600Y-83822400D02*
X82421600Y-83822400D01*
X75181600Y-81582400D02*
X82421600Y-81582400D01*
X75181600Y-86662400D02*
X82421600Y-86662400D01*
X75181600Y-88902400D02*
X75181600Y-86662400D01*
X82421600Y-88902400D02*
X82421600Y-86662400D01*
X75181600Y-88902400D02*
X82421600Y-88902400D01*
X68916800Y-83392400D02*
X70426800Y-83392400D01*
X73557800Y-80122400D02*
X73557800Y-90362400D01*
X68916800Y-80122400D02*
X73557800Y-80122400D01*
X70426800Y-80122400D02*
X70426800Y-90362400D01*
X68916800Y-90362400D02*
X73557800Y-90362400D01*
X68916800Y-87093400D02*
X70426800Y-87093400D01*
X68916800Y-80122400D02*
X68916800Y-90362400D01*
M02*
