G04 #@! TF.GenerationSoftware,KiCad,Pcbnew,(5.1.2)-1*
G04 #@! TF.CreationDate,2021-02-28T11:05:55-08:00*
G04 #@! TF.ProjectId,PBJ EU,50424a20-4555-42e6-9b69-6361645f7063,rev?*
G04 #@! TF.SameCoordinates,Original*
G04 #@! TF.FileFunction,Legend,Bot*
G04 #@! TF.FilePolarity,Positive*
%FSLAX46Y46*%
G04 Gerber Fmt 4.6, Leading zero omitted, Abs format (unit mm)*
G04 Created by KiCad (PCBNEW (5.1.2)-1) date 2021-02-28 11:05:55*
%MOMM*%
%LPD*%
G04 APERTURE LIST*
%ADD10C,0.750000*%
%ADD11C,0.120000*%
%ADD12C,0.150000*%
%ADD13C,0.100000*%
G04 APERTURE END LIST*
D10*
X43070000Y-126210000D02*
X48070000Y-126210000D01*
D11*
X151400000Y-149250000D02*
X40000000Y-149250000D01*
D12*
X48987619Y-129779523D02*
X49987619Y-129779523D01*
X49987619Y-129398571D01*
X49940000Y-129303333D01*
X49892380Y-129255714D01*
X49797142Y-129208095D01*
X49654285Y-129208095D01*
X49559047Y-129255714D01*
X49511428Y-129303333D01*
X49463809Y-129398571D01*
X49463809Y-129779523D01*
X48987619Y-128779523D02*
X49654285Y-128779523D01*
X49987619Y-128779523D02*
X49940000Y-128827142D01*
X49892380Y-128779523D01*
X49940000Y-128731904D01*
X49987619Y-128779523D01*
X49892380Y-128779523D01*
X49654285Y-128303333D02*
X48987619Y-128303333D01*
X49559047Y-128303333D02*
X49606666Y-128255714D01*
X49654285Y-128160476D01*
X49654285Y-128017619D01*
X49606666Y-127922380D01*
X49511428Y-127874761D01*
X48987619Y-127874761D01*
X48987619Y-126112857D02*
X48987619Y-126684285D01*
X48987619Y-126398571D02*
X49987619Y-126398571D01*
X49844761Y-126493809D01*
X49749523Y-126589047D01*
X49701904Y-126684285D01*
D11*
X95700000Y-30000000D02*
X95700000Y-158500000D01*
X151400000Y-39000000D02*
X40000000Y-39000000D01*
X75670000Y-113930000D02*
X76440000Y-113930000D01*
X83750000Y-113930000D02*
X82980000Y-113930000D01*
X76440000Y-112560000D02*
X82980000Y-112560000D01*
X76440000Y-115300000D02*
X76440000Y-112560000D01*
X82980000Y-115300000D02*
X76440000Y-115300000D01*
X82980000Y-112560000D02*
X82980000Y-115300000D01*
X83730000Y-107670000D02*
X82960000Y-107670000D01*
X75650000Y-107670000D02*
X76420000Y-107670000D01*
X82960000Y-109040000D02*
X76420000Y-109040000D01*
X82960000Y-106300000D02*
X82960000Y-109040000D01*
X76420000Y-106300000D02*
X82960000Y-106300000D01*
X76420000Y-109040000D02*
X76420000Y-106300000D01*
X139250000Y-107660000D02*
X138480000Y-107660000D01*
X131170000Y-107660000D02*
X131940000Y-107660000D01*
X138480000Y-109030000D02*
X131940000Y-109030000D01*
X138480000Y-106290000D02*
X138480000Y-109030000D01*
X131940000Y-106290000D02*
X138480000Y-106290000D01*
X131940000Y-109030000D02*
X131940000Y-106290000D01*
X42920000Y-108880000D02*
X42920000Y-109650000D01*
X42920000Y-116960000D02*
X42920000Y-116190000D01*
X44290000Y-109650000D02*
X44290000Y-116190000D01*
X41550000Y-109650000D02*
X44290000Y-109650000D01*
X41550000Y-116190000D02*
X41550000Y-109650000D01*
X44290000Y-116190000D02*
X41550000Y-116190000D01*
X131160000Y-113870000D02*
X131930000Y-113870000D01*
X139240000Y-113870000D02*
X138470000Y-113870000D01*
X131930000Y-112500000D02*
X138470000Y-112500000D01*
X131930000Y-115240000D02*
X131930000Y-112500000D01*
X138470000Y-115240000D02*
X131930000Y-115240000D01*
X138470000Y-112500000D02*
X138470000Y-115240000D01*
X116730000Y-116940000D02*
X115960000Y-116940000D01*
X108650000Y-116940000D02*
X109420000Y-116940000D01*
X115960000Y-118310000D02*
X109420000Y-118310000D01*
X115960000Y-115570000D02*
X115960000Y-118310000D01*
X109420000Y-115570000D02*
X115960000Y-115570000D01*
X109420000Y-118310000D02*
X109420000Y-115570000D01*
X65480000Y-117080000D02*
X66250000Y-117080000D01*
X73560000Y-117080000D02*
X72790000Y-117080000D01*
X66250000Y-115710000D02*
X72790000Y-115710000D01*
X66250000Y-118450000D02*
X66250000Y-115710000D01*
X72790000Y-118450000D02*
X66250000Y-118450000D01*
X72790000Y-115710000D02*
X72790000Y-118450000D01*
X61160000Y-117080000D02*
X60390000Y-117080000D01*
X53080000Y-117080000D02*
X53850000Y-117080000D01*
X60390000Y-118450000D02*
X53850000Y-118450000D01*
X60390000Y-115710000D02*
X60390000Y-118450000D01*
X53850000Y-115710000D02*
X60390000Y-115710000D01*
X53850000Y-118450000D02*
X53850000Y-115710000D01*
X121100000Y-116940000D02*
X121870000Y-116940000D01*
X129180000Y-116940000D02*
X128410000Y-116940000D01*
X121870000Y-115570000D02*
X128410000Y-115570000D01*
X121870000Y-118310000D02*
X121870000Y-115570000D01*
X128410000Y-118310000D02*
X121870000Y-118310000D01*
X128410000Y-115570000D02*
X128410000Y-118310000D01*
X116750000Y-113800000D02*
X115980000Y-113800000D01*
X108670000Y-113800000D02*
X109440000Y-113800000D01*
X115980000Y-115170000D02*
X109440000Y-115170000D01*
X115980000Y-112430000D02*
X115980000Y-115170000D01*
X109440000Y-112430000D02*
X115980000Y-112430000D01*
X109440000Y-115170000D02*
X109440000Y-112430000D01*
X61200000Y-113890000D02*
X60430000Y-113890000D01*
X53120000Y-113890000D02*
X53890000Y-113890000D01*
X60430000Y-115260000D02*
X53890000Y-115260000D01*
X60430000Y-112520000D02*
X60430000Y-115260000D01*
X53890000Y-112520000D02*
X60430000Y-112520000D01*
X53890000Y-115260000D02*
X53890000Y-112520000D01*
X61220000Y-104500000D02*
X60450000Y-104500000D01*
X53140000Y-104500000D02*
X53910000Y-104500000D01*
X60450000Y-105870000D02*
X53910000Y-105870000D01*
X60450000Y-103130000D02*
X60450000Y-105870000D01*
X53910000Y-103130000D02*
X60450000Y-103130000D01*
X53910000Y-105870000D02*
X53910000Y-103130000D01*
X53120000Y-110710000D02*
X53890000Y-110710000D01*
X61200000Y-110710000D02*
X60430000Y-110710000D01*
X53890000Y-109340000D02*
X60430000Y-109340000D01*
X53890000Y-112080000D02*
X53890000Y-109340000D01*
X60430000Y-112080000D02*
X53890000Y-112080000D01*
X60430000Y-109340000D02*
X60430000Y-112080000D01*
X53130000Y-107600000D02*
X53900000Y-107600000D01*
X61210000Y-107600000D02*
X60440000Y-107600000D01*
X53900000Y-106230000D02*
X60440000Y-106230000D01*
X53900000Y-108970000D02*
X53900000Y-106230000D01*
X60440000Y-108970000D02*
X53900000Y-108970000D01*
X60440000Y-106230000D02*
X60440000Y-108970000D01*
X108660000Y-110720000D02*
X109430000Y-110720000D01*
X116740000Y-110720000D02*
X115970000Y-110720000D01*
X109430000Y-109350000D02*
X115970000Y-109350000D01*
X109430000Y-112090000D02*
X109430000Y-109350000D01*
X115970000Y-112090000D02*
X109430000Y-112090000D01*
X115970000Y-109350000D02*
X115970000Y-112090000D01*
X83675225Y-88675000D02*
X83675225Y-88175000D01*
X83425225Y-88425000D02*
X83925225Y-88425000D01*
X88625997Y-85890000D02*
G75*
G03X83834003Y-85890000I-2395997J-1060000D01*
G01*
X88625997Y-88010000D02*
G75*
G02X83834003Y-88010000I-2395997J1060000D01*
G01*
X64930000Y-98480000D02*
X64930000Y-100720000D01*
X72170000Y-98480000D02*
X72170000Y-100720000D01*
X72170000Y-100720000D02*
X64930000Y-100720000D01*
X72170000Y-98480000D02*
X64930000Y-98480000D01*
X120280000Y-98430000D02*
X120280000Y-100670000D01*
X127520000Y-98430000D02*
X127520000Y-100670000D01*
X127520000Y-100670000D02*
X120280000Y-100670000D01*
X127520000Y-98430000D02*
X120280000Y-98430000D01*
X120330000Y-112130000D02*
X120330000Y-114370000D01*
X127570000Y-112130000D02*
X127570000Y-114370000D01*
X127570000Y-114370000D02*
X120330000Y-114370000D01*
X127570000Y-112130000D02*
X120330000Y-112130000D01*
X64680000Y-112080000D02*
X64680000Y-114320000D01*
X71920000Y-112080000D02*
X71920000Y-114320000D01*
X71920000Y-114320000D02*
X64680000Y-114320000D01*
X71920000Y-112080000D02*
X64680000Y-112080000D01*
X139250000Y-110770000D02*
X138480000Y-110770000D01*
X131170000Y-110770000D02*
X131940000Y-110770000D01*
X138480000Y-112140000D02*
X131940000Y-112140000D01*
X138480000Y-109400000D02*
X138480000Y-112140000D01*
X131940000Y-109400000D02*
X138480000Y-109400000D01*
X131940000Y-112140000D02*
X131940000Y-109400000D01*
X70970000Y-111530000D02*
X69320000Y-111530000D01*
X70970000Y-101250000D02*
X70970000Y-111530000D01*
X65670000Y-101250000D02*
X70970000Y-101250000D01*
X65670000Y-111530000D02*
X65670000Y-101250000D01*
X67320000Y-111530000D02*
X65670000Y-111530000D01*
X69320000Y-111530000D02*
G75*
G03X67320000Y-111530000I-1000000J0D01*
G01*
X141530000Y-116940000D02*
X140760000Y-116940000D01*
X133450000Y-116940000D02*
X134220000Y-116940000D01*
X140760000Y-118310000D02*
X134220000Y-118310000D01*
X140760000Y-115570000D02*
X140760000Y-118310000D01*
X134220000Y-115570000D02*
X140760000Y-115570000D01*
X134220000Y-118310000D02*
X134220000Y-115570000D01*
D13*
X100570000Y-89250000D02*
X100570000Y-88850000D01*
X100170000Y-89250000D02*
X100570000Y-89250000D01*
X90370000Y-89250000D02*
X90770000Y-89250000D01*
X90370000Y-89250000D02*
X90370000Y-88850000D01*
X90370000Y-84450000D02*
X90770000Y-84450000D01*
X90370000Y-84450000D02*
X90370000Y-88850000D01*
X100570000Y-84450000D02*
X100170000Y-84450000D01*
X100570000Y-84450000D02*
X100570000Y-84850000D01*
X90370000Y-88140000D02*
X100470000Y-88140000D01*
D11*
X85940000Y-117090000D02*
X85170000Y-117090000D01*
X77860000Y-117090000D02*
X78630000Y-117090000D01*
X85170000Y-118460000D02*
X78630000Y-118460000D01*
X85170000Y-115720000D02*
X85170000Y-118460000D01*
X78630000Y-115720000D02*
X85170000Y-115720000D01*
X78630000Y-118460000D02*
X78630000Y-115720000D01*
X83730000Y-110800000D02*
X82960000Y-110800000D01*
X75650000Y-110800000D02*
X76420000Y-110800000D01*
X82960000Y-112170000D02*
X76420000Y-112170000D01*
X82960000Y-109430000D02*
X82960000Y-112170000D01*
X76420000Y-109430000D02*
X82960000Y-109430000D01*
X76420000Y-112170000D02*
X76420000Y-109430000D01*
X102475225Y-88575000D02*
X102475225Y-88075000D01*
X102225225Y-88325000D02*
X102725225Y-88325000D01*
X107425997Y-85790000D02*
G75*
G03X102634003Y-85790000I-2395997J-1060000D01*
G01*
X107425997Y-87910000D02*
G75*
G02X102634003Y-87910000I-2395997J1060000D01*
G01*
X125020000Y-111530000D02*
G75*
G03X123020000Y-111530000I-1000000J0D01*
G01*
X123020000Y-111530000D02*
X121370000Y-111530000D01*
X121370000Y-111530000D02*
X121370000Y-101250000D01*
X121370000Y-101250000D02*
X126670000Y-101250000D01*
X126670000Y-101250000D02*
X126670000Y-111530000D01*
X126670000Y-111530000D02*
X125020000Y-111530000D01*
X48210000Y-140200000D02*
X43010000Y-140200000D01*
X48210000Y-129980000D02*
X48210000Y-140200000D01*
X43010000Y-127380000D02*
X43010000Y-140200000D01*
X48210000Y-129980000D02*
X45610000Y-129980000D01*
X45610000Y-129980000D02*
X45610000Y-127380000D01*
X45610000Y-127380000D02*
X43010000Y-127380000D01*
X48210000Y-128710000D02*
X48210000Y-127380000D01*
X48210000Y-127380000D02*
X46880000Y-127380000D01*
X116720000Y-104550000D02*
X115950000Y-104550000D01*
X108640000Y-104550000D02*
X109410000Y-104550000D01*
X115950000Y-105920000D02*
X109410000Y-105920000D01*
X115950000Y-103180000D02*
X115950000Y-105920000D01*
X109410000Y-103180000D02*
X115950000Y-103180000D01*
X109410000Y-105920000D02*
X109410000Y-103180000D01*
X108650000Y-107650000D02*
X109420000Y-107650000D01*
X116730000Y-107650000D02*
X115960000Y-107650000D01*
X109420000Y-106280000D02*
X115960000Y-106280000D01*
X109420000Y-109020000D02*
X109420000Y-106280000D01*
X115960000Y-109020000D02*
X109420000Y-109020000D01*
X115960000Y-106280000D02*
X115960000Y-109020000D01*
X82950000Y-103200000D02*
X82950000Y-105940000D01*
X82950000Y-105940000D02*
X76410000Y-105940000D01*
X76410000Y-105940000D02*
X76410000Y-103200000D01*
X76410000Y-103200000D02*
X82950000Y-103200000D01*
X83720000Y-104570000D02*
X82950000Y-104570000D01*
X75640000Y-104570000D02*
X76410000Y-104570000D01*
X138480000Y-103200000D02*
X138480000Y-105940000D01*
X138480000Y-105940000D02*
X131940000Y-105940000D01*
X131940000Y-105940000D02*
X131940000Y-103200000D01*
X131940000Y-103200000D02*
X138480000Y-103200000D01*
X139250000Y-104570000D02*
X138480000Y-104570000D01*
X131170000Y-104570000D02*
X131940000Y-104570000D01*
X83760000Y-101430000D02*
X82990000Y-101430000D01*
X75680000Y-101430000D02*
X76450000Y-101430000D01*
X82990000Y-102800000D02*
X76450000Y-102800000D01*
X82990000Y-100060000D02*
X82990000Y-102800000D01*
X76450000Y-100060000D02*
X82990000Y-100060000D01*
X76450000Y-102800000D02*
X76450000Y-100060000D01*
X131930000Y-102840000D02*
X131930000Y-100100000D01*
X131930000Y-100100000D02*
X138470000Y-100100000D01*
X138470000Y-100100000D02*
X138470000Y-102840000D01*
X138470000Y-102840000D02*
X131930000Y-102840000D01*
X131160000Y-101470000D02*
X131930000Y-101470000D01*
X139240000Y-101470000D02*
X138470000Y-101470000D01*
D12*
X80432857Y-114282380D02*
X80766190Y-113806190D01*
X81004285Y-114282380D02*
X81004285Y-113282380D01*
X80623333Y-113282380D01*
X80528095Y-113330000D01*
X80480476Y-113377619D01*
X80432857Y-113472857D01*
X80432857Y-113615714D01*
X80480476Y-113710952D01*
X80528095Y-113758571D01*
X80623333Y-113806190D01*
X81004285Y-113806190D01*
X80099523Y-113282380D02*
X79480476Y-113282380D01*
X79813809Y-113663333D01*
X79670952Y-113663333D01*
X79575714Y-113710952D01*
X79528095Y-113758571D01*
X79480476Y-113853809D01*
X79480476Y-114091904D01*
X79528095Y-114187142D01*
X79575714Y-114234761D01*
X79670952Y-114282380D01*
X79956666Y-114282380D01*
X80051904Y-114234761D01*
X80099523Y-114187142D01*
X78528095Y-114282380D02*
X79099523Y-114282380D01*
X78813809Y-114282380D02*
X78813809Y-113282380D01*
X78909047Y-113425238D01*
X79004285Y-113520476D01*
X79099523Y-113568095D01*
X80332857Y-108122380D02*
X80666190Y-107646190D01*
X80904285Y-108122380D02*
X80904285Y-107122380D01*
X80523333Y-107122380D01*
X80428095Y-107170000D01*
X80380476Y-107217619D01*
X80332857Y-107312857D01*
X80332857Y-107455714D01*
X80380476Y-107550952D01*
X80428095Y-107598571D01*
X80523333Y-107646190D01*
X80904285Y-107646190D01*
X79999523Y-107122380D02*
X79380476Y-107122380D01*
X79713809Y-107503333D01*
X79570952Y-107503333D01*
X79475714Y-107550952D01*
X79428095Y-107598571D01*
X79380476Y-107693809D01*
X79380476Y-107931904D01*
X79428095Y-108027142D01*
X79475714Y-108074761D01*
X79570952Y-108122380D01*
X79856666Y-108122380D01*
X79951904Y-108074761D01*
X79999523Y-108027142D01*
X79047142Y-107122380D02*
X78380476Y-107122380D01*
X78809047Y-108122380D01*
X135872857Y-108262380D02*
X136206190Y-107786190D01*
X136444285Y-108262380D02*
X136444285Y-107262380D01*
X136063333Y-107262380D01*
X135968095Y-107310000D01*
X135920476Y-107357619D01*
X135872857Y-107452857D01*
X135872857Y-107595714D01*
X135920476Y-107690952D01*
X135968095Y-107738571D01*
X136063333Y-107786190D01*
X136444285Y-107786190D01*
X135539523Y-107262380D02*
X134920476Y-107262380D01*
X135253809Y-107643333D01*
X135110952Y-107643333D01*
X135015714Y-107690952D01*
X134968095Y-107738571D01*
X134920476Y-107833809D01*
X134920476Y-108071904D01*
X134968095Y-108167142D01*
X135015714Y-108214761D01*
X135110952Y-108262380D01*
X135396666Y-108262380D01*
X135491904Y-108214761D01*
X135539523Y-108167142D01*
X134349047Y-107690952D02*
X134444285Y-107643333D01*
X134491904Y-107595714D01*
X134539523Y-107500476D01*
X134539523Y-107452857D01*
X134491904Y-107357619D01*
X134444285Y-107310000D01*
X134349047Y-107262380D01*
X134158571Y-107262380D01*
X134063333Y-107310000D01*
X134015714Y-107357619D01*
X133968095Y-107452857D01*
X133968095Y-107500476D01*
X134015714Y-107595714D01*
X134063333Y-107643333D01*
X134158571Y-107690952D01*
X134349047Y-107690952D01*
X134444285Y-107738571D01*
X134491904Y-107786190D01*
X134539523Y-107881428D01*
X134539523Y-108071904D01*
X134491904Y-108167142D01*
X134444285Y-108214761D01*
X134349047Y-108262380D01*
X134158571Y-108262380D01*
X134063333Y-108214761D01*
X134015714Y-108167142D01*
X133968095Y-108071904D01*
X133968095Y-107881428D01*
X134015714Y-107786190D01*
X134063333Y-107738571D01*
X134158571Y-107690952D01*
X43322380Y-112207142D02*
X42846190Y-111873809D01*
X43322380Y-111635714D02*
X42322380Y-111635714D01*
X42322380Y-112016666D01*
X42370000Y-112111904D01*
X42417619Y-112159523D01*
X42512857Y-112207142D01*
X42655714Y-112207142D01*
X42750952Y-112159523D01*
X42798571Y-112111904D01*
X42846190Y-112016666D01*
X42846190Y-111635714D01*
X42655714Y-113064285D02*
X43322380Y-113064285D01*
X42274761Y-112826190D02*
X42989047Y-112588095D01*
X42989047Y-113207142D01*
X42322380Y-113492857D02*
X42322380Y-114111904D01*
X42703333Y-113778571D01*
X42703333Y-113921428D01*
X42750952Y-114016666D01*
X42798571Y-114064285D01*
X42893809Y-114111904D01*
X43131904Y-114111904D01*
X43227142Y-114064285D01*
X43274761Y-114016666D01*
X43322380Y-113921428D01*
X43322380Y-113635714D01*
X43274761Y-113540476D01*
X43227142Y-113492857D01*
X135822857Y-114272380D02*
X136156190Y-113796190D01*
X136394285Y-114272380D02*
X136394285Y-113272380D01*
X136013333Y-113272380D01*
X135918095Y-113320000D01*
X135870476Y-113367619D01*
X135822857Y-113462857D01*
X135822857Y-113605714D01*
X135870476Y-113700952D01*
X135918095Y-113748571D01*
X136013333Y-113796190D01*
X136394285Y-113796190D01*
X135489523Y-113272380D02*
X134870476Y-113272380D01*
X135203809Y-113653333D01*
X135060952Y-113653333D01*
X134965714Y-113700952D01*
X134918095Y-113748571D01*
X134870476Y-113843809D01*
X134870476Y-114081904D01*
X134918095Y-114177142D01*
X134965714Y-114224761D01*
X135060952Y-114272380D01*
X135346666Y-114272380D01*
X135441904Y-114224761D01*
X135489523Y-114177142D01*
X134489523Y-113367619D02*
X134441904Y-113320000D01*
X134346666Y-113272380D01*
X134108571Y-113272380D01*
X134013333Y-113320000D01*
X133965714Y-113367619D01*
X133918095Y-113462857D01*
X133918095Y-113558095D01*
X133965714Y-113700952D01*
X134537142Y-114272380D01*
X133918095Y-114272380D01*
X113352857Y-117342380D02*
X113686190Y-116866190D01*
X113924285Y-117342380D02*
X113924285Y-116342380D01*
X113543333Y-116342380D01*
X113448095Y-116390000D01*
X113400476Y-116437619D01*
X113352857Y-116532857D01*
X113352857Y-116675714D01*
X113400476Y-116770952D01*
X113448095Y-116818571D01*
X113543333Y-116866190D01*
X113924285Y-116866190D01*
X112971904Y-116437619D02*
X112924285Y-116390000D01*
X112829047Y-116342380D01*
X112590952Y-116342380D01*
X112495714Y-116390000D01*
X112448095Y-116437619D01*
X112400476Y-116532857D01*
X112400476Y-116628095D01*
X112448095Y-116770952D01*
X113019523Y-117342380D01*
X112400476Y-117342380D01*
X112067142Y-116342380D02*
X111448095Y-116342380D01*
X111781428Y-116723333D01*
X111638571Y-116723333D01*
X111543333Y-116770952D01*
X111495714Y-116818571D01*
X111448095Y-116913809D01*
X111448095Y-117151904D01*
X111495714Y-117247142D01*
X111543333Y-117294761D01*
X111638571Y-117342380D01*
X111924285Y-117342380D01*
X112019523Y-117294761D01*
X112067142Y-117247142D01*
X70162857Y-117582380D02*
X70496190Y-117106190D01*
X70734285Y-117582380D02*
X70734285Y-116582380D01*
X70353333Y-116582380D01*
X70258095Y-116630000D01*
X70210476Y-116677619D01*
X70162857Y-116772857D01*
X70162857Y-116915714D01*
X70210476Y-117010952D01*
X70258095Y-117058571D01*
X70353333Y-117106190D01*
X70734285Y-117106190D01*
X69210476Y-117582380D02*
X69781904Y-117582380D01*
X69496190Y-117582380D02*
X69496190Y-116582380D01*
X69591428Y-116725238D01*
X69686666Y-116820476D01*
X69781904Y-116868095D01*
X68734285Y-117582380D02*
X68543809Y-117582380D01*
X68448571Y-117534761D01*
X68400952Y-117487142D01*
X68305714Y-117344285D01*
X68258095Y-117153809D01*
X68258095Y-116772857D01*
X68305714Y-116677619D01*
X68353333Y-116630000D01*
X68448571Y-116582380D01*
X68639047Y-116582380D01*
X68734285Y-116630000D01*
X68781904Y-116677619D01*
X68829523Y-116772857D01*
X68829523Y-117010952D01*
X68781904Y-117106190D01*
X68734285Y-117153809D01*
X68639047Y-117201428D01*
X68448571Y-117201428D01*
X68353333Y-117153809D01*
X68305714Y-117106190D01*
X68258095Y-117010952D01*
X57682857Y-117482380D02*
X58016190Y-117006190D01*
X58254285Y-117482380D02*
X58254285Y-116482380D01*
X57873333Y-116482380D01*
X57778095Y-116530000D01*
X57730476Y-116577619D01*
X57682857Y-116672857D01*
X57682857Y-116815714D01*
X57730476Y-116910952D01*
X57778095Y-116958571D01*
X57873333Y-117006190D01*
X58254285Y-117006190D01*
X57301904Y-116577619D02*
X57254285Y-116530000D01*
X57159047Y-116482380D01*
X56920952Y-116482380D01*
X56825714Y-116530000D01*
X56778095Y-116577619D01*
X56730476Y-116672857D01*
X56730476Y-116768095D01*
X56778095Y-116910952D01*
X57349523Y-117482380D01*
X56730476Y-117482380D01*
X56349523Y-116577619D02*
X56301904Y-116530000D01*
X56206666Y-116482380D01*
X55968571Y-116482380D01*
X55873333Y-116530000D01*
X55825714Y-116577619D01*
X55778095Y-116672857D01*
X55778095Y-116768095D01*
X55825714Y-116910952D01*
X56397142Y-117482380D01*
X55778095Y-117482380D01*
X125862857Y-117492380D02*
X126196190Y-117016190D01*
X126434285Y-117492380D02*
X126434285Y-116492380D01*
X126053333Y-116492380D01*
X125958095Y-116540000D01*
X125910476Y-116587619D01*
X125862857Y-116682857D01*
X125862857Y-116825714D01*
X125910476Y-116920952D01*
X125958095Y-116968571D01*
X126053333Y-117016190D01*
X126434285Y-117016190D01*
X125481904Y-116587619D02*
X125434285Y-116540000D01*
X125339047Y-116492380D01*
X125100952Y-116492380D01*
X125005714Y-116540000D01*
X124958095Y-116587619D01*
X124910476Y-116682857D01*
X124910476Y-116778095D01*
X124958095Y-116920952D01*
X125529523Y-117492380D01*
X124910476Y-117492380D01*
X124291428Y-116492380D02*
X124196190Y-116492380D01*
X124100952Y-116540000D01*
X124053333Y-116587619D01*
X124005714Y-116682857D01*
X123958095Y-116873333D01*
X123958095Y-117111428D01*
X124005714Y-117301904D01*
X124053333Y-117397142D01*
X124100952Y-117444761D01*
X124196190Y-117492380D01*
X124291428Y-117492380D01*
X124386666Y-117444761D01*
X124434285Y-117397142D01*
X124481904Y-117301904D01*
X124529523Y-117111428D01*
X124529523Y-116873333D01*
X124481904Y-116682857D01*
X124434285Y-116587619D01*
X124386666Y-116540000D01*
X124291428Y-116492380D01*
X112996666Y-114252380D02*
X113330000Y-113776190D01*
X113568095Y-114252380D02*
X113568095Y-113252380D01*
X113187142Y-113252380D01*
X113091904Y-113300000D01*
X113044285Y-113347619D01*
X112996666Y-113442857D01*
X112996666Y-113585714D01*
X113044285Y-113680952D01*
X113091904Y-113728571D01*
X113187142Y-113776190D01*
X113568095Y-113776190D01*
X112425238Y-113680952D02*
X112520476Y-113633333D01*
X112568095Y-113585714D01*
X112615714Y-113490476D01*
X112615714Y-113442857D01*
X112568095Y-113347619D01*
X112520476Y-113300000D01*
X112425238Y-113252380D01*
X112234761Y-113252380D01*
X112139523Y-113300000D01*
X112091904Y-113347619D01*
X112044285Y-113442857D01*
X112044285Y-113490476D01*
X112091904Y-113585714D01*
X112139523Y-113633333D01*
X112234761Y-113680952D01*
X112425238Y-113680952D01*
X112520476Y-113728571D01*
X112568095Y-113776190D01*
X112615714Y-113871428D01*
X112615714Y-114061904D01*
X112568095Y-114157142D01*
X112520476Y-114204761D01*
X112425238Y-114252380D01*
X112234761Y-114252380D01*
X112139523Y-114204761D01*
X112091904Y-114157142D01*
X112044285Y-114061904D01*
X112044285Y-113871428D01*
X112091904Y-113776190D01*
X112139523Y-113728571D01*
X112234761Y-113680952D01*
X57296666Y-114392380D02*
X57630000Y-113916190D01*
X57868095Y-114392380D02*
X57868095Y-113392380D01*
X57487142Y-113392380D01*
X57391904Y-113440000D01*
X57344285Y-113487619D01*
X57296666Y-113582857D01*
X57296666Y-113725714D01*
X57344285Y-113820952D01*
X57391904Y-113868571D01*
X57487142Y-113916190D01*
X57868095Y-113916190D01*
X56963333Y-113392380D02*
X56296666Y-113392380D01*
X56725238Y-114392380D01*
X57842857Y-104852380D02*
X58176190Y-104376190D01*
X58414285Y-104852380D02*
X58414285Y-103852380D01*
X58033333Y-103852380D01*
X57938095Y-103900000D01*
X57890476Y-103947619D01*
X57842857Y-104042857D01*
X57842857Y-104185714D01*
X57890476Y-104280952D01*
X57938095Y-104328571D01*
X58033333Y-104376190D01*
X58414285Y-104376190D01*
X56890476Y-104852380D02*
X57461904Y-104852380D01*
X57176190Y-104852380D02*
X57176190Y-103852380D01*
X57271428Y-103995238D01*
X57366666Y-104090476D01*
X57461904Y-104138095D01*
X56271428Y-103852380D02*
X56176190Y-103852380D01*
X56080952Y-103900000D01*
X56033333Y-103947619D01*
X55985714Y-104042857D01*
X55938095Y-104233333D01*
X55938095Y-104471428D01*
X55985714Y-104661904D01*
X56033333Y-104757142D01*
X56080952Y-104804761D01*
X56176190Y-104852380D01*
X56271428Y-104852380D01*
X56366666Y-104804761D01*
X56414285Y-104757142D01*
X56461904Y-104661904D01*
X56509523Y-104471428D01*
X56509523Y-104233333D01*
X56461904Y-104042857D01*
X56414285Y-103947619D01*
X56366666Y-103900000D01*
X56271428Y-103852380D01*
X57882857Y-111162380D02*
X58216190Y-110686190D01*
X58454285Y-111162380D02*
X58454285Y-110162380D01*
X58073333Y-110162380D01*
X57978095Y-110210000D01*
X57930476Y-110257619D01*
X57882857Y-110352857D01*
X57882857Y-110495714D01*
X57930476Y-110590952D01*
X57978095Y-110638571D01*
X58073333Y-110686190D01*
X58454285Y-110686190D01*
X56930476Y-111162380D02*
X57501904Y-111162380D01*
X57216190Y-111162380D02*
X57216190Y-110162380D01*
X57311428Y-110305238D01*
X57406666Y-110400476D01*
X57501904Y-110448095D01*
X56597142Y-110162380D02*
X55978095Y-110162380D01*
X56311428Y-110543333D01*
X56168571Y-110543333D01*
X56073333Y-110590952D01*
X56025714Y-110638571D01*
X55978095Y-110733809D01*
X55978095Y-110971904D01*
X56025714Y-111067142D01*
X56073333Y-111114761D01*
X56168571Y-111162380D01*
X56454285Y-111162380D01*
X56549523Y-111114761D01*
X56597142Y-111067142D01*
X57842857Y-107852380D02*
X58176190Y-107376190D01*
X58414285Y-107852380D02*
X58414285Y-106852380D01*
X58033333Y-106852380D01*
X57938095Y-106900000D01*
X57890476Y-106947619D01*
X57842857Y-107042857D01*
X57842857Y-107185714D01*
X57890476Y-107280952D01*
X57938095Y-107328571D01*
X58033333Y-107376190D01*
X58414285Y-107376190D01*
X56890476Y-107852380D02*
X57461904Y-107852380D01*
X57176190Y-107852380D02*
X57176190Y-106852380D01*
X57271428Y-106995238D01*
X57366666Y-107090476D01*
X57461904Y-107138095D01*
X56033333Y-106852380D02*
X56223809Y-106852380D01*
X56319047Y-106900000D01*
X56366666Y-106947619D01*
X56461904Y-107090476D01*
X56509523Y-107280952D01*
X56509523Y-107661904D01*
X56461904Y-107757142D01*
X56414285Y-107804761D01*
X56319047Y-107852380D01*
X56128571Y-107852380D01*
X56033333Y-107804761D01*
X55985714Y-107757142D01*
X55938095Y-107661904D01*
X55938095Y-107423809D01*
X55985714Y-107328571D01*
X56033333Y-107280952D01*
X56128571Y-107233333D01*
X56319047Y-107233333D01*
X56414285Y-107280952D01*
X56461904Y-107328571D01*
X56509523Y-107423809D01*
X113372857Y-111222380D02*
X113706190Y-110746190D01*
X113944285Y-111222380D02*
X113944285Y-110222380D01*
X113563333Y-110222380D01*
X113468095Y-110270000D01*
X113420476Y-110317619D01*
X113372857Y-110412857D01*
X113372857Y-110555714D01*
X113420476Y-110650952D01*
X113468095Y-110698571D01*
X113563333Y-110746190D01*
X113944285Y-110746190D01*
X112420476Y-111222380D02*
X112991904Y-111222380D01*
X112706190Y-111222380D02*
X112706190Y-110222380D01*
X112801428Y-110365238D01*
X112896666Y-110460476D01*
X112991904Y-110508095D01*
X111563333Y-110555714D02*
X111563333Y-111222380D01*
X111801428Y-110174761D02*
X112039523Y-110889047D01*
X111420476Y-110889047D01*
X86396666Y-91057142D02*
X86444285Y-91104761D01*
X86587142Y-91152380D01*
X86682380Y-91152380D01*
X86825238Y-91104761D01*
X86920476Y-91009523D01*
X86968095Y-90914285D01*
X87015714Y-90723809D01*
X87015714Y-90580952D01*
X86968095Y-90390476D01*
X86920476Y-90295238D01*
X86825238Y-90200000D01*
X86682380Y-90152380D01*
X86587142Y-90152380D01*
X86444285Y-90200000D01*
X86396666Y-90247619D01*
X85444285Y-91152380D02*
X86015714Y-91152380D01*
X85730000Y-91152380D02*
X85730000Y-90152380D01*
X85825238Y-90295238D01*
X85920476Y-90390476D01*
X86015714Y-90438095D01*
X68666666Y-99907142D02*
X68714285Y-99954761D01*
X68857142Y-100002380D01*
X68952380Y-100002380D01*
X69095238Y-99954761D01*
X69190476Y-99859523D01*
X69238095Y-99764285D01*
X69285714Y-99573809D01*
X69285714Y-99430952D01*
X69238095Y-99240476D01*
X69190476Y-99145238D01*
X69095238Y-99050000D01*
X68952380Y-99002380D01*
X68857142Y-99002380D01*
X68714285Y-99050000D01*
X68666666Y-99097619D01*
X67761904Y-99002380D02*
X68238095Y-99002380D01*
X68285714Y-99478571D01*
X68238095Y-99430952D01*
X68142857Y-99383333D01*
X67904761Y-99383333D01*
X67809523Y-99430952D01*
X67761904Y-99478571D01*
X67714285Y-99573809D01*
X67714285Y-99811904D01*
X67761904Y-99907142D01*
X67809523Y-99954761D01*
X67904761Y-100002380D01*
X68142857Y-100002380D01*
X68238095Y-99954761D01*
X68285714Y-99907142D01*
X124166666Y-100057142D02*
X124214285Y-100104761D01*
X124357142Y-100152380D01*
X124452380Y-100152380D01*
X124595238Y-100104761D01*
X124690476Y-100009523D01*
X124738095Y-99914285D01*
X124785714Y-99723809D01*
X124785714Y-99580952D01*
X124738095Y-99390476D01*
X124690476Y-99295238D01*
X124595238Y-99200000D01*
X124452380Y-99152380D01*
X124357142Y-99152380D01*
X124214285Y-99200000D01*
X124166666Y-99247619D01*
X123833333Y-99152380D02*
X123166666Y-99152380D01*
X123595238Y-100152380D01*
X124066666Y-113507142D02*
X124114285Y-113554761D01*
X124257142Y-113602380D01*
X124352380Y-113602380D01*
X124495238Y-113554761D01*
X124590476Y-113459523D01*
X124638095Y-113364285D01*
X124685714Y-113173809D01*
X124685714Y-113030952D01*
X124638095Y-112840476D01*
X124590476Y-112745238D01*
X124495238Y-112650000D01*
X124352380Y-112602380D01*
X124257142Y-112602380D01*
X124114285Y-112650000D01*
X124066666Y-112697619D01*
X123209523Y-112602380D02*
X123400000Y-112602380D01*
X123495238Y-112650000D01*
X123542857Y-112697619D01*
X123638095Y-112840476D01*
X123685714Y-113030952D01*
X123685714Y-113411904D01*
X123638095Y-113507142D01*
X123590476Y-113554761D01*
X123495238Y-113602380D01*
X123304761Y-113602380D01*
X123209523Y-113554761D01*
X123161904Y-113507142D01*
X123114285Y-113411904D01*
X123114285Y-113173809D01*
X123161904Y-113078571D01*
X123209523Y-113030952D01*
X123304761Y-112983333D01*
X123495238Y-112983333D01*
X123590476Y-113030952D01*
X123638095Y-113078571D01*
X123685714Y-113173809D01*
X68466666Y-113607142D02*
X68514285Y-113654761D01*
X68657142Y-113702380D01*
X68752380Y-113702380D01*
X68895238Y-113654761D01*
X68990476Y-113559523D01*
X69038095Y-113464285D01*
X69085714Y-113273809D01*
X69085714Y-113130952D01*
X69038095Y-112940476D01*
X68990476Y-112845238D01*
X68895238Y-112750000D01*
X68752380Y-112702380D01*
X68657142Y-112702380D01*
X68514285Y-112750000D01*
X68466666Y-112797619D01*
X67609523Y-113035714D02*
X67609523Y-113702380D01*
X67847619Y-112654761D02*
X68085714Y-113369047D01*
X67466666Y-113369047D01*
X135852857Y-111172380D02*
X136186190Y-110696190D01*
X136424285Y-111172380D02*
X136424285Y-110172380D01*
X136043333Y-110172380D01*
X135948095Y-110220000D01*
X135900476Y-110267619D01*
X135852857Y-110362857D01*
X135852857Y-110505714D01*
X135900476Y-110600952D01*
X135948095Y-110648571D01*
X136043333Y-110696190D01*
X136424285Y-110696190D01*
X134995714Y-110505714D02*
X134995714Y-111172380D01*
X135233809Y-110124761D02*
X135471904Y-110839047D01*
X134852857Y-110839047D01*
X134329047Y-110600952D02*
X134424285Y-110553333D01*
X134471904Y-110505714D01*
X134519523Y-110410476D01*
X134519523Y-110362857D01*
X134471904Y-110267619D01*
X134424285Y-110220000D01*
X134329047Y-110172380D01*
X134138571Y-110172380D01*
X134043333Y-110220000D01*
X133995714Y-110267619D01*
X133948095Y-110362857D01*
X133948095Y-110410476D01*
X133995714Y-110505714D01*
X134043333Y-110553333D01*
X134138571Y-110600952D01*
X134329047Y-110600952D01*
X134424285Y-110648571D01*
X134471904Y-110696190D01*
X134519523Y-110791428D01*
X134519523Y-110981904D01*
X134471904Y-111077142D01*
X134424285Y-111124761D01*
X134329047Y-111172380D01*
X134138571Y-111172380D01*
X134043333Y-111124761D01*
X133995714Y-111077142D01*
X133948095Y-110981904D01*
X133948095Y-110791428D01*
X133995714Y-110696190D01*
X134043333Y-110648571D01*
X134138571Y-110600952D01*
X69081904Y-108902380D02*
X69081904Y-109711904D01*
X69034285Y-109807142D01*
X68986666Y-109854761D01*
X68891428Y-109902380D01*
X68700952Y-109902380D01*
X68605714Y-109854761D01*
X68558095Y-109807142D01*
X68510476Y-109711904D01*
X68510476Y-108902380D01*
X67510476Y-109902380D02*
X68081904Y-109902380D01*
X67796190Y-109902380D02*
X67796190Y-108902380D01*
X67891428Y-109045238D01*
X67986666Y-109140476D01*
X68081904Y-109188095D01*
X138202857Y-117342380D02*
X138536190Y-116866190D01*
X138774285Y-117342380D02*
X138774285Y-116342380D01*
X138393333Y-116342380D01*
X138298095Y-116390000D01*
X138250476Y-116437619D01*
X138202857Y-116532857D01*
X138202857Y-116675714D01*
X138250476Y-116770952D01*
X138298095Y-116818571D01*
X138393333Y-116866190D01*
X138774285Y-116866190D01*
X137345714Y-116675714D02*
X137345714Y-117342380D01*
X137583809Y-116294761D02*
X137821904Y-117009047D01*
X137202857Y-117009047D01*
X136345714Y-116342380D02*
X136821904Y-116342380D01*
X136869523Y-116818571D01*
X136821904Y-116770952D01*
X136726666Y-116723333D01*
X136488571Y-116723333D01*
X136393333Y-116770952D01*
X136345714Y-116818571D01*
X136298095Y-116913809D01*
X136298095Y-117151904D01*
X136345714Y-117247142D01*
X136393333Y-117294761D01*
X136488571Y-117342380D01*
X136726666Y-117342380D01*
X136821904Y-117294761D01*
X136869523Y-117247142D01*
X96311904Y-89522380D02*
X96311904Y-90331904D01*
X96264285Y-90427142D01*
X96216666Y-90474761D01*
X96121428Y-90522380D01*
X95930952Y-90522380D01*
X95835714Y-90474761D01*
X95788095Y-90427142D01*
X95740476Y-90331904D01*
X95740476Y-89522380D01*
X95359523Y-89522380D02*
X94692857Y-89522380D01*
X95121428Y-90522380D01*
X82462857Y-117492380D02*
X82796190Y-117016190D01*
X83034285Y-117492380D02*
X83034285Y-116492380D01*
X82653333Y-116492380D01*
X82558095Y-116540000D01*
X82510476Y-116587619D01*
X82462857Y-116682857D01*
X82462857Y-116825714D01*
X82510476Y-116920952D01*
X82558095Y-116968571D01*
X82653333Y-117016190D01*
X83034285Y-117016190D01*
X81605714Y-116825714D02*
X81605714Y-117492380D01*
X81843809Y-116444761D02*
X82081904Y-117159047D01*
X81462857Y-117159047D01*
X80653333Y-116825714D02*
X80653333Y-117492380D01*
X80891428Y-116444761D02*
X81129523Y-117159047D01*
X80510476Y-117159047D01*
X80302857Y-111202380D02*
X80636190Y-110726190D01*
X80874285Y-111202380D02*
X80874285Y-110202380D01*
X80493333Y-110202380D01*
X80398095Y-110250000D01*
X80350476Y-110297619D01*
X80302857Y-110392857D01*
X80302857Y-110535714D01*
X80350476Y-110630952D01*
X80398095Y-110678571D01*
X80493333Y-110726190D01*
X80874285Y-110726190D01*
X79445714Y-110535714D02*
X79445714Y-111202380D01*
X79683809Y-110154761D02*
X79921904Y-110869047D01*
X79302857Y-110869047D01*
X79017142Y-110202380D02*
X78350476Y-110202380D01*
X78779047Y-111202380D01*
X105196666Y-90957142D02*
X105244285Y-91004761D01*
X105387142Y-91052380D01*
X105482380Y-91052380D01*
X105625238Y-91004761D01*
X105720476Y-90909523D01*
X105768095Y-90814285D01*
X105815714Y-90623809D01*
X105815714Y-90480952D01*
X105768095Y-90290476D01*
X105720476Y-90195238D01*
X105625238Y-90100000D01*
X105482380Y-90052380D01*
X105387142Y-90052380D01*
X105244285Y-90100000D01*
X105196666Y-90147619D01*
X104815714Y-90147619D02*
X104768095Y-90100000D01*
X104672857Y-90052380D01*
X104434761Y-90052380D01*
X104339523Y-90100000D01*
X104291904Y-90147619D01*
X104244285Y-90242857D01*
X104244285Y-90338095D01*
X104291904Y-90480952D01*
X104863333Y-91052380D01*
X104244285Y-91052380D01*
X124911904Y-108952380D02*
X124911904Y-109761904D01*
X124864285Y-109857142D01*
X124816666Y-109904761D01*
X124721428Y-109952380D01*
X124530952Y-109952380D01*
X124435714Y-109904761D01*
X124388095Y-109857142D01*
X124340476Y-109761904D01*
X124340476Y-108952380D01*
X123911904Y-109047619D02*
X123864285Y-109000000D01*
X123769047Y-108952380D01*
X123530952Y-108952380D01*
X123435714Y-109000000D01*
X123388095Y-109047619D01*
X123340476Y-109142857D01*
X123340476Y-109238095D01*
X123388095Y-109380952D01*
X123959523Y-109952380D01*
X123340476Y-109952380D01*
X41873333Y-133712380D02*
X41873333Y-134426666D01*
X41920952Y-134569523D01*
X42016190Y-134664761D01*
X42159047Y-134712380D01*
X42254285Y-134712380D01*
X41492380Y-133712380D02*
X40825714Y-133712380D01*
X41254285Y-134712380D01*
X113482857Y-104982380D02*
X113816190Y-104506190D01*
X114054285Y-104982380D02*
X114054285Y-103982380D01*
X113673333Y-103982380D01*
X113578095Y-104030000D01*
X113530476Y-104077619D01*
X113482857Y-104172857D01*
X113482857Y-104315714D01*
X113530476Y-104410952D01*
X113578095Y-104458571D01*
X113673333Y-104506190D01*
X114054285Y-104506190D01*
X112530476Y-104982380D02*
X113101904Y-104982380D01*
X112816190Y-104982380D02*
X112816190Y-103982380D01*
X112911428Y-104125238D01*
X113006666Y-104220476D01*
X113101904Y-104268095D01*
X111578095Y-104982380D02*
X112149523Y-104982380D01*
X111863809Y-104982380D02*
X111863809Y-103982380D01*
X111959047Y-104125238D01*
X112054285Y-104220476D01*
X112149523Y-104268095D01*
X113562857Y-108112380D02*
X113896190Y-107636190D01*
X114134285Y-108112380D02*
X114134285Y-107112380D01*
X113753333Y-107112380D01*
X113658095Y-107160000D01*
X113610476Y-107207619D01*
X113562857Y-107302857D01*
X113562857Y-107445714D01*
X113610476Y-107540952D01*
X113658095Y-107588571D01*
X113753333Y-107636190D01*
X114134285Y-107636190D01*
X112610476Y-108112380D02*
X113181904Y-108112380D01*
X112896190Y-108112380D02*
X112896190Y-107112380D01*
X112991428Y-107255238D01*
X113086666Y-107350476D01*
X113181904Y-107398095D01*
X112277142Y-107112380D02*
X111610476Y-107112380D01*
X112039047Y-108112380D01*
X80392857Y-105002380D02*
X80726190Y-104526190D01*
X80964285Y-105002380D02*
X80964285Y-104002380D01*
X80583333Y-104002380D01*
X80488095Y-104050000D01*
X80440476Y-104097619D01*
X80392857Y-104192857D01*
X80392857Y-104335714D01*
X80440476Y-104430952D01*
X80488095Y-104478571D01*
X80583333Y-104526190D01*
X80964285Y-104526190D01*
X80059523Y-104002380D02*
X79440476Y-104002380D01*
X79773809Y-104383333D01*
X79630952Y-104383333D01*
X79535714Y-104430952D01*
X79488095Y-104478571D01*
X79440476Y-104573809D01*
X79440476Y-104811904D01*
X79488095Y-104907142D01*
X79535714Y-104954761D01*
X79630952Y-105002380D01*
X79916666Y-105002380D01*
X80011904Y-104954761D01*
X80059523Y-104907142D01*
X78583333Y-104335714D02*
X78583333Y-105002380D01*
X78821428Y-103954761D02*
X79059523Y-104669047D01*
X78440476Y-104669047D01*
X135822857Y-104982380D02*
X136156190Y-104506190D01*
X136394285Y-104982380D02*
X136394285Y-103982380D01*
X136013333Y-103982380D01*
X135918095Y-104030000D01*
X135870476Y-104077619D01*
X135822857Y-104172857D01*
X135822857Y-104315714D01*
X135870476Y-104410952D01*
X135918095Y-104458571D01*
X136013333Y-104506190D01*
X136394285Y-104506190D01*
X135489523Y-103982380D02*
X134870476Y-103982380D01*
X135203809Y-104363333D01*
X135060952Y-104363333D01*
X134965714Y-104410952D01*
X134918095Y-104458571D01*
X134870476Y-104553809D01*
X134870476Y-104791904D01*
X134918095Y-104887142D01*
X134965714Y-104934761D01*
X135060952Y-104982380D01*
X135346666Y-104982380D01*
X135441904Y-104934761D01*
X135489523Y-104887142D01*
X133965714Y-103982380D02*
X134441904Y-103982380D01*
X134489523Y-104458571D01*
X134441904Y-104410952D01*
X134346666Y-104363333D01*
X134108571Y-104363333D01*
X134013333Y-104410952D01*
X133965714Y-104458571D01*
X133918095Y-104553809D01*
X133918095Y-104791904D01*
X133965714Y-104887142D01*
X134013333Y-104934761D01*
X134108571Y-104982380D01*
X134346666Y-104982380D01*
X134441904Y-104934761D01*
X134489523Y-104887142D01*
X80432857Y-101892380D02*
X80766190Y-101416190D01*
X81004285Y-101892380D02*
X81004285Y-100892380D01*
X80623333Y-100892380D01*
X80528095Y-100940000D01*
X80480476Y-100987619D01*
X80432857Y-101082857D01*
X80432857Y-101225714D01*
X80480476Y-101320952D01*
X80528095Y-101368571D01*
X80623333Y-101416190D01*
X81004285Y-101416190D01*
X79575714Y-101225714D02*
X79575714Y-101892380D01*
X79813809Y-100844761D02*
X80051904Y-101559047D01*
X79432857Y-101559047D01*
X78861428Y-100892380D02*
X78766190Y-100892380D01*
X78670952Y-100940000D01*
X78623333Y-100987619D01*
X78575714Y-101082857D01*
X78528095Y-101273333D01*
X78528095Y-101511428D01*
X78575714Y-101701904D01*
X78623333Y-101797142D01*
X78670952Y-101844761D01*
X78766190Y-101892380D01*
X78861428Y-101892380D01*
X78956666Y-101844761D01*
X79004285Y-101797142D01*
X79051904Y-101701904D01*
X79099523Y-101511428D01*
X79099523Y-101273333D01*
X79051904Y-101082857D01*
X79004285Y-100987619D01*
X78956666Y-100940000D01*
X78861428Y-100892380D01*
X135842857Y-101882380D02*
X136176190Y-101406190D01*
X136414285Y-101882380D02*
X136414285Y-100882380D01*
X136033333Y-100882380D01*
X135938095Y-100930000D01*
X135890476Y-100977619D01*
X135842857Y-101072857D01*
X135842857Y-101215714D01*
X135890476Y-101310952D01*
X135938095Y-101358571D01*
X136033333Y-101406190D01*
X136414285Y-101406190D01*
X134985714Y-101215714D02*
X134985714Y-101882380D01*
X135223809Y-100834761D02*
X135461904Y-101549047D01*
X134842857Y-101549047D01*
X133938095Y-101882380D02*
X134509523Y-101882380D01*
X134223809Y-101882380D02*
X134223809Y-100882380D01*
X134319047Y-101025238D01*
X134414285Y-101120476D01*
X134509523Y-101168095D01*
M02*
