G04 #@! TF.GenerationSoftware,KiCad,Pcbnew,(6.0.1)*
G04 #@! TF.CreationDate,2022-08-06T04:56:39-07:00*
G04 #@! TF.ProjectId,PBJ_EU,50424a5f-4555-42e6-9b69-6361645f7063,4.10*
G04 #@! TF.SameCoordinates,Original*
G04 #@! TF.FileFunction,Soldermask,Top*
G04 #@! TF.FilePolarity,Negative*
%FSLAX46Y46*%
G04 Gerber Fmt 4.6, Leading zero omitted, Abs format (unit mm)*
G04 Created by KiCad (PCBNEW (6.0.1)) date 2022-08-06 04:56:39*
%MOMM*%
%LPD*%
G01*
G04 APERTURE LIST*
G04 Aperture macros list*
%AMRoundRect*
0 Rectangle with rounded corners*
0 $1 Rounding radius*
0 $2 $3 $4 $5 $6 $7 $8 $9 X,Y pos of 4 corners*
0 Add a 4 corners polygon primitive as box body*
4,1,4,$2,$3,$4,$5,$6,$7,$8,$9,$2,$3,0*
0 Add four circle primitives for the rounded corners*
1,1,$1+$1,$2,$3*
1,1,$1+$1,$4,$5*
1,1,$1+$1,$6,$7*
1,1,$1+$1,$8,$9*
0 Add four rect primitives between the rounded corners*
20,1,$1+$1,$2,$3,$4,$5,0*
20,1,$1+$1,$4,$5,$6,$7,0*
20,1,$1+$1,$6,$7,$8,$9,0*
20,1,$1+$1,$8,$9,$2,$3,0*%
G04 Aperture macros list end*
%ADD10O,3.602000X3.602000*%
%ADD11RoundRect,0.051000X-1.000000X0.952500X-1.000000X-0.952500X1.000000X-0.952500X1.000000X0.952500X0*%
%ADD12O,2.102000X2.007000*%
%ADD13RoundRect,0.051000X-0.900000X-0.900000X0.900000X-0.900000X0.900000X0.900000X-0.900000X0.900000X0*%
%ADD14C,1.902000*%
%ADD15C,5.102000*%
%ADD16C,2.902000*%
%ADD17C,2.352000*%
%ADD18O,2.702000X1.702000*%
%ADD19C,1.702000*%
%ADD20O,3.602000X2.302000*%
%ADD21RoundRect,0.051000X-1.250000X0.750000X-1.250000X-0.750000X1.250000X-0.750000X1.250000X0.750000X0*%
%ADD22O,2.602000X1.602000*%
%ADD23RoundRect,0.051000X0.850000X-0.850000X0.850000X0.850000X-0.850000X0.850000X-0.850000X-0.850000X0*%
%ADD24O,1.802000X1.802000*%
%ADD25RoundRect,0.051000X0.850000X0.850000X-0.850000X0.850000X-0.850000X-0.850000X0.850000X-0.850000X0*%
%ADD26C,3.102000*%
%ADD27RoundRect,0.051000X-0.800000X-0.800000X0.800000X-0.800000X0.800000X0.800000X-0.800000X0.800000X0*%
%ADD28O,1.702000X1.702000*%
G04 APERTURE END LIST*
D10*
X55526800Y-85242400D03*
D11*
X72186800Y-82702400D03*
D12*
X72186800Y-85242400D03*
X72186800Y-87782400D03*
D13*
X135150000Y-148000000D03*
D14*
X137690000Y-148000000D03*
D13*
X140050000Y-148000000D03*
D14*
X142590000Y-148000000D03*
D13*
X42920000Y-123000000D03*
D14*
X45460000Y-123000000D03*
D15*
X47500000Y-155500000D03*
X144020000Y-155500000D03*
X144020000Y-33000000D03*
X47500000Y-33000000D03*
D16*
X75000000Y-147500000D03*
X129870000Y-147500000D03*
X55500000Y-155500000D03*
X67500000Y-155500000D03*
X123000000Y-155500000D03*
X135000000Y-155500000D03*
X46400000Y-147500000D03*
D17*
X80020000Y-141600000D03*
X88920000Y-141600000D03*
X82170000Y-140100000D03*
X86620000Y-140100000D03*
D18*
X87760000Y-144150000D03*
D19*
X81080000Y-144150000D03*
D17*
X50520000Y-141600000D03*
X59420000Y-141600000D03*
X52670000Y-140100000D03*
X57120000Y-140100000D03*
D18*
X58260000Y-144150000D03*
D19*
X51580000Y-144150000D03*
D13*
X85300000Y-148000000D03*
D14*
X87840000Y-148000000D03*
D13*
X55900000Y-148000000D03*
D14*
X58440000Y-148000000D03*
D13*
X80450000Y-148000000D03*
D14*
X82990000Y-148000000D03*
D13*
X51000000Y-148000000D03*
D14*
X53540000Y-148000000D03*
D20*
X69250000Y-138500000D03*
X69250000Y-146700000D03*
D21*
X69250000Y-140600000D03*
D22*
X69250000Y-142600000D03*
X69250000Y-144600000D03*
D16*
X101270000Y-147500000D03*
D17*
X105320000Y-141600000D03*
X114220000Y-141600000D03*
X107470000Y-140100000D03*
X111920000Y-140100000D03*
D18*
X113060000Y-144150000D03*
D19*
X106380000Y-144150000D03*
D17*
X134470000Y-141600000D03*
X143370000Y-141600000D03*
X136620000Y-140100000D03*
X141070000Y-140100000D03*
D18*
X142210000Y-144150000D03*
D19*
X135530000Y-144150000D03*
D13*
X110850000Y-148000000D03*
D14*
X113390000Y-148000000D03*
D13*
X105950000Y-148000000D03*
D14*
X108490000Y-148000000D03*
D20*
X124100000Y-138500000D03*
X124100000Y-146700000D03*
D21*
X124100000Y-140600000D03*
D22*
X124100000Y-142600000D03*
X124100000Y-144600000D03*
D23*
X86800000Y-125540000D03*
D24*
X86800000Y-123000000D03*
X89340000Y-125540000D03*
X89340000Y-123000000D03*
X91880000Y-125540000D03*
X91880000Y-123000000D03*
X94420000Y-125540000D03*
X94420000Y-123000000D03*
X96960000Y-125540000D03*
X96960000Y-123000000D03*
X99500000Y-125540000D03*
X99500000Y-123000000D03*
X102040000Y-125540000D03*
X102040000Y-123000000D03*
X104580000Y-125540000D03*
X104580000Y-123000000D03*
D25*
X142330000Y-133750000D03*
D24*
X139790000Y-133750000D03*
X142330000Y-131210000D03*
X139790000Y-131210000D03*
X142330000Y-128670000D03*
X139790000Y-128670000D03*
X142330000Y-126130000D03*
X139790000Y-126130000D03*
X142330000Y-123590000D03*
X139790000Y-123590000D03*
D26*
X60650000Y-132310000D03*
X60650000Y-124690000D03*
X73350000Y-124690000D03*
X67000000Y-124690000D03*
X73350000Y-132310000D03*
X67000000Y-132310000D03*
D27*
X76352400Y-76911200D03*
D19*
X81352400Y-76911200D03*
X42920000Y-118000000D03*
D28*
X42920000Y-107840000D03*
D27*
X64510000Y-110200000D03*
D28*
X64510000Y-107660000D03*
X64510000Y-105120000D03*
X64510000Y-102580000D03*
X72130000Y-102580000D03*
X72130000Y-105120000D03*
X72130000Y-107660000D03*
X72130000Y-110200000D03*
D19*
X74610000Y-110800000D03*
D28*
X84770000Y-110800000D03*
D19*
X76820000Y-117090000D03*
D28*
X86980000Y-117090000D03*
D19*
X74610000Y-107670000D03*
D28*
X84770000Y-107670000D03*
D19*
X52040000Y-117080000D03*
D28*
X62200000Y-117080000D03*
D19*
X62250000Y-107600000D03*
D28*
X52090000Y-107600000D03*
D19*
X52080000Y-113890000D03*
D28*
X62240000Y-113890000D03*
D19*
X74600000Y-117080000D03*
D28*
X64440000Y-117080000D03*
D19*
X52100000Y-104500000D03*
D28*
X62260000Y-104500000D03*
D19*
X62240000Y-110710000D03*
D28*
X52080000Y-110710000D03*
D19*
X126450000Y-113250000D03*
X121450000Y-113250000D03*
X70800000Y-113200000D03*
X65800000Y-113200000D03*
X126400000Y-99550000D03*
X121400000Y-99550000D03*
X130130000Y-110770000D03*
D28*
X140290000Y-110770000D03*
D19*
X132410000Y-116940000D03*
D28*
X142570000Y-116940000D03*
D19*
X140280000Y-113870000D03*
D28*
X130120000Y-113870000D03*
D19*
X107630000Y-113800000D03*
D28*
X117790000Y-113800000D03*
D19*
X130130000Y-107660000D03*
D28*
X140290000Y-107660000D03*
D19*
X117780000Y-110720000D03*
D28*
X107620000Y-110720000D03*
D19*
X107610000Y-116940000D03*
D28*
X117770000Y-116940000D03*
D19*
X130220000Y-116940000D03*
D28*
X120060000Y-116940000D03*
D27*
X76301600Y-93929200D03*
D19*
X81301600Y-93929200D03*
X84790000Y-113930000D03*
D28*
X74630000Y-113930000D03*
D27*
X120210000Y-110200000D03*
D28*
X120210000Y-107660000D03*
X120210000Y-105120000D03*
X120210000Y-102580000D03*
X127830000Y-102580000D03*
X127830000Y-105120000D03*
X127830000Y-107660000D03*
X127830000Y-110200000D03*
D19*
X71050000Y-99600000D03*
X66050000Y-99600000D03*
D25*
X46880000Y-128710000D03*
D24*
X44340000Y-128710000D03*
X46880000Y-131250000D03*
X44340000Y-131250000D03*
X46880000Y-133790000D03*
X44340000Y-133790000D03*
X46880000Y-136330000D03*
X44340000Y-136330000D03*
X46880000Y-138870000D03*
X44340000Y-138870000D03*
D19*
X107600000Y-104550000D03*
D28*
X117760000Y-104550000D03*
D19*
X117770000Y-107650000D03*
D28*
X107610000Y-107650000D03*
D19*
X140290000Y-104570000D03*
D28*
X130130000Y-104570000D03*
D19*
X74640000Y-101430000D03*
D28*
X84800000Y-101430000D03*
D19*
X84760000Y-104570000D03*
D28*
X74600000Y-104570000D03*
D19*
X130120000Y-101470000D03*
D28*
X140280000Y-101470000D03*
D19*
X62230000Y-98044000D03*
D28*
X52070000Y-98044000D03*
D19*
X117856000Y-98044000D03*
D28*
X107696000Y-98044000D03*
D19*
X62230000Y-101346000D03*
D28*
X52070000Y-101346000D03*
D19*
X117770000Y-101346000D03*
D28*
X107610000Y-101346000D03*
D19*
X76301600Y-82702400D03*
X81301600Y-82702400D03*
X76301600Y-87782400D03*
X81301600Y-87782400D03*
G36*
X68562123Y-145376585D02*
G01*
X68738947Y-145398923D01*
X68750014Y-145399000D01*
X69749884Y-145399000D01*
X69927015Y-145379132D01*
X70081776Y-145325238D01*
X70083741Y-145325613D01*
X70084399Y-145327502D01*
X70083434Y-145328859D01*
X70066871Y-145338422D01*
X70067368Y-145339284D01*
X70067368Y-145341284D01*
X70066765Y-145341935D01*
X70025695Y-145370021D01*
X69998739Y-145433816D01*
X70010553Y-145502062D01*
X70057469Y-145553174D01*
X70091640Y-145566562D01*
X70092887Y-145568125D01*
X70092158Y-145569987D01*
X70090675Y-145570410D01*
X69930002Y-145551393D01*
X69899974Y-145551000D01*
X68600096Y-145551000D01*
X68396221Y-145569734D01*
X68394405Y-145568896D01*
X68394222Y-145566905D01*
X68395510Y-145565813D01*
X68403673Y-145563580D01*
X68462876Y-145527067D01*
X68492811Y-145464612D01*
X68484229Y-145395887D01*
X68439684Y-145342509D01*
X68432961Y-145338325D01*
X68411742Y-145326074D01*
X68410742Y-145324342D01*
X68411742Y-145322610D01*
X68413426Y-145322463D01*
X68562123Y-145376585D01*
G37*
G36*
X123412123Y-145376585D02*
G01*
X123588947Y-145398923D01*
X123600014Y-145399000D01*
X124599884Y-145399000D01*
X124777015Y-145379132D01*
X124931776Y-145325238D01*
X124933741Y-145325613D01*
X124934399Y-145327502D01*
X124933434Y-145328859D01*
X124916871Y-145338422D01*
X124917368Y-145339284D01*
X124917368Y-145341284D01*
X124916765Y-145341935D01*
X124875695Y-145370021D01*
X124848739Y-145433816D01*
X124860553Y-145502062D01*
X124907469Y-145553174D01*
X124941640Y-145566562D01*
X124942887Y-145568125D01*
X124942158Y-145569987D01*
X124940675Y-145570410D01*
X124780002Y-145551393D01*
X124749974Y-145551000D01*
X123450096Y-145551000D01*
X123246221Y-145569734D01*
X123244405Y-145568896D01*
X123244222Y-145566905D01*
X123245510Y-145565813D01*
X123253673Y-145563580D01*
X123312876Y-145527067D01*
X123342811Y-145464612D01*
X123334229Y-145395887D01*
X123289684Y-145342509D01*
X123282961Y-145338325D01*
X123261742Y-145326074D01*
X123260742Y-145324342D01*
X123261742Y-145322610D01*
X123263426Y-145322463D01*
X123412123Y-145376585D01*
G37*
G36*
X125184988Y-139562337D02*
G01*
X125185873Y-139564131D01*
X125185212Y-139565489D01*
X125136344Y-139609281D01*
X125117941Y-139676050D01*
X125138558Y-139742167D01*
X125191713Y-139786697D01*
X125241248Y-139797042D01*
X125242739Y-139798375D01*
X125242330Y-139800333D01*
X125240839Y-139801000D01*
X122962948Y-139801000D01*
X122961216Y-139800000D01*
X122961216Y-139798000D01*
X122962385Y-139797081D01*
X123029397Y-139777405D01*
X123074752Y-139725062D01*
X123084609Y-139656509D01*
X123055816Y-139593462D01*
X123021750Y-139569168D01*
X123020920Y-139567349D01*
X123022081Y-139565720D01*
X123023504Y-139565630D01*
X123211112Y-139623884D01*
X123419998Y-139648607D01*
X123450026Y-139649000D01*
X124749904Y-139649000D01*
X124959388Y-139629751D01*
X125161761Y-139572676D01*
X125182992Y-139562206D01*
X125184988Y-139562337D01*
G37*
G36*
X70334988Y-139562337D02*
G01*
X70335873Y-139564131D01*
X70335212Y-139565489D01*
X70286344Y-139609281D01*
X70267941Y-139676050D01*
X70288558Y-139742167D01*
X70341713Y-139786697D01*
X70391248Y-139797042D01*
X70392739Y-139798375D01*
X70392330Y-139800333D01*
X70390839Y-139801000D01*
X68112948Y-139801000D01*
X68111216Y-139800000D01*
X68111216Y-139798000D01*
X68112385Y-139797081D01*
X68179397Y-139777405D01*
X68224752Y-139725062D01*
X68234609Y-139656509D01*
X68205816Y-139593462D01*
X68171750Y-139569168D01*
X68170920Y-139567349D01*
X68172081Y-139565720D01*
X68173504Y-139565630D01*
X68361112Y-139623884D01*
X68569998Y-139648607D01*
X68600026Y-139649000D01*
X69899904Y-139649000D01*
X70109388Y-139629751D01*
X70311761Y-139572676D01*
X70332992Y-139562206D01*
X70334988Y-139562337D01*
G37*
M02*
